G04 #@! TF.GenerationSoftware,KiCad,Pcbnew,(5.1.5)-3*
G04 #@! TF.CreationDate,2020-07-16T22:53:37-05:00*
G04 #@! TF.ProjectId,pcb,7063622e-6b69-4636-9164-5f7063625858,rev?*
G04 #@! TF.SameCoordinates,Original*
G04 #@! TF.FileFunction,Paste,Top*
G04 #@! TF.FilePolarity,Positive*
%FSLAX46Y46*%
G04 Gerber Fmt 4.6, Leading zero omitted, Abs format (unit mm)*
G04 Created by KiCad (PCBNEW (5.1.5)-3) date 2020-07-16 22:53:37*
%MOMM*%
%LPD*%
G04 APERTURE LIST*
%ADD10C,0.100000*%
%ADD11R,0.500000X0.800000*%
%ADD12R,0.400000X0.800000*%
G04 APERTURE END LIST*
D10*
G36*
X139334703Y-93045722D02*
G01*
X139349264Y-93047882D01*
X139363543Y-93051459D01*
X139377403Y-93056418D01*
X139390710Y-93062712D01*
X139403336Y-93070280D01*
X139415159Y-93079048D01*
X139426066Y-93088934D01*
X139435952Y-93099841D01*
X139444720Y-93111664D01*
X139452288Y-93124290D01*
X139458582Y-93137597D01*
X139463541Y-93151457D01*
X139467118Y-93165736D01*
X139469278Y-93180297D01*
X139470000Y-93195000D01*
X139470000Y-93495000D01*
X139469278Y-93509703D01*
X139467118Y-93524264D01*
X139463541Y-93538543D01*
X139458582Y-93552403D01*
X139452288Y-93565710D01*
X139444720Y-93578336D01*
X139435952Y-93590159D01*
X139426066Y-93601066D01*
X139415159Y-93610952D01*
X139403336Y-93619720D01*
X139390710Y-93627288D01*
X139377403Y-93633582D01*
X139363543Y-93638541D01*
X139349264Y-93642118D01*
X139334703Y-93644278D01*
X139320000Y-93645000D01*
X137670000Y-93645000D01*
X137655297Y-93644278D01*
X137640736Y-93642118D01*
X137626457Y-93638541D01*
X137612597Y-93633582D01*
X137599290Y-93627288D01*
X137586664Y-93619720D01*
X137574841Y-93610952D01*
X137563934Y-93601066D01*
X137554048Y-93590159D01*
X137545280Y-93578336D01*
X137537712Y-93565710D01*
X137531418Y-93552403D01*
X137526459Y-93538543D01*
X137522882Y-93524264D01*
X137520722Y-93509703D01*
X137520000Y-93495000D01*
X137520000Y-93195000D01*
X137520722Y-93180297D01*
X137522882Y-93165736D01*
X137526459Y-93151457D01*
X137531418Y-93137597D01*
X137537712Y-93124290D01*
X137545280Y-93111664D01*
X137554048Y-93099841D01*
X137563934Y-93088934D01*
X137574841Y-93079048D01*
X137586664Y-93070280D01*
X137599290Y-93062712D01*
X137612597Y-93056418D01*
X137626457Y-93051459D01*
X137640736Y-93047882D01*
X137655297Y-93045722D01*
X137670000Y-93045000D01*
X139320000Y-93045000D01*
X139334703Y-93045722D01*
G37*
G36*
X139334703Y-91775722D02*
G01*
X139349264Y-91777882D01*
X139363543Y-91781459D01*
X139377403Y-91786418D01*
X139390710Y-91792712D01*
X139403336Y-91800280D01*
X139415159Y-91809048D01*
X139426066Y-91818934D01*
X139435952Y-91829841D01*
X139444720Y-91841664D01*
X139452288Y-91854290D01*
X139458582Y-91867597D01*
X139463541Y-91881457D01*
X139467118Y-91895736D01*
X139469278Y-91910297D01*
X139470000Y-91925000D01*
X139470000Y-92225000D01*
X139469278Y-92239703D01*
X139467118Y-92254264D01*
X139463541Y-92268543D01*
X139458582Y-92282403D01*
X139452288Y-92295710D01*
X139444720Y-92308336D01*
X139435952Y-92320159D01*
X139426066Y-92331066D01*
X139415159Y-92340952D01*
X139403336Y-92349720D01*
X139390710Y-92357288D01*
X139377403Y-92363582D01*
X139363543Y-92368541D01*
X139349264Y-92372118D01*
X139334703Y-92374278D01*
X139320000Y-92375000D01*
X137670000Y-92375000D01*
X137655297Y-92374278D01*
X137640736Y-92372118D01*
X137626457Y-92368541D01*
X137612597Y-92363582D01*
X137599290Y-92357288D01*
X137586664Y-92349720D01*
X137574841Y-92340952D01*
X137563934Y-92331066D01*
X137554048Y-92320159D01*
X137545280Y-92308336D01*
X137537712Y-92295710D01*
X137531418Y-92282403D01*
X137526459Y-92268543D01*
X137522882Y-92254264D01*
X137520722Y-92239703D01*
X137520000Y-92225000D01*
X137520000Y-91925000D01*
X137520722Y-91910297D01*
X137522882Y-91895736D01*
X137526459Y-91881457D01*
X137531418Y-91867597D01*
X137537712Y-91854290D01*
X137545280Y-91841664D01*
X137554048Y-91829841D01*
X137563934Y-91818934D01*
X137574841Y-91809048D01*
X137586664Y-91800280D01*
X137599290Y-91792712D01*
X137612597Y-91786418D01*
X137626457Y-91781459D01*
X137640736Y-91777882D01*
X137655297Y-91775722D01*
X137670000Y-91775000D01*
X139320000Y-91775000D01*
X139334703Y-91775722D01*
G37*
G36*
X139334703Y-90505722D02*
G01*
X139349264Y-90507882D01*
X139363543Y-90511459D01*
X139377403Y-90516418D01*
X139390710Y-90522712D01*
X139403336Y-90530280D01*
X139415159Y-90539048D01*
X139426066Y-90548934D01*
X139435952Y-90559841D01*
X139444720Y-90571664D01*
X139452288Y-90584290D01*
X139458582Y-90597597D01*
X139463541Y-90611457D01*
X139467118Y-90625736D01*
X139469278Y-90640297D01*
X139470000Y-90655000D01*
X139470000Y-90955000D01*
X139469278Y-90969703D01*
X139467118Y-90984264D01*
X139463541Y-90998543D01*
X139458582Y-91012403D01*
X139452288Y-91025710D01*
X139444720Y-91038336D01*
X139435952Y-91050159D01*
X139426066Y-91061066D01*
X139415159Y-91070952D01*
X139403336Y-91079720D01*
X139390710Y-91087288D01*
X139377403Y-91093582D01*
X139363543Y-91098541D01*
X139349264Y-91102118D01*
X139334703Y-91104278D01*
X139320000Y-91105000D01*
X137670000Y-91105000D01*
X137655297Y-91104278D01*
X137640736Y-91102118D01*
X137626457Y-91098541D01*
X137612597Y-91093582D01*
X137599290Y-91087288D01*
X137586664Y-91079720D01*
X137574841Y-91070952D01*
X137563934Y-91061066D01*
X137554048Y-91050159D01*
X137545280Y-91038336D01*
X137537712Y-91025710D01*
X137531418Y-91012403D01*
X137526459Y-90998543D01*
X137522882Y-90984264D01*
X137520722Y-90969703D01*
X137520000Y-90955000D01*
X137520000Y-90655000D01*
X137520722Y-90640297D01*
X137522882Y-90625736D01*
X137526459Y-90611457D01*
X137531418Y-90597597D01*
X137537712Y-90584290D01*
X137545280Y-90571664D01*
X137554048Y-90559841D01*
X137563934Y-90548934D01*
X137574841Y-90539048D01*
X137586664Y-90530280D01*
X137599290Y-90522712D01*
X137612597Y-90516418D01*
X137626457Y-90511459D01*
X137640736Y-90507882D01*
X137655297Y-90505722D01*
X137670000Y-90505000D01*
X139320000Y-90505000D01*
X139334703Y-90505722D01*
G37*
G36*
X139334703Y-89235722D02*
G01*
X139349264Y-89237882D01*
X139363543Y-89241459D01*
X139377403Y-89246418D01*
X139390710Y-89252712D01*
X139403336Y-89260280D01*
X139415159Y-89269048D01*
X139426066Y-89278934D01*
X139435952Y-89289841D01*
X139444720Y-89301664D01*
X139452288Y-89314290D01*
X139458582Y-89327597D01*
X139463541Y-89341457D01*
X139467118Y-89355736D01*
X139469278Y-89370297D01*
X139470000Y-89385000D01*
X139470000Y-89685000D01*
X139469278Y-89699703D01*
X139467118Y-89714264D01*
X139463541Y-89728543D01*
X139458582Y-89742403D01*
X139452288Y-89755710D01*
X139444720Y-89768336D01*
X139435952Y-89780159D01*
X139426066Y-89791066D01*
X139415159Y-89800952D01*
X139403336Y-89809720D01*
X139390710Y-89817288D01*
X139377403Y-89823582D01*
X139363543Y-89828541D01*
X139349264Y-89832118D01*
X139334703Y-89834278D01*
X139320000Y-89835000D01*
X137670000Y-89835000D01*
X137655297Y-89834278D01*
X137640736Y-89832118D01*
X137626457Y-89828541D01*
X137612597Y-89823582D01*
X137599290Y-89817288D01*
X137586664Y-89809720D01*
X137574841Y-89800952D01*
X137563934Y-89791066D01*
X137554048Y-89780159D01*
X137545280Y-89768336D01*
X137537712Y-89755710D01*
X137531418Y-89742403D01*
X137526459Y-89728543D01*
X137522882Y-89714264D01*
X137520722Y-89699703D01*
X137520000Y-89685000D01*
X137520000Y-89385000D01*
X137520722Y-89370297D01*
X137522882Y-89355736D01*
X137526459Y-89341457D01*
X137531418Y-89327597D01*
X137537712Y-89314290D01*
X137545280Y-89301664D01*
X137554048Y-89289841D01*
X137563934Y-89278934D01*
X137574841Y-89269048D01*
X137586664Y-89260280D01*
X137599290Y-89252712D01*
X137612597Y-89246418D01*
X137626457Y-89241459D01*
X137640736Y-89237882D01*
X137655297Y-89235722D01*
X137670000Y-89235000D01*
X139320000Y-89235000D01*
X139334703Y-89235722D01*
G37*
G36*
X139334703Y-87965722D02*
G01*
X139349264Y-87967882D01*
X139363543Y-87971459D01*
X139377403Y-87976418D01*
X139390710Y-87982712D01*
X139403336Y-87990280D01*
X139415159Y-87999048D01*
X139426066Y-88008934D01*
X139435952Y-88019841D01*
X139444720Y-88031664D01*
X139452288Y-88044290D01*
X139458582Y-88057597D01*
X139463541Y-88071457D01*
X139467118Y-88085736D01*
X139469278Y-88100297D01*
X139470000Y-88115000D01*
X139470000Y-88415000D01*
X139469278Y-88429703D01*
X139467118Y-88444264D01*
X139463541Y-88458543D01*
X139458582Y-88472403D01*
X139452288Y-88485710D01*
X139444720Y-88498336D01*
X139435952Y-88510159D01*
X139426066Y-88521066D01*
X139415159Y-88530952D01*
X139403336Y-88539720D01*
X139390710Y-88547288D01*
X139377403Y-88553582D01*
X139363543Y-88558541D01*
X139349264Y-88562118D01*
X139334703Y-88564278D01*
X139320000Y-88565000D01*
X137670000Y-88565000D01*
X137655297Y-88564278D01*
X137640736Y-88562118D01*
X137626457Y-88558541D01*
X137612597Y-88553582D01*
X137599290Y-88547288D01*
X137586664Y-88539720D01*
X137574841Y-88530952D01*
X137563934Y-88521066D01*
X137554048Y-88510159D01*
X137545280Y-88498336D01*
X137537712Y-88485710D01*
X137531418Y-88472403D01*
X137526459Y-88458543D01*
X137522882Y-88444264D01*
X137520722Y-88429703D01*
X137520000Y-88415000D01*
X137520000Y-88115000D01*
X137520722Y-88100297D01*
X137522882Y-88085736D01*
X137526459Y-88071457D01*
X137531418Y-88057597D01*
X137537712Y-88044290D01*
X137545280Y-88031664D01*
X137554048Y-88019841D01*
X137563934Y-88008934D01*
X137574841Y-87999048D01*
X137586664Y-87990280D01*
X137599290Y-87982712D01*
X137612597Y-87976418D01*
X137626457Y-87971459D01*
X137640736Y-87967882D01*
X137655297Y-87965722D01*
X137670000Y-87965000D01*
X139320000Y-87965000D01*
X139334703Y-87965722D01*
G37*
G36*
X139334703Y-86695722D02*
G01*
X139349264Y-86697882D01*
X139363543Y-86701459D01*
X139377403Y-86706418D01*
X139390710Y-86712712D01*
X139403336Y-86720280D01*
X139415159Y-86729048D01*
X139426066Y-86738934D01*
X139435952Y-86749841D01*
X139444720Y-86761664D01*
X139452288Y-86774290D01*
X139458582Y-86787597D01*
X139463541Y-86801457D01*
X139467118Y-86815736D01*
X139469278Y-86830297D01*
X139470000Y-86845000D01*
X139470000Y-87145000D01*
X139469278Y-87159703D01*
X139467118Y-87174264D01*
X139463541Y-87188543D01*
X139458582Y-87202403D01*
X139452288Y-87215710D01*
X139444720Y-87228336D01*
X139435952Y-87240159D01*
X139426066Y-87251066D01*
X139415159Y-87260952D01*
X139403336Y-87269720D01*
X139390710Y-87277288D01*
X139377403Y-87283582D01*
X139363543Y-87288541D01*
X139349264Y-87292118D01*
X139334703Y-87294278D01*
X139320000Y-87295000D01*
X137670000Y-87295000D01*
X137655297Y-87294278D01*
X137640736Y-87292118D01*
X137626457Y-87288541D01*
X137612597Y-87283582D01*
X137599290Y-87277288D01*
X137586664Y-87269720D01*
X137574841Y-87260952D01*
X137563934Y-87251066D01*
X137554048Y-87240159D01*
X137545280Y-87228336D01*
X137537712Y-87215710D01*
X137531418Y-87202403D01*
X137526459Y-87188543D01*
X137522882Y-87174264D01*
X137520722Y-87159703D01*
X137520000Y-87145000D01*
X137520000Y-86845000D01*
X137520722Y-86830297D01*
X137522882Y-86815736D01*
X137526459Y-86801457D01*
X137531418Y-86787597D01*
X137537712Y-86774290D01*
X137545280Y-86761664D01*
X137554048Y-86749841D01*
X137563934Y-86738934D01*
X137574841Y-86729048D01*
X137586664Y-86720280D01*
X137599290Y-86712712D01*
X137612597Y-86706418D01*
X137626457Y-86701459D01*
X137640736Y-86697882D01*
X137655297Y-86695722D01*
X137670000Y-86695000D01*
X139320000Y-86695000D01*
X139334703Y-86695722D01*
G37*
G36*
X139334703Y-85425722D02*
G01*
X139349264Y-85427882D01*
X139363543Y-85431459D01*
X139377403Y-85436418D01*
X139390710Y-85442712D01*
X139403336Y-85450280D01*
X139415159Y-85459048D01*
X139426066Y-85468934D01*
X139435952Y-85479841D01*
X139444720Y-85491664D01*
X139452288Y-85504290D01*
X139458582Y-85517597D01*
X139463541Y-85531457D01*
X139467118Y-85545736D01*
X139469278Y-85560297D01*
X139470000Y-85575000D01*
X139470000Y-85875000D01*
X139469278Y-85889703D01*
X139467118Y-85904264D01*
X139463541Y-85918543D01*
X139458582Y-85932403D01*
X139452288Y-85945710D01*
X139444720Y-85958336D01*
X139435952Y-85970159D01*
X139426066Y-85981066D01*
X139415159Y-85990952D01*
X139403336Y-85999720D01*
X139390710Y-86007288D01*
X139377403Y-86013582D01*
X139363543Y-86018541D01*
X139349264Y-86022118D01*
X139334703Y-86024278D01*
X139320000Y-86025000D01*
X137670000Y-86025000D01*
X137655297Y-86024278D01*
X137640736Y-86022118D01*
X137626457Y-86018541D01*
X137612597Y-86013582D01*
X137599290Y-86007288D01*
X137586664Y-85999720D01*
X137574841Y-85990952D01*
X137563934Y-85981066D01*
X137554048Y-85970159D01*
X137545280Y-85958336D01*
X137537712Y-85945710D01*
X137531418Y-85932403D01*
X137526459Y-85918543D01*
X137522882Y-85904264D01*
X137520722Y-85889703D01*
X137520000Y-85875000D01*
X137520000Y-85575000D01*
X137520722Y-85560297D01*
X137522882Y-85545736D01*
X137526459Y-85531457D01*
X137531418Y-85517597D01*
X137537712Y-85504290D01*
X137545280Y-85491664D01*
X137554048Y-85479841D01*
X137563934Y-85468934D01*
X137574841Y-85459048D01*
X137586664Y-85450280D01*
X137599290Y-85442712D01*
X137612597Y-85436418D01*
X137626457Y-85431459D01*
X137640736Y-85427882D01*
X137655297Y-85425722D01*
X137670000Y-85425000D01*
X139320000Y-85425000D01*
X139334703Y-85425722D01*
G37*
G36*
X139334703Y-84155722D02*
G01*
X139349264Y-84157882D01*
X139363543Y-84161459D01*
X139377403Y-84166418D01*
X139390710Y-84172712D01*
X139403336Y-84180280D01*
X139415159Y-84189048D01*
X139426066Y-84198934D01*
X139435952Y-84209841D01*
X139444720Y-84221664D01*
X139452288Y-84234290D01*
X139458582Y-84247597D01*
X139463541Y-84261457D01*
X139467118Y-84275736D01*
X139469278Y-84290297D01*
X139470000Y-84305000D01*
X139470000Y-84605000D01*
X139469278Y-84619703D01*
X139467118Y-84634264D01*
X139463541Y-84648543D01*
X139458582Y-84662403D01*
X139452288Y-84675710D01*
X139444720Y-84688336D01*
X139435952Y-84700159D01*
X139426066Y-84711066D01*
X139415159Y-84720952D01*
X139403336Y-84729720D01*
X139390710Y-84737288D01*
X139377403Y-84743582D01*
X139363543Y-84748541D01*
X139349264Y-84752118D01*
X139334703Y-84754278D01*
X139320000Y-84755000D01*
X137670000Y-84755000D01*
X137655297Y-84754278D01*
X137640736Y-84752118D01*
X137626457Y-84748541D01*
X137612597Y-84743582D01*
X137599290Y-84737288D01*
X137586664Y-84729720D01*
X137574841Y-84720952D01*
X137563934Y-84711066D01*
X137554048Y-84700159D01*
X137545280Y-84688336D01*
X137537712Y-84675710D01*
X137531418Y-84662403D01*
X137526459Y-84648543D01*
X137522882Y-84634264D01*
X137520722Y-84619703D01*
X137520000Y-84605000D01*
X137520000Y-84305000D01*
X137520722Y-84290297D01*
X137522882Y-84275736D01*
X137526459Y-84261457D01*
X137531418Y-84247597D01*
X137537712Y-84234290D01*
X137545280Y-84221664D01*
X137554048Y-84209841D01*
X137563934Y-84198934D01*
X137574841Y-84189048D01*
X137586664Y-84180280D01*
X137599290Y-84172712D01*
X137612597Y-84166418D01*
X137626457Y-84161459D01*
X137640736Y-84157882D01*
X137655297Y-84155722D01*
X137670000Y-84155000D01*
X139320000Y-84155000D01*
X139334703Y-84155722D01*
G37*
G36*
X144284703Y-84155722D02*
G01*
X144299264Y-84157882D01*
X144313543Y-84161459D01*
X144327403Y-84166418D01*
X144340710Y-84172712D01*
X144353336Y-84180280D01*
X144365159Y-84189048D01*
X144376066Y-84198934D01*
X144385952Y-84209841D01*
X144394720Y-84221664D01*
X144402288Y-84234290D01*
X144408582Y-84247597D01*
X144413541Y-84261457D01*
X144417118Y-84275736D01*
X144419278Y-84290297D01*
X144420000Y-84305000D01*
X144420000Y-84605000D01*
X144419278Y-84619703D01*
X144417118Y-84634264D01*
X144413541Y-84648543D01*
X144408582Y-84662403D01*
X144402288Y-84675710D01*
X144394720Y-84688336D01*
X144385952Y-84700159D01*
X144376066Y-84711066D01*
X144365159Y-84720952D01*
X144353336Y-84729720D01*
X144340710Y-84737288D01*
X144327403Y-84743582D01*
X144313543Y-84748541D01*
X144299264Y-84752118D01*
X144284703Y-84754278D01*
X144270000Y-84755000D01*
X142620000Y-84755000D01*
X142605297Y-84754278D01*
X142590736Y-84752118D01*
X142576457Y-84748541D01*
X142562597Y-84743582D01*
X142549290Y-84737288D01*
X142536664Y-84729720D01*
X142524841Y-84720952D01*
X142513934Y-84711066D01*
X142504048Y-84700159D01*
X142495280Y-84688336D01*
X142487712Y-84675710D01*
X142481418Y-84662403D01*
X142476459Y-84648543D01*
X142472882Y-84634264D01*
X142470722Y-84619703D01*
X142470000Y-84605000D01*
X142470000Y-84305000D01*
X142470722Y-84290297D01*
X142472882Y-84275736D01*
X142476459Y-84261457D01*
X142481418Y-84247597D01*
X142487712Y-84234290D01*
X142495280Y-84221664D01*
X142504048Y-84209841D01*
X142513934Y-84198934D01*
X142524841Y-84189048D01*
X142536664Y-84180280D01*
X142549290Y-84172712D01*
X142562597Y-84166418D01*
X142576457Y-84161459D01*
X142590736Y-84157882D01*
X142605297Y-84155722D01*
X142620000Y-84155000D01*
X144270000Y-84155000D01*
X144284703Y-84155722D01*
G37*
G36*
X144284703Y-85425722D02*
G01*
X144299264Y-85427882D01*
X144313543Y-85431459D01*
X144327403Y-85436418D01*
X144340710Y-85442712D01*
X144353336Y-85450280D01*
X144365159Y-85459048D01*
X144376066Y-85468934D01*
X144385952Y-85479841D01*
X144394720Y-85491664D01*
X144402288Y-85504290D01*
X144408582Y-85517597D01*
X144413541Y-85531457D01*
X144417118Y-85545736D01*
X144419278Y-85560297D01*
X144420000Y-85575000D01*
X144420000Y-85875000D01*
X144419278Y-85889703D01*
X144417118Y-85904264D01*
X144413541Y-85918543D01*
X144408582Y-85932403D01*
X144402288Y-85945710D01*
X144394720Y-85958336D01*
X144385952Y-85970159D01*
X144376066Y-85981066D01*
X144365159Y-85990952D01*
X144353336Y-85999720D01*
X144340710Y-86007288D01*
X144327403Y-86013582D01*
X144313543Y-86018541D01*
X144299264Y-86022118D01*
X144284703Y-86024278D01*
X144270000Y-86025000D01*
X142620000Y-86025000D01*
X142605297Y-86024278D01*
X142590736Y-86022118D01*
X142576457Y-86018541D01*
X142562597Y-86013582D01*
X142549290Y-86007288D01*
X142536664Y-85999720D01*
X142524841Y-85990952D01*
X142513934Y-85981066D01*
X142504048Y-85970159D01*
X142495280Y-85958336D01*
X142487712Y-85945710D01*
X142481418Y-85932403D01*
X142476459Y-85918543D01*
X142472882Y-85904264D01*
X142470722Y-85889703D01*
X142470000Y-85875000D01*
X142470000Y-85575000D01*
X142470722Y-85560297D01*
X142472882Y-85545736D01*
X142476459Y-85531457D01*
X142481418Y-85517597D01*
X142487712Y-85504290D01*
X142495280Y-85491664D01*
X142504048Y-85479841D01*
X142513934Y-85468934D01*
X142524841Y-85459048D01*
X142536664Y-85450280D01*
X142549290Y-85442712D01*
X142562597Y-85436418D01*
X142576457Y-85431459D01*
X142590736Y-85427882D01*
X142605297Y-85425722D01*
X142620000Y-85425000D01*
X144270000Y-85425000D01*
X144284703Y-85425722D01*
G37*
G36*
X144284703Y-86695722D02*
G01*
X144299264Y-86697882D01*
X144313543Y-86701459D01*
X144327403Y-86706418D01*
X144340710Y-86712712D01*
X144353336Y-86720280D01*
X144365159Y-86729048D01*
X144376066Y-86738934D01*
X144385952Y-86749841D01*
X144394720Y-86761664D01*
X144402288Y-86774290D01*
X144408582Y-86787597D01*
X144413541Y-86801457D01*
X144417118Y-86815736D01*
X144419278Y-86830297D01*
X144420000Y-86845000D01*
X144420000Y-87145000D01*
X144419278Y-87159703D01*
X144417118Y-87174264D01*
X144413541Y-87188543D01*
X144408582Y-87202403D01*
X144402288Y-87215710D01*
X144394720Y-87228336D01*
X144385952Y-87240159D01*
X144376066Y-87251066D01*
X144365159Y-87260952D01*
X144353336Y-87269720D01*
X144340710Y-87277288D01*
X144327403Y-87283582D01*
X144313543Y-87288541D01*
X144299264Y-87292118D01*
X144284703Y-87294278D01*
X144270000Y-87295000D01*
X142620000Y-87295000D01*
X142605297Y-87294278D01*
X142590736Y-87292118D01*
X142576457Y-87288541D01*
X142562597Y-87283582D01*
X142549290Y-87277288D01*
X142536664Y-87269720D01*
X142524841Y-87260952D01*
X142513934Y-87251066D01*
X142504048Y-87240159D01*
X142495280Y-87228336D01*
X142487712Y-87215710D01*
X142481418Y-87202403D01*
X142476459Y-87188543D01*
X142472882Y-87174264D01*
X142470722Y-87159703D01*
X142470000Y-87145000D01*
X142470000Y-86845000D01*
X142470722Y-86830297D01*
X142472882Y-86815736D01*
X142476459Y-86801457D01*
X142481418Y-86787597D01*
X142487712Y-86774290D01*
X142495280Y-86761664D01*
X142504048Y-86749841D01*
X142513934Y-86738934D01*
X142524841Y-86729048D01*
X142536664Y-86720280D01*
X142549290Y-86712712D01*
X142562597Y-86706418D01*
X142576457Y-86701459D01*
X142590736Y-86697882D01*
X142605297Y-86695722D01*
X142620000Y-86695000D01*
X144270000Y-86695000D01*
X144284703Y-86695722D01*
G37*
G36*
X144284703Y-87965722D02*
G01*
X144299264Y-87967882D01*
X144313543Y-87971459D01*
X144327403Y-87976418D01*
X144340710Y-87982712D01*
X144353336Y-87990280D01*
X144365159Y-87999048D01*
X144376066Y-88008934D01*
X144385952Y-88019841D01*
X144394720Y-88031664D01*
X144402288Y-88044290D01*
X144408582Y-88057597D01*
X144413541Y-88071457D01*
X144417118Y-88085736D01*
X144419278Y-88100297D01*
X144420000Y-88115000D01*
X144420000Y-88415000D01*
X144419278Y-88429703D01*
X144417118Y-88444264D01*
X144413541Y-88458543D01*
X144408582Y-88472403D01*
X144402288Y-88485710D01*
X144394720Y-88498336D01*
X144385952Y-88510159D01*
X144376066Y-88521066D01*
X144365159Y-88530952D01*
X144353336Y-88539720D01*
X144340710Y-88547288D01*
X144327403Y-88553582D01*
X144313543Y-88558541D01*
X144299264Y-88562118D01*
X144284703Y-88564278D01*
X144270000Y-88565000D01*
X142620000Y-88565000D01*
X142605297Y-88564278D01*
X142590736Y-88562118D01*
X142576457Y-88558541D01*
X142562597Y-88553582D01*
X142549290Y-88547288D01*
X142536664Y-88539720D01*
X142524841Y-88530952D01*
X142513934Y-88521066D01*
X142504048Y-88510159D01*
X142495280Y-88498336D01*
X142487712Y-88485710D01*
X142481418Y-88472403D01*
X142476459Y-88458543D01*
X142472882Y-88444264D01*
X142470722Y-88429703D01*
X142470000Y-88415000D01*
X142470000Y-88115000D01*
X142470722Y-88100297D01*
X142472882Y-88085736D01*
X142476459Y-88071457D01*
X142481418Y-88057597D01*
X142487712Y-88044290D01*
X142495280Y-88031664D01*
X142504048Y-88019841D01*
X142513934Y-88008934D01*
X142524841Y-87999048D01*
X142536664Y-87990280D01*
X142549290Y-87982712D01*
X142562597Y-87976418D01*
X142576457Y-87971459D01*
X142590736Y-87967882D01*
X142605297Y-87965722D01*
X142620000Y-87965000D01*
X144270000Y-87965000D01*
X144284703Y-87965722D01*
G37*
G36*
X144284703Y-89235722D02*
G01*
X144299264Y-89237882D01*
X144313543Y-89241459D01*
X144327403Y-89246418D01*
X144340710Y-89252712D01*
X144353336Y-89260280D01*
X144365159Y-89269048D01*
X144376066Y-89278934D01*
X144385952Y-89289841D01*
X144394720Y-89301664D01*
X144402288Y-89314290D01*
X144408582Y-89327597D01*
X144413541Y-89341457D01*
X144417118Y-89355736D01*
X144419278Y-89370297D01*
X144420000Y-89385000D01*
X144420000Y-89685000D01*
X144419278Y-89699703D01*
X144417118Y-89714264D01*
X144413541Y-89728543D01*
X144408582Y-89742403D01*
X144402288Y-89755710D01*
X144394720Y-89768336D01*
X144385952Y-89780159D01*
X144376066Y-89791066D01*
X144365159Y-89800952D01*
X144353336Y-89809720D01*
X144340710Y-89817288D01*
X144327403Y-89823582D01*
X144313543Y-89828541D01*
X144299264Y-89832118D01*
X144284703Y-89834278D01*
X144270000Y-89835000D01*
X142620000Y-89835000D01*
X142605297Y-89834278D01*
X142590736Y-89832118D01*
X142576457Y-89828541D01*
X142562597Y-89823582D01*
X142549290Y-89817288D01*
X142536664Y-89809720D01*
X142524841Y-89800952D01*
X142513934Y-89791066D01*
X142504048Y-89780159D01*
X142495280Y-89768336D01*
X142487712Y-89755710D01*
X142481418Y-89742403D01*
X142476459Y-89728543D01*
X142472882Y-89714264D01*
X142470722Y-89699703D01*
X142470000Y-89685000D01*
X142470000Y-89385000D01*
X142470722Y-89370297D01*
X142472882Y-89355736D01*
X142476459Y-89341457D01*
X142481418Y-89327597D01*
X142487712Y-89314290D01*
X142495280Y-89301664D01*
X142504048Y-89289841D01*
X142513934Y-89278934D01*
X142524841Y-89269048D01*
X142536664Y-89260280D01*
X142549290Y-89252712D01*
X142562597Y-89246418D01*
X142576457Y-89241459D01*
X142590736Y-89237882D01*
X142605297Y-89235722D01*
X142620000Y-89235000D01*
X144270000Y-89235000D01*
X144284703Y-89235722D01*
G37*
G36*
X144284703Y-90505722D02*
G01*
X144299264Y-90507882D01*
X144313543Y-90511459D01*
X144327403Y-90516418D01*
X144340710Y-90522712D01*
X144353336Y-90530280D01*
X144365159Y-90539048D01*
X144376066Y-90548934D01*
X144385952Y-90559841D01*
X144394720Y-90571664D01*
X144402288Y-90584290D01*
X144408582Y-90597597D01*
X144413541Y-90611457D01*
X144417118Y-90625736D01*
X144419278Y-90640297D01*
X144420000Y-90655000D01*
X144420000Y-90955000D01*
X144419278Y-90969703D01*
X144417118Y-90984264D01*
X144413541Y-90998543D01*
X144408582Y-91012403D01*
X144402288Y-91025710D01*
X144394720Y-91038336D01*
X144385952Y-91050159D01*
X144376066Y-91061066D01*
X144365159Y-91070952D01*
X144353336Y-91079720D01*
X144340710Y-91087288D01*
X144327403Y-91093582D01*
X144313543Y-91098541D01*
X144299264Y-91102118D01*
X144284703Y-91104278D01*
X144270000Y-91105000D01*
X142620000Y-91105000D01*
X142605297Y-91104278D01*
X142590736Y-91102118D01*
X142576457Y-91098541D01*
X142562597Y-91093582D01*
X142549290Y-91087288D01*
X142536664Y-91079720D01*
X142524841Y-91070952D01*
X142513934Y-91061066D01*
X142504048Y-91050159D01*
X142495280Y-91038336D01*
X142487712Y-91025710D01*
X142481418Y-91012403D01*
X142476459Y-90998543D01*
X142472882Y-90984264D01*
X142470722Y-90969703D01*
X142470000Y-90955000D01*
X142470000Y-90655000D01*
X142470722Y-90640297D01*
X142472882Y-90625736D01*
X142476459Y-90611457D01*
X142481418Y-90597597D01*
X142487712Y-90584290D01*
X142495280Y-90571664D01*
X142504048Y-90559841D01*
X142513934Y-90548934D01*
X142524841Y-90539048D01*
X142536664Y-90530280D01*
X142549290Y-90522712D01*
X142562597Y-90516418D01*
X142576457Y-90511459D01*
X142590736Y-90507882D01*
X142605297Y-90505722D01*
X142620000Y-90505000D01*
X144270000Y-90505000D01*
X144284703Y-90505722D01*
G37*
G36*
X144284703Y-91775722D02*
G01*
X144299264Y-91777882D01*
X144313543Y-91781459D01*
X144327403Y-91786418D01*
X144340710Y-91792712D01*
X144353336Y-91800280D01*
X144365159Y-91809048D01*
X144376066Y-91818934D01*
X144385952Y-91829841D01*
X144394720Y-91841664D01*
X144402288Y-91854290D01*
X144408582Y-91867597D01*
X144413541Y-91881457D01*
X144417118Y-91895736D01*
X144419278Y-91910297D01*
X144420000Y-91925000D01*
X144420000Y-92225000D01*
X144419278Y-92239703D01*
X144417118Y-92254264D01*
X144413541Y-92268543D01*
X144408582Y-92282403D01*
X144402288Y-92295710D01*
X144394720Y-92308336D01*
X144385952Y-92320159D01*
X144376066Y-92331066D01*
X144365159Y-92340952D01*
X144353336Y-92349720D01*
X144340710Y-92357288D01*
X144327403Y-92363582D01*
X144313543Y-92368541D01*
X144299264Y-92372118D01*
X144284703Y-92374278D01*
X144270000Y-92375000D01*
X142620000Y-92375000D01*
X142605297Y-92374278D01*
X142590736Y-92372118D01*
X142576457Y-92368541D01*
X142562597Y-92363582D01*
X142549290Y-92357288D01*
X142536664Y-92349720D01*
X142524841Y-92340952D01*
X142513934Y-92331066D01*
X142504048Y-92320159D01*
X142495280Y-92308336D01*
X142487712Y-92295710D01*
X142481418Y-92282403D01*
X142476459Y-92268543D01*
X142472882Y-92254264D01*
X142470722Y-92239703D01*
X142470000Y-92225000D01*
X142470000Y-91925000D01*
X142470722Y-91910297D01*
X142472882Y-91895736D01*
X142476459Y-91881457D01*
X142481418Y-91867597D01*
X142487712Y-91854290D01*
X142495280Y-91841664D01*
X142504048Y-91829841D01*
X142513934Y-91818934D01*
X142524841Y-91809048D01*
X142536664Y-91800280D01*
X142549290Y-91792712D01*
X142562597Y-91786418D01*
X142576457Y-91781459D01*
X142590736Y-91777882D01*
X142605297Y-91775722D01*
X142620000Y-91775000D01*
X144270000Y-91775000D01*
X144284703Y-91775722D01*
G37*
G36*
X144284703Y-93045722D02*
G01*
X144299264Y-93047882D01*
X144313543Y-93051459D01*
X144327403Y-93056418D01*
X144340710Y-93062712D01*
X144353336Y-93070280D01*
X144365159Y-93079048D01*
X144376066Y-93088934D01*
X144385952Y-93099841D01*
X144394720Y-93111664D01*
X144402288Y-93124290D01*
X144408582Y-93137597D01*
X144413541Y-93151457D01*
X144417118Y-93165736D01*
X144419278Y-93180297D01*
X144420000Y-93195000D01*
X144420000Y-93495000D01*
X144419278Y-93509703D01*
X144417118Y-93524264D01*
X144413541Y-93538543D01*
X144408582Y-93552403D01*
X144402288Y-93565710D01*
X144394720Y-93578336D01*
X144385952Y-93590159D01*
X144376066Y-93601066D01*
X144365159Y-93610952D01*
X144353336Y-93619720D01*
X144340710Y-93627288D01*
X144327403Y-93633582D01*
X144313543Y-93638541D01*
X144299264Y-93642118D01*
X144284703Y-93644278D01*
X144270000Y-93645000D01*
X142620000Y-93645000D01*
X142605297Y-93644278D01*
X142590736Y-93642118D01*
X142576457Y-93638541D01*
X142562597Y-93633582D01*
X142549290Y-93627288D01*
X142536664Y-93619720D01*
X142524841Y-93610952D01*
X142513934Y-93601066D01*
X142504048Y-93590159D01*
X142495280Y-93578336D01*
X142487712Y-93565710D01*
X142481418Y-93552403D01*
X142476459Y-93538543D01*
X142472882Y-93524264D01*
X142470722Y-93509703D01*
X142470000Y-93495000D01*
X142470000Y-93195000D01*
X142470722Y-93180297D01*
X142472882Y-93165736D01*
X142476459Y-93151457D01*
X142481418Y-93137597D01*
X142487712Y-93124290D01*
X142495280Y-93111664D01*
X142504048Y-93099841D01*
X142513934Y-93088934D01*
X142524841Y-93079048D01*
X142536664Y-93070280D01*
X142549290Y-93062712D01*
X142562597Y-93056418D01*
X142576457Y-93051459D01*
X142590736Y-93047882D01*
X142605297Y-93045722D01*
X142620000Y-93045000D01*
X144270000Y-93045000D01*
X144284703Y-93045722D01*
G37*
D11*
X151200000Y-91959000D03*
D12*
X152800000Y-91959000D03*
X152000000Y-91959000D03*
D11*
X153600000Y-91959000D03*
D12*
X152000000Y-90159000D03*
D11*
X151200000Y-90159000D03*
D12*
X152800000Y-90159000D03*
D11*
X153600000Y-90159000D03*
X157346500Y-90159000D03*
D12*
X156546500Y-90159000D03*
D11*
X154946500Y-90159000D03*
D12*
X155746500Y-90159000D03*
D11*
X157346500Y-91959000D03*
D12*
X155746500Y-91959000D03*
X156546500Y-91959000D03*
D11*
X154946500Y-91959000D03*
M02*
