M48
; DRILL file {KiCad (5.1.5)-3} date 7/16/2020 10:53:35 PM
; FORMAT={-:-/ absolute / inch / decimal}
; #@! TF.CreationDate,2020-07-16T22:53:35-05:00
; #@! TF.GenerationSoftware,Kicad,Pcbnew,(5.1.5)-3
; #@! TF.FileFunction,Plated,1,2,PTH
FMAT,2
INCH
T1C0.0157
T2C0.0197
T3C0.0300
T4C0.0360
%
G90
G05
T1
X5.35Y-3.325
X5.35Y-3.675
X5.4975Y-3.375
X5.4975Y-3.425
X5.4975Y-3.475
X5.4975Y-3.575
X5.5275Y-3.6375
X5.555Y-3.6025
X5.5585Y-3.5575
X5.6Y-3.3843
X5.6Y-3.435
X5.73Y-3.6075
X5.75Y-3.275
X5.785Y-3.5275
X5.785Y-3.7325
X5.925Y-3.485
X5.975Y-3.45
X6.025Y-3.45
X6.075Y-3.45
X6.0762Y-3.5143
X6.1125Y-3.6675
X6.125Y-3.45
X6.165Y-3.58
X6.205Y-3.58
X6.25Y-3.625
T2
X5.515Y-3.7325
X5.5898Y-3.7325
T3
X5.8484Y-3.2776
X5.85Y-3.7224
X5.9487Y-3.2776
X5.95Y-3.7224
X6.0491Y-3.2776
X6.05Y-3.7224
X6.1494Y-3.2776
X6.15Y-3.7224
X6.2497Y-3.2776
X6.25Y-3.7224
X6.35Y-3.2776
X6.35Y-3.7224
T4
X6.3929Y-3.3888
X6.3929Y-3.6112
T0
M30
