G04 #@! TF.GenerationSoftware,KiCad,Pcbnew,(5.1.5)-3*
G04 #@! TF.CreationDate,2020-07-16T22:53:37-05:00*
G04 #@! TF.ProjectId,pcb,7063622e-6b69-4636-9164-5f7063625858,rev?*
G04 #@! TF.SameCoordinates,Original*
G04 #@! TF.FileFunction,Legend,Bot*
G04 #@! TF.FilePolarity,Positive*
%FSLAX46Y46*%
G04 Gerber Fmt 4.6, Leading zero omitted, Abs format (unit mm)*
G04 Created by KiCad (PCBNEW (5.1.5)-3) date 2020-07-16 22:53:37*
%MOMM*%
%LPD*%
G04 APERTURE LIST*
%ADD10C,0.080000*%
%ADD11C,0.100000*%
%ADD12C,0.120000*%
%ADD13C,0.150000*%
G04 APERTURE END LIST*
D10*
X136688428Y-85777357D02*
X136602714Y-85805928D01*
X136459857Y-85805928D01*
X136402714Y-85777357D01*
X136374142Y-85748785D01*
X136345571Y-85691642D01*
X136345571Y-85634500D01*
X136374142Y-85577357D01*
X136402714Y-85548785D01*
X136459857Y-85520214D01*
X136574142Y-85491642D01*
X136631285Y-85463071D01*
X136659857Y-85434500D01*
X136688428Y-85377357D01*
X136688428Y-85320214D01*
X136659857Y-85263071D01*
X136631285Y-85234500D01*
X136574142Y-85205928D01*
X136431285Y-85205928D01*
X136345571Y-85234500D01*
X136088428Y-85491642D02*
X135888428Y-85491642D01*
X135802714Y-85805928D02*
X136088428Y-85805928D01*
X136088428Y-85205928D01*
X135802714Y-85205928D01*
X135631285Y-85205928D02*
X135288428Y-85205928D01*
X135459857Y-85805928D02*
X135459857Y-85205928D01*
X145411500Y-84281928D02*
X145411500Y-83681928D01*
X145411500Y-83910500D02*
X145354357Y-83881928D01*
X145240071Y-83881928D01*
X145182928Y-83910500D01*
X145154357Y-83939071D01*
X145125785Y-83996214D01*
X145125785Y-84167642D01*
X145154357Y-84224785D01*
X145182928Y-84253357D01*
X145240071Y-84281928D01*
X145354357Y-84281928D01*
X145411500Y-84253357D01*
X144925785Y-83881928D02*
X144782928Y-84281928D01*
X144640071Y-83881928D02*
X144782928Y-84281928D01*
X144840071Y-84424785D01*
X144868642Y-84453357D01*
X144925785Y-84481928D01*
X143982928Y-84253357D02*
X143925785Y-84281928D01*
X143811500Y-84281928D01*
X143754357Y-84253357D01*
X143725785Y-84196214D01*
X143725785Y-84167642D01*
X143754357Y-84110500D01*
X143811500Y-84081928D01*
X143897214Y-84081928D01*
X143954357Y-84053357D01*
X143982928Y-83996214D01*
X143982928Y-83967642D01*
X143954357Y-83910500D01*
X143897214Y-83881928D01*
X143811500Y-83881928D01*
X143754357Y-83910500D01*
X143240071Y-84253357D02*
X143297214Y-84281928D01*
X143411500Y-84281928D01*
X143468642Y-84253357D01*
X143497214Y-84196214D01*
X143497214Y-83967642D01*
X143468642Y-83910500D01*
X143411500Y-83881928D01*
X143297214Y-83881928D01*
X143240071Y-83910500D01*
X143211500Y-83967642D01*
X143211500Y-84024785D01*
X143497214Y-84081928D01*
X142954357Y-84281928D02*
X142954357Y-83881928D01*
X142954357Y-83996214D02*
X142925785Y-83939071D01*
X142897214Y-83910500D01*
X142840071Y-83881928D01*
X142782928Y-83881928D01*
X142582928Y-84281928D02*
X142582928Y-83881928D01*
X142582928Y-83681928D02*
X142611500Y-83710500D01*
X142582928Y-83739071D01*
X142554357Y-83710500D01*
X142582928Y-83681928D01*
X142582928Y-83739071D01*
X142325785Y-84253357D02*
X142268642Y-84281928D01*
X142154357Y-84281928D01*
X142097214Y-84253357D01*
X142068642Y-84196214D01*
X142068642Y-84167642D01*
X142097214Y-84110500D01*
X142154357Y-84081928D01*
X142240071Y-84081928D01*
X142297214Y-84053357D01*
X142325785Y-83996214D01*
X142325785Y-83967642D01*
X142297214Y-83910500D01*
X142240071Y-83881928D01*
X142154357Y-83881928D01*
X142097214Y-83910500D01*
X141811500Y-84281928D02*
X141811500Y-83881928D01*
X141811500Y-83939071D02*
X141782928Y-83910500D01*
X141725785Y-83881928D01*
X141640071Y-83881928D01*
X141582928Y-83910500D01*
X141554357Y-83967642D01*
X141554357Y-84281928D01*
X141554357Y-83967642D02*
X141525785Y-83910500D01*
X141468642Y-83881928D01*
X141382928Y-83881928D01*
X141325785Y-83910500D01*
X141297214Y-83967642D01*
X141297214Y-84281928D01*
X140754357Y-84281928D02*
X140754357Y-83967642D01*
X140782928Y-83910500D01*
X140840071Y-83881928D01*
X140954357Y-83881928D01*
X141011500Y-83910500D01*
X140754357Y-84253357D02*
X140811500Y-84281928D01*
X140954357Y-84281928D01*
X141011500Y-84253357D01*
X141040071Y-84196214D01*
X141040071Y-84139071D01*
X141011500Y-84081928D01*
X140954357Y-84053357D01*
X140811500Y-84053357D01*
X140754357Y-84024785D01*
X140468642Y-83881928D02*
X140468642Y-84281928D01*
X140468642Y-83939071D02*
X140440071Y-83910500D01*
X140382928Y-83881928D01*
X140297214Y-83881928D01*
X140240071Y-83910500D01*
X140211500Y-83967642D01*
X140211500Y-84281928D01*
D11*
X145400500Y-83333785D02*
X145400500Y-82583785D01*
X145114785Y-82583785D01*
X145043357Y-82619500D01*
X145007642Y-82655214D01*
X144971928Y-82726642D01*
X144971928Y-82833785D01*
X145007642Y-82905214D01*
X145043357Y-82940928D01*
X145114785Y-82976642D01*
X145400500Y-82976642D01*
X144650500Y-83333785D02*
X144650500Y-82583785D01*
X144471928Y-82583785D01*
X144364785Y-82619500D01*
X144293357Y-82690928D01*
X144257642Y-82762357D01*
X144221928Y-82905214D01*
X144221928Y-83012357D01*
X144257642Y-83155214D01*
X144293357Y-83226642D01*
X144364785Y-83298071D01*
X144471928Y-83333785D01*
X144650500Y-83333785D01*
X143900500Y-83333785D02*
X143900500Y-82583785D01*
X143471928Y-83333785D02*
X143793357Y-82905214D01*
X143471928Y-82583785D02*
X143900500Y-83012357D01*
X142579071Y-83333785D02*
X142579071Y-82583785D01*
X142400500Y-82583785D01*
X142293357Y-82619500D01*
X142221928Y-82690928D01*
X142186214Y-82762357D01*
X142150500Y-82905214D01*
X142150500Y-83012357D01*
X142186214Y-83155214D01*
X142221928Y-83226642D01*
X142293357Y-83298071D01*
X142400500Y-83333785D01*
X142579071Y-83333785D01*
X141829071Y-83333785D02*
X141829071Y-82833785D01*
X141829071Y-82583785D02*
X141864785Y-82619500D01*
X141829071Y-82655214D01*
X141793357Y-82619500D01*
X141829071Y-82583785D01*
X141829071Y-82655214D01*
X141150500Y-82833785D02*
X141150500Y-83440928D01*
X141186214Y-83512357D01*
X141221928Y-83548071D01*
X141293357Y-83583785D01*
X141400500Y-83583785D01*
X141471928Y-83548071D01*
X141150500Y-83298071D02*
X141221928Y-83333785D01*
X141364785Y-83333785D01*
X141436214Y-83298071D01*
X141471928Y-83262357D01*
X141507642Y-83190928D01*
X141507642Y-82976642D01*
X141471928Y-82905214D01*
X141436214Y-82869500D01*
X141364785Y-82833785D01*
X141221928Y-82833785D01*
X141150500Y-82869500D01*
X140793357Y-83333785D02*
X140793357Y-82833785D01*
X140793357Y-82583785D02*
X140829071Y-82619500D01*
X140793357Y-82655214D01*
X140757642Y-82619500D01*
X140793357Y-82583785D01*
X140793357Y-82655214D01*
X140543357Y-82833785D02*
X140257642Y-82833785D01*
X140436214Y-82583785D02*
X140436214Y-83226642D01*
X140400500Y-83298071D01*
X140329071Y-83333785D01*
X140257642Y-83333785D01*
X139686214Y-83333785D02*
X139686214Y-82940928D01*
X139721928Y-82869500D01*
X139793357Y-82833785D01*
X139936214Y-82833785D01*
X140007642Y-82869500D01*
X139686214Y-83298071D02*
X139757642Y-83333785D01*
X139936214Y-83333785D01*
X140007642Y-83298071D01*
X140043357Y-83226642D01*
X140043357Y-83155214D01*
X140007642Y-83083785D01*
X139936214Y-83048071D01*
X139757642Y-83048071D01*
X139686214Y-83012357D01*
X139221928Y-83333785D02*
X139293357Y-83298071D01*
X139329071Y-83226642D01*
X139329071Y-82583785D01*
X137936214Y-83262357D02*
X137971928Y-83298071D01*
X138079071Y-83333785D01*
X138150500Y-83333785D01*
X138257642Y-83298071D01*
X138329071Y-83226642D01*
X138364785Y-83155214D01*
X138400500Y-83012357D01*
X138400500Y-82905214D01*
X138364785Y-82762357D01*
X138329071Y-82690928D01*
X138257642Y-82619500D01*
X138150500Y-82583785D01*
X138079071Y-82583785D01*
X137971928Y-82619500D01*
X137936214Y-82655214D01*
X137507642Y-83333785D02*
X137579071Y-83298071D01*
X137614785Y-83226642D01*
X137614785Y-82583785D01*
X137114785Y-83333785D02*
X137186214Y-83298071D01*
X137221928Y-83262357D01*
X137257642Y-83190928D01*
X137257642Y-82976642D01*
X137221928Y-82905214D01*
X137186214Y-82869500D01*
X137114785Y-82833785D01*
X137007642Y-82833785D01*
X136936214Y-82869500D01*
X136900500Y-82905214D01*
X136864785Y-82976642D01*
X136864785Y-83190928D01*
X136900500Y-83262357D01*
X136936214Y-83298071D01*
X137007642Y-83333785D01*
X137114785Y-83333785D01*
X136221928Y-83298071D02*
X136293357Y-83333785D01*
X136436214Y-83333785D01*
X136507642Y-83298071D01*
X136543357Y-83262357D01*
X136579071Y-83190928D01*
X136579071Y-82976642D01*
X136543357Y-82905214D01*
X136507642Y-82869500D01*
X136436214Y-82833785D01*
X136293357Y-82833785D01*
X136221928Y-82869500D01*
X135900500Y-83333785D02*
X135900500Y-82583785D01*
X135829071Y-83048071D02*
X135614785Y-83333785D01*
X135614785Y-82833785D02*
X135900500Y-83119500D01*
D12*
X139831000Y-93005500D02*
X139831000Y-86605500D01*
X139831000Y-86605500D02*
X142231000Y-86605500D01*
X142231000Y-86605500D02*
X142231000Y-93005500D01*
X142231000Y-93005500D02*
X139831000Y-93005500D01*
X140681000Y-93005500D02*
X140081000Y-93905500D01*
X140081000Y-93905500D02*
X140081000Y-94105500D01*
X141381000Y-93005500D02*
X141981000Y-93905500D01*
X141981000Y-93905500D02*
X141981000Y-94105500D01*
X146070000Y-88900000D02*
X146070000Y-86950000D01*
X146070000Y-88900000D02*
X146070000Y-90850000D01*
X156190000Y-88900000D02*
X156190000Y-86950000D01*
X156190000Y-88900000D02*
X156190000Y-92350000D01*
D11*
X163730000Y-85150000D02*
X160730000Y-85150000D01*
X159580000Y-85150000D02*
X159580000Y-87300000D01*
D13*
X159580000Y-90500000D02*
X159580000Y-92650000D01*
D11*
X163730000Y-92650000D02*
X160730000Y-92650000D01*
X136461500Y-95430500D02*
X138461500Y-95430500D01*
X136461500Y-94180500D02*
X138461500Y-94180500D01*
X143837500Y-89916000D02*
X143837500Y-87916000D01*
X145087500Y-89916000D02*
X145087500Y-87916000D01*
X157851000Y-87280500D02*
X157851000Y-85280500D01*
X156601000Y-87280500D02*
X156601000Y-85280500D01*
X145542000Y-95430500D02*
X143542000Y-95430500D01*
X145542000Y-94180500D02*
X143542000Y-94180500D01*
D12*
X134990000Y-86625000D02*
X134990000Y-91175000D01*
X137290000Y-86625000D02*
X134990000Y-86625000D01*
X137290000Y-91175000D02*
X137290000Y-86625000D01*
X134990000Y-91175000D02*
X137290000Y-91175000D01*
D10*
X141255714Y-87171214D02*
X141255714Y-87456928D01*
X141455714Y-86856928D02*
X141255714Y-87171214D01*
X141055714Y-86856928D01*
X140541428Y-87456928D02*
X140884285Y-87456928D01*
X140712857Y-87456928D02*
X140712857Y-86856928D01*
X140770000Y-86942642D01*
X140827142Y-86999785D01*
X140884285Y-87028357D01*
X141298571Y-92646214D02*
X141298571Y-92274785D01*
X141070000Y-92474785D01*
X141070000Y-92389071D01*
X141041428Y-92331928D01*
X141012857Y-92303357D01*
X140955714Y-92274785D01*
X140812857Y-92274785D01*
X140755714Y-92303357D01*
X140727142Y-92331928D01*
X140698571Y-92389071D01*
X140698571Y-92560500D01*
X140727142Y-92617642D01*
X140755714Y-92646214D01*
X141241428Y-92046214D02*
X141270000Y-92017642D01*
X141298571Y-91960500D01*
X141298571Y-91817642D01*
X141270000Y-91760500D01*
X141241428Y-91731928D01*
X141184285Y-91703357D01*
X141127142Y-91703357D01*
X141041428Y-91731928D01*
X140698571Y-92074785D01*
X140698571Y-91703357D01*
X140755714Y-91446214D02*
X140727142Y-91417642D01*
X140698571Y-91446214D01*
X140727142Y-91474785D01*
X140755714Y-91446214D01*
X140698571Y-91446214D01*
X141298571Y-91217642D02*
X141298571Y-90817642D01*
X140698571Y-91074785D01*
X141298571Y-90331928D02*
X141298571Y-90446214D01*
X141270000Y-90503357D01*
X141241428Y-90531928D01*
X141155714Y-90589071D01*
X141041428Y-90617642D01*
X140812857Y-90617642D01*
X140755714Y-90589071D01*
X140727142Y-90560500D01*
X140698571Y-90503357D01*
X140698571Y-90389071D01*
X140727142Y-90331928D01*
X140755714Y-90303357D01*
X140812857Y-90274785D01*
X140955714Y-90274785D01*
X141012857Y-90303357D01*
X141041428Y-90331928D01*
X141070000Y-90389071D01*
X141070000Y-90503357D01*
X141041428Y-90560500D01*
X141012857Y-90589071D01*
X140955714Y-90617642D01*
X141041428Y-89931928D02*
X141070000Y-89989071D01*
X141098571Y-90017642D01*
X141155714Y-90046214D01*
X141184285Y-90046214D01*
X141241428Y-90017642D01*
X141270000Y-89989071D01*
X141298571Y-89931928D01*
X141298571Y-89817642D01*
X141270000Y-89760500D01*
X141241428Y-89731928D01*
X141184285Y-89703357D01*
X141155714Y-89703357D01*
X141098571Y-89731928D01*
X141070000Y-89760500D01*
X141041428Y-89817642D01*
X141041428Y-89931928D01*
X141012857Y-89989071D01*
X140984285Y-90017642D01*
X140927142Y-90046214D01*
X140812857Y-90046214D01*
X140755714Y-90017642D01*
X140727142Y-89989071D01*
X140698571Y-89931928D01*
X140698571Y-89817642D01*
X140727142Y-89760500D01*
X140755714Y-89731928D01*
X140812857Y-89703357D01*
X140927142Y-89703357D01*
X140984285Y-89731928D01*
X141012857Y-89760500D01*
X141041428Y-89817642D01*
X140698571Y-89446214D02*
X141298571Y-89446214D01*
X140927142Y-89389071D02*
X140698571Y-89217642D01*
X141098571Y-89217642D02*
X140870000Y-89446214D01*
X140698571Y-88960500D02*
X141298571Y-88960500D01*
X141012857Y-88960500D02*
X141012857Y-88617642D01*
X140698571Y-88617642D02*
X141298571Y-88617642D01*
X141098571Y-88389071D02*
X141098571Y-88074785D01*
X140698571Y-88389071D01*
X140698571Y-88074785D01*
X155903571Y-90119142D02*
X155417857Y-90119142D01*
X155360714Y-90090571D01*
X155332142Y-90062000D01*
X155303571Y-90004857D01*
X155303571Y-89890571D01*
X155332142Y-89833428D01*
X155360714Y-89804857D01*
X155417857Y-89776285D01*
X155903571Y-89776285D01*
X155303571Y-89176285D02*
X155303571Y-89519142D01*
X155303571Y-89347714D02*
X155903571Y-89347714D01*
X155817857Y-89404857D01*
X155760714Y-89462000D01*
X155732142Y-89519142D01*
X153915714Y-89171428D02*
X153915714Y-88571428D01*
X153687142Y-88571428D01*
X153630000Y-88600000D01*
X153601428Y-88628571D01*
X153572857Y-88685714D01*
X153572857Y-88771428D01*
X153601428Y-88828571D01*
X153630000Y-88857142D01*
X153687142Y-88885714D01*
X153915714Y-88885714D01*
X153115714Y-88857142D02*
X153315714Y-88857142D01*
X153315714Y-89171428D02*
X153315714Y-88571428D01*
X153030000Y-88571428D01*
X152830000Y-89142857D02*
X152744285Y-89171428D01*
X152601428Y-89171428D01*
X152544285Y-89142857D01*
X152515714Y-89114285D01*
X152487142Y-89057142D01*
X152487142Y-89000000D01*
X152515714Y-88942857D01*
X152544285Y-88914285D01*
X152601428Y-88885714D01*
X152715714Y-88857142D01*
X152772857Y-88828571D01*
X152801428Y-88800000D01*
X152830000Y-88742857D01*
X152830000Y-88685714D01*
X152801428Y-88628571D01*
X152772857Y-88600000D01*
X152715714Y-88571428D01*
X152572857Y-88571428D01*
X152487142Y-88600000D01*
X151915714Y-89171428D02*
X152258571Y-89171428D01*
X152087142Y-89171428D02*
X152087142Y-88571428D01*
X152144285Y-88657142D01*
X152201428Y-88714285D01*
X152258571Y-88742857D01*
X151372857Y-88571428D02*
X151658571Y-88571428D01*
X151687142Y-88857142D01*
X151658571Y-88828571D01*
X151601428Y-88800000D01*
X151458571Y-88800000D01*
X151401428Y-88828571D01*
X151372857Y-88857142D01*
X151344285Y-88914285D01*
X151344285Y-89057142D01*
X151372857Y-89114285D01*
X151401428Y-89142857D01*
X151458571Y-89171428D01*
X151601428Y-89171428D01*
X151658571Y-89142857D01*
X151687142Y-89114285D01*
X150830000Y-88771428D02*
X150830000Y-89171428D01*
X150972857Y-88542857D02*
X151115714Y-88971428D01*
X150744285Y-88971428D01*
X150515714Y-88942857D02*
X150058571Y-88942857D01*
X149801428Y-89142857D02*
X149715714Y-89171428D01*
X149572857Y-89171428D01*
X149515714Y-89142857D01*
X149487142Y-89114285D01*
X149458571Y-89057142D01*
X149458571Y-89000000D01*
X149487142Y-88942857D01*
X149515714Y-88914285D01*
X149572857Y-88885714D01*
X149687142Y-88857142D01*
X149744285Y-88828571D01*
X149772857Y-88800000D01*
X149801428Y-88742857D01*
X149801428Y-88685714D01*
X149772857Y-88628571D01*
X149744285Y-88600000D01*
X149687142Y-88571428D01*
X149544285Y-88571428D01*
X149458571Y-88600000D01*
X148887142Y-89171428D02*
X149230000Y-89171428D01*
X149058571Y-89171428D02*
X149058571Y-88571428D01*
X149115714Y-88657142D01*
X149172857Y-88714285D01*
X149230000Y-88742857D01*
X148372857Y-88571428D02*
X148487142Y-88571428D01*
X148544285Y-88600000D01*
X148572857Y-88628571D01*
X148630000Y-88714285D01*
X148658571Y-88828571D01*
X148658571Y-89057142D01*
X148630000Y-89114285D01*
X148601428Y-89142857D01*
X148544285Y-89171428D01*
X148430000Y-89171428D01*
X148372857Y-89142857D01*
X148344285Y-89114285D01*
X148315714Y-89057142D01*
X148315714Y-88914285D01*
X148344285Y-88857142D01*
X148372857Y-88828571D01*
X148430000Y-88800000D01*
X148544285Y-88800000D01*
X148601428Y-88828571D01*
X148630000Y-88857142D01*
X148658571Y-88914285D01*
X161301071Y-91614285D02*
X160815357Y-91614285D01*
X160758214Y-91585714D01*
X160729642Y-91557142D01*
X160701071Y-91500000D01*
X160701071Y-91385714D01*
X160729642Y-91328571D01*
X160758214Y-91300000D01*
X160815357Y-91271428D01*
X161301071Y-91271428D01*
X160729642Y-91014285D02*
X160701071Y-90928571D01*
X160701071Y-90785714D01*
X160729642Y-90728571D01*
X160758214Y-90700000D01*
X160815357Y-90671428D01*
X160872500Y-90671428D01*
X160929642Y-90700000D01*
X160958214Y-90728571D01*
X160986785Y-90785714D01*
X161015357Y-90900000D01*
X161043928Y-90957142D01*
X161072500Y-90985714D01*
X161129642Y-91014285D01*
X161186785Y-91014285D01*
X161243928Y-90985714D01*
X161272500Y-90957142D01*
X161301071Y-90900000D01*
X161301071Y-90757142D01*
X161272500Y-90671428D01*
X161015357Y-90214285D02*
X160986785Y-90128571D01*
X160958214Y-90100000D01*
X160901071Y-90071428D01*
X160815357Y-90071428D01*
X160758214Y-90100000D01*
X160729642Y-90128571D01*
X160701071Y-90185714D01*
X160701071Y-90414285D01*
X161301071Y-90414285D01*
X161301071Y-90214285D01*
X161272500Y-90157142D01*
X161243928Y-90128571D01*
X161186785Y-90100000D01*
X161129642Y-90100000D01*
X161072500Y-90128571D01*
X161043928Y-90157142D01*
X161015357Y-90214285D01*
X161015357Y-90414285D01*
X160643928Y-89957142D02*
X160643928Y-89500000D01*
X161015357Y-89157142D02*
X160986785Y-89071428D01*
X160958214Y-89042857D01*
X160901071Y-89014285D01*
X160815357Y-89014285D01*
X160758214Y-89042857D01*
X160729642Y-89071428D01*
X160701071Y-89128571D01*
X160701071Y-89357142D01*
X161301071Y-89357142D01*
X161301071Y-89157142D01*
X161272500Y-89100000D01*
X161243928Y-89071428D01*
X161186785Y-89042857D01*
X161129642Y-89042857D01*
X161072500Y-89071428D01*
X161043928Y-89100000D01*
X161015357Y-89157142D01*
X161015357Y-89357142D01*
X160643928Y-88900000D02*
X160643928Y-88442857D01*
X160701071Y-88300000D02*
X161301071Y-88300000D01*
X160872500Y-88100000D01*
X161301071Y-87900000D01*
X160701071Y-87900000D01*
X160701071Y-87614285D02*
X161101071Y-87614285D01*
X161301071Y-87614285D02*
X161272500Y-87642857D01*
X161243928Y-87614285D01*
X161272500Y-87585714D01*
X161301071Y-87614285D01*
X161243928Y-87614285D01*
X160729642Y-87071428D02*
X160701071Y-87128571D01*
X160701071Y-87242857D01*
X160729642Y-87300000D01*
X160758214Y-87328571D01*
X160815357Y-87357142D01*
X160986785Y-87357142D01*
X161043928Y-87328571D01*
X161072500Y-87300000D01*
X161101071Y-87242857D01*
X161101071Y-87128571D01*
X161072500Y-87071428D01*
X160701071Y-86814285D02*
X161101071Y-86814285D01*
X160986785Y-86814285D02*
X161043928Y-86785714D01*
X161072500Y-86757142D01*
X161101071Y-86700000D01*
X161101071Y-86642857D01*
X160701071Y-86357142D02*
X160729642Y-86414285D01*
X160758214Y-86442857D01*
X160815357Y-86471428D01*
X160986785Y-86471428D01*
X161043928Y-86442857D01*
X161072500Y-86414285D01*
X161101071Y-86357142D01*
X161101071Y-86271428D01*
X161072500Y-86214285D01*
X161043928Y-86185714D01*
X160986785Y-86157142D01*
X160815357Y-86157142D01*
X160758214Y-86185714D01*
X160729642Y-86214285D01*
X160701071Y-86271428D01*
X160701071Y-86357142D01*
D11*
X137640071Y-94722166D02*
X137663880Y-94698357D01*
X137687690Y-94626928D01*
X137687690Y-94579309D01*
X137663880Y-94507880D01*
X137616261Y-94460261D01*
X137568642Y-94436452D01*
X137473404Y-94412642D01*
X137401976Y-94412642D01*
X137306738Y-94436452D01*
X137259119Y-94460261D01*
X137211500Y-94507880D01*
X137187690Y-94579309D01*
X137187690Y-94626928D01*
X137211500Y-94698357D01*
X137235309Y-94722166D01*
X137354357Y-95150738D02*
X137687690Y-95150738D01*
X137163880Y-95031690D02*
X137521023Y-94912642D01*
X137521023Y-95222166D01*
X144545833Y-89094571D02*
X144569642Y-89118380D01*
X144641071Y-89142190D01*
X144688690Y-89142190D01*
X144760119Y-89118380D01*
X144807738Y-89070761D01*
X144831547Y-89023142D01*
X144855357Y-88927904D01*
X144855357Y-88856476D01*
X144831547Y-88761238D01*
X144807738Y-88713619D01*
X144760119Y-88666000D01*
X144688690Y-88642190D01*
X144641071Y-88642190D01*
X144569642Y-88666000D01*
X144545833Y-88689809D01*
X144069642Y-89142190D02*
X144355357Y-89142190D01*
X144212500Y-89142190D02*
X144212500Y-88642190D01*
X144260119Y-88713619D01*
X144307738Y-88761238D01*
X144355357Y-88785047D01*
X157309333Y-86459071D02*
X157333142Y-86482880D01*
X157404571Y-86506690D01*
X157452190Y-86506690D01*
X157523619Y-86482880D01*
X157571238Y-86435261D01*
X157595047Y-86387642D01*
X157618857Y-86292404D01*
X157618857Y-86220976D01*
X157595047Y-86125738D01*
X157571238Y-86078119D01*
X157523619Y-86030500D01*
X157452190Y-86006690D01*
X157404571Y-86006690D01*
X157333142Y-86030500D01*
X157309333Y-86054309D01*
X157118857Y-86054309D02*
X157095047Y-86030500D01*
X157047428Y-86006690D01*
X156928380Y-86006690D01*
X156880761Y-86030500D01*
X156856952Y-86054309D01*
X156833142Y-86101928D01*
X156833142Y-86149547D01*
X156856952Y-86220976D01*
X157142666Y-86506690D01*
X156833142Y-86506690D01*
X144720571Y-94722166D02*
X144744380Y-94698357D01*
X144768190Y-94626928D01*
X144768190Y-94579309D01*
X144744380Y-94507880D01*
X144696761Y-94460261D01*
X144649142Y-94436452D01*
X144553904Y-94412642D01*
X144482476Y-94412642D01*
X144387238Y-94436452D01*
X144339619Y-94460261D01*
X144292000Y-94507880D01*
X144268190Y-94579309D01*
X144268190Y-94626928D01*
X144292000Y-94698357D01*
X144315809Y-94722166D01*
X144268190Y-94888833D02*
X144268190Y-95198357D01*
X144458666Y-95031690D01*
X144458666Y-95103119D01*
X144482476Y-95150738D01*
X144506285Y-95174547D01*
X144553904Y-95198357D01*
X144672952Y-95198357D01*
X144720571Y-95174547D01*
X144744380Y-95150738D01*
X144768190Y-95103119D01*
X144768190Y-94960261D01*
X144744380Y-94912642D01*
X144720571Y-94888833D01*
D10*
X136958357Y-88100000D02*
X136986928Y-88185714D01*
X136986928Y-88328571D01*
X136958357Y-88385714D01*
X136929785Y-88414285D01*
X136872642Y-88442857D01*
X136815500Y-88442857D01*
X136758357Y-88414285D01*
X136729785Y-88385714D01*
X136701214Y-88328571D01*
X136672642Y-88214285D01*
X136644071Y-88157142D01*
X136615500Y-88128571D01*
X136558357Y-88100000D01*
X136501214Y-88100000D01*
X136444071Y-88128571D01*
X136415500Y-88157142D01*
X136386928Y-88214285D01*
X136386928Y-88357142D01*
X136415500Y-88442857D01*
X136386928Y-88642857D02*
X136986928Y-88785714D01*
X136558357Y-88900000D01*
X136986928Y-89014285D01*
X136386928Y-89157142D01*
X136986928Y-89700000D02*
X136986928Y-89357142D01*
X136986928Y-89528571D02*
X136386928Y-89528571D01*
X136472642Y-89471428D01*
X136529785Y-89414285D01*
X136558357Y-89357142D01*
M02*
