G04 #@! TF.GenerationSoftware,KiCad,Pcbnew,(5.1.5)-3*
G04 #@! TF.CreationDate,2020-07-16T22:53:37-05:00*
G04 #@! TF.ProjectId,pcb,7063622e-6b69-4636-9164-5f7063625858,rev?*
G04 #@! TF.SameCoordinates,Original*
G04 #@! TF.FileFunction,Paste,Bot*
G04 #@! TF.FilePolarity,Positive*
%FSLAX46Y46*%
G04 Gerber Fmt 4.6, Leading zero omitted, Abs format (unit mm)*
G04 Created by KiCad (PCBNEW (5.1.5)-3) date 2020-07-16 22:53:37*
%MOMM*%
%LPD*%
G04 APERTURE LIST*
%ADD10C,0.100000*%
%ADD11R,1.900000X1.900000*%
%ADD12R,2.100000X0.390000*%
%ADD13R,1.000000X1.700000*%
%ADD14R,1.000000X1.250000*%
%ADD15R,1.250000X1.000000*%
%ADD16R,1.200000X0.900000*%
%ADD17R,1.300000X1.150000*%
G04 APERTURE END LIST*
D10*
G36*
X155739703Y-90400722D02*
G01*
X155754264Y-90402882D01*
X155768543Y-90406459D01*
X155782403Y-90411418D01*
X155795710Y-90417712D01*
X155808336Y-90425280D01*
X155820159Y-90434048D01*
X155831066Y-90443934D01*
X155840952Y-90454841D01*
X155849720Y-90466664D01*
X155857288Y-90479290D01*
X155863582Y-90492597D01*
X155868541Y-90506457D01*
X155872118Y-90520736D01*
X155874278Y-90535297D01*
X155875000Y-90550000D01*
X155875000Y-92200000D01*
X155874278Y-92214703D01*
X155872118Y-92229264D01*
X155868541Y-92243543D01*
X155863582Y-92257403D01*
X155857288Y-92270710D01*
X155849720Y-92283336D01*
X155840952Y-92295159D01*
X155831066Y-92306066D01*
X155820159Y-92315952D01*
X155808336Y-92324720D01*
X155795710Y-92332288D01*
X155782403Y-92338582D01*
X155768543Y-92343541D01*
X155754264Y-92347118D01*
X155739703Y-92349278D01*
X155725000Y-92350000D01*
X155425000Y-92350000D01*
X155410297Y-92349278D01*
X155395736Y-92347118D01*
X155381457Y-92343541D01*
X155367597Y-92338582D01*
X155354290Y-92332288D01*
X155341664Y-92324720D01*
X155329841Y-92315952D01*
X155318934Y-92306066D01*
X155309048Y-92295159D01*
X155300280Y-92283336D01*
X155292712Y-92270710D01*
X155286418Y-92257403D01*
X155281459Y-92243543D01*
X155277882Y-92229264D01*
X155275722Y-92214703D01*
X155275000Y-92200000D01*
X155275000Y-90550000D01*
X155275722Y-90535297D01*
X155277882Y-90520736D01*
X155281459Y-90506457D01*
X155286418Y-90492597D01*
X155292712Y-90479290D01*
X155300280Y-90466664D01*
X155309048Y-90454841D01*
X155318934Y-90443934D01*
X155329841Y-90434048D01*
X155341664Y-90425280D01*
X155354290Y-90417712D01*
X155367597Y-90411418D01*
X155381457Y-90406459D01*
X155395736Y-90402882D01*
X155410297Y-90400722D01*
X155425000Y-90400000D01*
X155725000Y-90400000D01*
X155739703Y-90400722D01*
G37*
G36*
X154469703Y-90400722D02*
G01*
X154484264Y-90402882D01*
X154498543Y-90406459D01*
X154512403Y-90411418D01*
X154525710Y-90417712D01*
X154538336Y-90425280D01*
X154550159Y-90434048D01*
X154561066Y-90443934D01*
X154570952Y-90454841D01*
X154579720Y-90466664D01*
X154587288Y-90479290D01*
X154593582Y-90492597D01*
X154598541Y-90506457D01*
X154602118Y-90520736D01*
X154604278Y-90535297D01*
X154605000Y-90550000D01*
X154605000Y-92200000D01*
X154604278Y-92214703D01*
X154602118Y-92229264D01*
X154598541Y-92243543D01*
X154593582Y-92257403D01*
X154587288Y-92270710D01*
X154579720Y-92283336D01*
X154570952Y-92295159D01*
X154561066Y-92306066D01*
X154550159Y-92315952D01*
X154538336Y-92324720D01*
X154525710Y-92332288D01*
X154512403Y-92338582D01*
X154498543Y-92343541D01*
X154484264Y-92347118D01*
X154469703Y-92349278D01*
X154455000Y-92350000D01*
X154155000Y-92350000D01*
X154140297Y-92349278D01*
X154125736Y-92347118D01*
X154111457Y-92343541D01*
X154097597Y-92338582D01*
X154084290Y-92332288D01*
X154071664Y-92324720D01*
X154059841Y-92315952D01*
X154048934Y-92306066D01*
X154039048Y-92295159D01*
X154030280Y-92283336D01*
X154022712Y-92270710D01*
X154016418Y-92257403D01*
X154011459Y-92243543D01*
X154007882Y-92229264D01*
X154005722Y-92214703D01*
X154005000Y-92200000D01*
X154005000Y-90550000D01*
X154005722Y-90535297D01*
X154007882Y-90520736D01*
X154011459Y-90506457D01*
X154016418Y-90492597D01*
X154022712Y-90479290D01*
X154030280Y-90466664D01*
X154039048Y-90454841D01*
X154048934Y-90443934D01*
X154059841Y-90434048D01*
X154071664Y-90425280D01*
X154084290Y-90417712D01*
X154097597Y-90411418D01*
X154111457Y-90406459D01*
X154125736Y-90402882D01*
X154140297Y-90400722D01*
X154155000Y-90400000D01*
X154455000Y-90400000D01*
X154469703Y-90400722D01*
G37*
G36*
X153199703Y-90400722D02*
G01*
X153214264Y-90402882D01*
X153228543Y-90406459D01*
X153242403Y-90411418D01*
X153255710Y-90417712D01*
X153268336Y-90425280D01*
X153280159Y-90434048D01*
X153291066Y-90443934D01*
X153300952Y-90454841D01*
X153309720Y-90466664D01*
X153317288Y-90479290D01*
X153323582Y-90492597D01*
X153328541Y-90506457D01*
X153332118Y-90520736D01*
X153334278Y-90535297D01*
X153335000Y-90550000D01*
X153335000Y-92200000D01*
X153334278Y-92214703D01*
X153332118Y-92229264D01*
X153328541Y-92243543D01*
X153323582Y-92257403D01*
X153317288Y-92270710D01*
X153309720Y-92283336D01*
X153300952Y-92295159D01*
X153291066Y-92306066D01*
X153280159Y-92315952D01*
X153268336Y-92324720D01*
X153255710Y-92332288D01*
X153242403Y-92338582D01*
X153228543Y-92343541D01*
X153214264Y-92347118D01*
X153199703Y-92349278D01*
X153185000Y-92350000D01*
X152885000Y-92350000D01*
X152870297Y-92349278D01*
X152855736Y-92347118D01*
X152841457Y-92343541D01*
X152827597Y-92338582D01*
X152814290Y-92332288D01*
X152801664Y-92324720D01*
X152789841Y-92315952D01*
X152778934Y-92306066D01*
X152769048Y-92295159D01*
X152760280Y-92283336D01*
X152752712Y-92270710D01*
X152746418Y-92257403D01*
X152741459Y-92243543D01*
X152737882Y-92229264D01*
X152735722Y-92214703D01*
X152735000Y-92200000D01*
X152735000Y-90550000D01*
X152735722Y-90535297D01*
X152737882Y-90520736D01*
X152741459Y-90506457D01*
X152746418Y-90492597D01*
X152752712Y-90479290D01*
X152760280Y-90466664D01*
X152769048Y-90454841D01*
X152778934Y-90443934D01*
X152789841Y-90434048D01*
X152801664Y-90425280D01*
X152814290Y-90417712D01*
X152827597Y-90411418D01*
X152841457Y-90406459D01*
X152855736Y-90402882D01*
X152870297Y-90400722D01*
X152885000Y-90400000D01*
X153185000Y-90400000D01*
X153199703Y-90400722D01*
G37*
G36*
X151929703Y-90400722D02*
G01*
X151944264Y-90402882D01*
X151958543Y-90406459D01*
X151972403Y-90411418D01*
X151985710Y-90417712D01*
X151998336Y-90425280D01*
X152010159Y-90434048D01*
X152021066Y-90443934D01*
X152030952Y-90454841D01*
X152039720Y-90466664D01*
X152047288Y-90479290D01*
X152053582Y-90492597D01*
X152058541Y-90506457D01*
X152062118Y-90520736D01*
X152064278Y-90535297D01*
X152065000Y-90550000D01*
X152065000Y-92200000D01*
X152064278Y-92214703D01*
X152062118Y-92229264D01*
X152058541Y-92243543D01*
X152053582Y-92257403D01*
X152047288Y-92270710D01*
X152039720Y-92283336D01*
X152030952Y-92295159D01*
X152021066Y-92306066D01*
X152010159Y-92315952D01*
X151998336Y-92324720D01*
X151985710Y-92332288D01*
X151972403Y-92338582D01*
X151958543Y-92343541D01*
X151944264Y-92347118D01*
X151929703Y-92349278D01*
X151915000Y-92350000D01*
X151615000Y-92350000D01*
X151600297Y-92349278D01*
X151585736Y-92347118D01*
X151571457Y-92343541D01*
X151557597Y-92338582D01*
X151544290Y-92332288D01*
X151531664Y-92324720D01*
X151519841Y-92315952D01*
X151508934Y-92306066D01*
X151499048Y-92295159D01*
X151490280Y-92283336D01*
X151482712Y-92270710D01*
X151476418Y-92257403D01*
X151471459Y-92243543D01*
X151467882Y-92229264D01*
X151465722Y-92214703D01*
X151465000Y-92200000D01*
X151465000Y-90550000D01*
X151465722Y-90535297D01*
X151467882Y-90520736D01*
X151471459Y-90506457D01*
X151476418Y-90492597D01*
X151482712Y-90479290D01*
X151490280Y-90466664D01*
X151499048Y-90454841D01*
X151508934Y-90443934D01*
X151519841Y-90434048D01*
X151531664Y-90425280D01*
X151544290Y-90417712D01*
X151557597Y-90411418D01*
X151571457Y-90406459D01*
X151585736Y-90402882D01*
X151600297Y-90400722D01*
X151615000Y-90400000D01*
X151915000Y-90400000D01*
X151929703Y-90400722D01*
G37*
G36*
X150659703Y-90400722D02*
G01*
X150674264Y-90402882D01*
X150688543Y-90406459D01*
X150702403Y-90411418D01*
X150715710Y-90417712D01*
X150728336Y-90425280D01*
X150740159Y-90434048D01*
X150751066Y-90443934D01*
X150760952Y-90454841D01*
X150769720Y-90466664D01*
X150777288Y-90479290D01*
X150783582Y-90492597D01*
X150788541Y-90506457D01*
X150792118Y-90520736D01*
X150794278Y-90535297D01*
X150795000Y-90550000D01*
X150795000Y-92200000D01*
X150794278Y-92214703D01*
X150792118Y-92229264D01*
X150788541Y-92243543D01*
X150783582Y-92257403D01*
X150777288Y-92270710D01*
X150769720Y-92283336D01*
X150760952Y-92295159D01*
X150751066Y-92306066D01*
X150740159Y-92315952D01*
X150728336Y-92324720D01*
X150715710Y-92332288D01*
X150702403Y-92338582D01*
X150688543Y-92343541D01*
X150674264Y-92347118D01*
X150659703Y-92349278D01*
X150645000Y-92350000D01*
X150345000Y-92350000D01*
X150330297Y-92349278D01*
X150315736Y-92347118D01*
X150301457Y-92343541D01*
X150287597Y-92338582D01*
X150274290Y-92332288D01*
X150261664Y-92324720D01*
X150249841Y-92315952D01*
X150238934Y-92306066D01*
X150229048Y-92295159D01*
X150220280Y-92283336D01*
X150212712Y-92270710D01*
X150206418Y-92257403D01*
X150201459Y-92243543D01*
X150197882Y-92229264D01*
X150195722Y-92214703D01*
X150195000Y-92200000D01*
X150195000Y-90550000D01*
X150195722Y-90535297D01*
X150197882Y-90520736D01*
X150201459Y-90506457D01*
X150206418Y-90492597D01*
X150212712Y-90479290D01*
X150220280Y-90466664D01*
X150229048Y-90454841D01*
X150238934Y-90443934D01*
X150249841Y-90434048D01*
X150261664Y-90425280D01*
X150274290Y-90417712D01*
X150287597Y-90411418D01*
X150301457Y-90406459D01*
X150315736Y-90402882D01*
X150330297Y-90400722D01*
X150345000Y-90400000D01*
X150645000Y-90400000D01*
X150659703Y-90400722D01*
G37*
G36*
X149389703Y-90400722D02*
G01*
X149404264Y-90402882D01*
X149418543Y-90406459D01*
X149432403Y-90411418D01*
X149445710Y-90417712D01*
X149458336Y-90425280D01*
X149470159Y-90434048D01*
X149481066Y-90443934D01*
X149490952Y-90454841D01*
X149499720Y-90466664D01*
X149507288Y-90479290D01*
X149513582Y-90492597D01*
X149518541Y-90506457D01*
X149522118Y-90520736D01*
X149524278Y-90535297D01*
X149525000Y-90550000D01*
X149525000Y-92200000D01*
X149524278Y-92214703D01*
X149522118Y-92229264D01*
X149518541Y-92243543D01*
X149513582Y-92257403D01*
X149507288Y-92270710D01*
X149499720Y-92283336D01*
X149490952Y-92295159D01*
X149481066Y-92306066D01*
X149470159Y-92315952D01*
X149458336Y-92324720D01*
X149445710Y-92332288D01*
X149432403Y-92338582D01*
X149418543Y-92343541D01*
X149404264Y-92347118D01*
X149389703Y-92349278D01*
X149375000Y-92350000D01*
X149075000Y-92350000D01*
X149060297Y-92349278D01*
X149045736Y-92347118D01*
X149031457Y-92343541D01*
X149017597Y-92338582D01*
X149004290Y-92332288D01*
X148991664Y-92324720D01*
X148979841Y-92315952D01*
X148968934Y-92306066D01*
X148959048Y-92295159D01*
X148950280Y-92283336D01*
X148942712Y-92270710D01*
X148936418Y-92257403D01*
X148931459Y-92243543D01*
X148927882Y-92229264D01*
X148925722Y-92214703D01*
X148925000Y-92200000D01*
X148925000Y-90550000D01*
X148925722Y-90535297D01*
X148927882Y-90520736D01*
X148931459Y-90506457D01*
X148936418Y-90492597D01*
X148942712Y-90479290D01*
X148950280Y-90466664D01*
X148959048Y-90454841D01*
X148968934Y-90443934D01*
X148979841Y-90434048D01*
X148991664Y-90425280D01*
X149004290Y-90417712D01*
X149017597Y-90411418D01*
X149031457Y-90406459D01*
X149045736Y-90402882D01*
X149060297Y-90400722D01*
X149075000Y-90400000D01*
X149375000Y-90400000D01*
X149389703Y-90400722D01*
G37*
G36*
X148119703Y-90400722D02*
G01*
X148134264Y-90402882D01*
X148148543Y-90406459D01*
X148162403Y-90411418D01*
X148175710Y-90417712D01*
X148188336Y-90425280D01*
X148200159Y-90434048D01*
X148211066Y-90443934D01*
X148220952Y-90454841D01*
X148229720Y-90466664D01*
X148237288Y-90479290D01*
X148243582Y-90492597D01*
X148248541Y-90506457D01*
X148252118Y-90520736D01*
X148254278Y-90535297D01*
X148255000Y-90550000D01*
X148255000Y-92200000D01*
X148254278Y-92214703D01*
X148252118Y-92229264D01*
X148248541Y-92243543D01*
X148243582Y-92257403D01*
X148237288Y-92270710D01*
X148229720Y-92283336D01*
X148220952Y-92295159D01*
X148211066Y-92306066D01*
X148200159Y-92315952D01*
X148188336Y-92324720D01*
X148175710Y-92332288D01*
X148162403Y-92338582D01*
X148148543Y-92343541D01*
X148134264Y-92347118D01*
X148119703Y-92349278D01*
X148105000Y-92350000D01*
X147805000Y-92350000D01*
X147790297Y-92349278D01*
X147775736Y-92347118D01*
X147761457Y-92343541D01*
X147747597Y-92338582D01*
X147734290Y-92332288D01*
X147721664Y-92324720D01*
X147709841Y-92315952D01*
X147698934Y-92306066D01*
X147689048Y-92295159D01*
X147680280Y-92283336D01*
X147672712Y-92270710D01*
X147666418Y-92257403D01*
X147661459Y-92243543D01*
X147657882Y-92229264D01*
X147655722Y-92214703D01*
X147655000Y-92200000D01*
X147655000Y-90550000D01*
X147655722Y-90535297D01*
X147657882Y-90520736D01*
X147661459Y-90506457D01*
X147666418Y-90492597D01*
X147672712Y-90479290D01*
X147680280Y-90466664D01*
X147689048Y-90454841D01*
X147698934Y-90443934D01*
X147709841Y-90434048D01*
X147721664Y-90425280D01*
X147734290Y-90417712D01*
X147747597Y-90411418D01*
X147761457Y-90406459D01*
X147775736Y-90402882D01*
X147790297Y-90400722D01*
X147805000Y-90400000D01*
X148105000Y-90400000D01*
X148119703Y-90400722D01*
G37*
G36*
X146849703Y-90400722D02*
G01*
X146864264Y-90402882D01*
X146878543Y-90406459D01*
X146892403Y-90411418D01*
X146905710Y-90417712D01*
X146918336Y-90425280D01*
X146930159Y-90434048D01*
X146941066Y-90443934D01*
X146950952Y-90454841D01*
X146959720Y-90466664D01*
X146967288Y-90479290D01*
X146973582Y-90492597D01*
X146978541Y-90506457D01*
X146982118Y-90520736D01*
X146984278Y-90535297D01*
X146985000Y-90550000D01*
X146985000Y-92200000D01*
X146984278Y-92214703D01*
X146982118Y-92229264D01*
X146978541Y-92243543D01*
X146973582Y-92257403D01*
X146967288Y-92270710D01*
X146959720Y-92283336D01*
X146950952Y-92295159D01*
X146941066Y-92306066D01*
X146930159Y-92315952D01*
X146918336Y-92324720D01*
X146905710Y-92332288D01*
X146892403Y-92338582D01*
X146878543Y-92343541D01*
X146864264Y-92347118D01*
X146849703Y-92349278D01*
X146835000Y-92350000D01*
X146535000Y-92350000D01*
X146520297Y-92349278D01*
X146505736Y-92347118D01*
X146491457Y-92343541D01*
X146477597Y-92338582D01*
X146464290Y-92332288D01*
X146451664Y-92324720D01*
X146439841Y-92315952D01*
X146428934Y-92306066D01*
X146419048Y-92295159D01*
X146410280Y-92283336D01*
X146402712Y-92270710D01*
X146396418Y-92257403D01*
X146391459Y-92243543D01*
X146387882Y-92229264D01*
X146385722Y-92214703D01*
X146385000Y-92200000D01*
X146385000Y-90550000D01*
X146385722Y-90535297D01*
X146387882Y-90520736D01*
X146391459Y-90506457D01*
X146396418Y-90492597D01*
X146402712Y-90479290D01*
X146410280Y-90466664D01*
X146419048Y-90454841D01*
X146428934Y-90443934D01*
X146439841Y-90434048D01*
X146451664Y-90425280D01*
X146464290Y-90417712D01*
X146477597Y-90411418D01*
X146491457Y-90406459D01*
X146505736Y-90402882D01*
X146520297Y-90400722D01*
X146535000Y-90400000D01*
X146835000Y-90400000D01*
X146849703Y-90400722D01*
G37*
G36*
X146849703Y-85450722D02*
G01*
X146864264Y-85452882D01*
X146878543Y-85456459D01*
X146892403Y-85461418D01*
X146905710Y-85467712D01*
X146918336Y-85475280D01*
X146930159Y-85484048D01*
X146941066Y-85493934D01*
X146950952Y-85504841D01*
X146959720Y-85516664D01*
X146967288Y-85529290D01*
X146973582Y-85542597D01*
X146978541Y-85556457D01*
X146982118Y-85570736D01*
X146984278Y-85585297D01*
X146985000Y-85600000D01*
X146985000Y-87250000D01*
X146984278Y-87264703D01*
X146982118Y-87279264D01*
X146978541Y-87293543D01*
X146973582Y-87307403D01*
X146967288Y-87320710D01*
X146959720Y-87333336D01*
X146950952Y-87345159D01*
X146941066Y-87356066D01*
X146930159Y-87365952D01*
X146918336Y-87374720D01*
X146905710Y-87382288D01*
X146892403Y-87388582D01*
X146878543Y-87393541D01*
X146864264Y-87397118D01*
X146849703Y-87399278D01*
X146835000Y-87400000D01*
X146535000Y-87400000D01*
X146520297Y-87399278D01*
X146505736Y-87397118D01*
X146491457Y-87393541D01*
X146477597Y-87388582D01*
X146464290Y-87382288D01*
X146451664Y-87374720D01*
X146439841Y-87365952D01*
X146428934Y-87356066D01*
X146419048Y-87345159D01*
X146410280Y-87333336D01*
X146402712Y-87320710D01*
X146396418Y-87307403D01*
X146391459Y-87293543D01*
X146387882Y-87279264D01*
X146385722Y-87264703D01*
X146385000Y-87250000D01*
X146385000Y-85600000D01*
X146385722Y-85585297D01*
X146387882Y-85570736D01*
X146391459Y-85556457D01*
X146396418Y-85542597D01*
X146402712Y-85529290D01*
X146410280Y-85516664D01*
X146419048Y-85504841D01*
X146428934Y-85493934D01*
X146439841Y-85484048D01*
X146451664Y-85475280D01*
X146464290Y-85467712D01*
X146477597Y-85461418D01*
X146491457Y-85456459D01*
X146505736Y-85452882D01*
X146520297Y-85450722D01*
X146535000Y-85450000D01*
X146835000Y-85450000D01*
X146849703Y-85450722D01*
G37*
G36*
X148119703Y-85450722D02*
G01*
X148134264Y-85452882D01*
X148148543Y-85456459D01*
X148162403Y-85461418D01*
X148175710Y-85467712D01*
X148188336Y-85475280D01*
X148200159Y-85484048D01*
X148211066Y-85493934D01*
X148220952Y-85504841D01*
X148229720Y-85516664D01*
X148237288Y-85529290D01*
X148243582Y-85542597D01*
X148248541Y-85556457D01*
X148252118Y-85570736D01*
X148254278Y-85585297D01*
X148255000Y-85600000D01*
X148255000Y-87250000D01*
X148254278Y-87264703D01*
X148252118Y-87279264D01*
X148248541Y-87293543D01*
X148243582Y-87307403D01*
X148237288Y-87320710D01*
X148229720Y-87333336D01*
X148220952Y-87345159D01*
X148211066Y-87356066D01*
X148200159Y-87365952D01*
X148188336Y-87374720D01*
X148175710Y-87382288D01*
X148162403Y-87388582D01*
X148148543Y-87393541D01*
X148134264Y-87397118D01*
X148119703Y-87399278D01*
X148105000Y-87400000D01*
X147805000Y-87400000D01*
X147790297Y-87399278D01*
X147775736Y-87397118D01*
X147761457Y-87393541D01*
X147747597Y-87388582D01*
X147734290Y-87382288D01*
X147721664Y-87374720D01*
X147709841Y-87365952D01*
X147698934Y-87356066D01*
X147689048Y-87345159D01*
X147680280Y-87333336D01*
X147672712Y-87320710D01*
X147666418Y-87307403D01*
X147661459Y-87293543D01*
X147657882Y-87279264D01*
X147655722Y-87264703D01*
X147655000Y-87250000D01*
X147655000Y-85600000D01*
X147655722Y-85585297D01*
X147657882Y-85570736D01*
X147661459Y-85556457D01*
X147666418Y-85542597D01*
X147672712Y-85529290D01*
X147680280Y-85516664D01*
X147689048Y-85504841D01*
X147698934Y-85493934D01*
X147709841Y-85484048D01*
X147721664Y-85475280D01*
X147734290Y-85467712D01*
X147747597Y-85461418D01*
X147761457Y-85456459D01*
X147775736Y-85452882D01*
X147790297Y-85450722D01*
X147805000Y-85450000D01*
X148105000Y-85450000D01*
X148119703Y-85450722D01*
G37*
G36*
X149389703Y-85450722D02*
G01*
X149404264Y-85452882D01*
X149418543Y-85456459D01*
X149432403Y-85461418D01*
X149445710Y-85467712D01*
X149458336Y-85475280D01*
X149470159Y-85484048D01*
X149481066Y-85493934D01*
X149490952Y-85504841D01*
X149499720Y-85516664D01*
X149507288Y-85529290D01*
X149513582Y-85542597D01*
X149518541Y-85556457D01*
X149522118Y-85570736D01*
X149524278Y-85585297D01*
X149525000Y-85600000D01*
X149525000Y-87250000D01*
X149524278Y-87264703D01*
X149522118Y-87279264D01*
X149518541Y-87293543D01*
X149513582Y-87307403D01*
X149507288Y-87320710D01*
X149499720Y-87333336D01*
X149490952Y-87345159D01*
X149481066Y-87356066D01*
X149470159Y-87365952D01*
X149458336Y-87374720D01*
X149445710Y-87382288D01*
X149432403Y-87388582D01*
X149418543Y-87393541D01*
X149404264Y-87397118D01*
X149389703Y-87399278D01*
X149375000Y-87400000D01*
X149075000Y-87400000D01*
X149060297Y-87399278D01*
X149045736Y-87397118D01*
X149031457Y-87393541D01*
X149017597Y-87388582D01*
X149004290Y-87382288D01*
X148991664Y-87374720D01*
X148979841Y-87365952D01*
X148968934Y-87356066D01*
X148959048Y-87345159D01*
X148950280Y-87333336D01*
X148942712Y-87320710D01*
X148936418Y-87307403D01*
X148931459Y-87293543D01*
X148927882Y-87279264D01*
X148925722Y-87264703D01*
X148925000Y-87250000D01*
X148925000Y-85600000D01*
X148925722Y-85585297D01*
X148927882Y-85570736D01*
X148931459Y-85556457D01*
X148936418Y-85542597D01*
X148942712Y-85529290D01*
X148950280Y-85516664D01*
X148959048Y-85504841D01*
X148968934Y-85493934D01*
X148979841Y-85484048D01*
X148991664Y-85475280D01*
X149004290Y-85467712D01*
X149017597Y-85461418D01*
X149031457Y-85456459D01*
X149045736Y-85452882D01*
X149060297Y-85450722D01*
X149075000Y-85450000D01*
X149375000Y-85450000D01*
X149389703Y-85450722D01*
G37*
G36*
X150659703Y-85450722D02*
G01*
X150674264Y-85452882D01*
X150688543Y-85456459D01*
X150702403Y-85461418D01*
X150715710Y-85467712D01*
X150728336Y-85475280D01*
X150740159Y-85484048D01*
X150751066Y-85493934D01*
X150760952Y-85504841D01*
X150769720Y-85516664D01*
X150777288Y-85529290D01*
X150783582Y-85542597D01*
X150788541Y-85556457D01*
X150792118Y-85570736D01*
X150794278Y-85585297D01*
X150795000Y-85600000D01*
X150795000Y-87250000D01*
X150794278Y-87264703D01*
X150792118Y-87279264D01*
X150788541Y-87293543D01*
X150783582Y-87307403D01*
X150777288Y-87320710D01*
X150769720Y-87333336D01*
X150760952Y-87345159D01*
X150751066Y-87356066D01*
X150740159Y-87365952D01*
X150728336Y-87374720D01*
X150715710Y-87382288D01*
X150702403Y-87388582D01*
X150688543Y-87393541D01*
X150674264Y-87397118D01*
X150659703Y-87399278D01*
X150645000Y-87400000D01*
X150345000Y-87400000D01*
X150330297Y-87399278D01*
X150315736Y-87397118D01*
X150301457Y-87393541D01*
X150287597Y-87388582D01*
X150274290Y-87382288D01*
X150261664Y-87374720D01*
X150249841Y-87365952D01*
X150238934Y-87356066D01*
X150229048Y-87345159D01*
X150220280Y-87333336D01*
X150212712Y-87320710D01*
X150206418Y-87307403D01*
X150201459Y-87293543D01*
X150197882Y-87279264D01*
X150195722Y-87264703D01*
X150195000Y-87250000D01*
X150195000Y-85600000D01*
X150195722Y-85585297D01*
X150197882Y-85570736D01*
X150201459Y-85556457D01*
X150206418Y-85542597D01*
X150212712Y-85529290D01*
X150220280Y-85516664D01*
X150229048Y-85504841D01*
X150238934Y-85493934D01*
X150249841Y-85484048D01*
X150261664Y-85475280D01*
X150274290Y-85467712D01*
X150287597Y-85461418D01*
X150301457Y-85456459D01*
X150315736Y-85452882D01*
X150330297Y-85450722D01*
X150345000Y-85450000D01*
X150645000Y-85450000D01*
X150659703Y-85450722D01*
G37*
G36*
X151929703Y-85450722D02*
G01*
X151944264Y-85452882D01*
X151958543Y-85456459D01*
X151972403Y-85461418D01*
X151985710Y-85467712D01*
X151998336Y-85475280D01*
X152010159Y-85484048D01*
X152021066Y-85493934D01*
X152030952Y-85504841D01*
X152039720Y-85516664D01*
X152047288Y-85529290D01*
X152053582Y-85542597D01*
X152058541Y-85556457D01*
X152062118Y-85570736D01*
X152064278Y-85585297D01*
X152065000Y-85600000D01*
X152065000Y-87250000D01*
X152064278Y-87264703D01*
X152062118Y-87279264D01*
X152058541Y-87293543D01*
X152053582Y-87307403D01*
X152047288Y-87320710D01*
X152039720Y-87333336D01*
X152030952Y-87345159D01*
X152021066Y-87356066D01*
X152010159Y-87365952D01*
X151998336Y-87374720D01*
X151985710Y-87382288D01*
X151972403Y-87388582D01*
X151958543Y-87393541D01*
X151944264Y-87397118D01*
X151929703Y-87399278D01*
X151915000Y-87400000D01*
X151615000Y-87400000D01*
X151600297Y-87399278D01*
X151585736Y-87397118D01*
X151571457Y-87393541D01*
X151557597Y-87388582D01*
X151544290Y-87382288D01*
X151531664Y-87374720D01*
X151519841Y-87365952D01*
X151508934Y-87356066D01*
X151499048Y-87345159D01*
X151490280Y-87333336D01*
X151482712Y-87320710D01*
X151476418Y-87307403D01*
X151471459Y-87293543D01*
X151467882Y-87279264D01*
X151465722Y-87264703D01*
X151465000Y-87250000D01*
X151465000Y-85600000D01*
X151465722Y-85585297D01*
X151467882Y-85570736D01*
X151471459Y-85556457D01*
X151476418Y-85542597D01*
X151482712Y-85529290D01*
X151490280Y-85516664D01*
X151499048Y-85504841D01*
X151508934Y-85493934D01*
X151519841Y-85484048D01*
X151531664Y-85475280D01*
X151544290Y-85467712D01*
X151557597Y-85461418D01*
X151571457Y-85456459D01*
X151585736Y-85452882D01*
X151600297Y-85450722D01*
X151615000Y-85450000D01*
X151915000Y-85450000D01*
X151929703Y-85450722D01*
G37*
G36*
X153199703Y-85450722D02*
G01*
X153214264Y-85452882D01*
X153228543Y-85456459D01*
X153242403Y-85461418D01*
X153255710Y-85467712D01*
X153268336Y-85475280D01*
X153280159Y-85484048D01*
X153291066Y-85493934D01*
X153300952Y-85504841D01*
X153309720Y-85516664D01*
X153317288Y-85529290D01*
X153323582Y-85542597D01*
X153328541Y-85556457D01*
X153332118Y-85570736D01*
X153334278Y-85585297D01*
X153335000Y-85600000D01*
X153335000Y-87250000D01*
X153334278Y-87264703D01*
X153332118Y-87279264D01*
X153328541Y-87293543D01*
X153323582Y-87307403D01*
X153317288Y-87320710D01*
X153309720Y-87333336D01*
X153300952Y-87345159D01*
X153291066Y-87356066D01*
X153280159Y-87365952D01*
X153268336Y-87374720D01*
X153255710Y-87382288D01*
X153242403Y-87388582D01*
X153228543Y-87393541D01*
X153214264Y-87397118D01*
X153199703Y-87399278D01*
X153185000Y-87400000D01*
X152885000Y-87400000D01*
X152870297Y-87399278D01*
X152855736Y-87397118D01*
X152841457Y-87393541D01*
X152827597Y-87388582D01*
X152814290Y-87382288D01*
X152801664Y-87374720D01*
X152789841Y-87365952D01*
X152778934Y-87356066D01*
X152769048Y-87345159D01*
X152760280Y-87333336D01*
X152752712Y-87320710D01*
X152746418Y-87307403D01*
X152741459Y-87293543D01*
X152737882Y-87279264D01*
X152735722Y-87264703D01*
X152735000Y-87250000D01*
X152735000Y-85600000D01*
X152735722Y-85585297D01*
X152737882Y-85570736D01*
X152741459Y-85556457D01*
X152746418Y-85542597D01*
X152752712Y-85529290D01*
X152760280Y-85516664D01*
X152769048Y-85504841D01*
X152778934Y-85493934D01*
X152789841Y-85484048D01*
X152801664Y-85475280D01*
X152814290Y-85467712D01*
X152827597Y-85461418D01*
X152841457Y-85456459D01*
X152855736Y-85452882D01*
X152870297Y-85450722D01*
X152885000Y-85450000D01*
X153185000Y-85450000D01*
X153199703Y-85450722D01*
G37*
G36*
X154469703Y-85450722D02*
G01*
X154484264Y-85452882D01*
X154498543Y-85456459D01*
X154512403Y-85461418D01*
X154525710Y-85467712D01*
X154538336Y-85475280D01*
X154550159Y-85484048D01*
X154561066Y-85493934D01*
X154570952Y-85504841D01*
X154579720Y-85516664D01*
X154587288Y-85529290D01*
X154593582Y-85542597D01*
X154598541Y-85556457D01*
X154602118Y-85570736D01*
X154604278Y-85585297D01*
X154605000Y-85600000D01*
X154605000Y-87250000D01*
X154604278Y-87264703D01*
X154602118Y-87279264D01*
X154598541Y-87293543D01*
X154593582Y-87307403D01*
X154587288Y-87320710D01*
X154579720Y-87333336D01*
X154570952Y-87345159D01*
X154561066Y-87356066D01*
X154550159Y-87365952D01*
X154538336Y-87374720D01*
X154525710Y-87382288D01*
X154512403Y-87388582D01*
X154498543Y-87393541D01*
X154484264Y-87397118D01*
X154469703Y-87399278D01*
X154455000Y-87400000D01*
X154155000Y-87400000D01*
X154140297Y-87399278D01*
X154125736Y-87397118D01*
X154111457Y-87393541D01*
X154097597Y-87388582D01*
X154084290Y-87382288D01*
X154071664Y-87374720D01*
X154059841Y-87365952D01*
X154048934Y-87356066D01*
X154039048Y-87345159D01*
X154030280Y-87333336D01*
X154022712Y-87320710D01*
X154016418Y-87307403D01*
X154011459Y-87293543D01*
X154007882Y-87279264D01*
X154005722Y-87264703D01*
X154005000Y-87250000D01*
X154005000Y-85600000D01*
X154005722Y-85585297D01*
X154007882Y-85570736D01*
X154011459Y-85556457D01*
X154016418Y-85542597D01*
X154022712Y-85529290D01*
X154030280Y-85516664D01*
X154039048Y-85504841D01*
X154048934Y-85493934D01*
X154059841Y-85484048D01*
X154071664Y-85475280D01*
X154084290Y-85467712D01*
X154097597Y-85461418D01*
X154111457Y-85456459D01*
X154125736Y-85452882D01*
X154140297Y-85450722D01*
X154155000Y-85450000D01*
X154455000Y-85450000D01*
X154469703Y-85450722D01*
G37*
G36*
X155739703Y-85450722D02*
G01*
X155754264Y-85452882D01*
X155768543Y-85456459D01*
X155782403Y-85461418D01*
X155795710Y-85467712D01*
X155808336Y-85475280D01*
X155820159Y-85484048D01*
X155831066Y-85493934D01*
X155840952Y-85504841D01*
X155849720Y-85516664D01*
X155857288Y-85529290D01*
X155863582Y-85542597D01*
X155868541Y-85556457D01*
X155872118Y-85570736D01*
X155874278Y-85585297D01*
X155875000Y-85600000D01*
X155875000Y-87250000D01*
X155874278Y-87264703D01*
X155872118Y-87279264D01*
X155868541Y-87293543D01*
X155863582Y-87307403D01*
X155857288Y-87320710D01*
X155849720Y-87333336D01*
X155840952Y-87345159D01*
X155831066Y-87356066D01*
X155820159Y-87365952D01*
X155808336Y-87374720D01*
X155795710Y-87382288D01*
X155782403Y-87388582D01*
X155768543Y-87393541D01*
X155754264Y-87397118D01*
X155739703Y-87399278D01*
X155725000Y-87400000D01*
X155425000Y-87400000D01*
X155410297Y-87399278D01*
X155395736Y-87397118D01*
X155381457Y-87393541D01*
X155367597Y-87388582D01*
X155354290Y-87382288D01*
X155341664Y-87374720D01*
X155329841Y-87365952D01*
X155318934Y-87356066D01*
X155309048Y-87345159D01*
X155300280Y-87333336D01*
X155292712Y-87320710D01*
X155286418Y-87307403D01*
X155281459Y-87293543D01*
X155277882Y-87279264D01*
X155275722Y-87264703D01*
X155275000Y-87250000D01*
X155275000Y-85600000D01*
X155275722Y-85585297D01*
X155277882Y-85570736D01*
X155281459Y-85556457D01*
X155286418Y-85542597D01*
X155292712Y-85529290D01*
X155300280Y-85516664D01*
X155309048Y-85504841D01*
X155318934Y-85493934D01*
X155329841Y-85484048D01*
X155341664Y-85475280D01*
X155354290Y-85467712D01*
X155367597Y-85461418D01*
X155381457Y-85456459D01*
X155395736Y-85452882D01*
X155410297Y-85450722D01*
X155425000Y-85450000D01*
X155725000Y-85450000D01*
X155739703Y-85450722D01*
G37*
D11*
X162380000Y-90000000D03*
X162380000Y-87800000D03*
D12*
X159330000Y-90200000D03*
X159330000Y-89550000D03*
X159330000Y-88900000D03*
X159330000Y-88250000D03*
X159330000Y-87600000D03*
D13*
X160130000Y-92300000D03*
X160130000Y-85500000D03*
D14*
X138461500Y-94805500D03*
X136461500Y-94805500D03*
D15*
X144462500Y-89916000D03*
X144462500Y-87916000D03*
X157226000Y-85280500D03*
X157226000Y-87280500D03*
D14*
X145542000Y-94805500D03*
X143542000Y-94805500D03*
D16*
X135890000Y-91200000D03*
X135890000Y-86600000D03*
D17*
X137440000Y-90575000D03*
X137440000Y-87225000D03*
M02*
