G04 #@! TF.GenerationSoftware,KiCad,Pcbnew,(5.1.5)-3*
G04 #@! TF.CreationDate,2020-07-16T22:53:37-05:00*
G04 #@! TF.ProjectId,pcb,7063622e-6b69-4636-9164-5f7063625858,rev?*
G04 #@! TF.SameCoordinates,Original*
G04 #@! TF.FileFunction,Copper,L2,Bot*
G04 #@! TF.FilePolarity,Positive*
%FSLAX46Y46*%
G04 Gerber Fmt 4.6, Leading zero omitted, Abs format (unit mm)*
G04 Created by KiCad (PCBNEW (5.1.5)-3) date 2020-07-16 22:53:37*
%MOMM*%
%LPD*%
G04 APERTURE LIST*
%ADD10C,1.000000*%
%ADD11C,0.100000*%
%ADD12R,1.900000X1.900000*%
%ADD13R,2.100000X0.390000*%
%ADD14C,1.600000*%
%ADD15R,1.000000X1.700000*%
%ADD16C,1.524000*%
%ADD17R,1.000000X1.250000*%
%ADD18R,1.250000X1.000000*%
%ADD19R,1.200000X0.900000*%
%ADD20R,1.300000X1.150000*%
%ADD21C,0.800000*%
%ADD22C,0.250000*%
G04 APERTURE END LIST*
D10*
X140081000Y-94805500D03*
X141981000Y-94805500D03*
G04 #@! TA.AperFunction,SMDPad,CuDef*
D11*
G36*
X155739703Y-90400722D02*
G01*
X155754264Y-90402882D01*
X155768543Y-90406459D01*
X155782403Y-90411418D01*
X155795710Y-90417712D01*
X155808336Y-90425280D01*
X155820159Y-90434048D01*
X155831066Y-90443934D01*
X155840952Y-90454841D01*
X155849720Y-90466664D01*
X155857288Y-90479290D01*
X155863582Y-90492597D01*
X155868541Y-90506457D01*
X155872118Y-90520736D01*
X155874278Y-90535297D01*
X155875000Y-90550000D01*
X155875000Y-92200000D01*
X155874278Y-92214703D01*
X155872118Y-92229264D01*
X155868541Y-92243543D01*
X155863582Y-92257403D01*
X155857288Y-92270710D01*
X155849720Y-92283336D01*
X155840952Y-92295159D01*
X155831066Y-92306066D01*
X155820159Y-92315952D01*
X155808336Y-92324720D01*
X155795710Y-92332288D01*
X155782403Y-92338582D01*
X155768543Y-92343541D01*
X155754264Y-92347118D01*
X155739703Y-92349278D01*
X155725000Y-92350000D01*
X155425000Y-92350000D01*
X155410297Y-92349278D01*
X155395736Y-92347118D01*
X155381457Y-92343541D01*
X155367597Y-92338582D01*
X155354290Y-92332288D01*
X155341664Y-92324720D01*
X155329841Y-92315952D01*
X155318934Y-92306066D01*
X155309048Y-92295159D01*
X155300280Y-92283336D01*
X155292712Y-92270710D01*
X155286418Y-92257403D01*
X155281459Y-92243543D01*
X155277882Y-92229264D01*
X155275722Y-92214703D01*
X155275000Y-92200000D01*
X155275000Y-90550000D01*
X155275722Y-90535297D01*
X155277882Y-90520736D01*
X155281459Y-90506457D01*
X155286418Y-90492597D01*
X155292712Y-90479290D01*
X155300280Y-90466664D01*
X155309048Y-90454841D01*
X155318934Y-90443934D01*
X155329841Y-90434048D01*
X155341664Y-90425280D01*
X155354290Y-90417712D01*
X155367597Y-90411418D01*
X155381457Y-90406459D01*
X155395736Y-90402882D01*
X155410297Y-90400722D01*
X155425000Y-90400000D01*
X155725000Y-90400000D01*
X155739703Y-90400722D01*
G37*
G04 #@! TD.AperFunction*
G04 #@! TA.AperFunction,SMDPad,CuDef*
G36*
X154469703Y-90400722D02*
G01*
X154484264Y-90402882D01*
X154498543Y-90406459D01*
X154512403Y-90411418D01*
X154525710Y-90417712D01*
X154538336Y-90425280D01*
X154550159Y-90434048D01*
X154561066Y-90443934D01*
X154570952Y-90454841D01*
X154579720Y-90466664D01*
X154587288Y-90479290D01*
X154593582Y-90492597D01*
X154598541Y-90506457D01*
X154602118Y-90520736D01*
X154604278Y-90535297D01*
X154605000Y-90550000D01*
X154605000Y-92200000D01*
X154604278Y-92214703D01*
X154602118Y-92229264D01*
X154598541Y-92243543D01*
X154593582Y-92257403D01*
X154587288Y-92270710D01*
X154579720Y-92283336D01*
X154570952Y-92295159D01*
X154561066Y-92306066D01*
X154550159Y-92315952D01*
X154538336Y-92324720D01*
X154525710Y-92332288D01*
X154512403Y-92338582D01*
X154498543Y-92343541D01*
X154484264Y-92347118D01*
X154469703Y-92349278D01*
X154455000Y-92350000D01*
X154155000Y-92350000D01*
X154140297Y-92349278D01*
X154125736Y-92347118D01*
X154111457Y-92343541D01*
X154097597Y-92338582D01*
X154084290Y-92332288D01*
X154071664Y-92324720D01*
X154059841Y-92315952D01*
X154048934Y-92306066D01*
X154039048Y-92295159D01*
X154030280Y-92283336D01*
X154022712Y-92270710D01*
X154016418Y-92257403D01*
X154011459Y-92243543D01*
X154007882Y-92229264D01*
X154005722Y-92214703D01*
X154005000Y-92200000D01*
X154005000Y-90550000D01*
X154005722Y-90535297D01*
X154007882Y-90520736D01*
X154011459Y-90506457D01*
X154016418Y-90492597D01*
X154022712Y-90479290D01*
X154030280Y-90466664D01*
X154039048Y-90454841D01*
X154048934Y-90443934D01*
X154059841Y-90434048D01*
X154071664Y-90425280D01*
X154084290Y-90417712D01*
X154097597Y-90411418D01*
X154111457Y-90406459D01*
X154125736Y-90402882D01*
X154140297Y-90400722D01*
X154155000Y-90400000D01*
X154455000Y-90400000D01*
X154469703Y-90400722D01*
G37*
G04 #@! TD.AperFunction*
G04 #@! TA.AperFunction,SMDPad,CuDef*
G36*
X153199703Y-90400722D02*
G01*
X153214264Y-90402882D01*
X153228543Y-90406459D01*
X153242403Y-90411418D01*
X153255710Y-90417712D01*
X153268336Y-90425280D01*
X153280159Y-90434048D01*
X153291066Y-90443934D01*
X153300952Y-90454841D01*
X153309720Y-90466664D01*
X153317288Y-90479290D01*
X153323582Y-90492597D01*
X153328541Y-90506457D01*
X153332118Y-90520736D01*
X153334278Y-90535297D01*
X153335000Y-90550000D01*
X153335000Y-92200000D01*
X153334278Y-92214703D01*
X153332118Y-92229264D01*
X153328541Y-92243543D01*
X153323582Y-92257403D01*
X153317288Y-92270710D01*
X153309720Y-92283336D01*
X153300952Y-92295159D01*
X153291066Y-92306066D01*
X153280159Y-92315952D01*
X153268336Y-92324720D01*
X153255710Y-92332288D01*
X153242403Y-92338582D01*
X153228543Y-92343541D01*
X153214264Y-92347118D01*
X153199703Y-92349278D01*
X153185000Y-92350000D01*
X152885000Y-92350000D01*
X152870297Y-92349278D01*
X152855736Y-92347118D01*
X152841457Y-92343541D01*
X152827597Y-92338582D01*
X152814290Y-92332288D01*
X152801664Y-92324720D01*
X152789841Y-92315952D01*
X152778934Y-92306066D01*
X152769048Y-92295159D01*
X152760280Y-92283336D01*
X152752712Y-92270710D01*
X152746418Y-92257403D01*
X152741459Y-92243543D01*
X152737882Y-92229264D01*
X152735722Y-92214703D01*
X152735000Y-92200000D01*
X152735000Y-90550000D01*
X152735722Y-90535297D01*
X152737882Y-90520736D01*
X152741459Y-90506457D01*
X152746418Y-90492597D01*
X152752712Y-90479290D01*
X152760280Y-90466664D01*
X152769048Y-90454841D01*
X152778934Y-90443934D01*
X152789841Y-90434048D01*
X152801664Y-90425280D01*
X152814290Y-90417712D01*
X152827597Y-90411418D01*
X152841457Y-90406459D01*
X152855736Y-90402882D01*
X152870297Y-90400722D01*
X152885000Y-90400000D01*
X153185000Y-90400000D01*
X153199703Y-90400722D01*
G37*
G04 #@! TD.AperFunction*
G04 #@! TA.AperFunction,SMDPad,CuDef*
G36*
X151929703Y-90400722D02*
G01*
X151944264Y-90402882D01*
X151958543Y-90406459D01*
X151972403Y-90411418D01*
X151985710Y-90417712D01*
X151998336Y-90425280D01*
X152010159Y-90434048D01*
X152021066Y-90443934D01*
X152030952Y-90454841D01*
X152039720Y-90466664D01*
X152047288Y-90479290D01*
X152053582Y-90492597D01*
X152058541Y-90506457D01*
X152062118Y-90520736D01*
X152064278Y-90535297D01*
X152065000Y-90550000D01*
X152065000Y-92200000D01*
X152064278Y-92214703D01*
X152062118Y-92229264D01*
X152058541Y-92243543D01*
X152053582Y-92257403D01*
X152047288Y-92270710D01*
X152039720Y-92283336D01*
X152030952Y-92295159D01*
X152021066Y-92306066D01*
X152010159Y-92315952D01*
X151998336Y-92324720D01*
X151985710Y-92332288D01*
X151972403Y-92338582D01*
X151958543Y-92343541D01*
X151944264Y-92347118D01*
X151929703Y-92349278D01*
X151915000Y-92350000D01*
X151615000Y-92350000D01*
X151600297Y-92349278D01*
X151585736Y-92347118D01*
X151571457Y-92343541D01*
X151557597Y-92338582D01*
X151544290Y-92332288D01*
X151531664Y-92324720D01*
X151519841Y-92315952D01*
X151508934Y-92306066D01*
X151499048Y-92295159D01*
X151490280Y-92283336D01*
X151482712Y-92270710D01*
X151476418Y-92257403D01*
X151471459Y-92243543D01*
X151467882Y-92229264D01*
X151465722Y-92214703D01*
X151465000Y-92200000D01*
X151465000Y-90550000D01*
X151465722Y-90535297D01*
X151467882Y-90520736D01*
X151471459Y-90506457D01*
X151476418Y-90492597D01*
X151482712Y-90479290D01*
X151490280Y-90466664D01*
X151499048Y-90454841D01*
X151508934Y-90443934D01*
X151519841Y-90434048D01*
X151531664Y-90425280D01*
X151544290Y-90417712D01*
X151557597Y-90411418D01*
X151571457Y-90406459D01*
X151585736Y-90402882D01*
X151600297Y-90400722D01*
X151615000Y-90400000D01*
X151915000Y-90400000D01*
X151929703Y-90400722D01*
G37*
G04 #@! TD.AperFunction*
G04 #@! TA.AperFunction,SMDPad,CuDef*
G36*
X150659703Y-90400722D02*
G01*
X150674264Y-90402882D01*
X150688543Y-90406459D01*
X150702403Y-90411418D01*
X150715710Y-90417712D01*
X150728336Y-90425280D01*
X150740159Y-90434048D01*
X150751066Y-90443934D01*
X150760952Y-90454841D01*
X150769720Y-90466664D01*
X150777288Y-90479290D01*
X150783582Y-90492597D01*
X150788541Y-90506457D01*
X150792118Y-90520736D01*
X150794278Y-90535297D01*
X150795000Y-90550000D01*
X150795000Y-92200000D01*
X150794278Y-92214703D01*
X150792118Y-92229264D01*
X150788541Y-92243543D01*
X150783582Y-92257403D01*
X150777288Y-92270710D01*
X150769720Y-92283336D01*
X150760952Y-92295159D01*
X150751066Y-92306066D01*
X150740159Y-92315952D01*
X150728336Y-92324720D01*
X150715710Y-92332288D01*
X150702403Y-92338582D01*
X150688543Y-92343541D01*
X150674264Y-92347118D01*
X150659703Y-92349278D01*
X150645000Y-92350000D01*
X150345000Y-92350000D01*
X150330297Y-92349278D01*
X150315736Y-92347118D01*
X150301457Y-92343541D01*
X150287597Y-92338582D01*
X150274290Y-92332288D01*
X150261664Y-92324720D01*
X150249841Y-92315952D01*
X150238934Y-92306066D01*
X150229048Y-92295159D01*
X150220280Y-92283336D01*
X150212712Y-92270710D01*
X150206418Y-92257403D01*
X150201459Y-92243543D01*
X150197882Y-92229264D01*
X150195722Y-92214703D01*
X150195000Y-92200000D01*
X150195000Y-90550000D01*
X150195722Y-90535297D01*
X150197882Y-90520736D01*
X150201459Y-90506457D01*
X150206418Y-90492597D01*
X150212712Y-90479290D01*
X150220280Y-90466664D01*
X150229048Y-90454841D01*
X150238934Y-90443934D01*
X150249841Y-90434048D01*
X150261664Y-90425280D01*
X150274290Y-90417712D01*
X150287597Y-90411418D01*
X150301457Y-90406459D01*
X150315736Y-90402882D01*
X150330297Y-90400722D01*
X150345000Y-90400000D01*
X150645000Y-90400000D01*
X150659703Y-90400722D01*
G37*
G04 #@! TD.AperFunction*
G04 #@! TA.AperFunction,SMDPad,CuDef*
G36*
X149389703Y-90400722D02*
G01*
X149404264Y-90402882D01*
X149418543Y-90406459D01*
X149432403Y-90411418D01*
X149445710Y-90417712D01*
X149458336Y-90425280D01*
X149470159Y-90434048D01*
X149481066Y-90443934D01*
X149490952Y-90454841D01*
X149499720Y-90466664D01*
X149507288Y-90479290D01*
X149513582Y-90492597D01*
X149518541Y-90506457D01*
X149522118Y-90520736D01*
X149524278Y-90535297D01*
X149525000Y-90550000D01*
X149525000Y-92200000D01*
X149524278Y-92214703D01*
X149522118Y-92229264D01*
X149518541Y-92243543D01*
X149513582Y-92257403D01*
X149507288Y-92270710D01*
X149499720Y-92283336D01*
X149490952Y-92295159D01*
X149481066Y-92306066D01*
X149470159Y-92315952D01*
X149458336Y-92324720D01*
X149445710Y-92332288D01*
X149432403Y-92338582D01*
X149418543Y-92343541D01*
X149404264Y-92347118D01*
X149389703Y-92349278D01*
X149375000Y-92350000D01*
X149075000Y-92350000D01*
X149060297Y-92349278D01*
X149045736Y-92347118D01*
X149031457Y-92343541D01*
X149017597Y-92338582D01*
X149004290Y-92332288D01*
X148991664Y-92324720D01*
X148979841Y-92315952D01*
X148968934Y-92306066D01*
X148959048Y-92295159D01*
X148950280Y-92283336D01*
X148942712Y-92270710D01*
X148936418Y-92257403D01*
X148931459Y-92243543D01*
X148927882Y-92229264D01*
X148925722Y-92214703D01*
X148925000Y-92200000D01*
X148925000Y-90550000D01*
X148925722Y-90535297D01*
X148927882Y-90520736D01*
X148931459Y-90506457D01*
X148936418Y-90492597D01*
X148942712Y-90479290D01*
X148950280Y-90466664D01*
X148959048Y-90454841D01*
X148968934Y-90443934D01*
X148979841Y-90434048D01*
X148991664Y-90425280D01*
X149004290Y-90417712D01*
X149017597Y-90411418D01*
X149031457Y-90406459D01*
X149045736Y-90402882D01*
X149060297Y-90400722D01*
X149075000Y-90400000D01*
X149375000Y-90400000D01*
X149389703Y-90400722D01*
G37*
G04 #@! TD.AperFunction*
G04 #@! TA.AperFunction,SMDPad,CuDef*
G36*
X148119703Y-90400722D02*
G01*
X148134264Y-90402882D01*
X148148543Y-90406459D01*
X148162403Y-90411418D01*
X148175710Y-90417712D01*
X148188336Y-90425280D01*
X148200159Y-90434048D01*
X148211066Y-90443934D01*
X148220952Y-90454841D01*
X148229720Y-90466664D01*
X148237288Y-90479290D01*
X148243582Y-90492597D01*
X148248541Y-90506457D01*
X148252118Y-90520736D01*
X148254278Y-90535297D01*
X148255000Y-90550000D01*
X148255000Y-92200000D01*
X148254278Y-92214703D01*
X148252118Y-92229264D01*
X148248541Y-92243543D01*
X148243582Y-92257403D01*
X148237288Y-92270710D01*
X148229720Y-92283336D01*
X148220952Y-92295159D01*
X148211066Y-92306066D01*
X148200159Y-92315952D01*
X148188336Y-92324720D01*
X148175710Y-92332288D01*
X148162403Y-92338582D01*
X148148543Y-92343541D01*
X148134264Y-92347118D01*
X148119703Y-92349278D01*
X148105000Y-92350000D01*
X147805000Y-92350000D01*
X147790297Y-92349278D01*
X147775736Y-92347118D01*
X147761457Y-92343541D01*
X147747597Y-92338582D01*
X147734290Y-92332288D01*
X147721664Y-92324720D01*
X147709841Y-92315952D01*
X147698934Y-92306066D01*
X147689048Y-92295159D01*
X147680280Y-92283336D01*
X147672712Y-92270710D01*
X147666418Y-92257403D01*
X147661459Y-92243543D01*
X147657882Y-92229264D01*
X147655722Y-92214703D01*
X147655000Y-92200000D01*
X147655000Y-90550000D01*
X147655722Y-90535297D01*
X147657882Y-90520736D01*
X147661459Y-90506457D01*
X147666418Y-90492597D01*
X147672712Y-90479290D01*
X147680280Y-90466664D01*
X147689048Y-90454841D01*
X147698934Y-90443934D01*
X147709841Y-90434048D01*
X147721664Y-90425280D01*
X147734290Y-90417712D01*
X147747597Y-90411418D01*
X147761457Y-90406459D01*
X147775736Y-90402882D01*
X147790297Y-90400722D01*
X147805000Y-90400000D01*
X148105000Y-90400000D01*
X148119703Y-90400722D01*
G37*
G04 #@! TD.AperFunction*
G04 #@! TA.AperFunction,SMDPad,CuDef*
G36*
X146849703Y-90400722D02*
G01*
X146864264Y-90402882D01*
X146878543Y-90406459D01*
X146892403Y-90411418D01*
X146905710Y-90417712D01*
X146918336Y-90425280D01*
X146930159Y-90434048D01*
X146941066Y-90443934D01*
X146950952Y-90454841D01*
X146959720Y-90466664D01*
X146967288Y-90479290D01*
X146973582Y-90492597D01*
X146978541Y-90506457D01*
X146982118Y-90520736D01*
X146984278Y-90535297D01*
X146985000Y-90550000D01*
X146985000Y-92200000D01*
X146984278Y-92214703D01*
X146982118Y-92229264D01*
X146978541Y-92243543D01*
X146973582Y-92257403D01*
X146967288Y-92270710D01*
X146959720Y-92283336D01*
X146950952Y-92295159D01*
X146941066Y-92306066D01*
X146930159Y-92315952D01*
X146918336Y-92324720D01*
X146905710Y-92332288D01*
X146892403Y-92338582D01*
X146878543Y-92343541D01*
X146864264Y-92347118D01*
X146849703Y-92349278D01*
X146835000Y-92350000D01*
X146535000Y-92350000D01*
X146520297Y-92349278D01*
X146505736Y-92347118D01*
X146491457Y-92343541D01*
X146477597Y-92338582D01*
X146464290Y-92332288D01*
X146451664Y-92324720D01*
X146439841Y-92315952D01*
X146428934Y-92306066D01*
X146419048Y-92295159D01*
X146410280Y-92283336D01*
X146402712Y-92270710D01*
X146396418Y-92257403D01*
X146391459Y-92243543D01*
X146387882Y-92229264D01*
X146385722Y-92214703D01*
X146385000Y-92200000D01*
X146385000Y-90550000D01*
X146385722Y-90535297D01*
X146387882Y-90520736D01*
X146391459Y-90506457D01*
X146396418Y-90492597D01*
X146402712Y-90479290D01*
X146410280Y-90466664D01*
X146419048Y-90454841D01*
X146428934Y-90443934D01*
X146439841Y-90434048D01*
X146451664Y-90425280D01*
X146464290Y-90417712D01*
X146477597Y-90411418D01*
X146491457Y-90406459D01*
X146505736Y-90402882D01*
X146520297Y-90400722D01*
X146535000Y-90400000D01*
X146835000Y-90400000D01*
X146849703Y-90400722D01*
G37*
G04 #@! TD.AperFunction*
G04 #@! TA.AperFunction,SMDPad,CuDef*
G36*
X146849703Y-85450722D02*
G01*
X146864264Y-85452882D01*
X146878543Y-85456459D01*
X146892403Y-85461418D01*
X146905710Y-85467712D01*
X146918336Y-85475280D01*
X146930159Y-85484048D01*
X146941066Y-85493934D01*
X146950952Y-85504841D01*
X146959720Y-85516664D01*
X146967288Y-85529290D01*
X146973582Y-85542597D01*
X146978541Y-85556457D01*
X146982118Y-85570736D01*
X146984278Y-85585297D01*
X146985000Y-85600000D01*
X146985000Y-87250000D01*
X146984278Y-87264703D01*
X146982118Y-87279264D01*
X146978541Y-87293543D01*
X146973582Y-87307403D01*
X146967288Y-87320710D01*
X146959720Y-87333336D01*
X146950952Y-87345159D01*
X146941066Y-87356066D01*
X146930159Y-87365952D01*
X146918336Y-87374720D01*
X146905710Y-87382288D01*
X146892403Y-87388582D01*
X146878543Y-87393541D01*
X146864264Y-87397118D01*
X146849703Y-87399278D01*
X146835000Y-87400000D01*
X146535000Y-87400000D01*
X146520297Y-87399278D01*
X146505736Y-87397118D01*
X146491457Y-87393541D01*
X146477597Y-87388582D01*
X146464290Y-87382288D01*
X146451664Y-87374720D01*
X146439841Y-87365952D01*
X146428934Y-87356066D01*
X146419048Y-87345159D01*
X146410280Y-87333336D01*
X146402712Y-87320710D01*
X146396418Y-87307403D01*
X146391459Y-87293543D01*
X146387882Y-87279264D01*
X146385722Y-87264703D01*
X146385000Y-87250000D01*
X146385000Y-85600000D01*
X146385722Y-85585297D01*
X146387882Y-85570736D01*
X146391459Y-85556457D01*
X146396418Y-85542597D01*
X146402712Y-85529290D01*
X146410280Y-85516664D01*
X146419048Y-85504841D01*
X146428934Y-85493934D01*
X146439841Y-85484048D01*
X146451664Y-85475280D01*
X146464290Y-85467712D01*
X146477597Y-85461418D01*
X146491457Y-85456459D01*
X146505736Y-85452882D01*
X146520297Y-85450722D01*
X146535000Y-85450000D01*
X146835000Y-85450000D01*
X146849703Y-85450722D01*
G37*
G04 #@! TD.AperFunction*
G04 #@! TA.AperFunction,SMDPad,CuDef*
G36*
X148119703Y-85450722D02*
G01*
X148134264Y-85452882D01*
X148148543Y-85456459D01*
X148162403Y-85461418D01*
X148175710Y-85467712D01*
X148188336Y-85475280D01*
X148200159Y-85484048D01*
X148211066Y-85493934D01*
X148220952Y-85504841D01*
X148229720Y-85516664D01*
X148237288Y-85529290D01*
X148243582Y-85542597D01*
X148248541Y-85556457D01*
X148252118Y-85570736D01*
X148254278Y-85585297D01*
X148255000Y-85600000D01*
X148255000Y-87250000D01*
X148254278Y-87264703D01*
X148252118Y-87279264D01*
X148248541Y-87293543D01*
X148243582Y-87307403D01*
X148237288Y-87320710D01*
X148229720Y-87333336D01*
X148220952Y-87345159D01*
X148211066Y-87356066D01*
X148200159Y-87365952D01*
X148188336Y-87374720D01*
X148175710Y-87382288D01*
X148162403Y-87388582D01*
X148148543Y-87393541D01*
X148134264Y-87397118D01*
X148119703Y-87399278D01*
X148105000Y-87400000D01*
X147805000Y-87400000D01*
X147790297Y-87399278D01*
X147775736Y-87397118D01*
X147761457Y-87393541D01*
X147747597Y-87388582D01*
X147734290Y-87382288D01*
X147721664Y-87374720D01*
X147709841Y-87365952D01*
X147698934Y-87356066D01*
X147689048Y-87345159D01*
X147680280Y-87333336D01*
X147672712Y-87320710D01*
X147666418Y-87307403D01*
X147661459Y-87293543D01*
X147657882Y-87279264D01*
X147655722Y-87264703D01*
X147655000Y-87250000D01*
X147655000Y-85600000D01*
X147655722Y-85585297D01*
X147657882Y-85570736D01*
X147661459Y-85556457D01*
X147666418Y-85542597D01*
X147672712Y-85529290D01*
X147680280Y-85516664D01*
X147689048Y-85504841D01*
X147698934Y-85493934D01*
X147709841Y-85484048D01*
X147721664Y-85475280D01*
X147734290Y-85467712D01*
X147747597Y-85461418D01*
X147761457Y-85456459D01*
X147775736Y-85452882D01*
X147790297Y-85450722D01*
X147805000Y-85450000D01*
X148105000Y-85450000D01*
X148119703Y-85450722D01*
G37*
G04 #@! TD.AperFunction*
G04 #@! TA.AperFunction,SMDPad,CuDef*
G36*
X149389703Y-85450722D02*
G01*
X149404264Y-85452882D01*
X149418543Y-85456459D01*
X149432403Y-85461418D01*
X149445710Y-85467712D01*
X149458336Y-85475280D01*
X149470159Y-85484048D01*
X149481066Y-85493934D01*
X149490952Y-85504841D01*
X149499720Y-85516664D01*
X149507288Y-85529290D01*
X149513582Y-85542597D01*
X149518541Y-85556457D01*
X149522118Y-85570736D01*
X149524278Y-85585297D01*
X149525000Y-85600000D01*
X149525000Y-87250000D01*
X149524278Y-87264703D01*
X149522118Y-87279264D01*
X149518541Y-87293543D01*
X149513582Y-87307403D01*
X149507288Y-87320710D01*
X149499720Y-87333336D01*
X149490952Y-87345159D01*
X149481066Y-87356066D01*
X149470159Y-87365952D01*
X149458336Y-87374720D01*
X149445710Y-87382288D01*
X149432403Y-87388582D01*
X149418543Y-87393541D01*
X149404264Y-87397118D01*
X149389703Y-87399278D01*
X149375000Y-87400000D01*
X149075000Y-87400000D01*
X149060297Y-87399278D01*
X149045736Y-87397118D01*
X149031457Y-87393541D01*
X149017597Y-87388582D01*
X149004290Y-87382288D01*
X148991664Y-87374720D01*
X148979841Y-87365952D01*
X148968934Y-87356066D01*
X148959048Y-87345159D01*
X148950280Y-87333336D01*
X148942712Y-87320710D01*
X148936418Y-87307403D01*
X148931459Y-87293543D01*
X148927882Y-87279264D01*
X148925722Y-87264703D01*
X148925000Y-87250000D01*
X148925000Y-85600000D01*
X148925722Y-85585297D01*
X148927882Y-85570736D01*
X148931459Y-85556457D01*
X148936418Y-85542597D01*
X148942712Y-85529290D01*
X148950280Y-85516664D01*
X148959048Y-85504841D01*
X148968934Y-85493934D01*
X148979841Y-85484048D01*
X148991664Y-85475280D01*
X149004290Y-85467712D01*
X149017597Y-85461418D01*
X149031457Y-85456459D01*
X149045736Y-85452882D01*
X149060297Y-85450722D01*
X149075000Y-85450000D01*
X149375000Y-85450000D01*
X149389703Y-85450722D01*
G37*
G04 #@! TD.AperFunction*
G04 #@! TA.AperFunction,SMDPad,CuDef*
G36*
X150659703Y-85450722D02*
G01*
X150674264Y-85452882D01*
X150688543Y-85456459D01*
X150702403Y-85461418D01*
X150715710Y-85467712D01*
X150728336Y-85475280D01*
X150740159Y-85484048D01*
X150751066Y-85493934D01*
X150760952Y-85504841D01*
X150769720Y-85516664D01*
X150777288Y-85529290D01*
X150783582Y-85542597D01*
X150788541Y-85556457D01*
X150792118Y-85570736D01*
X150794278Y-85585297D01*
X150795000Y-85600000D01*
X150795000Y-87250000D01*
X150794278Y-87264703D01*
X150792118Y-87279264D01*
X150788541Y-87293543D01*
X150783582Y-87307403D01*
X150777288Y-87320710D01*
X150769720Y-87333336D01*
X150760952Y-87345159D01*
X150751066Y-87356066D01*
X150740159Y-87365952D01*
X150728336Y-87374720D01*
X150715710Y-87382288D01*
X150702403Y-87388582D01*
X150688543Y-87393541D01*
X150674264Y-87397118D01*
X150659703Y-87399278D01*
X150645000Y-87400000D01*
X150345000Y-87400000D01*
X150330297Y-87399278D01*
X150315736Y-87397118D01*
X150301457Y-87393541D01*
X150287597Y-87388582D01*
X150274290Y-87382288D01*
X150261664Y-87374720D01*
X150249841Y-87365952D01*
X150238934Y-87356066D01*
X150229048Y-87345159D01*
X150220280Y-87333336D01*
X150212712Y-87320710D01*
X150206418Y-87307403D01*
X150201459Y-87293543D01*
X150197882Y-87279264D01*
X150195722Y-87264703D01*
X150195000Y-87250000D01*
X150195000Y-85600000D01*
X150195722Y-85585297D01*
X150197882Y-85570736D01*
X150201459Y-85556457D01*
X150206418Y-85542597D01*
X150212712Y-85529290D01*
X150220280Y-85516664D01*
X150229048Y-85504841D01*
X150238934Y-85493934D01*
X150249841Y-85484048D01*
X150261664Y-85475280D01*
X150274290Y-85467712D01*
X150287597Y-85461418D01*
X150301457Y-85456459D01*
X150315736Y-85452882D01*
X150330297Y-85450722D01*
X150345000Y-85450000D01*
X150645000Y-85450000D01*
X150659703Y-85450722D01*
G37*
G04 #@! TD.AperFunction*
G04 #@! TA.AperFunction,SMDPad,CuDef*
G36*
X151929703Y-85450722D02*
G01*
X151944264Y-85452882D01*
X151958543Y-85456459D01*
X151972403Y-85461418D01*
X151985710Y-85467712D01*
X151998336Y-85475280D01*
X152010159Y-85484048D01*
X152021066Y-85493934D01*
X152030952Y-85504841D01*
X152039720Y-85516664D01*
X152047288Y-85529290D01*
X152053582Y-85542597D01*
X152058541Y-85556457D01*
X152062118Y-85570736D01*
X152064278Y-85585297D01*
X152065000Y-85600000D01*
X152065000Y-87250000D01*
X152064278Y-87264703D01*
X152062118Y-87279264D01*
X152058541Y-87293543D01*
X152053582Y-87307403D01*
X152047288Y-87320710D01*
X152039720Y-87333336D01*
X152030952Y-87345159D01*
X152021066Y-87356066D01*
X152010159Y-87365952D01*
X151998336Y-87374720D01*
X151985710Y-87382288D01*
X151972403Y-87388582D01*
X151958543Y-87393541D01*
X151944264Y-87397118D01*
X151929703Y-87399278D01*
X151915000Y-87400000D01*
X151615000Y-87400000D01*
X151600297Y-87399278D01*
X151585736Y-87397118D01*
X151571457Y-87393541D01*
X151557597Y-87388582D01*
X151544290Y-87382288D01*
X151531664Y-87374720D01*
X151519841Y-87365952D01*
X151508934Y-87356066D01*
X151499048Y-87345159D01*
X151490280Y-87333336D01*
X151482712Y-87320710D01*
X151476418Y-87307403D01*
X151471459Y-87293543D01*
X151467882Y-87279264D01*
X151465722Y-87264703D01*
X151465000Y-87250000D01*
X151465000Y-85600000D01*
X151465722Y-85585297D01*
X151467882Y-85570736D01*
X151471459Y-85556457D01*
X151476418Y-85542597D01*
X151482712Y-85529290D01*
X151490280Y-85516664D01*
X151499048Y-85504841D01*
X151508934Y-85493934D01*
X151519841Y-85484048D01*
X151531664Y-85475280D01*
X151544290Y-85467712D01*
X151557597Y-85461418D01*
X151571457Y-85456459D01*
X151585736Y-85452882D01*
X151600297Y-85450722D01*
X151615000Y-85450000D01*
X151915000Y-85450000D01*
X151929703Y-85450722D01*
G37*
G04 #@! TD.AperFunction*
G04 #@! TA.AperFunction,SMDPad,CuDef*
G36*
X153199703Y-85450722D02*
G01*
X153214264Y-85452882D01*
X153228543Y-85456459D01*
X153242403Y-85461418D01*
X153255710Y-85467712D01*
X153268336Y-85475280D01*
X153280159Y-85484048D01*
X153291066Y-85493934D01*
X153300952Y-85504841D01*
X153309720Y-85516664D01*
X153317288Y-85529290D01*
X153323582Y-85542597D01*
X153328541Y-85556457D01*
X153332118Y-85570736D01*
X153334278Y-85585297D01*
X153335000Y-85600000D01*
X153335000Y-87250000D01*
X153334278Y-87264703D01*
X153332118Y-87279264D01*
X153328541Y-87293543D01*
X153323582Y-87307403D01*
X153317288Y-87320710D01*
X153309720Y-87333336D01*
X153300952Y-87345159D01*
X153291066Y-87356066D01*
X153280159Y-87365952D01*
X153268336Y-87374720D01*
X153255710Y-87382288D01*
X153242403Y-87388582D01*
X153228543Y-87393541D01*
X153214264Y-87397118D01*
X153199703Y-87399278D01*
X153185000Y-87400000D01*
X152885000Y-87400000D01*
X152870297Y-87399278D01*
X152855736Y-87397118D01*
X152841457Y-87393541D01*
X152827597Y-87388582D01*
X152814290Y-87382288D01*
X152801664Y-87374720D01*
X152789841Y-87365952D01*
X152778934Y-87356066D01*
X152769048Y-87345159D01*
X152760280Y-87333336D01*
X152752712Y-87320710D01*
X152746418Y-87307403D01*
X152741459Y-87293543D01*
X152737882Y-87279264D01*
X152735722Y-87264703D01*
X152735000Y-87250000D01*
X152735000Y-85600000D01*
X152735722Y-85585297D01*
X152737882Y-85570736D01*
X152741459Y-85556457D01*
X152746418Y-85542597D01*
X152752712Y-85529290D01*
X152760280Y-85516664D01*
X152769048Y-85504841D01*
X152778934Y-85493934D01*
X152789841Y-85484048D01*
X152801664Y-85475280D01*
X152814290Y-85467712D01*
X152827597Y-85461418D01*
X152841457Y-85456459D01*
X152855736Y-85452882D01*
X152870297Y-85450722D01*
X152885000Y-85450000D01*
X153185000Y-85450000D01*
X153199703Y-85450722D01*
G37*
G04 #@! TD.AperFunction*
G04 #@! TA.AperFunction,SMDPad,CuDef*
G36*
X154469703Y-85450722D02*
G01*
X154484264Y-85452882D01*
X154498543Y-85456459D01*
X154512403Y-85461418D01*
X154525710Y-85467712D01*
X154538336Y-85475280D01*
X154550159Y-85484048D01*
X154561066Y-85493934D01*
X154570952Y-85504841D01*
X154579720Y-85516664D01*
X154587288Y-85529290D01*
X154593582Y-85542597D01*
X154598541Y-85556457D01*
X154602118Y-85570736D01*
X154604278Y-85585297D01*
X154605000Y-85600000D01*
X154605000Y-87250000D01*
X154604278Y-87264703D01*
X154602118Y-87279264D01*
X154598541Y-87293543D01*
X154593582Y-87307403D01*
X154587288Y-87320710D01*
X154579720Y-87333336D01*
X154570952Y-87345159D01*
X154561066Y-87356066D01*
X154550159Y-87365952D01*
X154538336Y-87374720D01*
X154525710Y-87382288D01*
X154512403Y-87388582D01*
X154498543Y-87393541D01*
X154484264Y-87397118D01*
X154469703Y-87399278D01*
X154455000Y-87400000D01*
X154155000Y-87400000D01*
X154140297Y-87399278D01*
X154125736Y-87397118D01*
X154111457Y-87393541D01*
X154097597Y-87388582D01*
X154084290Y-87382288D01*
X154071664Y-87374720D01*
X154059841Y-87365952D01*
X154048934Y-87356066D01*
X154039048Y-87345159D01*
X154030280Y-87333336D01*
X154022712Y-87320710D01*
X154016418Y-87307403D01*
X154011459Y-87293543D01*
X154007882Y-87279264D01*
X154005722Y-87264703D01*
X154005000Y-87250000D01*
X154005000Y-85600000D01*
X154005722Y-85585297D01*
X154007882Y-85570736D01*
X154011459Y-85556457D01*
X154016418Y-85542597D01*
X154022712Y-85529290D01*
X154030280Y-85516664D01*
X154039048Y-85504841D01*
X154048934Y-85493934D01*
X154059841Y-85484048D01*
X154071664Y-85475280D01*
X154084290Y-85467712D01*
X154097597Y-85461418D01*
X154111457Y-85456459D01*
X154125736Y-85452882D01*
X154140297Y-85450722D01*
X154155000Y-85450000D01*
X154455000Y-85450000D01*
X154469703Y-85450722D01*
G37*
G04 #@! TD.AperFunction*
G04 #@! TA.AperFunction,SMDPad,CuDef*
G36*
X155739703Y-85450722D02*
G01*
X155754264Y-85452882D01*
X155768543Y-85456459D01*
X155782403Y-85461418D01*
X155795710Y-85467712D01*
X155808336Y-85475280D01*
X155820159Y-85484048D01*
X155831066Y-85493934D01*
X155840952Y-85504841D01*
X155849720Y-85516664D01*
X155857288Y-85529290D01*
X155863582Y-85542597D01*
X155868541Y-85556457D01*
X155872118Y-85570736D01*
X155874278Y-85585297D01*
X155875000Y-85600000D01*
X155875000Y-87250000D01*
X155874278Y-87264703D01*
X155872118Y-87279264D01*
X155868541Y-87293543D01*
X155863582Y-87307403D01*
X155857288Y-87320710D01*
X155849720Y-87333336D01*
X155840952Y-87345159D01*
X155831066Y-87356066D01*
X155820159Y-87365952D01*
X155808336Y-87374720D01*
X155795710Y-87382288D01*
X155782403Y-87388582D01*
X155768543Y-87393541D01*
X155754264Y-87397118D01*
X155739703Y-87399278D01*
X155725000Y-87400000D01*
X155425000Y-87400000D01*
X155410297Y-87399278D01*
X155395736Y-87397118D01*
X155381457Y-87393541D01*
X155367597Y-87388582D01*
X155354290Y-87382288D01*
X155341664Y-87374720D01*
X155329841Y-87365952D01*
X155318934Y-87356066D01*
X155309048Y-87345159D01*
X155300280Y-87333336D01*
X155292712Y-87320710D01*
X155286418Y-87307403D01*
X155281459Y-87293543D01*
X155277882Y-87279264D01*
X155275722Y-87264703D01*
X155275000Y-87250000D01*
X155275000Y-85600000D01*
X155275722Y-85585297D01*
X155277882Y-85570736D01*
X155281459Y-85556457D01*
X155286418Y-85542597D01*
X155292712Y-85529290D01*
X155300280Y-85516664D01*
X155309048Y-85504841D01*
X155318934Y-85493934D01*
X155329841Y-85484048D01*
X155341664Y-85475280D01*
X155354290Y-85467712D01*
X155367597Y-85461418D01*
X155381457Y-85456459D01*
X155395736Y-85452882D01*
X155410297Y-85450722D01*
X155425000Y-85450000D01*
X155725000Y-85450000D01*
X155739703Y-85450722D01*
G37*
G04 #@! TD.AperFunction*
D12*
X162380000Y-90000000D03*
X162380000Y-87800000D03*
D13*
X159330000Y-90200000D03*
X159330000Y-89550000D03*
X159330000Y-88900000D03*
X159330000Y-88250000D03*
X159330000Y-87600000D03*
D14*
X162380000Y-91725000D03*
X162380000Y-86075000D03*
D15*
X160130000Y-92300000D03*
X160130000Y-85500000D03*
D16*
X148590000Y-94550000D03*
X151130000Y-94550000D03*
X153670000Y-94550000D03*
X156210000Y-94550000D03*
X158750000Y-94550000D03*
X161290000Y-94550000D03*
X161290000Y-83250000D03*
X158742000Y-83250000D03*
X156194000Y-83250000D03*
X153646000Y-83250000D03*
X151098000Y-83250000D03*
X148550000Y-83250000D03*
D17*
X138461500Y-94805500D03*
X136461500Y-94805500D03*
D18*
X144462500Y-89916000D03*
X144462500Y-87916000D03*
X157226000Y-85280500D03*
X157226000Y-87280500D03*
D17*
X145542000Y-94805500D03*
X143542000Y-94805500D03*
D19*
X135890000Y-91200000D03*
X135890000Y-86600000D03*
D20*
X137440000Y-90575000D03*
X137440000Y-87225000D03*
D21*
X139636500Y-85725000D03*
X140398500Y-92392500D03*
X151765000Y-87630000D03*
X154305000Y-87630000D03*
X153035000Y-87630000D03*
X155575000Y-87630000D03*
X139636500Y-90805000D03*
X139636500Y-88265000D03*
X139636500Y-86995000D03*
X135890000Y-93345000D03*
X135890000Y-84455000D03*
X146050000Y-83185000D03*
X146939000Y-94805500D03*
X150495000Y-88519000D03*
X158750000Y-92075000D03*
X154334256Y-89262460D03*
X157607000Y-90932000D03*
X155257500Y-93154500D03*
X156591000Y-90932000D03*
X141187000Y-90360500D03*
X142240000Y-85962021D03*
X141097000Y-91503500D03*
X142240000Y-87249000D03*
X146939000Y-89598500D03*
X145542000Y-91630500D03*
D22*
X138911499Y-91217184D02*
X138911499Y-90958501D01*
X138911499Y-91153001D02*
X138911499Y-90958501D01*
X138911499Y-90958501D02*
X138911499Y-86450001D01*
X139236501Y-86124999D02*
X139636500Y-85725000D01*
X138911499Y-86450001D02*
X139236501Y-86124999D01*
X138911499Y-91280684D02*
X138911499Y-86450001D01*
X140398500Y-92392500D02*
X141605000Y-92392500D01*
X141605000Y-92392500D02*
X142362009Y-91635491D01*
X138911499Y-91471184D02*
X138911499Y-91217184D01*
X139832815Y-92392500D02*
X138911499Y-91471184D01*
X140398500Y-92392500D02*
X139832815Y-92392500D01*
X156678002Y-87600000D02*
X155886002Y-88392000D01*
X150495000Y-90400000D02*
X150495000Y-91375000D01*
X152503000Y-88392000D02*
X150495000Y-90400000D01*
X155886002Y-88392000D02*
X152503000Y-88392000D01*
X159330000Y-87600000D02*
X156678002Y-87600000D01*
X142362009Y-91635491D02*
X143446500Y-90551000D01*
X144462500Y-89916000D02*
X144081500Y-89916000D01*
X144081500Y-89916000D02*
X143446500Y-90551000D01*
X144653000Y-89725500D02*
X144462500Y-89916000D01*
X145161000Y-89725500D02*
X144653000Y-89725500D01*
X146494500Y-88392000D02*
X145161000Y-89725500D01*
X150495000Y-90400000D02*
X148487000Y-88392000D01*
X148487000Y-88392000D02*
X146494500Y-88392000D01*
X143542000Y-94805500D02*
X141981000Y-94805500D01*
X149225000Y-92350000D02*
X149225000Y-91375000D01*
X143542000Y-93930500D02*
X144009501Y-93462999D01*
X143542000Y-94805500D02*
X143542000Y-93930500D01*
X138461500Y-94805500D02*
X140081000Y-94805500D01*
X137440000Y-90575000D02*
X137440000Y-91400000D01*
X140462000Y-89979500D02*
X139636500Y-90805000D01*
X140462000Y-88075910D02*
X140462000Y-89979500D01*
X140811511Y-87726399D02*
X140462000Y-88075910D01*
X141293010Y-86414312D02*
X140811511Y-86895811D01*
X147955000Y-86425000D02*
X147955000Y-85725000D01*
X141293010Y-85655990D02*
X141293010Y-86414312D01*
X140811511Y-86895811D02*
X140811511Y-87726399D01*
X141711979Y-85237021D02*
X141293010Y-85655990D01*
X146685000Y-85407500D02*
X146685000Y-86425000D01*
X146514521Y-85237021D02*
X146685000Y-85407500D01*
X146514521Y-85237021D02*
X141711979Y-85237021D01*
X149225000Y-92350000D02*
X148547500Y-93027500D01*
X148083410Y-93027500D02*
X147647911Y-93462999D01*
X148547500Y-93027500D02*
X148083410Y-93027500D01*
X144090501Y-93462999D02*
X144081500Y-93472000D01*
X147647911Y-93462999D02*
X144090501Y-93462999D01*
X144009501Y-93462999D02*
X144081500Y-93472000D01*
X147955000Y-92350000D02*
X147955000Y-91375000D01*
X147955000Y-92519500D02*
X147955000Y-92350000D01*
X140081000Y-94805500D02*
X140970000Y-93916500D01*
X143524510Y-93012990D02*
X147461510Y-93012990D01*
X140970000Y-93916500D02*
X142621000Y-93916500D01*
X142621000Y-93916500D02*
X143524510Y-93012990D01*
X147461510Y-93012990D02*
X147955000Y-92519500D01*
X151765000Y-87630000D02*
X151765000Y-86425000D01*
X154305000Y-87630000D02*
X154305000Y-86425000D01*
X153035000Y-87630000D02*
X153035000Y-86425000D01*
X155575000Y-87630000D02*
X155575000Y-86425000D01*
X151765000Y-90400000D02*
X151765000Y-91375000D01*
X152902540Y-89262460D02*
X151765000Y-90400000D01*
X154334256Y-89262460D02*
X152902540Y-89262460D01*
X154305000Y-91375000D02*
X154305000Y-90684498D01*
X154305000Y-91375000D02*
X154305000Y-90678000D01*
X154305000Y-90678000D02*
X154305000Y-90557498D01*
X154789000Y-89916000D02*
X154305000Y-90400000D01*
X154305000Y-90400000D02*
X154305000Y-91375000D01*
X156648002Y-89916000D02*
X154789000Y-89916000D01*
X157607000Y-90366315D02*
X157607000Y-90932000D01*
X157156685Y-89916000D02*
X157607000Y-90366315D01*
X156648002Y-89916000D02*
X157156685Y-89916000D01*
X153035000Y-92350000D02*
X153035000Y-91375000D01*
X153839500Y-93154500D02*
X153035000Y-92350000D01*
X155384500Y-93154500D02*
X153839500Y-93154500D01*
X156018000Y-90932000D02*
X155575000Y-91375000D01*
X156591000Y-90932000D02*
X156018000Y-90932000D01*
X138233990Y-93466490D02*
X142334545Y-93466490D01*
X137440000Y-90575000D02*
X137440000Y-92672500D01*
X137440000Y-92672500D02*
X138233990Y-93466490D01*
X142434600Y-93466490D02*
X143338110Y-92562980D01*
X142334545Y-93466490D02*
X142434600Y-93466490D01*
X143338110Y-92562980D02*
X145497020Y-92562980D01*
X145497020Y-92562980D02*
X146451020Y-92562980D01*
X146451020Y-92562980D02*
X146621500Y-92392500D01*
X146641520Y-92562980D02*
X146240500Y-92562980D01*
X146685000Y-91375000D02*
X146685000Y-92519500D01*
X146685000Y-92519500D02*
X146641520Y-92562980D01*
X147955000Y-85407500D02*
X147955000Y-86425000D01*
X147334511Y-84787011D02*
X147955000Y-85407500D01*
X140843000Y-85344000D02*
X141399989Y-84787011D01*
X140843000Y-86227912D02*
X140843000Y-85344000D01*
X141399989Y-84787011D02*
X147334511Y-84787011D01*
X140361501Y-86709411D02*
X140843000Y-86227912D01*
X140361501Y-87539999D02*
X140361501Y-86709411D01*
X139636500Y-88265000D02*
X140361501Y-87539999D01*
X149161500Y-85471000D02*
X149225000Y-86425000D01*
X148146910Y-84963000D02*
X147520912Y-84337002D01*
X148653500Y-84963000D02*
X149161500Y-85471000D01*
X148653500Y-84963000D02*
X148146910Y-84963000D01*
X139636500Y-86798002D02*
X139636500Y-86995000D01*
X140392990Y-86041512D02*
X139636500Y-86798002D01*
X140392990Y-85157600D02*
X140392990Y-86041512D01*
X141213588Y-84337002D02*
X140392990Y-85157600D01*
X147520911Y-84337001D02*
X141213588Y-84337002D01*
X147520912Y-84337002D02*
X147520911Y-84337001D01*
X141461991Y-89519824D02*
X141461991Y-86881741D01*
X141187000Y-89794815D02*
X141461991Y-89519824D01*
X141187000Y-90360500D02*
X141187000Y-89794815D01*
X141840001Y-86503731D02*
X141461991Y-86881741D01*
X141840001Y-86362020D02*
X141840001Y-86503731D01*
X142240000Y-85962021D02*
X141840001Y-86362020D01*
X141912001Y-90688499D02*
X141097000Y-91503500D01*
X142240000Y-87249000D02*
X141912001Y-87576999D01*
X141912001Y-87576999D02*
X141912001Y-90688499D01*
X146748500Y-89598500D02*
X146748500Y-89664732D01*
X146019616Y-91152884D02*
X146019616Y-90393616D01*
X145542000Y-91630500D02*
X146019616Y-91152884D01*
X146748500Y-89664732D02*
X146019616Y-90393616D01*
D11*
G36*
X163655001Y-95710000D02*
G01*
X135176000Y-95710000D01*
X135176000Y-95430500D01*
X135710290Y-95430500D01*
X135715117Y-95479509D01*
X135729412Y-95526634D01*
X135752627Y-95570065D01*
X135783868Y-95608132D01*
X135821935Y-95639373D01*
X135865366Y-95662588D01*
X135912491Y-95676883D01*
X135961500Y-95681710D01*
X136299000Y-95680500D01*
X136361500Y-95618000D01*
X136361500Y-94905500D01*
X136561500Y-94905500D01*
X136561500Y-95618000D01*
X136624000Y-95680500D01*
X136961500Y-95681710D01*
X137010509Y-95676883D01*
X137057634Y-95662588D01*
X137101065Y-95639373D01*
X137139132Y-95608132D01*
X137170373Y-95570065D01*
X137193588Y-95526634D01*
X137207883Y-95479509D01*
X137212710Y-95430500D01*
X137211500Y-94968000D01*
X137149000Y-94905500D01*
X136561500Y-94905500D01*
X136361500Y-94905500D01*
X135774000Y-94905500D01*
X135711500Y-94968000D01*
X135710290Y-95430500D01*
X135176000Y-95430500D01*
X135176000Y-94180500D01*
X135710290Y-94180500D01*
X135711500Y-94643000D01*
X135774000Y-94705500D01*
X136361500Y-94705500D01*
X136361500Y-93993000D01*
X136561500Y-93993000D01*
X136561500Y-94705500D01*
X137149000Y-94705500D01*
X137211500Y-94643000D01*
X137212710Y-94180500D01*
X137207883Y-94131491D01*
X137193588Y-94084366D01*
X137170373Y-94040935D01*
X137139132Y-94002868D01*
X137101065Y-93971627D01*
X137057634Y-93948412D01*
X137010509Y-93934117D01*
X136961500Y-93929290D01*
X136624000Y-93930500D01*
X136561500Y-93993000D01*
X136361500Y-93993000D01*
X136299000Y-93930500D01*
X135961500Y-93929290D01*
X135912491Y-93934117D01*
X135865366Y-93948412D01*
X135821935Y-93971627D01*
X135783868Y-94002868D01*
X135752627Y-94040935D01*
X135729412Y-94084366D01*
X135715117Y-94131491D01*
X135710290Y-94180500D01*
X135176000Y-94180500D01*
X135176000Y-91872538D01*
X135193866Y-91882088D01*
X135240991Y-91896383D01*
X135290000Y-91901210D01*
X135727500Y-91900000D01*
X135790000Y-91837500D01*
X135790000Y-91300000D01*
X135770000Y-91300000D01*
X135770000Y-91100000D01*
X135790000Y-91100000D01*
X135790000Y-90562500D01*
X135990000Y-90562500D01*
X135990000Y-91100000D01*
X136010000Y-91100000D01*
X136010000Y-91300000D01*
X135990000Y-91300000D01*
X135990000Y-91837500D01*
X136052500Y-91900000D01*
X136490000Y-91901210D01*
X136539009Y-91896383D01*
X136586134Y-91882088D01*
X136629565Y-91858873D01*
X136667632Y-91827632D01*
X136698873Y-91789565D01*
X136722088Y-91746134D01*
X136736383Y-91699009D01*
X136741210Y-91650000D01*
X136740142Y-91396124D01*
X136740992Y-91396382D01*
X136790000Y-91401209D01*
X137065000Y-91401209D01*
X137065001Y-92654074D01*
X137063186Y-92672500D01*
X137068536Y-92726814D01*
X137070427Y-92746013D01*
X137088736Y-92806369D01*
X137091870Y-92816700D01*
X137126691Y-92881846D01*
X137127884Y-92883300D01*
X137173553Y-92938948D01*
X137187862Y-92950691D01*
X137955799Y-93718629D01*
X137967542Y-93732938D01*
X137988563Y-93750189D01*
X138024642Y-93779799D01*
X138070855Y-93804500D01*
X138089790Y-93814621D01*
X138160477Y-93836064D01*
X138215571Y-93841490D01*
X138215573Y-93841490D01*
X138233989Y-93843304D01*
X138252405Y-93841490D01*
X140514680Y-93841490D01*
X140276480Y-94079690D01*
X140154869Y-94055500D01*
X140007131Y-94055500D01*
X139862233Y-94084322D01*
X139725742Y-94140859D01*
X139602903Y-94222937D01*
X139498437Y-94327403D01*
X139429550Y-94430500D01*
X139212709Y-94430500D01*
X139212709Y-94180500D01*
X139207882Y-94131492D01*
X139193587Y-94084366D01*
X139170373Y-94040936D01*
X139139132Y-94002868D01*
X139101064Y-93971627D01*
X139057634Y-93948413D01*
X139010508Y-93934118D01*
X138961500Y-93929291D01*
X137961500Y-93929291D01*
X137912492Y-93934118D01*
X137865366Y-93948413D01*
X137821936Y-93971627D01*
X137783868Y-94002868D01*
X137752627Y-94040936D01*
X137729413Y-94084366D01*
X137715118Y-94131492D01*
X137710291Y-94180500D01*
X137710291Y-95430500D01*
X137715118Y-95479508D01*
X137729413Y-95526634D01*
X137752627Y-95570064D01*
X137783868Y-95608132D01*
X137821936Y-95639373D01*
X137865366Y-95662587D01*
X137912492Y-95676882D01*
X137961500Y-95681709D01*
X138961500Y-95681709D01*
X139010508Y-95676882D01*
X139057634Y-95662587D01*
X139101064Y-95639373D01*
X139139132Y-95608132D01*
X139170373Y-95570064D01*
X139193587Y-95526634D01*
X139207882Y-95479508D01*
X139212709Y-95430500D01*
X139212709Y-95180500D01*
X139429550Y-95180500D01*
X139498437Y-95283597D01*
X139602903Y-95388063D01*
X139725742Y-95470141D01*
X139862233Y-95526678D01*
X140007131Y-95555500D01*
X140154869Y-95555500D01*
X140299767Y-95526678D01*
X140436258Y-95470141D01*
X140559097Y-95388063D01*
X140663563Y-95283597D01*
X140745641Y-95160758D01*
X140802178Y-95024267D01*
X140831000Y-94879369D01*
X140831000Y-94731631D01*
X140806810Y-94610020D01*
X141125330Y-94291500D01*
X141434340Y-94291500D01*
X141398437Y-94327403D01*
X141316359Y-94450242D01*
X141259822Y-94586733D01*
X141231000Y-94731631D01*
X141231000Y-94879369D01*
X141259822Y-95024267D01*
X141316359Y-95160758D01*
X141398437Y-95283597D01*
X141502903Y-95388063D01*
X141625742Y-95470141D01*
X141762233Y-95526678D01*
X141907131Y-95555500D01*
X142054869Y-95555500D01*
X142199767Y-95526678D01*
X142336258Y-95470141D01*
X142459097Y-95388063D01*
X142563563Y-95283597D01*
X142632450Y-95180500D01*
X142790791Y-95180500D01*
X142790791Y-95430500D01*
X142795618Y-95479508D01*
X142809913Y-95526634D01*
X142833127Y-95570064D01*
X142864368Y-95608132D01*
X142902436Y-95639373D01*
X142945866Y-95662587D01*
X142992992Y-95676882D01*
X143042000Y-95681709D01*
X144042000Y-95681709D01*
X144091008Y-95676882D01*
X144138134Y-95662587D01*
X144181564Y-95639373D01*
X144219632Y-95608132D01*
X144250873Y-95570064D01*
X144274087Y-95526634D01*
X144288382Y-95479508D01*
X144293209Y-95430500D01*
X144790790Y-95430500D01*
X144795617Y-95479509D01*
X144809912Y-95526634D01*
X144833127Y-95570065D01*
X144864368Y-95608132D01*
X144902435Y-95639373D01*
X144945866Y-95662588D01*
X144992991Y-95676883D01*
X145042000Y-95681710D01*
X145379500Y-95680500D01*
X145442000Y-95618000D01*
X145442000Y-94905500D01*
X145642000Y-94905500D01*
X145642000Y-95618000D01*
X145704500Y-95680500D01*
X146042000Y-95681710D01*
X146091009Y-95676883D01*
X146138134Y-95662588D01*
X146181565Y-95639373D01*
X146219632Y-95608132D01*
X146250873Y-95570065D01*
X146274088Y-95526634D01*
X146288383Y-95479509D01*
X146293210Y-95430500D01*
X146292000Y-94968000D01*
X146229500Y-94905500D01*
X145642000Y-94905500D01*
X145442000Y-94905500D01*
X144854500Y-94905500D01*
X144792000Y-94968000D01*
X144790790Y-95430500D01*
X144293209Y-95430500D01*
X144293209Y-94180500D01*
X144790790Y-94180500D01*
X144792000Y-94643000D01*
X144854500Y-94705500D01*
X145442000Y-94705500D01*
X145442000Y-93993000D01*
X145642000Y-93993000D01*
X145642000Y-94705500D01*
X146229500Y-94705500D01*
X146292000Y-94643000D01*
X146292504Y-94450327D01*
X147578000Y-94450327D01*
X147578000Y-94649673D01*
X147616890Y-94845190D01*
X147693177Y-95029362D01*
X147803928Y-95195113D01*
X147944887Y-95336072D01*
X148110638Y-95446823D01*
X148294810Y-95523110D01*
X148490327Y-95562000D01*
X148689673Y-95562000D01*
X148885190Y-95523110D01*
X149069362Y-95446823D01*
X149235113Y-95336072D01*
X149376072Y-95195113D01*
X149486823Y-95029362D01*
X149563110Y-94845190D01*
X149602000Y-94649673D01*
X149602000Y-94450327D01*
X150118000Y-94450327D01*
X150118000Y-94649673D01*
X150156890Y-94845190D01*
X150233177Y-95029362D01*
X150343928Y-95195113D01*
X150484887Y-95336072D01*
X150650638Y-95446823D01*
X150834810Y-95523110D01*
X151030327Y-95562000D01*
X151229673Y-95562000D01*
X151425190Y-95523110D01*
X151609362Y-95446823D01*
X151775113Y-95336072D01*
X151916072Y-95195113D01*
X152026823Y-95029362D01*
X152103110Y-94845190D01*
X152142000Y-94649673D01*
X152142000Y-94450327D01*
X152658000Y-94450327D01*
X152658000Y-94649673D01*
X152696890Y-94845190D01*
X152773177Y-95029362D01*
X152883928Y-95195113D01*
X153024887Y-95336072D01*
X153190638Y-95446823D01*
X153374810Y-95523110D01*
X153570327Y-95562000D01*
X153769673Y-95562000D01*
X153965190Y-95523110D01*
X154149362Y-95446823D01*
X154315113Y-95336072D01*
X154456072Y-95195113D01*
X154566823Y-95029362D01*
X154643110Y-94845190D01*
X154682000Y-94649673D01*
X154682000Y-94450327D01*
X155198000Y-94450327D01*
X155198000Y-94649673D01*
X155236890Y-94845190D01*
X155313177Y-95029362D01*
X155423928Y-95195113D01*
X155564887Y-95336072D01*
X155730638Y-95446823D01*
X155914810Y-95523110D01*
X156110327Y-95562000D01*
X156309673Y-95562000D01*
X156505190Y-95523110D01*
X156689362Y-95446823D01*
X156855113Y-95336072D01*
X156996072Y-95195113D01*
X157106823Y-95029362D01*
X157183110Y-94845190D01*
X157222000Y-94649673D01*
X157222000Y-94450327D01*
X157738000Y-94450327D01*
X157738000Y-94649673D01*
X157776890Y-94845190D01*
X157853177Y-95029362D01*
X157963928Y-95195113D01*
X158104887Y-95336072D01*
X158270638Y-95446823D01*
X158454810Y-95523110D01*
X158650327Y-95562000D01*
X158849673Y-95562000D01*
X159045190Y-95523110D01*
X159229362Y-95446823D01*
X159395113Y-95336072D01*
X159536072Y-95195113D01*
X159646823Y-95029362D01*
X159723110Y-94845190D01*
X159762000Y-94649673D01*
X159762000Y-94450327D01*
X160278000Y-94450327D01*
X160278000Y-94649673D01*
X160316890Y-94845190D01*
X160393177Y-95029362D01*
X160503928Y-95195113D01*
X160644887Y-95336072D01*
X160810638Y-95446823D01*
X160994810Y-95523110D01*
X161190327Y-95562000D01*
X161389673Y-95562000D01*
X161585190Y-95523110D01*
X161769362Y-95446823D01*
X161935113Y-95336072D01*
X162076072Y-95195113D01*
X162186823Y-95029362D01*
X162263110Y-94845190D01*
X162302000Y-94649673D01*
X162302000Y-94450327D01*
X162263110Y-94254810D01*
X162186823Y-94070638D01*
X162076072Y-93904887D01*
X161935113Y-93763928D01*
X161769362Y-93653177D01*
X161585190Y-93576890D01*
X161389673Y-93538000D01*
X161190327Y-93538000D01*
X160994810Y-93576890D01*
X160810638Y-93653177D01*
X160644887Y-93763928D01*
X160503928Y-93904887D01*
X160393177Y-94070638D01*
X160316890Y-94254810D01*
X160278000Y-94450327D01*
X159762000Y-94450327D01*
X159723110Y-94254810D01*
X159646823Y-94070638D01*
X159536072Y-93904887D01*
X159395113Y-93763928D01*
X159229362Y-93653177D01*
X159045190Y-93576890D01*
X158849673Y-93538000D01*
X158650327Y-93538000D01*
X158454810Y-93576890D01*
X158270638Y-93653177D01*
X158104887Y-93763928D01*
X157963928Y-93904887D01*
X157853177Y-94070638D01*
X157776890Y-94254810D01*
X157738000Y-94450327D01*
X157222000Y-94450327D01*
X157183110Y-94254810D01*
X157106823Y-94070638D01*
X156996072Y-93904887D01*
X156855113Y-93763928D01*
X156689362Y-93653177D01*
X156505190Y-93576890D01*
X156309673Y-93538000D01*
X156110327Y-93538000D01*
X155914810Y-93576890D01*
X155730638Y-93653177D01*
X155564887Y-93763928D01*
X155423928Y-93904887D01*
X155313177Y-94070638D01*
X155236890Y-94254810D01*
X155198000Y-94450327D01*
X154682000Y-94450327D01*
X154643110Y-94254810D01*
X154566823Y-94070638D01*
X154456072Y-93904887D01*
X154315113Y-93763928D01*
X154149362Y-93653177D01*
X153965190Y-93576890D01*
X153769673Y-93538000D01*
X153570327Y-93538000D01*
X153374810Y-93576890D01*
X153190638Y-93653177D01*
X153024887Y-93763928D01*
X152883928Y-93904887D01*
X152773177Y-94070638D01*
X152696890Y-94254810D01*
X152658000Y-94450327D01*
X152142000Y-94450327D01*
X152103110Y-94254810D01*
X152026823Y-94070638D01*
X151916072Y-93904887D01*
X151775113Y-93763928D01*
X151609362Y-93653177D01*
X151425190Y-93576890D01*
X151229673Y-93538000D01*
X151030327Y-93538000D01*
X150834810Y-93576890D01*
X150650638Y-93653177D01*
X150484887Y-93763928D01*
X150343928Y-93904887D01*
X150233177Y-94070638D01*
X150156890Y-94254810D01*
X150118000Y-94450327D01*
X149602000Y-94450327D01*
X149563110Y-94254810D01*
X149486823Y-94070638D01*
X149376072Y-93904887D01*
X149235113Y-93763928D01*
X149069362Y-93653177D01*
X148885190Y-93576890D01*
X148689673Y-93538000D01*
X148490327Y-93538000D01*
X148294810Y-93576890D01*
X148110638Y-93653177D01*
X147944887Y-93763928D01*
X147803928Y-93904887D01*
X147693177Y-94070638D01*
X147616890Y-94254810D01*
X147578000Y-94450327D01*
X146292504Y-94450327D01*
X146293210Y-94180500D01*
X146288383Y-94131491D01*
X146274088Y-94084366D01*
X146250873Y-94040935D01*
X146219632Y-94002868D01*
X146181565Y-93971627D01*
X146138134Y-93948412D01*
X146091009Y-93934117D01*
X146042000Y-93929290D01*
X145704500Y-93930500D01*
X145642000Y-93993000D01*
X145442000Y-93993000D01*
X145379500Y-93930500D01*
X145042000Y-93929290D01*
X144992991Y-93934117D01*
X144945866Y-93948412D01*
X144902435Y-93971627D01*
X144864368Y-94002868D01*
X144833127Y-94040935D01*
X144809912Y-94084366D01*
X144795617Y-94131491D01*
X144790790Y-94180500D01*
X144293209Y-94180500D01*
X144288382Y-94131492D01*
X144274087Y-94084366D01*
X144250873Y-94040936D01*
X144219632Y-94002868D01*
X144181564Y-93971627D01*
X144138134Y-93948413D01*
X144091008Y-93934118D01*
X144070711Y-93932119D01*
X144163977Y-93838853D01*
X144166794Y-93837999D01*
X147629495Y-93837999D01*
X147647911Y-93839813D01*
X147666327Y-93837999D01*
X147666330Y-93837999D01*
X147721424Y-93832573D01*
X147792111Y-93811130D01*
X147857258Y-93776308D01*
X147914359Y-93729447D01*
X147926106Y-93715133D01*
X148238740Y-93402500D01*
X148529084Y-93402500D01*
X148547500Y-93404314D01*
X148565916Y-93402500D01*
X148565919Y-93402500D01*
X148621013Y-93397074D01*
X148691700Y-93375631D01*
X148756847Y-93340809D01*
X148813948Y-93293948D01*
X148825695Y-93279634D01*
X149477140Y-92628190D01*
X149491448Y-92616448D01*
X149522609Y-92578478D01*
X149529395Y-92570210D01*
X149597900Y-92533593D01*
X149658698Y-92483698D01*
X149708593Y-92422900D01*
X149745669Y-92353536D01*
X149768500Y-92278272D01*
X149776209Y-92200000D01*
X149776209Y-90550000D01*
X149768500Y-90471728D01*
X149745669Y-90396464D01*
X149708593Y-90327100D01*
X149658698Y-90266302D01*
X149597900Y-90216407D01*
X149528536Y-90179331D01*
X149453272Y-90156500D01*
X149375000Y-90148791D01*
X149075000Y-90148791D01*
X148996728Y-90156500D01*
X148921464Y-90179331D01*
X148852100Y-90216407D01*
X148791302Y-90266302D01*
X148741407Y-90327100D01*
X148704331Y-90396464D01*
X148681500Y-90471728D01*
X148673791Y-90550000D01*
X148673791Y-92200000D01*
X148681500Y-92278272D01*
X148701260Y-92343411D01*
X148392171Y-92652500D01*
X148306529Y-92652500D01*
X148324574Y-92593013D01*
X148330000Y-92537919D01*
X148330000Y-92537917D01*
X148330648Y-92531338D01*
X148388698Y-92483698D01*
X148438593Y-92422900D01*
X148475669Y-92353536D01*
X148498500Y-92278272D01*
X148506209Y-92200000D01*
X148506209Y-90550000D01*
X148498500Y-90471728D01*
X148475669Y-90396464D01*
X148438593Y-90327100D01*
X148388698Y-90266302D01*
X148327900Y-90216407D01*
X148258536Y-90179331D01*
X148183272Y-90156500D01*
X148105000Y-90148791D01*
X147805000Y-90148791D01*
X147726728Y-90156500D01*
X147651464Y-90179331D01*
X147582100Y-90216407D01*
X147521302Y-90266302D01*
X147471407Y-90327100D01*
X147434331Y-90396464D01*
X147411500Y-90471728D01*
X147403791Y-90550000D01*
X147403791Y-92200000D01*
X147411500Y-92278272D01*
X147434331Y-92353536D01*
X147471407Y-92422900D01*
X147493883Y-92450287D01*
X147306181Y-92637990D01*
X147040930Y-92637990D01*
X147054574Y-92593013D01*
X147060000Y-92537919D01*
X147060000Y-92537917D01*
X147060648Y-92531338D01*
X147118698Y-92483698D01*
X147168593Y-92422900D01*
X147205669Y-92353536D01*
X147228500Y-92278272D01*
X147236209Y-92200000D01*
X147236209Y-90550000D01*
X147228500Y-90471728D01*
X147205669Y-90396464D01*
X147168593Y-90327100D01*
X147118698Y-90266302D01*
X147078670Y-90233452D01*
X147128598Y-90223521D01*
X147246890Y-90174522D01*
X147353351Y-90103388D01*
X147443888Y-90012851D01*
X147515022Y-89906390D01*
X147564021Y-89788098D01*
X147589000Y-89662519D01*
X147589000Y-89534481D01*
X147564021Y-89408902D01*
X147515022Y-89290610D01*
X147443888Y-89184149D01*
X147353351Y-89093612D01*
X147246890Y-89022478D01*
X147128598Y-88973479D01*
X147003019Y-88948500D01*
X146874981Y-88948500D01*
X146749402Y-88973479D01*
X146631110Y-89022478D01*
X146524649Y-89093612D01*
X146434112Y-89184149D01*
X146362978Y-89290610D01*
X146313979Y-89408902D01*
X146289000Y-89534481D01*
X146289000Y-89593902D01*
X145767478Y-90115425D01*
X145753169Y-90127168D01*
X145741427Y-90141476D01*
X145706307Y-90184270D01*
X145689130Y-90216407D01*
X145671486Y-90249416D01*
X145653811Y-90307684D01*
X145650043Y-90320104D01*
X145642802Y-90393616D01*
X145644617Y-90412042D01*
X145644616Y-90988177D01*
X145606019Y-90980500D01*
X145477981Y-90980500D01*
X145352402Y-91005479D01*
X145234110Y-91054478D01*
X145127649Y-91125612D01*
X145037112Y-91216149D01*
X144965978Y-91322610D01*
X144916979Y-91440902D01*
X144892000Y-91566481D01*
X144892000Y-91694519D01*
X144916979Y-91820098D01*
X144965978Y-91938390D01*
X145037112Y-92044851D01*
X145127649Y-92135388D01*
X145206360Y-92187980D01*
X143356525Y-92187980D01*
X143338109Y-92186166D01*
X143319693Y-92187980D01*
X143319691Y-92187980D01*
X143264597Y-92193406D01*
X143193910Y-92214849D01*
X143128763Y-92249671D01*
X143071662Y-92296532D01*
X143059920Y-92310840D01*
X142279271Y-93091490D01*
X138389320Y-93091490D01*
X137815000Y-92517171D01*
X137815000Y-91401209D01*
X138090000Y-91401209D01*
X138139008Y-91396382D01*
X138186134Y-91382087D01*
X138229564Y-91358873D01*
X138267632Y-91327632D01*
X138298873Y-91289564D01*
X138322087Y-91246134D01*
X138336382Y-91199008D01*
X138341209Y-91150000D01*
X138341209Y-90000000D01*
X138336382Y-89950992D01*
X138322087Y-89903866D01*
X138298873Y-89860436D01*
X138267632Y-89822368D01*
X138229564Y-89791127D01*
X138186134Y-89767913D01*
X138139008Y-89753618D01*
X138090000Y-89748791D01*
X136790000Y-89748791D01*
X136740992Y-89753618D01*
X136693866Y-89767913D01*
X136650436Y-89791127D01*
X136612368Y-89822368D01*
X136581127Y-89860436D01*
X136557913Y-89903866D01*
X136543618Y-89950992D01*
X136538791Y-90000000D01*
X136538791Y-90503596D01*
X136490000Y-90498790D01*
X136052500Y-90500000D01*
X135990000Y-90562500D01*
X135790000Y-90562500D01*
X135727500Y-90500000D01*
X135290000Y-90498790D01*
X135240991Y-90503617D01*
X135193866Y-90517912D01*
X135176000Y-90527462D01*
X135176000Y-89695830D01*
X135340000Y-89695830D01*
X135340000Y-89804170D01*
X135361136Y-89910429D01*
X135402597Y-90010523D01*
X135462787Y-90100604D01*
X135539396Y-90177213D01*
X135629477Y-90237403D01*
X135729571Y-90278864D01*
X135835830Y-90300000D01*
X135944170Y-90300000D01*
X136050429Y-90278864D01*
X136150523Y-90237403D01*
X136240604Y-90177213D01*
X136317213Y-90100604D01*
X136377403Y-90010523D01*
X136418864Y-89910429D01*
X136440000Y-89804170D01*
X136440000Y-89695830D01*
X136418864Y-89589571D01*
X136377403Y-89489477D01*
X136317213Y-89399396D01*
X136240604Y-89322787D01*
X136150523Y-89262597D01*
X136050429Y-89221136D01*
X135944170Y-89200000D01*
X135835830Y-89200000D01*
X135729571Y-89221136D01*
X135629477Y-89262597D01*
X135539396Y-89322787D01*
X135462787Y-89399396D01*
X135402597Y-89489477D01*
X135361136Y-89589571D01*
X135340000Y-89695830D01*
X135176000Y-89695830D01*
X135176000Y-87995830D01*
X135340000Y-87995830D01*
X135340000Y-88104170D01*
X135361136Y-88210429D01*
X135402597Y-88310523D01*
X135462787Y-88400604D01*
X135539396Y-88477213D01*
X135629477Y-88537403D01*
X135729571Y-88578864D01*
X135835830Y-88600000D01*
X135944170Y-88600000D01*
X136050429Y-88578864D01*
X136150523Y-88537403D01*
X136240604Y-88477213D01*
X136317213Y-88400604D01*
X136377403Y-88310523D01*
X136418864Y-88210429D01*
X136440000Y-88104170D01*
X136440000Y-87995830D01*
X136418864Y-87889571D01*
X136377403Y-87789477D01*
X136317213Y-87699396D01*
X136240604Y-87622787D01*
X136150523Y-87562597D01*
X136050429Y-87521136D01*
X135944170Y-87500000D01*
X135835830Y-87500000D01*
X135729571Y-87521136D01*
X135629477Y-87562597D01*
X135539396Y-87622787D01*
X135462787Y-87699396D01*
X135402597Y-87789477D01*
X135361136Y-87889571D01*
X135340000Y-87995830D01*
X135176000Y-87995830D01*
X135176000Y-87272538D01*
X135193866Y-87282088D01*
X135240991Y-87296383D01*
X135290000Y-87301210D01*
X135727500Y-87300000D01*
X135790000Y-87237500D01*
X135790000Y-86700000D01*
X135770000Y-86700000D01*
X135770000Y-86500000D01*
X135790000Y-86500000D01*
X135790000Y-85962500D01*
X135990000Y-85962500D01*
X135990000Y-86500000D01*
X136010000Y-86500000D01*
X136010000Y-86700000D01*
X135990000Y-86700000D01*
X135990000Y-87237500D01*
X136052500Y-87300000D01*
X136490000Y-87301210D01*
X136539009Y-87296383D01*
X136540000Y-87296082D01*
X136540000Y-87325002D01*
X136602498Y-87325002D01*
X136540000Y-87387500D01*
X136538790Y-87800000D01*
X136543617Y-87849009D01*
X136557912Y-87896134D01*
X136581127Y-87939565D01*
X136612368Y-87977632D01*
X136650435Y-88008873D01*
X136693866Y-88032088D01*
X136740991Y-88046383D01*
X136790000Y-88051210D01*
X137277500Y-88050000D01*
X137340000Y-87987500D01*
X137340000Y-87325000D01*
X137540000Y-87325000D01*
X137540000Y-87987500D01*
X137602500Y-88050000D01*
X138090000Y-88051210D01*
X138139009Y-88046383D01*
X138186134Y-88032088D01*
X138229565Y-88008873D01*
X138267632Y-87977632D01*
X138298873Y-87939565D01*
X138322088Y-87896134D01*
X138336383Y-87849009D01*
X138341210Y-87800000D01*
X138340000Y-87387500D01*
X138277500Y-87325000D01*
X137540000Y-87325000D01*
X137340000Y-87325000D01*
X137320000Y-87325000D01*
X137320000Y-87125000D01*
X137340000Y-87125000D01*
X137340000Y-86462500D01*
X137540000Y-86462500D01*
X137540000Y-87125000D01*
X138277500Y-87125000D01*
X138340000Y-87062500D01*
X138341210Y-86650000D01*
X138336383Y-86600991D01*
X138322088Y-86553866D01*
X138298873Y-86510435D01*
X138267632Y-86472368D01*
X138240378Y-86450001D01*
X138534685Y-86450001D01*
X138536500Y-86468427D01*
X138536500Y-88862500D01*
X138536499Y-91198765D01*
X138536499Y-91452768D01*
X138534685Y-91471184D01*
X138536499Y-91489600D01*
X138536499Y-91489602D01*
X138541925Y-91544696D01*
X138563368Y-91615383D01*
X138598190Y-91680530D01*
X138645051Y-91737632D01*
X138659365Y-91749379D01*
X139554624Y-92644639D01*
X139566367Y-92658948D01*
X139590707Y-92678923D01*
X139623468Y-92705810D01*
X139662765Y-92726814D01*
X139688615Y-92740631D01*
X139759302Y-92762074D01*
X139814396Y-92767500D01*
X139814399Y-92767500D01*
X139832815Y-92769314D01*
X139851231Y-92767500D01*
X139867319Y-92767500D01*
X139893612Y-92806851D01*
X139984149Y-92897388D01*
X140090610Y-92968522D01*
X140208902Y-93017521D01*
X140334481Y-93042500D01*
X140462519Y-93042500D01*
X140588098Y-93017521D01*
X140706390Y-92968522D01*
X140812851Y-92897388D01*
X140903388Y-92806851D01*
X140929681Y-92767500D01*
X141586584Y-92767500D01*
X141605000Y-92769314D01*
X141623416Y-92767500D01*
X141623419Y-92767500D01*
X141678513Y-92762074D01*
X141749200Y-92740631D01*
X141814347Y-92705809D01*
X141871448Y-92658948D01*
X141883195Y-92644634D01*
X142640197Y-91887633D01*
X142640201Y-91887628D01*
X143724689Y-90803141D01*
X143724693Y-90803136D01*
X143860620Y-90667209D01*
X145087500Y-90667209D01*
X145136508Y-90662382D01*
X145183634Y-90648087D01*
X145227064Y-90624873D01*
X145265132Y-90593632D01*
X145296373Y-90555564D01*
X145319587Y-90512134D01*
X145333882Y-90465008D01*
X145338709Y-90416000D01*
X145338709Y-90055720D01*
X145370347Y-90038809D01*
X145427448Y-89991948D01*
X145439195Y-89977634D01*
X146649830Y-88767000D01*
X148331671Y-88767000D01*
X149971260Y-90406589D01*
X149951500Y-90471728D01*
X149943791Y-90550000D01*
X149943791Y-92200000D01*
X149951500Y-92278272D01*
X149974331Y-92353536D01*
X150011407Y-92422900D01*
X150061302Y-92483698D01*
X150122100Y-92533593D01*
X150191464Y-92570669D01*
X150266728Y-92593500D01*
X150345000Y-92601209D01*
X150645000Y-92601209D01*
X150723272Y-92593500D01*
X150798536Y-92570669D01*
X150867900Y-92533593D01*
X150928698Y-92483698D01*
X150978593Y-92422900D01*
X151015669Y-92353536D01*
X151038500Y-92278272D01*
X151046209Y-92200000D01*
X151046209Y-90550000D01*
X151038500Y-90471728D01*
X151018740Y-90406589D01*
X152658330Y-88767000D01*
X153910477Y-88767000D01*
X153829368Y-88848109D01*
X153803075Y-88887460D01*
X152920955Y-88887460D01*
X152902539Y-88885646D01*
X152884123Y-88887460D01*
X152884121Y-88887460D01*
X152829027Y-88892886D01*
X152758340Y-88914329D01*
X152758338Y-88914330D01*
X152693192Y-88949151D01*
X152666306Y-88971217D01*
X152636092Y-88996012D01*
X152624349Y-89010321D01*
X151512866Y-90121805D01*
X151498552Y-90133552D01*
X151460608Y-90179789D01*
X151392100Y-90216407D01*
X151331302Y-90266302D01*
X151281407Y-90327100D01*
X151244331Y-90396464D01*
X151221500Y-90471728D01*
X151213791Y-90550000D01*
X151213791Y-92200000D01*
X151221500Y-92278272D01*
X151244331Y-92353536D01*
X151281407Y-92422900D01*
X151331302Y-92483698D01*
X151392100Y-92533593D01*
X151461464Y-92570669D01*
X151536728Y-92593500D01*
X151615000Y-92601209D01*
X151915000Y-92601209D01*
X151993272Y-92593500D01*
X152068536Y-92570669D01*
X152137900Y-92533593D01*
X152198698Y-92483698D01*
X152248593Y-92422900D01*
X152285669Y-92353536D01*
X152308500Y-92278272D01*
X152316209Y-92200000D01*
X152316209Y-90550000D01*
X152308500Y-90471728D01*
X152288740Y-90406589D01*
X153057870Y-89637460D01*
X153803075Y-89637460D01*
X153829368Y-89676811D01*
X153919905Y-89767348D01*
X154026366Y-89838482D01*
X154144658Y-89887481D01*
X154263542Y-89911128D01*
X154052866Y-90121805D01*
X154038552Y-90133552D01*
X154000608Y-90179789D01*
X153932100Y-90216407D01*
X153871302Y-90266302D01*
X153821407Y-90327100D01*
X153784331Y-90396464D01*
X153761500Y-90471728D01*
X153753791Y-90550000D01*
X153753791Y-92200000D01*
X153761500Y-92278272D01*
X153784331Y-92353536D01*
X153821407Y-92422900D01*
X153871302Y-92483698D01*
X153932100Y-92533593D01*
X154001464Y-92570669D01*
X154076728Y-92593500D01*
X154155000Y-92601209D01*
X154455000Y-92601209D01*
X154533272Y-92593500D01*
X154608536Y-92570669D01*
X154677900Y-92533593D01*
X154738698Y-92483698D01*
X154788593Y-92422900D01*
X154825669Y-92353536D01*
X154848500Y-92278272D01*
X154856209Y-92200000D01*
X154856209Y-90550000D01*
X154848500Y-90471728D01*
X154828740Y-90406589D01*
X154944330Y-90291000D01*
X155121033Y-90291000D01*
X155091407Y-90327100D01*
X155054331Y-90396464D01*
X155031500Y-90471728D01*
X155023791Y-90550000D01*
X155023791Y-92200000D01*
X155031500Y-92278272D01*
X155054331Y-92353536D01*
X155091407Y-92422900D01*
X155141302Y-92483698D01*
X155171884Y-92508796D01*
X155067902Y-92529479D01*
X154949610Y-92578478D01*
X154843149Y-92649612D01*
X154752612Y-92740149D01*
X154726319Y-92779500D01*
X153994830Y-92779500D01*
X153558740Y-92343411D01*
X153578500Y-92278272D01*
X153586209Y-92200000D01*
X153586209Y-90550000D01*
X153578500Y-90471728D01*
X153555669Y-90396464D01*
X153518593Y-90327100D01*
X153468698Y-90266302D01*
X153407900Y-90216407D01*
X153338536Y-90179331D01*
X153263272Y-90156500D01*
X153185000Y-90148791D01*
X152885000Y-90148791D01*
X152806728Y-90156500D01*
X152731464Y-90179331D01*
X152662100Y-90216407D01*
X152601302Y-90266302D01*
X152551407Y-90327100D01*
X152514331Y-90396464D01*
X152491500Y-90471728D01*
X152483791Y-90550000D01*
X152483791Y-92200000D01*
X152491500Y-92278272D01*
X152514331Y-92353536D01*
X152551407Y-92422900D01*
X152601302Y-92483698D01*
X152662100Y-92533593D01*
X152730608Y-92570211D01*
X152768552Y-92616448D01*
X152782866Y-92628195D01*
X153561309Y-93406639D01*
X153573052Y-93420948D01*
X153630153Y-93467809D01*
X153695300Y-93502631D01*
X153765987Y-93524074D01*
X153821081Y-93529500D01*
X153821084Y-93529500D01*
X153839500Y-93531314D01*
X153857916Y-93529500D01*
X154726319Y-93529500D01*
X154752612Y-93568851D01*
X154843149Y-93659388D01*
X154949610Y-93730522D01*
X155067902Y-93779521D01*
X155193481Y-93804500D01*
X155321519Y-93804500D01*
X155447098Y-93779521D01*
X155565390Y-93730522D01*
X155671851Y-93659388D01*
X155762388Y-93568851D01*
X155833522Y-93462390D01*
X155882521Y-93344098D01*
X155907500Y-93218519D01*
X155907500Y-93150000D01*
X159378790Y-93150000D01*
X159383617Y-93199009D01*
X159397912Y-93246134D01*
X159421127Y-93289565D01*
X159452368Y-93327632D01*
X159490435Y-93358873D01*
X159533866Y-93382088D01*
X159580991Y-93396383D01*
X159630000Y-93401210D01*
X159967500Y-93400000D01*
X160030000Y-93337500D01*
X160030000Y-92400000D01*
X160230000Y-92400000D01*
X160230000Y-93337500D01*
X160292500Y-93400000D01*
X160630000Y-93401210D01*
X160679009Y-93396383D01*
X160726134Y-93382088D01*
X160769565Y-93358873D01*
X160807632Y-93327632D01*
X160838873Y-93289565D01*
X160862088Y-93246134D01*
X160876383Y-93199009D01*
X160881210Y-93150000D01*
X160880056Y-92494001D01*
X161752421Y-92494001D01*
X161843533Y-92633514D01*
X162031084Y-92720717D01*
X162232043Y-92769655D01*
X162438688Y-92778447D01*
X162643077Y-92746756D01*
X162837357Y-92675800D01*
X162916467Y-92633514D01*
X163007579Y-92494001D01*
X162380000Y-91866421D01*
X161752421Y-92494001D01*
X160880056Y-92494001D01*
X160880000Y-92462500D01*
X160817500Y-92400000D01*
X160230000Y-92400000D01*
X160030000Y-92400000D01*
X159442500Y-92400000D01*
X159380000Y-92462500D01*
X159378790Y-93150000D01*
X155907500Y-93150000D01*
X155907500Y-93090481D01*
X155882521Y-92964902D01*
X155833522Y-92846610D01*
X155762388Y-92740149D01*
X155671851Y-92649612D01*
X155599410Y-92601209D01*
X155725000Y-92601209D01*
X155803272Y-92593500D01*
X155878536Y-92570669D01*
X155947900Y-92533593D01*
X156008698Y-92483698D01*
X156058593Y-92422900D01*
X156095669Y-92353536D01*
X156118500Y-92278272D01*
X156126209Y-92200000D01*
X156126209Y-91386448D01*
X156176649Y-91436888D01*
X156283110Y-91508022D01*
X156401402Y-91557021D01*
X156526981Y-91582000D01*
X156655019Y-91582000D01*
X156780598Y-91557021D01*
X156898890Y-91508022D01*
X157005351Y-91436888D01*
X157095888Y-91346351D01*
X157099000Y-91341693D01*
X157102112Y-91346351D01*
X157192649Y-91436888D01*
X157299110Y-91508022D01*
X157417402Y-91557021D01*
X157542981Y-91582000D01*
X157671019Y-91582000D01*
X157796598Y-91557021D01*
X157914890Y-91508022D01*
X158001727Y-91450000D01*
X159378790Y-91450000D01*
X159380000Y-92137500D01*
X159442500Y-92200000D01*
X160030000Y-92200000D01*
X160030000Y-92180000D01*
X160230000Y-92180000D01*
X160230000Y-92200000D01*
X160817500Y-92200000D01*
X160880000Y-92137500D01*
X160881210Y-91450000D01*
X160876383Y-91400991D01*
X160862088Y-91353866D01*
X160838873Y-91310435D01*
X160807632Y-91272368D01*
X160769565Y-91241127D01*
X160726134Y-91217912D01*
X160686991Y-91206038D01*
X160717403Y-91160523D01*
X160758864Y-91060429D01*
X160780000Y-90954170D01*
X160780000Y-90950000D01*
X161178790Y-90950000D01*
X161183617Y-90999009D01*
X161197912Y-91046134D01*
X161221127Y-91089565D01*
X161252368Y-91127632D01*
X161290435Y-91158873D01*
X161333866Y-91182088D01*
X161380991Y-91196383D01*
X161430000Y-91201210D01*
X161465617Y-91201155D01*
X161384283Y-91376084D01*
X161335345Y-91577043D01*
X161326553Y-91783688D01*
X161358244Y-91988077D01*
X161429200Y-92182357D01*
X161471486Y-92261467D01*
X161610999Y-92352579D01*
X162238579Y-91725000D01*
X162224436Y-91710858D01*
X162365858Y-91569436D01*
X162380000Y-91583579D01*
X162394142Y-91569436D01*
X162535564Y-91710858D01*
X162521421Y-91725000D01*
X163149001Y-92352579D01*
X163288514Y-92261467D01*
X163375717Y-92073916D01*
X163424655Y-91872957D01*
X163433447Y-91666312D01*
X163401756Y-91461923D01*
X163330800Y-91267643D01*
X163295262Y-91201157D01*
X163330000Y-91201210D01*
X163379009Y-91196383D01*
X163426134Y-91182088D01*
X163469565Y-91158873D01*
X163507632Y-91127632D01*
X163538873Y-91089565D01*
X163562088Y-91046134D01*
X163576383Y-90999009D01*
X163581210Y-90950000D01*
X163580000Y-90162500D01*
X163517500Y-90100000D01*
X162480000Y-90100000D01*
X162480000Y-90120000D01*
X162280000Y-90120000D01*
X162280000Y-90100000D01*
X161242500Y-90100000D01*
X161180000Y-90162500D01*
X161178790Y-90950000D01*
X160780000Y-90950000D01*
X160780000Y-90845830D01*
X160758864Y-90739571D01*
X160717403Y-90639477D01*
X160657213Y-90549396D01*
X160607512Y-90499695D01*
X160612088Y-90491134D01*
X160626383Y-90444009D01*
X160631210Y-90395000D01*
X160630000Y-90362500D01*
X160567500Y-90300000D01*
X159430000Y-90300000D01*
X159430000Y-90582500D01*
X159492500Y-90645000D01*
X159740169Y-90645338D01*
X159701136Y-90739571D01*
X159680000Y-90845830D01*
X159680000Y-90954170D01*
X159701136Y-91060429D01*
X159742597Y-91160523D01*
X159768498Y-91199287D01*
X159630000Y-91198790D01*
X159580991Y-91203617D01*
X159533866Y-91217912D01*
X159490435Y-91241127D01*
X159452368Y-91272368D01*
X159421127Y-91310435D01*
X159397912Y-91353866D01*
X159383617Y-91400991D01*
X159378790Y-91450000D01*
X158001727Y-91450000D01*
X158021351Y-91436888D01*
X158111888Y-91346351D01*
X158183022Y-91239890D01*
X158232021Y-91121598D01*
X158257000Y-90996019D01*
X158257000Y-90867981D01*
X158232021Y-90742402D01*
X158184312Y-90627223D01*
X158230991Y-90641383D01*
X158280000Y-90646210D01*
X159167500Y-90645000D01*
X159230000Y-90582500D01*
X159230000Y-90300000D01*
X158092500Y-90300000D01*
X158030000Y-90362500D01*
X158028790Y-90395000D01*
X158033111Y-90438872D01*
X158021351Y-90427112D01*
X157982000Y-90400819D01*
X157982000Y-90384731D01*
X157983814Y-90366315D01*
X157981385Y-90341654D01*
X157976574Y-90292802D01*
X157955131Y-90222115D01*
X157937349Y-90188847D01*
X157920310Y-90156968D01*
X157885189Y-90114174D01*
X157873448Y-90099867D01*
X157859140Y-90088125D01*
X157516015Y-89745000D01*
X158028790Y-89745000D01*
X158033617Y-89794009D01*
X158047912Y-89841134D01*
X158066014Y-89875000D01*
X158047912Y-89908866D01*
X158033617Y-89955991D01*
X158028790Y-90005000D01*
X158030000Y-90037500D01*
X158092500Y-90100000D01*
X159230000Y-90100000D01*
X159230000Y-89650000D01*
X159430000Y-89650000D01*
X159430000Y-90100000D01*
X160567500Y-90100000D01*
X160630000Y-90037500D01*
X160631210Y-90005000D01*
X160626383Y-89955991D01*
X160612088Y-89908866D01*
X160593986Y-89875000D01*
X160612088Y-89841134D01*
X160626383Y-89794009D01*
X160631210Y-89745000D01*
X160630000Y-89712500D01*
X160567500Y-89650000D01*
X159430000Y-89650000D01*
X159230000Y-89650000D01*
X158092500Y-89650000D01*
X158030000Y-89712500D01*
X158028790Y-89745000D01*
X157516015Y-89745000D01*
X157434880Y-89663866D01*
X157423133Y-89649552D01*
X157366032Y-89602691D01*
X157300885Y-89567869D01*
X157230198Y-89546426D01*
X157175104Y-89541000D01*
X157175101Y-89541000D01*
X157156685Y-89539186D01*
X157138269Y-89541000D01*
X154922435Y-89541000D01*
X154959277Y-89452058D01*
X154984256Y-89326479D01*
X154984256Y-89198441D01*
X154959277Y-89072862D01*
X154910278Y-88954570D01*
X154839144Y-88848109D01*
X154758035Y-88767000D01*
X155867586Y-88767000D01*
X155886002Y-88768814D01*
X155904418Y-88767000D01*
X155904421Y-88767000D01*
X155959515Y-88761574D01*
X156030202Y-88740131D01*
X156095349Y-88705309D01*
X156152450Y-88658448D01*
X156164197Y-88644134D01*
X156776623Y-88031709D01*
X157851000Y-88031709D01*
X157900008Y-88026882D01*
X157947134Y-88012587D01*
X157990564Y-87989373D01*
X158008078Y-87975000D01*
X158043019Y-87975000D01*
X158033618Y-88005992D01*
X158028791Y-88055000D01*
X158028791Y-88445000D01*
X158033618Y-88494008D01*
X158047913Y-88541134D01*
X158066015Y-88575000D01*
X158047913Y-88608866D01*
X158033618Y-88655992D01*
X158028791Y-88705000D01*
X158028791Y-89095000D01*
X158033618Y-89144008D01*
X158047913Y-89191134D01*
X158066015Y-89224999D01*
X158047912Y-89258866D01*
X158033617Y-89305991D01*
X158028790Y-89355000D01*
X158030000Y-89387500D01*
X158092500Y-89450000D01*
X159230000Y-89450000D01*
X159230000Y-89430000D01*
X159430000Y-89430000D01*
X159430000Y-89450000D01*
X160567500Y-89450000D01*
X160630000Y-89387500D01*
X160631210Y-89355000D01*
X160626383Y-89305991D01*
X160612088Y-89258866D01*
X160593985Y-89224999D01*
X160612087Y-89191134D01*
X160626382Y-89144008D01*
X160631209Y-89095000D01*
X160631209Y-88750000D01*
X161178790Y-88750000D01*
X161183617Y-88799009D01*
X161197912Y-88846134D01*
X161221127Y-88889565D01*
X161229691Y-88900000D01*
X161221127Y-88910435D01*
X161197912Y-88953866D01*
X161183617Y-89000991D01*
X161178790Y-89050000D01*
X161180000Y-89837500D01*
X161242500Y-89900000D01*
X162280000Y-89900000D01*
X162280000Y-87900000D01*
X162480000Y-87900000D01*
X162480000Y-89900000D01*
X163517500Y-89900000D01*
X163580000Y-89837500D01*
X163581210Y-89050000D01*
X163576383Y-89000991D01*
X163562088Y-88953866D01*
X163538873Y-88910435D01*
X163530309Y-88900000D01*
X163538873Y-88889565D01*
X163562088Y-88846134D01*
X163576383Y-88799009D01*
X163581210Y-88750000D01*
X163580000Y-87962500D01*
X163517500Y-87900000D01*
X162480000Y-87900000D01*
X162280000Y-87900000D01*
X161242500Y-87900000D01*
X161180000Y-87962500D01*
X161178790Y-88750000D01*
X160631209Y-88750000D01*
X160631209Y-88705000D01*
X160626382Y-88655992D01*
X160612087Y-88608866D01*
X160593985Y-88575000D01*
X160612087Y-88541134D01*
X160626382Y-88494008D01*
X160631209Y-88445000D01*
X160631209Y-88055000D01*
X160626382Y-88005992D01*
X160612087Y-87958866D01*
X160593985Y-87925000D01*
X160612087Y-87891134D01*
X160626382Y-87844008D01*
X160631209Y-87795000D01*
X160631209Y-87405000D01*
X160626382Y-87355992D01*
X160612087Y-87308866D01*
X160607511Y-87300306D01*
X160657213Y-87250604D01*
X160717403Y-87160523D01*
X160758864Y-87060429D01*
X160780000Y-86954170D01*
X160780000Y-86850000D01*
X161178790Y-86850000D01*
X161180000Y-87637500D01*
X161242500Y-87700000D01*
X162280000Y-87700000D01*
X162280000Y-87680000D01*
X162480000Y-87680000D01*
X162480000Y-87700000D01*
X163517500Y-87700000D01*
X163580000Y-87637500D01*
X163581210Y-86850000D01*
X163576383Y-86800991D01*
X163562088Y-86753866D01*
X163538873Y-86710435D01*
X163507632Y-86672368D01*
X163469565Y-86641127D01*
X163426134Y-86617912D01*
X163379009Y-86603617D01*
X163330000Y-86598790D01*
X163294383Y-86598845D01*
X163375717Y-86423916D01*
X163424655Y-86222957D01*
X163433447Y-86016312D01*
X163401756Y-85811923D01*
X163330800Y-85617643D01*
X163288514Y-85538533D01*
X163149001Y-85447421D01*
X162521421Y-86075000D01*
X162535564Y-86089142D01*
X162394142Y-86230564D01*
X162380000Y-86216421D01*
X162365858Y-86230564D01*
X162224436Y-86089142D01*
X162238579Y-86075000D01*
X161610999Y-85447421D01*
X161471486Y-85538533D01*
X161384283Y-85726084D01*
X161335345Y-85927043D01*
X161326553Y-86133688D01*
X161358244Y-86338077D01*
X161429200Y-86532357D01*
X161464738Y-86598843D01*
X161430000Y-86598790D01*
X161380991Y-86603617D01*
X161333866Y-86617912D01*
X161290435Y-86641127D01*
X161252368Y-86672368D01*
X161221127Y-86710435D01*
X161197912Y-86753866D01*
X161183617Y-86800991D01*
X161178790Y-86850000D01*
X160780000Y-86850000D01*
X160780000Y-86845830D01*
X160758864Y-86739571D01*
X160717403Y-86639477D01*
X160686991Y-86593962D01*
X160726134Y-86582088D01*
X160769565Y-86558873D01*
X160807632Y-86527632D01*
X160838873Y-86489565D01*
X160862088Y-86446134D01*
X160876383Y-86399009D01*
X160881210Y-86350000D01*
X160880000Y-85662500D01*
X160817500Y-85600000D01*
X160230000Y-85600000D01*
X160230000Y-85620000D01*
X160030000Y-85620000D01*
X160030000Y-85600000D01*
X159442500Y-85600000D01*
X159380000Y-85662500D01*
X159378790Y-86350000D01*
X159383617Y-86399009D01*
X159397912Y-86446134D01*
X159421127Y-86489565D01*
X159452368Y-86527632D01*
X159490435Y-86558873D01*
X159533866Y-86582088D01*
X159580991Y-86596383D01*
X159630000Y-86601210D01*
X159768498Y-86600713D01*
X159742597Y-86639477D01*
X159701136Y-86739571D01*
X159680000Y-86845830D01*
X159680000Y-86954170D01*
X159701136Y-87060429D01*
X159739808Y-87153791D01*
X158280000Y-87153791D01*
X158230992Y-87158618D01*
X158183866Y-87172913D01*
X158140436Y-87196127D01*
X158105253Y-87225000D01*
X158102209Y-87225000D01*
X158102209Y-86780500D01*
X158097382Y-86731492D01*
X158083087Y-86684366D01*
X158059873Y-86640936D01*
X158028632Y-86602868D01*
X157990564Y-86571627D01*
X157947134Y-86548413D01*
X157900008Y-86534118D01*
X157851000Y-86529291D01*
X156601000Y-86529291D01*
X156551992Y-86534118D01*
X156504866Y-86548413D01*
X156461436Y-86571627D01*
X156423368Y-86602868D01*
X156392127Y-86640936D01*
X156368913Y-86684366D01*
X156354618Y-86731492D01*
X156349791Y-86780500D01*
X156349791Y-87397881D01*
X156217815Y-87529858D01*
X156200021Y-87440402D01*
X156151022Y-87322110D01*
X156123207Y-87280481D01*
X156126209Y-87250000D01*
X156126209Y-85780500D01*
X156349790Y-85780500D01*
X156354617Y-85829509D01*
X156368912Y-85876634D01*
X156392127Y-85920065D01*
X156423368Y-85958132D01*
X156461435Y-85989373D01*
X156504866Y-86012588D01*
X156551991Y-86026883D01*
X156601000Y-86031710D01*
X157063500Y-86030500D01*
X157126000Y-85968000D01*
X157126000Y-85380500D01*
X157326000Y-85380500D01*
X157326000Y-85968000D01*
X157388500Y-86030500D01*
X157851000Y-86031710D01*
X157900009Y-86026883D01*
X157947134Y-86012588D01*
X157990565Y-85989373D01*
X158028632Y-85958132D01*
X158059873Y-85920065D01*
X158083088Y-85876634D01*
X158097383Y-85829509D01*
X158102210Y-85780500D01*
X158101000Y-85443000D01*
X158038500Y-85380500D01*
X157326000Y-85380500D01*
X157126000Y-85380500D01*
X156413500Y-85380500D01*
X156351000Y-85443000D01*
X156349790Y-85780500D01*
X156126209Y-85780500D01*
X156126209Y-85600000D01*
X156118500Y-85521728D01*
X156095669Y-85446464D01*
X156058593Y-85377100D01*
X156008698Y-85316302D01*
X155947900Y-85266407D01*
X155878536Y-85229331D01*
X155803272Y-85206500D01*
X155725000Y-85198791D01*
X155425000Y-85198791D01*
X155346728Y-85206500D01*
X155271464Y-85229331D01*
X155202100Y-85266407D01*
X155141302Y-85316302D01*
X155091407Y-85377100D01*
X155054331Y-85446464D01*
X155031500Y-85521728D01*
X155023791Y-85600000D01*
X155023791Y-87250000D01*
X155026793Y-87280481D01*
X154998978Y-87322110D01*
X154949979Y-87440402D01*
X154940000Y-87490570D01*
X154930021Y-87440402D01*
X154881022Y-87322110D01*
X154853207Y-87280481D01*
X154856209Y-87250000D01*
X154856209Y-85600000D01*
X154848500Y-85521728D01*
X154825669Y-85446464D01*
X154788593Y-85377100D01*
X154738698Y-85316302D01*
X154677900Y-85266407D01*
X154608536Y-85229331D01*
X154533272Y-85206500D01*
X154455000Y-85198791D01*
X154155000Y-85198791D01*
X154076728Y-85206500D01*
X154001464Y-85229331D01*
X153932100Y-85266407D01*
X153871302Y-85316302D01*
X153821407Y-85377100D01*
X153784331Y-85446464D01*
X153761500Y-85521728D01*
X153753791Y-85600000D01*
X153753791Y-87250000D01*
X153756793Y-87280481D01*
X153728978Y-87322110D01*
X153679979Y-87440402D01*
X153670000Y-87490570D01*
X153660021Y-87440402D01*
X153611022Y-87322110D01*
X153583207Y-87280481D01*
X153586209Y-87250000D01*
X153586209Y-85600000D01*
X153578500Y-85521728D01*
X153555669Y-85446464D01*
X153518593Y-85377100D01*
X153468698Y-85316302D01*
X153407900Y-85266407D01*
X153338536Y-85229331D01*
X153263272Y-85206500D01*
X153185000Y-85198791D01*
X152885000Y-85198791D01*
X152806728Y-85206500D01*
X152731464Y-85229331D01*
X152662100Y-85266407D01*
X152601302Y-85316302D01*
X152551407Y-85377100D01*
X152514331Y-85446464D01*
X152491500Y-85521728D01*
X152483791Y-85600000D01*
X152483791Y-87250000D01*
X152486793Y-87280481D01*
X152458978Y-87322110D01*
X152409979Y-87440402D01*
X152400000Y-87490570D01*
X152390021Y-87440402D01*
X152341022Y-87322110D01*
X152313207Y-87280481D01*
X152316209Y-87250000D01*
X152316209Y-85600000D01*
X152308500Y-85521728D01*
X152285669Y-85446464D01*
X152248593Y-85377100D01*
X152198698Y-85316302D01*
X152137900Y-85266407D01*
X152068536Y-85229331D01*
X151993272Y-85206500D01*
X151915000Y-85198791D01*
X151615000Y-85198791D01*
X151536728Y-85206500D01*
X151461464Y-85229331D01*
X151392100Y-85266407D01*
X151331302Y-85316302D01*
X151281407Y-85377100D01*
X151244331Y-85446464D01*
X151221500Y-85521728D01*
X151213791Y-85600000D01*
X151213791Y-87250000D01*
X151216793Y-87280481D01*
X151188978Y-87322110D01*
X151139979Y-87440402D01*
X151115000Y-87565981D01*
X151115000Y-87694019D01*
X151139979Y-87819598D01*
X151188978Y-87937890D01*
X151260112Y-88044351D01*
X151350649Y-88134888D01*
X151457110Y-88206022D01*
X151575402Y-88255021D01*
X151700981Y-88280000D01*
X151829019Y-88280000D01*
X151954598Y-88255021D01*
X152072890Y-88206022D01*
X152179351Y-88134888D01*
X152269888Y-88044351D01*
X152341022Y-87937890D01*
X152390021Y-87819598D01*
X152400000Y-87769430D01*
X152409979Y-87819598D01*
X152458978Y-87937890D01*
X152511162Y-88015990D01*
X152503000Y-88015186D01*
X152484584Y-88017000D01*
X152484581Y-88017000D01*
X152429487Y-88022426D01*
X152358800Y-88043869D01*
X152293653Y-88078691D01*
X152236552Y-88125552D01*
X152224810Y-88139860D01*
X150495000Y-89869670D01*
X148765195Y-88139866D01*
X148753448Y-88125552D01*
X148696347Y-88078691D01*
X148631200Y-88043869D01*
X148560513Y-88022426D01*
X148505419Y-88017000D01*
X148505416Y-88017000D01*
X148487000Y-88015186D01*
X148468584Y-88017000D01*
X146512916Y-88017000D01*
X146494500Y-88015186D01*
X146476084Y-88017000D01*
X146476081Y-88017000D01*
X146420987Y-88022426D01*
X146350300Y-88043869D01*
X146285153Y-88078691D01*
X146228052Y-88125552D01*
X146216310Y-88139860D01*
X145174905Y-89181265D01*
X145136508Y-89169618D01*
X145087500Y-89164791D01*
X143837500Y-89164791D01*
X143788492Y-89169618D01*
X143741366Y-89183913D01*
X143697936Y-89207127D01*
X143659868Y-89238368D01*
X143628627Y-89276436D01*
X143605413Y-89319866D01*
X143591118Y-89366992D01*
X143586291Y-89416000D01*
X143586291Y-89880879D01*
X143194364Y-90272807D01*
X143194359Y-90272811D01*
X142109872Y-91357299D01*
X142109867Y-91357303D01*
X141685214Y-91781957D01*
X141722021Y-91693098D01*
X141747000Y-91567519D01*
X141747000Y-91439481D01*
X141737767Y-91393063D01*
X142164140Y-90966690D01*
X142178449Y-90954947D01*
X142206659Y-90920573D01*
X142225310Y-90897847D01*
X142260131Y-90832701D01*
X142260132Y-90832699D01*
X142281575Y-90762012D01*
X142287001Y-90706918D01*
X142287001Y-90706916D01*
X142288815Y-90688500D01*
X142287001Y-90670084D01*
X142287001Y-88416000D01*
X143586290Y-88416000D01*
X143591117Y-88465009D01*
X143605412Y-88512134D01*
X143628627Y-88555565D01*
X143659868Y-88593632D01*
X143697935Y-88624873D01*
X143741366Y-88648088D01*
X143788491Y-88662383D01*
X143837500Y-88667210D01*
X144300000Y-88666000D01*
X144362500Y-88603500D01*
X144362500Y-88016000D01*
X144562500Y-88016000D01*
X144562500Y-88603500D01*
X144625000Y-88666000D01*
X145087500Y-88667210D01*
X145136509Y-88662383D01*
X145183634Y-88648088D01*
X145227065Y-88624873D01*
X145265132Y-88593632D01*
X145296373Y-88555565D01*
X145319588Y-88512134D01*
X145333883Y-88465009D01*
X145338710Y-88416000D01*
X145337500Y-88078500D01*
X145275000Y-88016000D01*
X144562500Y-88016000D01*
X144362500Y-88016000D01*
X143650000Y-88016000D01*
X143587500Y-88078500D01*
X143586290Y-88416000D01*
X142287001Y-88416000D01*
X142287001Y-87899000D01*
X142304019Y-87899000D01*
X142429598Y-87874021D01*
X142547890Y-87825022D01*
X142654351Y-87753888D01*
X142744888Y-87663351D01*
X142816022Y-87556890D01*
X142865021Y-87438598D01*
X142869515Y-87416000D01*
X143586290Y-87416000D01*
X143587500Y-87753500D01*
X143650000Y-87816000D01*
X144362500Y-87816000D01*
X144362500Y-87228500D01*
X144562500Y-87228500D01*
X144562500Y-87816000D01*
X145275000Y-87816000D01*
X145337500Y-87753500D01*
X145338710Y-87416000D01*
X145333883Y-87366991D01*
X145319588Y-87319866D01*
X145296373Y-87276435D01*
X145265132Y-87238368D01*
X145227065Y-87207127D01*
X145183634Y-87183912D01*
X145136509Y-87169617D01*
X145087500Y-87164790D01*
X144625000Y-87166000D01*
X144562500Y-87228500D01*
X144362500Y-87228500D01*
X144300000Y-87166000D01*
X143837500Y-87164790D01*
X143788491Y-87169617D01*
X143741366Y-87183912D01*
X143697935Y-87207127D01*
X143659868Y-87238368D01*
X143628627Y-87276435D01*
X143605412Y-87319866D01*
X143591117Y-87366991D01*
X143586290Y-87416000D01*
X142869515Y-87416000D01*
X142890000Y-87313019D01*
X142890000Y-87184981D01*
X142865021Y-87059402D01*
X142816022Y-86941110D01*
X142744888Y-86834649D01*
X142654351Y-86744112D01*
X142547890Y-86672978D01*
X142429598Y-86623979D01*
X142336750Y-86605511D01*
X142429598Y-86587042D01*
X142547890Y-86538043D01*
X142654351Y-86466909D01*
X142744888Y-86376372D01*
X142816022Y-86269911D01*
X142865021Y-86151619D01*
X142890000Y-86026040D01*
X142890000Y-85898002D01*
X142865021Y-85772423D01*
X142816022Y-85654131D01*
X142787885Y-85612021D01*
X146133791Y-85612021D01*
X146133791Y-87250000D01*
X146141500Y-87328272D01*
X146164331Y-87403536D01*
X146201407Y-87472900D01*
X146251302Y-87533698D01*
X146312100Y-87583593D01*
X146381464Y-87620669D01*
X146456728Y-87643500D01*
X146535000Y-87651209D01*
X146835000Y-87651209D01*
X146913272Y-87643500D01*
X146988536Y-87620669D01*
X147057900Y-87583593D01*
X147118698Y-87533698D01*
X147168593Y-87472900D01*
X147205669Y-87403536D01*
X147228500Y-87328272D01*
X147236209Y-87250000D01*
X147236209Y-85600000D01*
X147228500Y-85521728D01*
X147205669Y-85446464D01*
X147168593Y-85377100D01*
X147118698Y-85316302D01*
X147057900Y-85266407D01*
X147025549Y-85249115D01*
X147011503Y-85222837D01*
X146998310Y-85198154D01*
X146989521Y-85187445D01*
X146968648Y-85162011D01*
X147179182Y-85162011D01*
X147444538Y-85427368D01*
X147434331Y-85446464D01*
X147411500Y-85521728D01*
X147403791Y-85600000D01*
X147403791Y-87250000D01*
X147411500Y-87328272D01*
X147434331Y-87403536D01*
X147471407Y-87472900D01*
X147521302Y-87533698D01*
X147582100Y-87583593D01*
X147651464Y-87620669D01*
X147726728Y-87643500D01*
X147805000Y-87651209D01*
X148105000Y-87651209D01*
X148183272Y-87643500D01*
X148258536Y-87620669D01*
X148327900Y-87583593D01*
X148388698Y-87533698D01*
X148438593Y-87472900D01*
X148475669Y-87403536D01*
X148498500Y-87328272D01*
X148506209Y-87250000D01*
X148506209Y-85600000D01*
X148498500Y-85521728D01*
X148475669Y-85446464D01*
X148438593Y-85377100D01*
X148406505Y-85338000D01*
X148498171Y-85338000D01*
X148681593Y-85521422D01*
X148681500Y-85521728D01*
X148673791Y-85600000D01*
X148673791Y-87250000D01*
X148681500Y-87328272D01*
X148704331Y-87403536D01*
X148741407Y-87472900D01*
X148791302Y-87533698D01*
X148852100Y-87583593D01*
X148921464Y-87620669D01*
X148996728Y-87643500D01*
X149075000Y-87651209D01*
X149375000Y-87651209D01*
X149453272Y-87643500D01*
X149528536Y-87620669D01*
X149597900Y-87583593D01*
X149658698Y-87533698D01*
X149708593Y-87472900D01*
X149745669Y-87403536D01*
X149746741Y-87400000D01*
X149943790Y-87400000D01*
X149948617Y-87449009D01*
X149962912Y-87496134D01*
X149986127Y-87539565D01*
X150017368Y-87577632D01*
X150055435Y-87608873D01*
X150098866Y-87632088D01*
X150145991Y-87646383D01*
X150195000Y-87651210D01*
X150332500Y-87650000D01*
X150395000Y-87587500D01*
X150395000Y-86525000D01*
X150595000Y-86525000D01*
X150595000Y-87587500D01*
X150657500Y-87650000D01*
X150795000Y-87651210D01*
X150844009Y-87646383D01*
X150891134Y-87632088D01*
X150934565Y-87608873D01*
X150972632Y-87577632D01*
X151003873Y-87539565D01*
X151027088Y-87496134D01*
X151041383Y-87449009D01*
X151046210Y-87400000D01*
X151045000Y-86587500D01*
X150982500Y-86525000D01*
X150595000Y-86525000D01*
X150395000Y-86525000D01*
X150007500Y-86525000D01*
X149945000Y-86587500D01*
X149943790Y-87400000D01*
X149746741Y-87400000D01*
X149768500Y-87328272D01*
X149776209Y-87250000D01*
X149776209Y-85600000D01*
X149768500Y-85521728D01*
X149746742Y-85450000D01*
X149943790Y-85450000D01*
X149945000Y-86262500D01*
X150007500Y-86325000D01*
X150395000Y-86325000D01*
X150395000Y-85262500D01*
X150595000Y-85262500D01*
X150595000Y-86325000D01*
X150982500Y-86325000D01*
X151045000Y-86262500D01*
X151046210Y-85450000D01*
X151041383Y-85400991D01*
X151027088Y-85353866D01*
X151003873Y-85310435D01*
X150972632Y-85272368D01*
X150934565Y-85241127D01*
X150891134Y-85217912D01*
X150844009Y-85203617D01*
X150795000Y-85198790D01*
X150657500Y-85200000D01*
X150595000Y-85262500D01*
X150395000Y-85262500D01*
X150332500Y-85200000D01*
X150195000Y-85198790D01*
X150145991Y-85203617D01*
X150098866Y-85217912D01*
X150055435Y-85241127D01*
X150017368Y-85272368D01*
X149986127Y-85310435D01*
X149962912Y-85353866D01*
X149948617Y-85400991D01*
X149943790Y-85450000D01*
X149746742Y-85450000D01*
X149745669Y-85446464D01*
X149708593Y-85377100D01*
X149658698Y-85316302D01*
X149597900Y-85266407D01*
X149528536Y-85229331D01*
X149453272Y-85206500D01*
X149424926Y-85203708D01*
X149409663Y-85187445D01*
X149404792Y-85183962D01*
X149001330Y-84780500D01*
X156349790Y-84780500D01*
X156351000Y-85118000D01*
X156413500Y-85180500D01*
X157126000Y-85180500D01*
X157126000Y-84593000D01*
X157326000Y-84593000D01*
X157326000Y-85180500D01*
X158038500Y-85180500D01*
X158101000Y-85118000D01*
X158102210Y-84780500D01*
X158097383Y-84731491D01*
X158083088Y-84684366D01*
X158064719Y-84650000D01*
X159378790Y-84650000D01*
X159380000Y-85337500D01*
X159442500Y-85400000D01*
X160030000Y-85400000D01*
X160030000Y-84462500D01*
X160230000Y-84462500D01*
X160230000Y-85400000D01*
X160817500Y-85400000D01*
X160880000Y-85337500D01*
X160880055Y-85305999D01*
X161752421Y-85305999D01*
X162380000Y-85933579D01*
X163007579Y-85305999D01*
X162916467Y-85166486D01*
X162728916Y-85079283D01*
X162527957Y-85030345D01*
X162321312Y-85021553D01*
X162116923Y-85053244D01*
X161922643Y-85124200D01*
X161843533Y-85166486D01*
X161752421Y-85305999D01*
X160880055Y-85305999D01*
X160881210Y-84650000D01*
X160876383Y-84600991D01*
X160862088Y-84553866D01*
X160838873Y-84510435D01*
X160807632Y-84472368D01*
X160769565Y-84441127D01*
X160726134Y-84417912D01*
X160679009Y-84403617D01*
X160630000Y-84398790D01*
X160292500Y-84400000D01*
X160230000Y-84462500D01*
X160030000Y-84462500D01*
X159967500Y-84400000D01*
X159630000Y-84398790D01*
X159580991Y-84403617D01*
X159533866Y-84417912D01*
X159490435Y-84441127D01*
X159452368Y-84472368D01*
X159421127Y-84510435D01*
X159397912Y-84553866D01*
X159383617Y-84600991D01*
X159378790Y-84650000D01*
X158064719Y-84650000D01*
X158059873Y-84640935D01*
X158028632Y-84602868D01*
X157990565Y-84571627D01*
X157947134Y-84548412D01*
X157900009Y-84534117D01*
X157851000Y-84529290D01*
X157388500Y-84530500D01*
X157326000Y-84593000D01*
X157126000Y-84593000D01*
X157063500Y-84530500D01*
X156601000Y-84529290D01*
X156551991Y-84534117D01*
X156504866Y-84548412D01*
X156461435Y-84571627D01*
X156423368Y-84602868D01*
X156392127Y-84640935D01*
X156368912Y-84684366D01*
X156354617Y-84731491D01*
X156349790Y-84780500D01*
X149001330Y-84780500D01*
X148931695Y-84710866D01*
X148919948Y-84696552D01*
X148862847Y-84649691D01*
X148797700Y-84614869D01*
X148727013Y-84593426D01*
X148671919Y-84588000D01*
X148671916Y-84588000D01*
X148653500Y-84586186D01*
X148635084Y-84588000D01*
X148302240Y-84588000D01*
X147799101Y-84084861D01*
X147787358Y-84070553D01*
X147730257Y-84023692D01*
X147665110Y-83988870D01*
X147594423Y-83967427D01*
X147539329Y-83962001D01*
X147539327Y-83962001D01*
X147520911Y-83960187D01*
X147502495Y-83962001D01*
X141232014Y-83962003D01*
X141213588Y-83960188D01*
X141140075Y-83967429D01*
X141069387Y-83988872D01*
X141004241Y-84023693D01*
X140961447Y-84058813D01*
X140961443Y-84058817D01*
X140947140Y-84070555D01*
X140935402Y-84084858D01*
X140140856Y-84879405D01*
X140126542Y-84891152D01*
X140079681Y-84948254D01*
X140044859Y-85013401D01*
X140023416Y-85084088D01*
X140019466Y-85124200D01*
X140016176Y-85157600D01*
X140017990Y-85176016D01*
X140017990Y-85198155D01*
X139944390Y-85148978D01*
X139826098Y-85099979D01*
X139700519Y-85075000D01*
X139572481Y-85075000D01*
X139446902Y-85099979D01*
X139328610Y-85148978D01*
X139222149Y-85220112D01*
X139131612Y-85310649D01*
X139060478Y-85417110D01*
X139011479Y-85535402D01*
X138986500Y-85660981D01*
X138986500Y-85789019D01*
X138995733Y-85835438D01*
X138984370Y-85846801D01*
X138984359Y-85846810D01*
X138659360Y-86171811D01*
X138645052Y-86183553D01*
X138632776Y-86198512D01*
X138598190Y-86240655D01*
X138582445Y-86270112D01*
X138563369Y-86305801D01*
X138542378Y-86375000D01*
X138541926Y-86376489D01*
X138534685Y-86450001D01*
X138240378Y-86450001D01*
X138229565Y-86441127D01*
X138186134Y-86417912D01*
X138139009Y-86403617D01*
X138090000Y-86398790D01*
X137602500Y-86400000D01*
X137540000Y-86462500D01*
X137340000Y-86462500D01*
X137277500Y-86400000D01*
X136790000Y-86398790D01*
X136740991Y-86403617D01*
X136740142Y-86403875D01*
X136741210Y-86150000D01*
X136736383Y-86100991D01*
X136722088Y-86053866D01*
X136698873Y-86010435D01*
X136667632Y-85972368D01*
X136629565Y-85941127D01*
X136586134Y-85917912D01*
X136539009Y-85903617D01*
X136490000Y-85898790D01*
X136052500Y-85900000D01*
X135990000Y-85962500D01*
X135790000Y-85962500D01*
X135727500Y-85900000D01*
X135290000Y-85898790D01*
X135240991Y-85903617D01*
X135193866Y-85917912D01*
X135176000Y-85927462D01*
X135176000Y-83150327D01*
X147538000Y-83150327D01*
X147538000Y-83349673D01*
X147576890Y-83545190D01*
X147653177Y-83729362D01*
X147763928Y-83895113D01*
X147904887Y-84036072D01*
X148070638Y-84146823D01*
X148254810Y-84223110D01*
X148450327Y-84262000D01*
X148649673Y-84262000D01*
X148845190Y-84223110D01*
X149029362Y-84146823D01*
X149195113Y-84036072D01*
X149336072Y-83895113D01*
X149446823Y-83729362D01*
X149523110Y-83545190D01*
X149562000Y-83349673D01*
X149562000Y-83150327D01*
X150086000Y-83150327D01*
X150086000Y-83349673D01*
X150124890Y-83545190D01*
X150201177Y-83729362D01*
X150311928Y-83895113D01*
X150452887Y-84036072D01*
X150618638Y-84146823D01*
X150802810Y-84223110D01*
X150998327Y-84262000D01*
X151197673Y-84262000D01*
X151393190Y-84223110D01*
X151577362Y-84146823D01*
X151743113Y-84036072D01*
X151884072Y-83895113D01*
X151994823Y-83729362D01*
X152071110Y-83545190D01*
X152110000Y-83349673D01*
X152110000Y-83150327D01*
X152634000Y-83150327D01*
X152634000Y-83349673D01*
X152672890Y-83545190D01*
X152749177Y-83729362D01*
X152859928Y-83895113D01*
X153000887Y-84036072D01*
X153166638Y-84146823D01*
X153350810Y-84223110D01*
X153546327Y-84262000D01*
X153745673Y-84262000D01*
X153941190Y-84223110D01*
X154125362Y-84146823D01*
X154291113Y-84036072D01*
X154432072Y-83895113D01*
X154542823Y-83729362D01*
X154619110Y-83545190D01*
X154658000Y-83349673D01*
X154658000Y-83150327D01*
X155182000Y-83150327D01*
X155182000Y-83349673D01*
X155220890Y-83545190D01*
X155297177Y-83729362D01*
X155407928Y-83895113D01*
X155548887Y-84036072D01*
X155714638Y-84146823D01*
X155898810Y-84223110D01*
X156094327Y-84262000D01*
X156293673Y-84262000D01*
X156489190Y-84223110D01*
X156673362Y-84146823D01*
X156839113Y-84036072D01*
X156980072Y-83895113D01*
X157090823Y-83729362D01*
X157167110Y-83545190D01*
X157206000Y-83349673D01*
X157206000Y-83150327D01*
X157730000Y-83150327D01*
X157730000Y-83349673D01*
X157768890Y-83545190D01*
X157845177Y-83729362D01*
X157955928Y-83895113D01*
X158096887Y-84036072D01*
X158262638Y-84146823D01*
X158446810Y-84223110D01*
X158642327Y-84262000D01*
X158841673Y-84262000D01*
X159037190Y-84223110D01*
X159221362Y-84146823D01*
X159387113Y-84036072D01*
X159528072Y-83895113D01*
X159638823Y-83729362D01*
X159715110Y-83545190D01*
X159754000Y-83349673D01*
X159754000Y-83150327D01*
X160278000Y-83150327D01*
X160278000Y-83349673D01*
X160316890Y-83545190D01*
X160393177Y-83729362D01*
X160503928Y-83895113D01*
X160644887Y-84036072D01*
X160810638Y-84146823D01*
X160994810Y-84223110D01*
X161190327Y-84262000D01*
X161389673Y-84262000D01*
X161585190Y-84223110D01*
X161769362Y-84146823D01*
X161935113Y-84036072D01*
X162076072Y-83895113D01*
X162186823Y-83729362D01*
X162263110Y-83545190D01*
X162302000Y-83349673D01*
X162302000Y-83150327D01*
X162263110Y-82954810D01*
X162186823Y-82770638D01*
X162076072Y-82604887D01*
X161935113Y-82463928D01*
X161769362Y-82353177D01*
X161585190Y-82276890D01*
X161389673Y-82238000D01*
X161190327Y-82238000D01*
X160994810Y-82276890D01*
X160810638Y-82353177D01*
X160644887Y-82463928D01*
X160503928Y-82604887D01*
X160393177Y-82770638D01*
X160316890Y-82954810D01*
X160278000Y-83150327D01*
X159754000Y-83150327D01*
X159715110Y-82954810D01*
X159638823Y-82770638D01*
X159528072Y-82604887D01*
X159387113Y-82463928D01*
X159221362Y-82353177D01*
X159037190Y-82276890D01*
X158841673Y-82238000D01*
X158642327Y-82238000D01*
X158446810Y-82276890D01*
X158262638Y-82353177D01*
X158096887Y-82463928D01*
X157955928Y-82604887D01*
X157845177Y-82770638D01*
X157768890Y-82954810D01*
X157730000Y-83150327D01*
X157206000Y-83150327D01*
X157167110Y-82954810D01*
X157090823Y-82770638D01*
X156980072Y-82604887D01*
X156839113Y-82463928D01*
X156673362Y-82353177D01*
X156489190Y-82276890D01*
X156293673Y-82238000D01*
X156094327Y-82238000D01*
X155898810Y-82276890D01*
X155714638Y-82353177D01*
X155548887Y-82463928D01*
X155407928Y-82604887D01*
X155297177Y-82770638D01*
X155220890Y-82954810D01*
X155182000Y-83150327D01*
X154658000Y-83150327D01*
X154619110Y-82954810D01*
X154542823Y-82770638D01*
X154432072Y-82604887D01*
X154291113Y-82463928D01*
X154125362Y-82353177D01*
X153941190Y-82276890D01*
X153745673Y-82238000D01*
X153546327Y-82238000D01*
X153350810Y-82276890D01*
X153166638Y-82353177D01*
X153000887Y-82463928D01*
X152859928Y-82604887D01*
X152749177Y-82770638D01*
X152672890Y-82954810D01*
X152634000Y-83150327D01*
X152110000Y-83150327D01*
X152071110Y-82954810D01*
X151994823Y-82770638D01*
X151884072Y-82604887D01*
X151743113Y-82463928D01*
X151577362Y-82353177D01*
X151393190Y-82276890D01*
X151197673Y-82238000D01*
X150998327Y-82238000D01*
X150802810Y-82276890D01*
X150618638Y-82353177D01*
X150452887Y-82463928D01*
X150311928Y-82604887D01*
X150201177Y-82770638D01*
X150124890Y-82954810D01*
X150086000Y-83150327D01*
X149562000Y-83150327D01*
X149523110Y-82954810D01*
X149446823Y-82770638D01*
X149336072Y-82604887D01*
X149195113Y-82463928D01*
X149029362Y-82353177D01*
X148845190Y-82276890D01*
X148649673Y-82238000D01*
X148450327Y-82238000D01*
X148254810Y-82276890D01*
X148070638Y-82353177D01*
X147904887Y-82463928D01*
X147763928Y-82604887D01*
X147653177Y-82770638D01*
X147576890Y-82954810D01*
X147538000Y-83150327D01*
X135176000Y-83150327D01*
X135176000Y-82090000D01*
X163655000Y-82090000D01*
X163655001Y-95710000D01*
G37*
X163655001Y-95710000D02*
X135176000Y-95710000D01*
X135176000Y-95430500D01*
X135710290Y-95430500D01*
X135715117Y-95479509D01*
X135729412Y-95526634D01*
X135752627Y-95570065D01*
X135783868Y-95608132D01*
X135821935Y-95639373D01*
X135865366Y-95662588D01*
X135912491Y-95676883D01*
X135961500Y-95681710D01*
X136299000Y-95680500D01*
X136361500Y-95618000D01*
X136361500Y-94905500D01*
X136561500Y-94905500D01*
X136561500Y-95618000D01*
X136624000Y-95680500D01*
X136961500Y-95681710D01*
X137010509Y-95676883D01*
X137057634Y-95662588D01*
X137101065Y-95639373D01*
X137139132Y-95608132D01*
X137170373Y-95570065D01*
X137193588Y-95526634D01*
X137207883Y-95479509D01*
X137212710Y-95430500D01*
X137211500Y-94968000D01*
X137149000Y-94905500D01*
X136561500Y-94905500D01*
X136361500Y-94905500D01*
X135774000Y-94905500D01*
X135711500Y-94968000D01*
X135710290Y-95430500D01*
X135176000Y-95430500D01*
X135176000Y-94180500D01*
X135710290Y-94180500D01*
X135711500Y-94643000D01*
X135774000Y-94705500D01*
X136361500Y-94705500D01*
X136361500Y-93993000D01*
X136561500Y-93993000D01*
X136561500Y-94705500D01*
X137149000Y-94705500D01*
X137211500Y-94643000D01*
X137212710Y-94180500D01*
X137207883Y-94131491D01*
X137193588Y-94084366D01*
X137170373Y-94040935D01*
X137139132Y-94002868D01*
X137101065Y-93971627D01*
X137057634Y-93948412D01*
X137010509Y-93934117D01*
X136961500Y-93929290D01*
X136624000Y-93930500D01*
X136561500Y-93993000D01*
X136361500Y-93993000D01*
X136299000Y-93930500D01*
X135961500Y-93929290D01*
X135912491Y-93934117D01*
X135865366Y-93948412D01*
X135821935Y-93971627D01*
X135783868Y-94002868D01*
X135752627Y-94040935D01*
X135729412Y-94084366D01*
X135715117Y-94131491D01*
X135710290Y-94180500D01*
X135176000Y-94180500D01*
X135176000Y-91872538D01*
X135193866Y-91882088D01*
X135240991Y-91896383D01*
X135290000Y-91901210D01*
X135727500Y-91900000D01*
X135790000Y-91837500D01*
X135790000Y-91300000D01*
X135770000Y-91300000D01*
X135770000Y-91100000D01*
X135790000Y-91100000D01*
X135790000Y-90562500D01*
X135990000Y-90562500D01*
X135990000Y-91100000D01*
X136010000Y-91100000D01*
X136010000Y-91300000D01*
X135990000Y-91300000D01*
X135990000Y-91837500D01*
X136052500Y-91900000D01*
X136490000Y-91901210D01*
X136539009Y-91896383D01*
X136586134Y-91882088D01*
X136629565Y-91858873D01*
X136667632Y-91827632D01*
X136698873Y-91789565D01*
X136722088Y-91746134D01*
X136736383Y-91699009D01*
X136741210Y-91650000D01*
X136740142Y-91396124D01*
X136740992Y-91396382D01*
X136790000Y-91401209D01*
X137065000Y-91401209D01*
X137065001Y-92654074D01*
X137063186Y-92672500D01*
X137068536Y-92726814D01*
X137070427Y-92746013D01*
X137088736Y-92806369D01*
X137091870Y-92816700D01*
X137126691Y-92881846D01*
X137127884Y-92883300D01*
X137173553Y-92938948D01*
X137187862Y-92950691D01*
X137955799Y-93718629D01*
X137967542Y-93732938D01*
X137988563Y-93750189D01*
X138024642Y-93779799D01*
X138070855Y-93804500D01*
X138089790Y-93814621D01*
X138160477Y-93836064D01*
X138215571Y-93841490D01*
X138215573Y-93841490D01*
X138233989Y-93843304D01*
X138252405Y-93841490D01*
X140514680Y-93841490D01*
X140276480Y-94079690D01*
X140154869Y-94055500D01*
X140007131Y-94055500D01*
X139862233Y-94084322D01*
X139725742Y-94140859D01*
X139602903Y-94222937D01*
X139498437Y-94327403D01*
X139429550Y-94430500D01*
X139212709Y-94430500D01*
X139212709Y-94180500D01*
X139207882Y-94131492D01*
X139193587Y-94084366D01*
X139170373Y-94040936D01*
X139139132Y-94002868D01*
X139101064Y-93971627D01*
X139057634Y-93948413D01*
X139010508Y-93934118D01*
X138961500Y-93929291D01*
X137961500Y-93929291D01*
X137912492Y-93934118D01*
X137865366Y-93948413D01*
X137821936Y-93971627D01*
X137783868Y-94002868D01*
X137752627Y-94040936D01*
X137729413Y-94084366D01*
X137715118Y-94131492D01*
X137710291Y-94180500D01*
X137710291Y-95430500D01*
X137715118Y-95479508D01*
X137729413Y-95526634D01*
X137752627Y-95570064D01*
X137783868Y-95608132D01*
X137821936Y-95639373D01*
X137865366Y-95662587D01*
X137912492Y-95676882D01*
X137961500Y-95681709D01*
X138961500Y-95681709D01*
X139010508Y-95676882D01*
X139057634Y-95662587D01*
X139101064Y-95639373D01*
X139139132Y-95608132D01*
X139170373Y-95570064D01*
X139193587Y-95526634D01*
X139207882Y-95479508D01*
X139212709Y-95430500D01*
X139212709Y-95180500D01*
X139429550Y-95180500D01*
X139498437Y-95283597D01*
X139602903Y-95388063D01*
X139725742Y-95470141D01*
X139862233Y-95526678D01*
X140007131Y-95555500D01*
X140154869Y-95555500D01*
X140299767Y-95526678D01*
X140436258Y-95470141D01*
X140559097Y-95388063D01*
X140663563Y-95283597D01*
X140745641Y-95160758D01*
X140802178Y-95024267D01*
X140831000Y-94879369D01*
X140831000Y-94731631D01*
X140806810Y-94610020D01*
X141125330Y-94291500D01*
X141434340Y-94291500D01*
X141398437Y-94327403D01*
X141316359Y-94450242D01*
X141259822Y-94586733D01*
X141231000Y-94731631D01*
X141231000Y-94879369D01*
X141259822Y-95024267D01*
X141316359Y-95160758D01*
X141398437Y-95283597D01*
X141502903Y-95388063D01*
X141625742Y-95470141D01*
X141762233Y-95526678D01*
X141907131Y-95555500D01*
X142054869Y-95555500D01*
X142199767Y-95526678D01*
X142336258Y-95470141D01*
X142459097Y-95388063D01*
X142563563Y-95283597D01*
X142632450Y-95180500D01*
X142790791Y-95180500D01*
X142790791Y-95430500D01*
X142795618Y-95479508D01*
X142809913Y-95526634D01*
X142833127Y-95570064D01*
X142864368Y-95608132D01*
X142902436Y-95639373D01*
X142945866Y-95662587D01*
X142992992Y-95676882D01*
X143042000Y-95681709D01*
X144042000Y-95681709D01*
X144091008Y-95676882D01*
X144138134Y-95662587D01*
X144181564Y-95639373D01*
X144219632Y-95608132D01*
X144250873Y-95570064D01*
X144274087Y-95526634D01*
X144288382Y-95479508D01*
X144293209Y-95430500D01*
X144790790Y-95430500D01*
X144795617Y-95479509D01*
X144809912Y-95526634D01*
X144833127Y-95570065D01*
X144864368Y-95608132D01*
X144902435Y-95639373D01*
X144945866Y-95662588D01*
X144992991Y-95676883D01*
X145042000Y-95681710D01*
X145379500Y-95680500D01*
X145442000Y-95618000D01*
X145442000Y-94905500D01*
X145642000Y-94905500D01*
X145642000Y-95618000D01*
X145704500Y-95680500D01*
X146042000Y-95681710D01*
X146091009Y-95676883D01*
X146138134Y-95662588D01*
X146181565Y-95639373D01*
X146219632Y-95608132D01*
X146250873Y-95570065D01*
X146274088Y-95526634D01*
X146288383Y-95479509D01*
X146293210Y-95430500D01*
X146292000Y-94968000D01*
X146229500Y-94905500D01*
X145642000Y-94905500D01*
X145442000Y-94905500D01*
X144854500Y-94905500D01*
X144792000Y-94968000D01*
X144790790Y-95430500D01*
X144293209Y-95430500D01*
X144293209Y-94180500D01*
X144790790Y-94180500D01*
X144792000Y-94643000D01*
X144854500Y-94705500D01*
X145442000Y-94705500D01*
X145442000Y-93993000D01*
X145642000Y-93993000D01*
X145642000Y-94705500D01*
X146229500Y-94705500D01*
X146292000Y-94643000D01*
X146292504Y-94450327D01*
X147578000Y-94450327D01*
X147578000Y-94649673D01*
X147616890Y-94845190D01*
X147693177Y-95029362D01*
X147803928Y-95195113D01*
X147944887Y-95336072D01*
X148110638Y-95446823D01*
X148294810Y-95523110D01*
X148490327Y-95562000D01*
X148689673Y-95562000D01*
X148885190Y-95523110D01*
X149069362Y-95446823D01*
X149235113Y-95336072D01*
X149376072Y-95195113D01*
X149486823Y-95029362D01*
X149563110Y-94845190D01*
X149602000Y-94649673D01*
X149602000Y-94450327D01*
X150118000Y-94450327D01*
X150118000Y-94649673D01*
X150156890Y-94845190D01*
X150233177Y-95029362D01*
X150343928Y-95195113D01*
X150484887Y-95336072D01*
X150650638Y-95446823D01*
X150834810Y-95523110D01*
X151030327Y-95562000D01*
X151229673Y-95562000D01*
X151425190Y-95523110D01*
X151609362Y-95446823D01*
X151775113Y-95336072D01*
X151916072Y-95195113D01*
X152026823Y-95029362D01*
X152103110Y-94845190D01*
X152142000Y-94649673D01*
X152142000Y-94450327D01*
X152658000Y-94450327D01*
X152658000Y-94649673D01*
X152696890Y-94845190D01*
X152773177Y-95029362D01*
X152883928Y-95195113D01*
X153024887Y-95336072D01*
X153190638Y-95446823D01*
X153374810Y-95523110D01*
X153570327Y-95562000D01*
X153769673Y-95562000D01*
X153965190Y-95523110D01*
X154149362Y-95446823D01*
X154315113Y-95336072D01*
X154456072Y-95195113D01*
X154566823Y-95029362D01*
X154643110Y-94845190D01*
X154682000Y-94649673D01*
X154682000Y-94450327D01*
X155198000Y-94450327D01*
X155198000Y-94649673D01*
X155236890Y-94845190D01*
X155313177Y-95029362D01*
X155423928Y-95195113D01*
X155564887Y-95336072D01*
X155730638Y-95446823D01*
X155914810Y-95523110D01*
X156110327Y-95562000D01*
X156309673Y-95562000D01*
X156505190Y-95523110D01*
X156689362Y-95446823D01*
X156855113Y-95336072D01*
X156996072Y-95195113D01*
X157106823Y-95029362D01*
X157183110Y-94845190D01*
X157222000Y-94649673D01*
X157222000Y-94450327D01*
X157738000Y-94450327D01*
X157738000Y-94649673D01*
X157776890Y-94845190D01*
X157853177Y-95029362D01*
X157963928Y-95195113D01*
X158104887Y-95336072D01*
X158270638Y-95446823D01*
X158454810Y-95523110D01*
X158650327Y-95562000D01*
X158849673Y-95562000D01*
X159045190Y-95523110D01*
X159229362Y-95446823D01*
X159395113Y-95336072D01*
X159536072Y-95195113D01*
X159646823Y-95029362D01*
X159723110Y-94845190D01*
X159762000Y-94649673D01*
X159762000Y-94450327D01*
X160278000Y-94450327D01*
X160278000Y-94649673D01*
X160316890Y-94845190D01*
X160393177Y-95029362D01*
X160503928Y-95195113D01*
X160644887Y-95336072D01*
X160810638Y-95446823D01*
X160994810Y-95523110D01*
X161190327Y-95562000D01*
X161389673Y-95562000D01*
X161585190Y-95523110D01*
X161769362Y-95446823D01*
X161935113Y-95336072D01*
X162076072Y-95195113D01*
X162186823Y-95029362D01*
X162263110Y-94845190D01*
X162302000Y-94649673D01*
X162302000Y-94450327D01*
X162263110Y-94254810D01*
X162186823Y-94070638D01*
X162076072Y-93904887D01*
X161935113Y-93763928D01*
X161769362Y-93653177D01*
X161585190Y-93576890D01*
X161389673Y-93538000D01*
X161190327Y-93538000D01*
X160994810Y-93576890D01*
X160810638Y-93653177D01*
X160644887Y-93763928D01*
X160503928Y-93904887D01*
X160393177Y-94070638D01*
X160316890Y-94254810D01*
X160278000Y-94450327D01*
X159762000Y-94450327D01*
X159723110Y-94254810D01*
X159646823Y-94070638D01*
X159536072Y-93904887D01*
X159395113Y-93763928D01*
X159229362Y-93653177D01*
X159045190Y-93576890D01*
X158849673Y-93538000D01*
X158650327Y-93538000D01*
X158454810Y-93576890D01*
X158270638Y-93653177D01*
X158104887Y-93763928D01*
X157963928Y-93904887D01*
X157853177Y-94070638D01*
X157776890Y-94254810D01*
X157738000Y-94450327D01*
X157222000Y-94450327D01*
X157183110Y-94254810D01*
X157106823Y-94070638D01*
X156996072Y-93904887D01*
X156855113Y-93763928D01*
X156689362Y-93653177D01*
X156505190Y-93576890D01*
X156309673Y-93538000D01*
X156110327Y-93538000D01*
X155914810Y-93576890D01*
X155730638Y-93653177D01*
X155564887Y-93763928D01*
X155423928Y-93904887D01*
X155313177Y-94070638D01*
X155236890Y-94254810D01*
X155198000Y-94450327D01*
X154682000Y-94450327D01*
X154643110Y-94254810D01*
X154566823Y-94070638D01*
X154456072Y-93904887D01*
X154315113Y-93763928D01*
X154149362Y-93653177D01*
X153965190Y-93576890D01*
X153769673Y-93538000D01*
X153570327Y-93538000D01*
X153374810Y-93576890D01*
X153190638Y-93653177D01*
X153024887Y-93763928D01*
X152883928Y-93904887D01*
X152773177Y-94070638D01*
X152696890Y-94254810D01*
X152658000Y-94450327D01*
X152142000Y-94450327D01*
X152103110Y-94254810D01*
X152026823Y-94070638D01*
X151916072Y-93904887D01*
X151775113Y-93763928D01*
X151609362Y-93653177D01*
X151425190Y-93576890D01*
X151229673Y-93538000D01*
X151030327Y-93538000D01*
X150834810Y-93576890D01*
X150650638Y-93653177D01*
X150484887Y-93763928D01*
X150343928Y-93904887D01*
X150233177Y-94070638D01*
X150156890Y-94254810D01*
X150118000Y-94450327D01*
X149602000Y-94450327D01*
X149563110Y-94254810D01*
X149486823Y-94070638D01*
X149376072Y-93904887D01*
X149235113Y-93763928D01*
X149069362Y-93653177D01*
X148885190Y-93576890D01*
X148689673Y-93538000D01*
X148490327Y-93538000D01*
X148294810Y-93576890D01*
X148110638Y-93653177D01*
X147944887Y-93763928D01*
X147803928Y-93904887D01*
X147693177Y-94070638D01*
X147616890Y-94254810D01*
X147578000Y-94450327D01*
X146292504Y-94450327D01*
X146293210Y-94180500D01*
X146288383Y-94131491D01*
X146274088Y-94084366D01*
X146250873Y-94040935D01*
X146219632Y-94002868D01*
X146181565Y-93971627D01*
X146138134Y-93948412D01*
X146091009Y-93934117D01*
X146042000Y-93929290D01*
X145704500Y-93930500D01*
X145642000Y-93993000D01*
X145442000Y-93993000D01*
X145379500Y-93930500D01*
X145042000Y-93929290D01*
X144992991Y-93934117D01*
X144945866Y-93948412D01*
X144902435Y-93971627D01*
X144864368Y-94002868D01*
X144833127Y-94040935D01*
X144809912Y-94084366D01*
X144795617Y-94131491D01*
X144790790Y-94180500D01*
X144293209Y-94180500D01*
X144288382Y-94131492D01*
X144274087Y-94084366D01*
X144250873Y-94040936D01*
X144219632Y-94002868D01*
X144181564Y-93971627D01*
X144138134Y-93948413D01*
X144091008Y-93934118D01*
X144070711Y-93932119D01*
X144163977Y-93838853D01*
X144166794Y-93837999D01*
X147629495Y-93837999D01*
X147647911Y-93839813D01*
X147666327Y-93837999D01*
X147666330Y-93837999D01*
X147721424Y-93832573D01*
X147792111Y-93811130D01*
X147857258Y-93776308D01*
X147914359Y-93729447D01*
X147926106Y-93715133D01*
X148238740Y-93402500D01*
X148529084Y-93402500D01*
X148547500Y-93404314D01*
X148565916Y-93402500D01*
X148565919Y-93402500D01*
X148621013Y-93397074D01*
X148691700Y-93375631D01*
X148756847Y-93340809D01*
X148813948Y-93293948D01*
X148825695Y-93279634D01*
X149477140Y-92628190D01*
X149491448Y-92616448D01*
X149522609Y-92578478D01*
X149529395Y-92570210D01*
X149597900Y-92533593D01*
X149658698Y-92483698D01*
X149708593Y-92422900D01*
X149745669Y-92353536D01*
X149768500Y-92278272D01*
X149776209Y-92200000D01*
X149776209Y-90550000D01*
X149768500Y-90471728D01*
X149745669Y-90396464D01*
X149708593Y-90327100D01*
X149658698Y-90266302D01*
X149597900Y-90216407D01*
X149528536Y-90179331D01*
X149453272Y-90156500D01*
X149375000Y-90148791D01*
X149075000Y-90148791D01*
X148996728Y-90156500D01*
X148921464Y-90179331D01*
X148852100Y-90216407D01*
X148791302Y-90266302D01*
X148741407Y-90327100D01*
X148704331Y-90396464D01*
X148681500Y-90471728D01*
X148673791Y-90550000D01*
X148673791Y-92200000D01*
X148681500Y-92278272D01*
X148701260Y-92343411D01*
X148392171Y-92652500D01*
X148306529Y-92652500D01*
X148324574Y-92593013D01*
X148330000Y-92537919D01*
X148330000Y-92537917D01*
X148330648Y-92531338D01*
X148388698Y-92483698D01*
X148438593Y-92422900D01*
X148475669Y-92353536D01*
X148498500Y-92278272D01*
X148506209Y-92200000D01*
X148506209Y-90550000D01*
X148498500Y-90471728D01*
X148475669Y-90396464D01*
X148438593Y-90327100D01*
X148388698Y-90266302D01*
X148327900Y-90216407D01*
X148258536Y-90179331D01*
X148183272Y-90156500D01*
X148105000Y-90148791D01*
X147805000Y-90148791D01*
X147726728Y-90156500D01*
X147651464Y-90179331D01*
X147582100Y-90216407D01*
X147521302Y-90266302D01*
X147471407Y-90327100D01*
X147434331Y-90396464D01*
X147411500Y-90471728D01*
X147403791Y-90550000D01*
X147403791Y-92200000D01*
X147411500Y-92278272D01*
X147434331Y-92353536D01*
X147471407Y-92422900D01*
X147493883Y-92450287D01*
X147306181Y-92637990D01*
X147040930Y-92637990D01*
X147054574Y-92593013D01*
X147060000Y-92537919D01*
X147060000Y-92537917D01*
X147060648Y-92531338D01*
X147118698Y-92483698D01*
X147168593Y-92422900D01*
X147205669Y-92353536D01*
X147228500Y-92278272D01*
X147236209Y-92200000D01*
X147236209Y-90550000D01*
X147228500Y-90471728D01*
X147205669Y-90396464D01*
X147168593Y-90327100D01*
X147118698Y-90266302D01*
X147078670Y-90233452D01*
X147128598Y-90223521D01*
X147246890Y-90174522D01*
X147353351Y-90103388D01*
X147443888Y-90012851D01*
X147515022Y-89906390D01*
X147564021Y-89788098D01*
X147589000Y-89662519D01*
X147589000Y-89534481D01*
X147564021Y-89408902D01*
X147515022Y-89290610D01*
X147443888Y-89184149D01*
X147353351Y-89093612D01*
X147246890Y-89022478D01*
X147128598Y-88973479D01*
X147003019Y-88948500D01*
X146874981Y-88948500D01*
X146749402Y-88973479D01*
X146631110Y-89022478D01*
X146524649Y-89093612D01*
X146434112Y-89184149D01*
X146362978Y-89290610D01*
X146313979Y-89408902D01*
X146289000Y-89534481D01*
X146289000Y-89593902D01*
X145767478Y-90115425D01*
X145753169Y-90127168D01*
X145741427Y-90141476D01*
X145706307Y-90184270D01*
X145689130Y-90216407D01*
X145671486Y-90249416D01*
X145653811Y-90307684D01*
X145650043Y-90320104D01*
X145642802Y-90393616D01*
X145644617Y-90412042D01*
X145644616Y-90988177D01*
X145606019Y-90980500D01*
X145477981Y-90980500D01*
X145352402Y-91005479D01*
X145234110Y-91054478D01*
X145127649Y-91125612D01*
X145037112Y-91216149D01*
X144965978Y-91322610D01*
X144916979Y-91440902D01*
X144892000Y-91566481D01*
X144892000Y-91694519D01*
X144916979Y-91820098D01*
X144965978Y-91938390D01*
X145037112Y-92044851D01*
X145127649Y-92135388D01*
X145206360Y-92187980D01*
X143356525Y-92187980D01*
X143338109Y-92186166D01*
X143319693Y-92187980D01*
X143319691Y-92187980D01*
X143264597Y-92193406D01*
X143193910Y-92214849D01*
X143128763Y-92249671D01*
X143071662Y-92296532D01*
X143059920Y-92310840D01*
X142279271Y-93091490D01*
X138389320Y-93091490D01*
X137815000Y-92517171D01*
X137815000Y-91401209D01*
X138090000Y-91401209D01*
X138139008Y-91396382D01*
X138186134Y-91382087D01*
X138229564Y-91358873D01*
X138267632Y-91327632D01*
X138298873Y-91289564D01*
X138322087Y-91246134D01*
X138336382Y-91199008D01*
X138341209Y-91150000D01*
X138341209Y-90000000D01*
X138336382Y-89950992D01*
X138322087Y-89903866D01*
X138298873Y-89860436D01*
X138267632Y-89822368D01*
X138229564Y-89791127D01*
X138186134Y-89767913D01*
X138139008Y-89753618D01*
X138090000Y-89748791D01*
X136790000Y-89748791D01*
X136740992Y-89753618D01*
X136693866Y-89767913D01*
X136650436Y-89791127D01*
X136612368Y-89822368D01*
X136581127Y-89860436D01*
X136557913Y-89903866D01*
X136543618Y-89950992D01*
X136538791Y-90000000D01*
X136538791Y-90503596D01*
X136490000Y-90498790D01*
X136052500Y-90500000D01*
X135990000Y-90562500D01*
X135790000Y-90562500D01*
X135727500Y-90500000D01*
X135290000Y-90498790D01*
X135240991Y-90503617D01*
X135193866Y-90517912D01*
X135176000Y-90527462D01*
X135176000Y-89695830D01*
X135340000Y-89695830D01*
X135340000Y-89804170D01*
X135361136Y-89910429D01*
X135402597Y-90010523D01*
X135462787Y-90100604D01*
X135539396Y-90177213D01*
X135629477Y-90237403D01*
X135729571Y-90278864D01*
X135835830Y-90300000D01*
X135944170Y-90300000D01*
X136050429Y-90278864D01*
X136150523Y-90237403D01*
X136240604Y-90177213D01*
X136317213Y-90100604D01*
X136377403Y-90010523D01*
X136418864Y-89910429D01*
X136440000Y-89804170D01*
X136440000Y-89695830D01*
X136418864Y-89589571D01*
X136377403Y-89489477D01*
X136317213Y-89399396D01*
X136240604Y-89322787D01*
X136150523Y-89262597D01*
X136050429Y-89221136D01*
X135944170Y-89200000D01*
X135835830Y-89200000D01*
X135729571Y-89221136D01*
X135629477Y-89262597D01*
X135539396Y-89322787D01*
X135462787Y-89399396D01*
X135402597Y-89489477D01*
X135361136Y-89589571D01*
X135340000Y-89695830D01*
X135176000Y-89695830D01*
X135176000Y-87995830D01*
X135340000Y-87995830D01*
X135340000Y-88104170D01*
X135361136Y-88210429D01*
X135402597Y-88310523D01*
X135462787Y-88400604D01*
X135539396Y-88477213D01*
X135629477Y-88537403D01*
X135729571Y-88578864D01*
X135835830Y-88600000D01*
X135944170Y-88600000D01*
X136050429Y-88578864D01*
X136150523Y-88537403D01*
X136240604Y-88477213D01*
X136317213Y-88400604D01*
X136377403Y-88310523D01*
X136418864Y-88210429D01*
X136440000Y-88104170D01*
X136440000Y-87995830D01*
X136418864Y-87889571D01*
X136377403Y-87789477D01*
X136317213Y-87699396D01*
X136240604Y-87622787D01*
X136150523Y-87562597D01*
X136050429Y-87521136D01*
X135944170Y-87500000D01*
X135835830Y-87500000D01*
X135729571Y-87521136D01*
X135629477Y-87562597D01*
X135539396Y-87622787D01*
X135462787Y-87699396D01*
X135402597Y-87789477D01*
X135361136Y-87889571D01*
X135340000Y-87995830D01*
X135176000Y-87995830D01*
X135176000Y-87272538D01*
X135193866Y-87282088D01*
X135240991Y-87296383D01*
X135290000Y-87301210D01*
X135727500Y-87300000D01*
X135790000Y-87237500D01*
X135790000Y-86700000D01*
X135770000Y-86700000D01*
X135770000Y-86500000D01*
X135790000Y-86500000D01*
X135790000Y-85962500D01*
X135990000Y-85962500D01*
X135990000Y-86500000D01*
X136010000Y-86500000D01*
X136010000Y-86700000D01*
X135990000Y-86700000D01*
X135990000Y-87237500D01*
X136052500Y-87300000D01*
X136490000Y-87301210D01*
X136539009Y-87296383D01*
X136540000Y-87296082D01*
X136540000Y-87325002D01*
X136602498Y-87325002D01*
X136540000Y-87387500D01*
X136538790Y-87800000D01*
X136543617Y-87849009D01*
X136557912Y-87896134D01*
X136581127Y-87939565D01*
X136612368Y-87977632D01*
X136650435Y-88008873D01*
X136693866Y-88032088D01*
X136740991Y-88046383D01*
X136790000Y-88051210D01*
X137277500Y-88050000D01*
X137340000Y-87987500D01*
X137340000Y-87325000D01*
X137540000Y-87325000D01*
X137540000Y-87987500D01*
X137602500Y-88050000D01*
X138090000Y-88051210D01*
X138139009Y-88046383D01*
X138186134Y-88032088D01*
X138229565Y-88008873D01*
X138267632Y-87977632D01*
X138298873Y-87939565D01*
X138322088Y-87896134D01*
X138336383Y-87849009D01*
X138341210Y-87800000D01*
X138340000Y-87387500D01*
X138277500Y-87325000D01*
X137540000Y-87325000D01*
X137340000Y-87325000D01*
X137320000Y-87325000D01*
X137320000Y-87125000D01*
X137340000Y-87125000D01*
X137340000Y-86462500D01*
X137540000Y-86462500D01*
X137540000Y-87125000D01*
X138277500Y-87125000D01*
X138340000Y-87062500D01*
X138341210Y-86650000D01*
X138336383Y-86600991D01*
X138322088Y-86553866D01*
X138298873Y-86510435D01*
X138267632Y-86472368D01*
X138240378Y-86450001D01*
X138534685Y-86450001D01*
X138536500Y-86468427D01*
X138536500Y-88862500D01*
X138536499Y-91198765D01*
X138536499Y-91452768D01*
X138534685Y-91471184D01*
X138536499Y-91489600D01*
X138536499Y-91489602D01*
X138541925Y-91544696D01*
X138563368Y-91615383D01*
X138598190Y-91680530D01*
X138645051Y-91737632D01*
X138659365Y-91749379D01*
X139554624Y-92644639D01*
X139566367Y-92658948D01*
X139590707Y-92678923D01*
X139623468Y-92705810D01*
X139662765Y-92726814D01*
X139688615Y-92740631D01*
X139759302Y-92762074D01*
X139814396Y-92767500D01*
X139814399Y-92767500D01*
X139832815Y-92769314D01*
X139851231Y-92767500D01*
X139867319Y-92767500D01*
X139893612Y-92806851D01*
X139984149Y-92897388D01*
X140090610Y-92968522D01*
X140208902Y-93017521D01*
X140334481Y-93042500D01*
X140462519Y-93042500D01*
X140588098Y-93017521D01*
X140706390Y-92968522D01*
X140812851Y-92897388D01*
X140903388Y-92806851D01*
X140929681Y-92767500D01*
X141586584Y-92767500D01*
X141605000Y-92769314D01*
X141623416Y-92767500D01*
X141623419Y-92767500D01*
X141678513Y-92762074D01*
X141749200Y-92740631D01*
X141814347Y-92705809D01*
X141871448Y-92658948D01*
X141883195Y-92644634D01*
X142640197Y-91887633D01*
X142640201Y-91887628D01*
X143724689Y-90803141D01*
X143724693Y-90803136D01*
X143860620Y-90667209D01*
X145087500Y-90667209D01*
X145136508Y-90662382D01*
X145183634Y-90648087D01*
X145227064Y-90624873D01*
X145265132Y-90593632D01*
X145296373Y-90555564D01*
X145319587Y-90512134D01*
X145333882Y-90465008D01*
X145338709Y-90416000D01*
X145338709Y-90055720D01*
X145370347Y-90038809D01*
X145427448Y-89991948D01*
X145439195Y-89977634D01*
X146649830Y-88767000D01*
X148331671Y-88767000D01*
X149971260Y-90406589D01*
X149951500Y-90471728D01*
X149943791Y-90550000D01*
X149943791Y-92200000D01*
X149951500Y-92278272D01*
X149974331Y-92353536D01*
X150011407Y-92422900D01*
X150061302Y-92483698D01*
X150122100Y-92533593D01*
X150191464Y-92570669D01*
X150266728Y-92593500D01*
X150345000Y-92601209D01*
X150645000Y-92601209D01*
X150723272Y-92593500D01*
X150798536Y-92570669D01*
X150867900Y-92533593D01*
X150928698Y-92483698D01*
X150978593Y-92422900D01*
X151015669Y-92353536D01*
X151038500Y-92278272D01*
X151046209Y-92200000D01*
X151046209Y-90550000D01*
X151038500Y-90471728D01*
X151018740Y-90406589D01*
X152658330Y-88767000D01*
X153910477Y-88767000D01*
X153829368Y-88848109D01*
X153803075Y-88887460D01*
X152920955Y-88887460D01*
X152902539Y-88885646D01*
X152884123Y-88887460D01*
X152884121Y-88887460D01*
X152829027Y-88892886D01*
X152758340Y-88914329D01*
X152758338Y-88914330D01*
X152693192Y-88949151D01*
X152666306Y-88971217D01*
X152636092Y-88996012D01*
X152624349Y-89010321D01*
X151512866Y-90121805D01*
X151498552Y-90133552D01*
X151460608Y-90179789D01*
X151392100Y-90216407D01*
X151331302Y-90266302D01*
X151281407Y-90327100D01*
X151244331Y-90396464D01*
X151221500Y-90471728D01*
X151213791Y-90550000D01*
X151213791Y-92200000D01*
X151221500Y-92278272D01*
X151244331Y-92353536D01*
X151281407Y-92422900D01*
X151331302Y-92483698D01*
X151392100Y-92533593D01*
X151461464Y-92570669D01*
X151536728Y-92593500D01*
X151615000Y-92601209D01*
X151915000Y-92601209D01*
X151993272Y-92593500D01*
X152068536Y-92570669D01*
X152137900Y-92533593D01*
X152198698Y-92483698D01*
X152248593Y-92422900D01*
X152285669Y-92353536D01*
X152308500Y-92278272D01*
X152316209Y-92200000D01*
X152316209Y-90550000D01*
X152308500Y-90471728D01*
X152288740Y-90406589D01*
X153057870Y-89637460D01*
X153803075Y-89637460D01*
X153829368Y-89676811D01*
X153919905Y-89767348D01*
X154026366Y-89838482D01*
X154144658Y-89887481D01*
X154263542Y-89911128D01*
X154052866Y-90121805D01*
X154038552Y-90133552D01*
X154000608Y-90179789D01*
X153932100Y-90216407D01*
X153871302Y-90266302D01*
X153821407Y-90327100D01*
X153784331Y-90396464D01*
X153761500Y-90471728D01*
X153753791Y-90550000D01*
X153753791Y-92200000D01*
X153761500Y-92278272D01*
X153784331Y-92353536D01*
X153821407Y-92422900D01*
X153871302Y-92483698D01*
X153932100Y-92533593D01*
X154001464Y-92570669D01*
X154076728Y-92593500D01*
X154155000Y-92601209D01*
X154455000Y-92601209D01*
X154533272Y-92593500D01*
X154608536Y-92570669D01*
X154677900Y-92533593D01*
X154738698Y-92483698D01*
X154788593Y-92422900D01*
X154825669Y-92353536D01*
X154848500Y-92278272D01*
X154856209Y-92200000D01*
X154856209Y-90550000D01*
X154848500Y-90471728D01*
X154828740Y-90406589D01*
X154944330Y-90291000D01*
X155121033Y-90291000D01*
X155091407Y-90327100D01*
X155054331Y-90396464D01*
X155031500Y-90471728D01*
X155023791Y-90550000D01*
X155023791Y-92200000D01*
X155031500Y-92278272D01*
X155054331Y-92353536D01*
X155091407Y-92422900D01*
X155141302Y-92483698D01*
X155171884Y-92508796D01*
X155067902Y-92529479D01*
X154949610Y-92578478D01*
X154843149Y-92649612D01*
X154752612Y-92740149D01*
X154726319Y-92779500D01*
X153994830Y-92779500D01*
X153558740Y-92343411D01*
X153578500Y-92278272D01*
X153586209Y-92200000D01*
X153586209Y-90550000D01*
X153578500Y-90471728D01*
X153555669Y-90396464D01*
X153518593Y-90327100D01*
X153468698Y-90266302D01*
X153407900Y-90216407D01*
X153338536Y-90179331D01*
X153263272Y-90156500D01*
X153185000Y-90148791D01*
X152885000Y-90148791D01*
X152806728Y-90156500D01*
X152731464Y-90179331D01*
X152662100Y-90216407D01*
X152601302Y-90266302D01*
X152551407Y-90327100D01*
X152514331Y-90396464D01*
X152491500Y-90471728D01*
X152483791Y-90550000D01*
X152483791Y-92200000D01*
X152491500Y-92278272D01*
X152514331Y-92353536D01*
X152551407Y-92422900D01*
X152601302Y-92483698D01*
X152662100Y-92533593D01*
X152730608Y-92570211D01*
X152768552Y-92616448D01*
X152782866Y-92628195D01*
X153561309Y-93406639D01*
X153573052Y-93420948D01*
X153630153Y-93467809D01*
X153695300Y-93502631D01*
X153765987Y-93524074D01*
X153821081Y-93529500D01*
X153821084Y-93529500D01*
X153839500Y-93531314D01*
X153857916Y-93529500D01*
X154726319Y-93529500D01*
X154752612Y-93568851D01*
X154843149Y-93659388D01*
X154949610Y-93730522D01*
X155067902Y-93779521D01*
X155193481Y-93804500D01*
X155321519Y-93804500D01*
X155447098Y-93779521D01*
X155565390Y-93730522D01*
X155671851Y-93659388D01*
X155762388Y-93568851D01*
X155833522Y-93462390D01*
X155882521Y-93344098D01*
X155907500Y-93218519D01*
X155907500Y-93150000D01*
X159378790Y-93150000D01*
X159383617Y-93199009D01*
X159397912Y-93246134D01*
X159421127Y-93289565D01*
X159452368Y-93327632D01*
X159490435Y-93358873D01*
X159533866Y-93382088D01*
X159580991Y-93396383D01*
X159630000Y-93401210D01*
X159967500Y-93400000D01*
X160030000Y-93337500D01*
X160030000Y-92400000D01*
X160230000Y-92400000D01*
X160230000Y-93337500D01*
X160292500Y-93400000D01*
X160630000Y-93401210D01*
X160679009Y-93396383D01*
X160726134Y-93382088D01*
X160769565Y-93358873D01*
X160807632Y-93327632D01*
X160838873Y-93289565D01*
X160862088Y-93246134D01*
X160876383Y-93199009D01*
X160881210Y-93150000D01*
X160880056Y-92494001D01*
X161752421Y-92494001D01*
X161843533Y-92633514D01*
X162031084Y-92720717D01*
X162232043Y-92769655D01*
X162438688Y-92778447D01*
X162643077Y-92746756D01*
X162837357Y-92675800D01*
X162916467Y-92633514D01*
X163007579Y-92494001D01*
X162380000Y-91866421D01*
X161752421Y-92494001D01*
X160880056Y-92494001D01*
X160880000Y-92462500D01*
X160817500Y-92400000D01*
X160230000Y-92400000D01*
X160030000Y-92400000D01*
X159442500Y-92400000D01*
X159380000Y-92462500D01*
X159378790Y-93150000D01*
X155907500Y-93150000D01*
X155907500Y-93090481D01*
X155882521Y-92964902D01*
X155833522Y-92846610D01*
X155762388Y-92740149D01*
X155671851Y-92649612D01*
X155599410Y-92601209D01*
X155725000Y-92601209D01*
X155803272Y-92593500D01*
X155878536Y-92570669D01*
X155947900Y-92533593D01*
X156008698Y-92483698D01*
X156058593Y-92422900D01*
X156095669Y-92353536D01*
X156118500Y-92278272D01*
X156126209Y-92200000D01*
X156126209Y-91386448D01*
X156176649Y-91436888D01*
X156283110Y-91508022D01*
X156401402Y-91557021D01*
X156526981Y-91582000D01*
X156655019Y-91582000D01*
X156780598Y-91557021D01*
X156898890Y-91508022D01*
X157005351Y-91436888D01*
X157095888Y-91346351D01*
X157099000Y-91341693D01*
X157102112Y-91346351D01*
X157192649Y-91436888D01*
X157299110Y-91508022D01*
X157417402Y-91557021D01*
X157542981Y-91582000D01*
X157671019Y-91582000D01*
X157796598Y-91557021D01*
X157914890Y-91508022D01*
X158001727Y-91450000D01*
X159378790Y-91450000D01*
X159380000Y-92137500D01*
X159442500Y-92200000D01*
X160030000Y-92200000D01*
X160030000Y-92180000D01*
X160230000Y-92180000D01*
X160230000Y-92200000D01*
X160817500Y-92200000D01*
X160880000Y-92137500D01*
X160881210Y-91450000D01*
X160876383Y-91400991D01*
X160862088Y-91353866D01*
X160838873Y-91310435D01*
X160807632Y-91272368D01*
X160769565Y-91241127D01*
X160726134Y-91217912D01*
X160686991Y-91206038D01*
X160717403Y-91160523D01*
X160758864Y-91060429D01*
X160780000Y-90954170D01*
X160780000Y-90950000D01*
X161178790Y-90950000D01*
X161183617Y-90999009D01*
X161197912Y-91046134D01*
X161221127Y-91089565D01*
X161252368Y-91127632D01*
X161290435Y-91158873D01*
X161333866Y-91182088D01*
X161380991Y-91196383D01*
X161430000Y-91201210D01*
X161465617Y-91201155D01*
X161384283Y-91376084D01*
X161335345Y-91577043D01*
X161326553Y-91783688D01*
X161358244Y-91988077D01*
X161429200Y-92182357D01*
X161471486Y-92261467D01*
X161610999Y-92352579D01*
X162238579Y-91725000D01*
X162224436Y-91710858D01*
X162365858Y-91569436D01*
X162380000Y-91583579D01*
X162394142Y-91569436D01*
X162535564Y-91710858D01*
X162521421Y-91725000D01*
X163149001Y-92352579D01*
X163288514Y-92261467D01*
X163375717Y-92073916D01*
X163424655Y-91872957D01*
X163433447Y-91666312D01*
X163401756Y-91461923D01*
X163330800Y-91267643D01*
X163295262Y-91201157D01*
X163330000Y-91201210D01*
X163379009Y-91196383D01*
X163426134Y-91182088D01*
X163469565Y-91158873D01*
X163507632Y-91127632D01*
X163538873Y-91089565D01*
X163562088Y-91046134D01*
X163576383Y-90999009D01*
X163581210Y-90950000D01*
X163580000Y-90162500D01*
X163517500Y-90100000D01*
X162480000Y-90100000D01*
X162480000Y-90120000D01*
X162280000Y-90120000D01*
X162280000Y-90100000D01*
X161242500Y-90100000D01*
X161180000Y-90162500D01*
X161178790Y-90950000D01*
X160780000Y-90950000D01*
X160780000Y-90845830D01*
X160758864Y-90739571D01*
X160717403Y-90639477D01*
X160657213Y-90549396D01*
X160607512Y-90499695D01*
X160612088Y-90491134D01*
X160626383Y-90444009D01*
X160631210Y-90395000D01*
X160630000Y-90362500D01*
X160567500Y-90300000D01*
X159430000Y-90300000D01*
X159430000Y-90582500D01*
X159492500Y-90645000D01*
X159740169Y-90645338D01*
X159701136Y-90739571D01*
X159680000Y-90845830D01*
X159680000Y-90954170D01*
X159701136Y-91060429D01*
X159742597Y-91160523D01*
X159768498Y-91199287D01*
X159630000Y-91198790D01*
X159580991Y-91203617D01*
X159533866Y-91217912D01*
X159490435Y-91241127D01*
X159452368Y-91272368D01*
X159421127Y-91310435D01*
X159397912Y-91353866D01*
X159383617Y-91400991D01*
X159378790Y-91450000D01*
X158001727Y-91450000D01*
X158021351Y-91436888D01*
X158111888Y-91346351D01*
X158183022Y-91239890D01*
X158232021Y-91121598D01*
X158257000Y-90996019D01*
X158257000Y-90867981D01*
X158232021Y-90742402D01*
X158184312Y-90627223D01*
X158230991Y-90641383D01*
X158280000Y-90646210D01*
X159167500Y-90645000D01*
X159230000Y-90582500D01*
X159230000Y-90300000D01*
X158092500Y-90300000D01*
X158030000Y-90362500D01*
X158028790Y-90395000D01*
X158033111Y-90438872D01*
X158021351Y-90427112D01*
X157982000Y-90400819D01*
X157982000Y-90384731D01*
X157983814Y-90366315D01*
X157981385Y-90341654D01*
X157976574Y-90292802D01*
X157955131Y-90222115D01*
X157937349Y-90188847D01*
X157920310Y-90156968D01*
X157885189Y-90114174D01*
X157873448Y-90099867D01*
X157859140Y-90088125D01*
X157516015Y-89745000D01*
X158028790Y-89745000D01*
X158033617Y-89794009D01*
X158047912Y-89841134D01*
X158066014Y-89875000D01*
X158047912Y-89908866D01*
X158033617Y-89955991D01*
X158028790Y-90005000D01*
X158030000Y-90037500D01*
X158092500Y-90100000D01*
X159230000Y-90100000D01*
X159230000Y-89650000D01*
X159430000Y-89650000D01*
X159430000Y-90100000D01*
X160567500Y-90100000D01*
X160630000Y-90037500D01*
X160631210Y-90005000D01*
X160626383Y-89955991D01*
X160612088Y-89908866D01*
X160593986Y-89875000D01*
X160612088Y-89841134D01*
X160626383Y-89794009D01*
X160631210Y-89745000D01*
X160630000Y-89712500D01*
X160567500Y-89650000D01*
X159430000Y-89650000D01*
X159230000Y-89650000D01*
X158092500Y-89650000D01*
X158030000Y-89712500D01*
X158028790Y-89745000D01*
X157516015Y-89745000D01*
X157434880Y-89663866D01*
X157423133Y-89649552D01*
X157366032Y-89602691D01*
X157300885Y-89567869D01*
X157230198Y-89546426D01*
X157175104Y-89541000D01*
X157175101Y-89541000D01*
X157156685Y-89539186D01*
X157138269Y-89541000D01*
X154922435Y-89541000D01*
X154959277Y-89452058D01*
X154984256Y-89326479D01*
X154984256Y-89198441D01*
X154959277Y-89072862D01*
X154910278Y-88954570D01*
X154839144Y-88848109D01*
X154758035Y-88767000D01*
X155867586Y-88767000D01*
X155886002Y-88768814D01*
X155904418Y-88767000D01*
X155904421Y-88767000D01*
X155959515Y-88761574D01*
X156030202Y-88740131D01*
X156095349Y-88705309D01*
X156152450Y-88658448D01*
X156164197Y-88644134D01*
X156776623Y-88031709D01*
X157851000Y-88031709D01*
X157900008Y-88026882D01*
X157947134Y-88012587D01*
X157990564Y-87989373D01*
X158008078Y-87975000D01*
X158043019Y-87975000D01*
X158033618Y-88005992D01*
X158028791Y-88055000D01*
X158028791Y-88445000D01*
X158033618Y-88494008D01*
X158047913Y-88541134D01*
X158066015Y-88575000D01*
X158047913Y-88608866D01*
X158033618Y-88655992D01*
X158028791Y-88705000D01*
X158028791Y-89095000D01*
X158033618Y-89144008D01*
X158047913Y-89191134D01*
X158066015Y-89224999D01*
X158047912Y-89258866D01*
X158033617Y-89305991D01*
X158028790Y-89355000D01*
X158030000Y-89387500D01*
X158092500Y-89450000D01*
X159230000Y-89450000D01*
X159230000Y-89430000D01*
X159430000Y-89430000D01*
X159430000Y-89450000D01*
X160567500Y-89450000D01*
X160630000Y-89387500D01*
X160631210Y-89355000D01*
X160626383Y-89305991D01*
X160612088Y-89258866D01*
X160593985Y-89224999D01*
X160612087Y-89191134D01*
X160626382Y-89144008D01*
X160631209Y-89095000D01*
X160631209Y-88750000D01*
X161178790Y-88750000D01*
X161183617Y-88799009D01*
X161197912Y-88846134D01*
X161221127Y-88889565D01*
X161229691Y-88900000D01*
X161221127Y-88910435D01*
X161197912Y-88953866D01*
X161183617Y-89000991D01*
X161178790Y-89050000D01*
X161180000Y-89837500D01*
X161242500Y-89900000D01*
X162280000Y-89900000D01*
X162280000Y-87900000D01*
X162480000Y-87900000D01*
X162480000Y-89900000D01*
X163517500Y-89900000D01*
X163580000Y-89837500D01*
X163581210Y-89050000D01*
X163576383Y-89000991D01*
X163562088Y-88953866D01*
X163538873Y-88910435D01*
X163530309Y-88900000D01*
X163538873Y-88889565D01*
X163562088Y-88846134D01*
X163576383Y-88799009D01*
X163581210Y-88750000D01*
X163580000Y-87962500D01*
X163517500Y-87900000D01*
X162480000Y-87900000D01*
X162280000Y-87900000D01*
X161242500Y-87900000D01*
X161180000Y-87962500D01*
X161178790Y-88750000D01*
X160631209Y-88750000D01*
X160631209Y-88705000D01*
X160626382Y-88655992D01*
X160612087Y-88608866D01*
X160593985Y-88575000D01*
X160612087Y-88541134D01*
X160626382Y-88494008D01*
X160631209Y-88445000D01*
X160631209Y-88055000D01*
X160626382Y-88005992D01*
X160612087Y-87958866D01*
X160593985Y-87925000D01*
X160612087Y-87891134D01*
X160626382Y-87844008D01*
X160631209Y-87795000D01*
X160631209Y-87405000D01*
X160626382Y-87355992D01*
X160612087Y-87308866D01*
X160607511Y-87300306D01*
X160657213Y-87250604D01*
X160717403Y-87160523D01*
X160758864Y-87060429D01*
X160780000Y-86954170D01*
X160780000Y-86850000D01*
X161178790Y-86850000D01*
X161180000Y-87637500D01*
X161242500Y-87700000D01*
X162280000Y-87700000D01*
X162280000Y-87680000D01*
X162480000Y-87680000D01*
X162480000Y-87700000D01*
X163517500Y-87700000D01*
X163580000Y-87637500D01*
X163581210Y-86850000D01*
X163576383Y-86800991D01*
X163562088Y-86753866D01*
X163538873Y-86710435D01*
X163507632Y-86672368D01*
X163469565Y-86641127D01*
X163426134Y-86617912D01*
X163379009Y-86603617D01*
X163330000Y-86598790D01*
X163294383Y-86598845D01*
X163375717Y-86423916D01*
X163424655Y-86222957D01*
X163433447Y-86016312D01*
X163401756Y-85811923D01*
X163330800Y-85617643D01*
X163288514Y-85538533D01*
X163149001Y-85447421D01*
X162521421Y-86075000D01*
X162535564Y-86089142D01*
X162394142Y-86230564D01*
X162380000Y-86216421D01*
X162365858Y-86230564D01*
X162224436Y-86089142D01*
X162238579Y-86075000D01*
X161610999Y-85447421D01*
X161471486Y-85538533D01*
X161384283Y-85726084D01*
X161335345Y-85927043D01*
X161326553Y-86133688D01*
X161358244Y-86338077D01*
X161429200Y-86532357D01*
X161464738Y-86598843D01*
X161430000Y-86598790D01*
X161380991Y-86603617D01*
X161333866Y-86617912D01*
X161290435Y-86641127D01*
X161252368Y-86672368D01*
X161221127Y-86710435D01*
X161197912Y-86753866D01*
X161183617Y-86800991D01*
X161178790Y-86850000D01*
X160780000Y-86850000D01*
X160780000Y-86845830D01*
X160758864Y-86739571D01*
X160717403Y-86639477D01*
X160686991Y-86593962D01*
X160726134Y-86582088D01*
X160769565Y-86558873D01*
X160807632Y-86527632D01*
X160838873Y-86489565D01*
X160862088Y-86446134D01*
X160876383Y-86399009D01*
X160881210Y-86350000D01*
X160880000Y-85662500D01*
X160817500Y-85600000D01*
X160230000Y-85600000D01*
X160230000Y-85620000D01*
X160030000Y-85620000D01*
X160030000Y-85600000D01*
X159442500Y-85600000D01*
X159380000Y-85662500D01*
X159378790Y-86350000D01*
X159383617Y-86399009D01*
X159397912Y-86446134D01*
X159421127Y-86489565D01*
X159452368Y-86527632D01*
X159490435Y-86558873D01*
X159533866Y-86582088D01*
X159580991Y-86596383D01*
X159630000Y-86601210D01*
X159768498Y-86600713D01*
X159742597Y-86639477D01*
X159701136Y-86739571D01*
X159680000Y-86845830D01*
X159680000Y-86954170D01*
X159701136Y-87060429D01*
X159739808Y-87153791D01*
X158280000Y-87153791D01*
X158230992Y-87158618D01*
X158183866Y-87172913D01*
X158140436Y-87196127D01*
X158105253Y-87225000D01*
X158102209Y-87225000D01*
X158102209Y-86780500D01*
X158097382Y-86731492D01*
X158083087Y-86684366D01*
X158059873Y-86640936D01*
X158028632Y-86602868D01*
X157990564Y-86571627D01*
X157947134Y-86548413D01*
X157900008Y-86534118D01*
X157851000Y-86529291D01*
X156601000Y-86529291D01*
X156551992Y-86534118D01*
X156504866Y-86548413D01*
X156461436Y-86571627D01*
X156423368Y-86602868D01*
X156392127Y-86640936D01*
X156368913Y-86684366D01*
X156354618Y-86731492D01*
X156349791Y-86780500D01*
X156349791Y-87397881D01*
X156217815Y-87529858D01*
X156200021Y-87440402D01*
X156151022Y-87322110D01*
X156123207Y-87280481D01*
X156126209Y-87250000D01*
X156126209Y-85780500D01*
X156349790Y-85780500D01*
X156354617Y-85829509D01*
X156368912Y-85876634D01*
X156392127Y-85920065D01*
X156423368Y-85958132D01*
X156461435Y-85989373D01*
X156504866Y-86012588D01*
X156551991Y-86026883D01*
X156601000Y-86031710D01*
X157063500Y-86030500D01*
X157126000Y-85968000D01*
X157126000Y-85380500D01*
X157326000Y-85380500D01*
X157326000Y-85968000D01*
X157388500Y-86030500D01*
X157851000Y-86031710D01*
X157900009Y-86026883D01*
X157947134Y-86012588D01*
X157990565Y-85989373D01*
X158028632Y-85958132D01*
X158059873Y-85920065D01*
X158083088Y-85876634D01*
X158097383Y-85829509D01*
X158102210Y-85780500D01*
X158101000Y-85443000D01*
X158038500Y-85380500D01*
X157326000Y-85380500D01*
X157126000Y-85380500D01*
X156413500Y-85380500D01*
X156351000Y-85443000D01*
X156349790Y-85780500D01*
X156126209Y-85780500D01*
X156126209Y-85600000D01*
X156118500Y-85521728D01*
X156095669Y-85446464D01*
X156058593Y-85377100D01*
X156008698Y-85316302D01*
X155947900Y-85266407D01*
X155878536Y-85229331D01*
X155803272Y-85206500D01*
X155725000Y-85198791D01*
X155425000Y-85198791D01*
X155346728Y-85206500D01*
X155271464Y-85229331D01*
X155202100Y-85266407D01*
X155141302Y-85316302D01*
X155091407Y-85377100D01*
X155054331Y-85446464D01*
X155031500Y-85521728D01*
X155023791Y-85600000D01*
X155023791Y-87250000D01*
X155026793Y-87280481D01*
X154998978Y-87322110D01*
X154949979Y-87440402D01*
X154940000Y-87490570D01*
X154930021Y-87440402D01*
X154881022Y-87322110D01*
X154853207Y-87280481D01*
X154856209Y-87250000D01*
X154856209Y-85600000D01*
X154848500Y-85521728D01*
X154825669Y-85446464D01*
X154788593Y-85377100D01*
X154738698Y-85316302D01*
X154677900Y-85266407D01*
X154608536Y-85229331D01*
X154533272Y-85206500D01*
X154455000Y-85198791D01*
X154155000Y-85198791D01*
X154076728Y-85206500D01*
X154001464Y-85229331D01*
X153932100Y-85266407D01*
X153871302Y-85316302D01*
X153821407Y-85377100D01*
X153784331Y-85446464D01*
X153761500Y-85521728D01*
X153753791Y-85600000D01*
X153753791Y-87250000D01*
X153756793Y-87280481D01*
X153728978Y-87322110D01*
X153679979Y-87440402D01*
X153670000Y-87490570D01*
X153660021Y-87440402D01*
X153611022Y-87322110D01*
X153583207Y-87280481D01*
X153586209Y-87250000D01*
X153586209Y-85600000D01*
X153578500Y-85521728D01*
X153555669Y-85446464D01*
X153518593Y-85377100D01*
X153468698Y-85316302D01*
X153407900Y-85266407D01*
X153338536Y-85229331D01*
X153263272Y-85206500D01*
X153185000Y-85198791D01*
X152885000Y-85198791D01*
X152806728Y-85206500D01*
X152731464Y-85229331D01*
X152662100Y-85266407D01*
X152601302Y-85316302D01*
X152551407Y-85377100D01*
X152514331Y-85446464D01*
X152491500Y-85521728D01*
X152483791Y-85600000D01*
X152483791Y-87250000D01*
X152486793Y-87280481D01*
X152458978Y-87322110D01*
X152409979Y-87440402D01*
X152400000Y-87490570D01*
X152390021Y-87440402D01*
X152341022Y-87322110D01*
X152313207Y-87280481D01*
X152316209Y-87250000D01*
X152316209Y-85600000D01*
X152308500Y-85521728D01*
X152285669Y-85446464D01*
X152248593Y-85377100D01*
X152198698Y-85316302D01*
X152137900Y-85266407D01*
X152068536Y-85229331D01*
X151993272Y-85206500D01*
X151915000Y-85198791D01*
X151615000Y-85198791D01*
X151536728Y-85206500D01*
X151461464Y-85229331D01*
X151392100Y-85266407D01*
X151331302Y-85316302D01*
X151281407Y-85377100D01*
X151244331Y-85446464D01*
X151221500Y-85521728D01*
X151213791Y-85600000D01*
X151213791Y-87250000D01*
X151216793Y-87280481D01*
X151188978Y-87322110D01*
X151139979Y-87440402D01*
X151115000Y-87565981D01*
X151115000Y-87694019D01*
X151139979Y-87819598D01*
X151188978Y-87937890D01*
X151260112Y-88044351D01*
X151350649Y-88134888D01*
X151457110Y-88206022D01*
X151575402Y-88255021D01*
X151700981Y-88280000D01*
X151829019Y-88280000D01*
X151954598Y-88255021D01*
X152072890Y-88206022D01*
X152179351Y-88134888D01*
X152269888Y-88044351D01*
X152341022Y-87937890D01*
X152390021Y-87819598D01*
X152400000Y-87769430D01*
X152409979Y-87819598D01*
X152458978Y-87937890D01*
X152511162Y-88015990D01*
X152503000Y-88015186D01*
X152484584Y-88017000D01*
X152484581Y-88017000D01*
X152429487Y-88022426D01*
X152358800Y-88043869D01*
X152293653Y-88078691D01*
X152236552Y-88125552D01*
X152224810Y-88139860D01*
X150495000Y-89869670D01*
X148765195Y-88139866D01*
X148753448Y-88125552D01*
X148696347Y-88078691D01*
X148631200Y-88043869D01*
X148560513Y-88022426D01*
X148505419Y-88017000D01*
X148505416Y-88017000D01*
X148487000Y-88015186D01*
X148468584Y-88017000D01*
X146512916Y-88017000D01*
X146494500Y-88015186D01*
X146476084Y-88017000D01*
X146476081Y-88017000D01*
X146420987Y-88022426D01*
X146350300Y-88043869D01*
X146285153Y-88078691D01*
X146228052Y-88125552D01*
X146216310Y-88139860D01*
X145174905Y-89181265D01*
X145136508Y-89169618D01*
X145087500Y-89164791D01*
X143837500Y-89164791D01*
X143788492Y-89169618D01*
X143741366Y-89183913D01*
X143697936Y-89207127D01*
X143659868Y-89238368D01*
X143628627Y-89276436D01*
X143605413Y-89319866D01*
X143591118Y-89366992D01*
X143586291Y-89416000D01*
X143586291Y-89880879D01*
X143194364Y-90272807D01*
X143194359Y-90272811D01*
X142109872Y-91357299D01*
X142109867Y-91357303D01*
X141685214Y-91781957D01*
X141722021Y-91693098D01*
X141747000Y-91567519D01*
X141747000Y-91439481D01*
X141737767Y-91393063D01*
X142164140Y-90966690D01*
X142178449Y-90954947D01*
X142206659Y-90920573D01*
X142225310Y-90897847D01*
X142260131Y-90832701D01*
X142260132Y-90832699D01*
X142281575Y-90762012D01*
X142287001Y-90706918D01*
X142287001Y-90706916D01*
X142288815Y-90688500D01*
X142287001Y-90670084D01*
X142287001Y-88416000D01*
X143586290Y-88416000D01*
X143591117Y-88465009D01*
X143605412Y-88512134D01*
X143628627Y-88555565D01*
X143659868Y-88593632D01*
X143697935Y-88624873D01*
X143741366Y-88648088D01*
X143788491Y-88662383D01*
X143837500Y-88667210D01*
X144300000Y-88666000D01*
X144362500Y-88603500D01*
X144362500Y-88016000D01*
X144562500Y-88016000D01*
X144562500Y-88603500D01*
X144625000Y-88666000D01*
X145087500Y-88667210D01*
X145136509Y-88662383D01*
X145183634Y-88648088D01*
X145227065Y-88624873D01*
X145265132Y-88593632D01*
X145296373Y-88555565D01*
X145319588Y-88512134D01*
X145333883Y-88465009D01*
X145338710Y-88416000D01*
X145337500Y-88078500D01*
X145275000Y-88016000D01*
X144562500Y-88016000D01*
X144362500Y-88016000D01*
X143650000Y-88016000D01*
X143587500Y-88078500D01*
X143586290Y-88416000D01*
X142287001Y-88416000D01*
X142287001Y-87899000D01*
X142304019Y-87899000D01*
X142429598Y-87874021D01*
X142547890Y-87825022D01*
X142654351Y-87753888D01*
X142744888Y-87663351D01*
X142816022Y-87556890D01*
X142865021Y-87438598D01*
X142869515Y-87416000D01*
X143586290Y-87416000D01*
X143587500Y-87753500D01*
X143650000Y-87816000D01*
X144362500Y-87816000D01*
X144362500Y-87228500D01*
X144562500Y-87228500D01*
X144562500Y-87816000D01*
X145275000Y-87816000D01*
X145337500Y-87753500D01*
X145338710Y-87416000D01*
X145333883Y-87366991D01*
X145319588Y-87319866D01*
X145296373Y-87276435D01*
X145265132Y-87238368D01*
X145227065Y-87207127D01*
X145183634Y-87183912D01*
X145136509Y-87169617D01*
X145087500Y-87164790D01*
X144625000Y-87166000D01*
X144562500Y-87228500D01*
X144362500Y-87228500D01*
X144300000Y-87166000D01*
X143837500Y-87164790D01*
X143788491Y-87169617D01*
X143741366Y-87183912D01*
X143697935Y-87207127D01*
X143659868Y-87238368D01*
X143628627Y-87276435D01*
X143605412Y-87319866D01*
X143591117Y-87366991D01*
X143586290Y-87416000D01*
X142869515Y-87416000D01*
X142890000Y-87313019D01*
X142890000Y-87184981D01*
X142865021Y-87059402D01*
X142816022Y-86941110D01*
X142744888Y-86834649D01*
X142654351Y-86744112D01*
X142547890Y-86672978D01*
X142429598Y-86623979D01*
X142336750Y-86605511D01*
X142429598Y-86587042D01*
X142547890Y-86538043D01*
X142654351Y-86466909D01*
X142744888Y-86376372D01*
X142816022Y-86269911D01*
X142865021Y-86151619D01*
X142890000Y-86026040D01*
X142890000Y-85898002D01*
X142865021Y-85772423D01*
X142816022Y-85654131D01*
X142787885Y-85612021D01*
X146133791Y-85612021D01*
X146133791Y-87250000D01*
X146141500Y-87328272D01*
X146164331Y-87403536D01*
X146201407Y-87472900D01*
X146251302Y-87533698D01*
X146312100Y-87583593D01*
X146381464Y-87620669D01*
X146456728Y-87643500D01*
X146535000Y-87651209D01*
X146835000Y-87651209D01*
X146913272Y-87643500D01*
X146988536Y-87620669D01*
X147057900Y-87583593D01*
X147118698Y-87533698D01*
X147168593Y-87472900D01*
X147205669Y-87403536D01*
X147228500Y-87328272D01*
X147236209Y-87250000D01*
X147236209Y-85600000D01*
X147228500Y-85521728D01*
X147205669Y-85446464D01*
X147168593Y-85377100D01*
X147118698Y-85316302D01*
X147057900Y-85266407D01*
X147025549Y-85249115D01*
X147011503Y-85222837D01*
X146998310Y-85198154D01*
X146989521Y-85187445D01*
X146968648Y-85162011D01*
X147179182Y-85162011D01*
X147444538Y-85427368D01*
X147434331Y-85446464D01*
X147411500Y-85521728D01*
X147403791Y-85600000D01*
X147403791Y-87250000D01*
X147411500Y-87328272D01*
X147434331Y-87403536D01*
X147471407Y-87472900D01*
X147521302Y-87533698D01*
X147582100Y-87583593D01*
X147651464Y-87620669D01*
X147726728Y-87643500D01*
X147805000Y-87651209D01*
X148105000Y-87651209D01*
X148183272Y-87643500D01*
X148258536Y-87620669D01*
X148327900Y-87583593D01*
X148388698Y-87533698D01*
X148438593Y-87472900D01*
X148475669Y-87403536D01*
X148498500Y-87328272D01*
X148506209Y-87250000D01*
X148506209Y-85600000D01*
X148498500Y-85521728D01*
X148475669Y-85446464D01*
X148438593Y-85377100D01*
X148406505Y-85338000D01*
X148498171Y-85338000D01*
X148681593Y-85521422D01*
X148681500Y-85521728D01*
X148673791Y-85600000D01*
X148673791Y-87250000D01*
X148681500Y-87328272D01*
X148704331Y-87403536D01*
X148741407Y-87472900D01*
X148791302Y-87533698D01*
X148852100Y-87583593D01*
X148921464Y-87620669D01*
X148996728Y-87643500D01*
X149075000Y-87651209D01*
X149375000Y-87651209D01*
X149453272Y-87643500D01*
X149528536Y-87620669D01*
X149597900Y-87583593D01*
X149658698Y-87533698D01*
X149708593Y-87472900D01*
X149745669Y-87403536D01*
X149746741Y-87400000D01*
X149943790Y-87400000D01*
X149948617Y-87449009D01*
X149962912Y-87496134D01*
X149986127Y-87539565D01*
X150017368Y-87577632D01*
X150055435Y-87608873D01*
X150098866Y-87632088D01*
X150145991Y-87646383D01*
X150195000Y-87651210D01*
X150332500Y-87650000D01*
X150395000Y-87587500D01*
X150395000Y-86525000D01*
X150595000Y-86525000D01*
X150595000Y-87587500D01*
X150657500Y-87650000D01*
X150795000Y-87651210D01*
X150844009Y-87646383D01*
X150891134Y-87632088D01*
X150934565Y-87608873D01*
X150972632Y-87577632D01*
X151003873Y-87539565D01*
X151027088Y-87496134D01*
X151041383Y-87449009D01*
X151046210Y-87400000D01*
X151045000Y-86587500D01*
X150982500Y-86525000D01*
X150595000Y-86525000D01*
X150395000Y-86525000D01*
X150007500Y-86525000D01*
X149945000Y-86587500D01*
X149943790Y-87400000D01*
X149746741Y-87400000D01*
X149768500Y-87328272D01*
X149776209Y-87250000D01*
X149776209Y-85600000D01*
X149768500Y-85521728D01*
X149746742Y-85450000D01*
X149943790Y-85450000D01*
X149945000Y-86262500D01*
X150007500Y-86325000D01*
X150395000Y-86325000D01*
X150395000Y-85262500D01*
X150595000Y-85262500D01*
X150595000Y-86325000D01*
X150982500Y-86325000D01*
X151045000Y-86262500D01*
X151046210Y-85450000D01*
X151041383Y-85400991D01*
X151027088Y-85353866D01*
X151003873Y-85310435D01*
X150972632Y-85272368D01*
X150934565Y-85241127D01*
X150891134Y-85217912D01*
X150844009Y-85203617D01*
X150795000Y-85198790D01*
X150657500Y-85200000D01*
X150595000Y-85262500D01*
X150395000Y-85262500D01*
X150332500Y-85200000D01*
X150195000Y-85198790D01*
X150145991Y-85203617D01*
X150098866Y-85217912D01*
X150055435Y-85241127D01*
X150017368Y-85272368D01*
X149986127Y-85310435D01*
X149962912Y-85353866D01*
X149948617Y-85400991D01*
X149943790Y-85450000D01*
X149746742Y-85450000D01*
X149745669Y-85446464D01*
X149708593Y-85377100D01*
X149658698Y-85316302D01*
X149597900Y-85266407D01*
X149528536Y-85229331D01*
X149453272Y-85206500D01*
X149424926Y-85203708D01*
X149409663Y-85187445D01*
X149404792Y-85183962D01*
X149001330Y-84780500D01*
X156349790Y-84780500D01*
X156351000Y-85118000D01*
X156413500Y-85180500D01*
X157126000Y-85180500D01*
X157126000Y-84593000D01*
X157326000Y-84593000D01*
X157326000Y-85180500D01*
X158038500Y-85180500D01*
X158101000Y-85118000D01*
X158102210Y-84780500D01*
X158097383Y-84731491D01*
X158083088Y-84684366D01*
X158064719Y-84650000D01*
X159378790Y-84650000D01*
X159380000Y-85337500D01*
X159442500Y-85400000D01*
X160030000Y-85400000D01*
X160030000Y-84462500D01*
X160230000Y-84462500D01*
X160230000Y-85400000D01*
X160817500Y-85400000D01*
X160880000Y-85337500D01*
X160880055Y-85305999D01*
X161752421Y-85305999D01*
X162380000Y-85933579D01*
X163007579Y-85305999D01*
X162916467Y-85166486D01*
X162728916Y-85079283D01*
X162527957Y-85030345D01*
X162321312Y-85021553D01*
X162116923Y-85053244D01*
X161922643Y-85124200D01*
X161843533Y-85166486D01*
X161752421Y-85305999D01*
X160880055Y-85305999D01*
X160881210Y-84650000D01*
X160876383Y-84600991D01*
X160862088Y-84553866D01*
X160838873Y-84510435D01*
X160807632Y-84472368D01*
X160769565Y-84441127D01*
X160726134Y-84417912D01*
X160679009Y-84403617D01*
X160630000Y-84398790D01*
X160292500Y-84400000D01*
X160230000Y-84462500D01*
X160030000Y-84462500D01*
X159967500Y-84400000D01*
X159630000Y-84398790D01*
X159580991Y-84403617D01*
X159533866Y-84417912D01*
X159490435Y-84441127D01*
X159452368Y-84472368D01*
X159421127Y-84510435D01*
X159397912Y-84553866D01*
X159383617Y-84600991D01*
X159378790Y-84650000D01*
X158064719Y-84650000D01*
X158059873Y-84640935D01*
X158028632Y-84602868D01*
X157990565Y-84571627D01*
X157947134Y-84548412D01*
X157900009Y-84534117D01*
X157851000Y-84529290D01*
X157388500Y-84530500D01*
X157326000Y-84593000D01*
X157126000Y-84593000D01*
X157063500Y-84530500D01*
X156601000Y-84529290D01*
X156551991Y-84534117D01*
X156504866Y-84548412D01*
X156461435Y-84571627D01*
X156423368Y-84602868D01*
X156392127Y-84640935D01*
X156368912Y-84684366D01*
X156354617Y-84731491D01*
X156349790Y-84780500D01*
X149001330Y-84780500D01*
X148931695Y-84710866D01*
X148919948Y-84696552D01*
X148862847Y-84649691D01*
X148797700Y-84614869D01*
X148727013Y-84593426D01*
X148671919Y-84588000D01*
X148671916Y-84588000D01*
X148653500Y-84586186D01*
X148635084Y-84588000D01*
X148302240Y-84588000D01*
X147799101Y-84084861D01*
X147787358Y-84070553D01*
X147730257Y-84023692D01*
X147665110Y-83988870D01*
X147594423Y-83967427D01*
X147539329Y-83962001D01*
X147539327Y-83962001D01*
X147520911Y-83960187D01*
X147502495Y-83962001D01*
X141232014Y-83962003D01*
X141213588Y-83960188D01*
X141140075Y-83967429D01*
X141069387Y-83988872D01*
X141004241Y-84023693D01*
X140961447Y-84058813D01*
X140961443Y-84058817D01*
X140947140Y-84070555D01*
X140935402Y-84084858D01*
X140140856Y-84879405D01*
X140126542Y-84891152D01*
X140079681Y-84948254D01*
X140044859Y-85013401D01*
X140023416Y-85084088D01*
X140019466Y-85124200D01*
X140016176Y-85157600D01*
X140017990Y-85176016D01*
X140017990Y-85198155D01*
X139944390Y-85148978D01*
X139826098Y-85099979D01*
X139700519Y-85075000D01*
X139572481Y-85075000D01*
X139446902Y-85099979D01*
X139328610Y-85148978D01*
X139222149Y-85220112D01*
X139131612Y-85310649D01*
X139060478Y-85417110D01*
X139011479Y-85535402D01*
X138986500Y-85660981D01*
X138986500Y-85789019D01*
X138995733Y-85835438D01*
X138984370Y-85846801D01*
X138984359Y-85846810D01*
X138659360Y-86171811D01*
X138645052Y-86183553D01*
X138632776Y-86198512D01*
X138598190Y-86240655D01*
X138582445Y-86270112D01*
X138563369Y-86305801D01*
X138542378Y-86375000D01*
X138541926Y-86376489D01*
X138534685Y-86450001D01*
X138240378Y-86450001D01*
X138229565Y-86441127D01*
X138186134Y-86417912D01*
X138139009Y-86403617D01*
X138090000Y-86398790D01*
X137602500Y-86400000D01*
X137540000Y-86462500D01*
X137340000Y-86462500D01*
X137277500Y-86400000D01*
X136790000Y-86398790D01*
X136740991Y-86403617D01*
X136740142Y-86403875D01*
X136741210Y-86150000D01*
X136736383Y-86100991D01*
X136722088Y-86053866D01*
X136698873Y-86010435D01*
X136667632Y-85972368D01*
X136629565Y-85941127D01*
X136586134Y-85917912D01*
X136539009Y-85903617D01*
X136490000Y-85898790D01*
X136052500Y-85900000D01*
X135990000Y-85962500D01*
X135790000Y-85962500D01*
X135727500Y-85900000D01*
X135290000Y-85898790D01*
X135240991Y-85903617D01*
X135193866Y-85917912D01*
X135176000Y-85927462D01*
X135176000Y-83150327D01*
X147538000Y-83150327D01*
X147538000Y-83349673D01*
X147576890Y-83545190D01*
X147653177Y-83729362D01*
X147763928Y-83895113D01*
X147904887Y-84036072D01*
X148070638Y-84146823D01*
X148254810Y-84223110D01*
X148450327Y-84262000D01*
X148649673Y-84262000D01*
X148845190Y-84223110D01*
X149029362Y-84146823D01*
X149195113Y-84036072D01*
X149336072Y-83895113D01*
X149446823Y-83729362D01*
X149523110Y-83545190D01*
X149562000Y-83349673D01*
X149562000Y-83150327D01*
X150086000Y-83150327D01*
X150086000Y-83349673D01*
X150124890Y-83545190D01*
X150201177Y-83729362D01*
X150311928Y-83895113D01*
X150452887Y-84036072D01*
X150618638Y-84146823D01*
X150802810Y-84223110D01*
X150998327Y-84262000D01*
X151197673Y-84262000D01*
X151393190Y-84223110D01*
X151577362Y-84146823D01*
X151743113Y-84036072D01*
X151884072Y-83895113D01*
X151994823Y-83729362D01*
X152071110Y-83545190D01*
X152110000Y-83349673D01*
X152110000Y-83150327D01*
X152634000Y-83150327D01*
X152634000Y-83349673D01*
X152672890Y-83545190D01*
X152749177Y-83729362D01*
X152859928Y-83895113D01*
X153000887Y-84036072D01*
X153166638Y-84146823D01*
X153350810Y-84223110D01*
X153546327Y-84262000D01*
X153745673Y-84262000D01*
X153941190Y-84223110D01*
X154125362Y-84146823D01*
X154291113Y-84036072D01*
X154432072Y-83895113D01*
X154542823Y-83729362D01*
X154619110Y-83545190D01*
X154658000Y-83349673D01*
X154658000Y-83150327D01*
X155182000Y-83150327D01*
X155182000Y-83349673D01*
X155220890Y-83545190D01*
X155297177Y-83729362D01*
X155407928Y-83895113D01*
X155548887Y-84036072D01*
X155714638Y-84146823D01*
X155898810Y-84223110D01*
X156094327Y-84262000D01*
X156293673Y-84262000D01*
X156489190Y-84223110D01*
X156673362Y-84146823D01*
X156839113Y-84036072D01*
X156980072Y-83895113D01*
X157090823Y-83729362D01*
X157167110Y-83545190D01*
X157206000Y-83349673D01*
X157206000Y-83150327D01*
X157730000Y-83150327D01*
X157730000Y-83349673D01*
X157768890Y-83545190D01*
X157845177Y-83729362D01*
X157955928Y-83895113D01*
X158096887Y-84036072D01*
X158262638Y-84146823D01*
X158446810Y-84223110D01*
X158642327Y-84262000D01*
X158841673Y-84262000D01*
X159037190Y-84223110D01*
X159221362Y-84146823D01*
X159387113Y-84036072D01*
X159528072Y-83895113D01*
X159638823Y-83729362D01*
X159715110Y-83545190D01*
X159754000Y-83349673D01*
X159754000Y-83150327D01*
X160278000Y-83150327D01*
X160278000Y-83349673D01*
X160316890Y-83545190D01*
X160393177Y-83729362D01*
X160503928Y-83895113D01*
X160644887Y-84036072D01*
X160810638Y-84146823D01*
X160994810Y-84223110D01*
X161190327Y-84262000D01*
X161389673Y-84262000D01*
X161585190Y-84223110D01*
X161769362Y-84146823D01*
X161935113Y-84036072D01*
X162076072Y-83895113D01*
X162186823Y-83729362D01*
X162263110Y-83545190D01*
X162302000Y-83349673D01*
X162302000Y-83150327D01*
X162263110Y-82954810D01*
X162186823Y-82770638D01*
X162076072Y-82604887D01*
X161935113Y-82463928D01*
X161769362Y-82353177D01*
X161585190Y-82276890D01*
X161389673Y-82238000D01*
X161190327Y-82238000D01*
X160994810Y-82276890D01*
X160810638Y-82353177D01*
X160644887Y-82463928D01*
X160503928Y-82604887D01*
X160393177Y-82770638D01*
X160316890Y-82954810D01*
X160278000Y-83150327D01*
X159754000Y-83150327D01*
X159715110Y-82954810D01*
X159638823Y-82770638D01*
X159528072Y-82604887D01*
X159387113Y-82463928D01*
X159221362Y-82353177D01*
X159037190Y-82276890D01*
X158841673Y-82238000D01*
X158642327Y-82238000D01*
X158446810Y-82276890D01*
X158262638Y-82353177D01*
X158096887Y-82463928D01*
X157955928Y-82604887D01*
X157845177Y-82770638D01*
X157768890Y-82954810D01*
X157730000Y-83150327D01*
X157206000Y-83150327D01*
X157167110Y-82954810D01*
X157090823Y-82770638D01*
X156980072Y-82604887D01*
X156839113Y-82463928D01*
X156673362Y-82353177D01*
X156489190Y-82276890D01*
X156293673Y-82238000D01*
X156094327Y-82238000D01*
X155898810Y-82276890D01*
X155714638Y-82353177D01*
X155548887Y-82463928D01*
X155407928Y-82604887D01*
X155297177Y-82770638D01*
X155220890Y-82954810D01*
X155182000Y-83150327D01*
X154658000Y-83150327D01*
X154619110Y-82954810D01*
X154542823Y-82770638D01*
X154432072Y-82604887D01*
X154291113Y-82463928D01*
X154125362Y-82353177D01*
X153941190Y-82276890D01*
X153745673Y-82238000D01*
X153546327Y-82238000D01*
X153350810Y-82276890D01*
X153166638Y-82353177D01*
X153000887Y-82463928D01*
X152859928Y-82604887D01*
X152749177Y-82770638D01*
X152672890Y-82954810D01*
X152634000Y-83150327D01*
X152110000Y-83150327D01*
X152071110Y-82954810D01*
X151994823Y-82770638D01*
X151884072Y-82604887D01*
X151743113Y-82463928D01*
X151577362Y-82353177D01*
X151393190Y-82276890D01*
X151197673Y-82238000D01*
X150998327Y-82238000D01*
X150802810Y-82276890D01*
X150618638Y-82353177D01*
X150452887Y-82463928D01*
X150311928Y-82604887D01*
X150201177Y-82770638D01*
X150124890Y-82954810D01*
X150086000Y-83150327D01*
X149562000Y-83150327D01*
X149523110Y-82954810D01*
X149446823Y-82770638D01*
X149336072Y-82604887D01*
X149195113Y-82463928D01*
X149029362Y-82353177D01*
X148845190Y-82276890D01*
X148649673Y-82238000D01*
X148450327Y-82238000D01*
X148254810Y-82276890D01*
X148070638Y-82353177D01*
X147904887Y-82463928D01*
X147763928Y-82604887D01*
X147653177Y-82770638D01*
X147576890Y-82954810D01*
X147538000Y-83150327D01*
X135176000Y-83150327D01*
X135176000Y-82090000D01*
X163655000Y-82090000D01*
X163655001Y-95710000D01*
M02*
