G04 #@! TF.GenerationSoftware,KiCad,Pcbnew,(5.1.5)-3*
G04 #@! TF.CreationDate,2020-07-16T22:53:37-05:00*
G04 #@! TF.ProjectId,pcb,7063622e-6b69-4636-9164-5f7063625858,rev?*
G04 #@! TF.SameCoordinates,Original*
G04 #@! TF.FileFunction,Legend,Top*
G04 #@! TF.FilePolarity,Positive*
%FSLAX46Y46*%
G04 Gerber Fmt 4.6, Leading zero omitted, Abs format (unit mm)*
G04 Created by KiCad (PCBNEW (5.1.5)-3) date 2020-07-16 22:53:37*
%MOMM*%
%LPD*%
G04 APERTURE LIST*
%ADD10C,0.120000*%
%ADD11C,0.080000*%
%ADD12C,0.100000*%
G04 APERTURE END LIST*
D10*
X134990000Y-81900000D02*
X174890000Y-81900000D01*
X174890000Y-81900000D02*
X174890000Y-95900000D01*
X174890000Y-95900000D02*
X134990000Y-95900000D01*
X134990000Y-95900000D02*
X134990000Y-81900000D01*
X140970000Y-93960000D02*
X144420000Y-93960000D01*
X140970000Y-93960000D02*
X139020000Y-93960000D01*
X140970000Y-83840000D02*
X142920000Y-83840000D01*
X140970000Y-83840000D02*
X139020000Y-83840000D01*
X154080000Y-90559000D02*
X154080000Y-91559000D01*
X150720000Y-90559000D02*
X150720000Y-91559000D01*
X154466500Y-90559000D02*
X154466500Y-91559000D01*
X157826500Y-90559000D02*
X157826500Y-91559000D01*
D11*
X148261428Y-93421142D02*
X148747142Y-93421142D01*
X148804285Y-93392571D01*
X148832857Y-93364000D01*
X148861428Y-93306857D01*
X148861428Y-93192571D01*
X148832857Y-93135428D01*
X148804285Y-93106857D01*
X148747142Y-93078285D01*
X148261428Y-93078285D01*
X148261428Y-92849714D02*
X148261428Y-92478285D01*
X148490000Y-92678285D01*
X148490000Y-92592571D01*
X148518571Y-92535428D01*
X148547142Y-92506857D01*
X148604285Y-92478285D01*
X148747142Y-92478285D01*
X148804285Y-92506857D01*
X148832857Y-92535428D01*
X148861428Y-92592571D01*
X148861428Y-92764000D01*
X148832857Y-92821142D01*
X148804285Y-92849714D01*
D12*
X148868571Y-85875761D02*
X149011428Y-85923380D01*
X149249523Y-85923380D01*
X149344761Y-85875761D01*
X149392380Y-85828142D01*
X149440000Y-85732904D01*
X149440000Y-85637666D01*
X149392380Y-85542428D01*
X149344761Y-85494809D01*
X149249523Y-85447190D01*
X149059047Y-85399571D01*
X148963809Y-85351952D01*
X148916190Y-85304333D01*
X148868571Y-85209095D01*
X148868571Y-85113857D01*
X148916190Y-85018619D01*
X148963809Y-84971000D01*
X149059047Y-84923380D01*
X149297142Y-84923380D01*
X149440000Y-84971000D01*
X150344761Y-85923380D02*
X149868571Y-85923380D01*
X149868571Y-84923380D01*
X151249523Y-85923380D02*
X150916190Y-85447190D01*
X150678095Y-85923380D02*
X150678095Y-84923380D01*
X151059047Y-84923380D01*
X151154285Y-84971000D01*
X151201904Y-85018619D01*
X151249523Y-85113857D01*
X151249523Y-85256714D01*
X151201904Y-85351952D01*
X151154285Y-85399571D01*
X151059047Y-85447190D01*
X150678095Y-85447190D01*
X151868571Y-84923380D02*
X151963809Y-84923380D01*
X152059047Y-84971000D01*
X152106666Y-85018619D01*
X152154285Y-85113857D01*
X152201904Y-85304333D01*
X152201904Y-85542428D01*
X152154285Y-85732904D01*
X152106666Y-85828142D01*
X152059047Y-85875761D01*
X151963809Y-85923380D01*
X151868571Y-85923380D01*
X151773333Y-85875761D01*
X151725714Y-85828142D01*
X151678095Y-85732904D01*
X151630476Y-85542428D01*
X151630476Y-85304333D01*
X151678095Y-85113857D01*
X151725714Y-85018619D01*
X151773333Y-84971000D01*
X151868571Y-84923380D01*
X152535238Y-84923380D02*
X153154285Y-84923380D01*
X152820952Y-85304333D01*
X152963809Y-85304333D01*
X153059047Y-85351952D01*
X153106666Y-85399571D01*
X153154285Y-85494809D01*
X153154285Y-85732904D01*
X153106666Y-85828142D01*
X153059047Y-85875761D01*
X152963809Y-85923380D01*
X152678095Y-85923380D01*
X152582857Y-85875761D01*
X152535238Y-85828142D01*
X153630476Y-85923380D02*
X153820952Y-85923380D01*
X153916190Y-85875761D01*
X153963809Y-85828142D01*
X154059047Y-85685285D01*
X154106666Y-85494809D01*
X154106666Y-85113857D01*
X154059047Y-85018619D01*
X154011428Y-84971000D01*
X153916190Y-84923380D01*
X153725714Y-84923380D01*
X153630476Y-84971000D01*
X153582857Y-85018619D01*
X153535238Y-85113857D01*
X153535238Y-85351952D01*
X153582857Y-85447190D01*
X153630476Y-85494809D01*
X153725714Y-85542428D01*
X153916190Y-85542428D01*
X154011428Y-85494809D01*
X154059047Y-85447190D01*
X154106666Y-85351952D01*
X154963809Y-85256714D02*
X154963809Y-85923380D01*
X154725714Y-84875761D02*
X154487619Y-85590047D01*
X155106666Y-85590047D01*
X155487619Y-85923380D02*
X155487619Y-84923380D01*
X155725714Y-84923380D01*
X155868571Y-84971000D01*
X155963809Y-85066238D01*
X156011428Y-85161476D01*
X156059047Y-85351952D01*
X156059047Y-85494809D01*
X156011428Y-85685285D01*
X155963809Y-85780523D01*
X155868571Y-85875761D01*
X155725714Y-85923380D01*
X155487619Y-85923380D01*
X157059047Y-85923380D02*
X156725714Y-85447190D01*
X156487619Y-85923380D02*
X156487619Y-84923380D01*
X156868571Y-84923380D01*
X156963809Y-84971000D01*
X157011428Y-85018619D01*
X157059047Y-85113857D01*
X157059047Y-85256714D01*
X157011428Y-85351952D01*
X156963809Y-85399571D01*
X156868571Y-85447190D01*
X156487619Y-85447190D01*
X158059047Y-85828142D02*
X158011428Y-85875761D01*
X157868571Y-85923380D01*
X157773333Y-85923380D01*
X157630476Y-85875761D01*
X157535238Y-85780523D01*
X157487619Y-85685285D01*
X157440000Y-85494809D01*
X157440000Y-85351952D01*
X157487619Y-85161476D01*
X157535238Y-85066238D01*
X157630476Y-84971000D01*
X157773333Y-84923380D01*
X157868571Y-84923380D01*
X158011428Y-84971000D01*
X158059047Y-85018619D01*
X158963809Y-84923380D02*
X158487619Y-84923380D01*
X158440000Y-85399571D01*
X158487619Y-85351952D01*
X158582857Y-85304333D01*
X158820952Y-85304333D01*
X158916190Y-85351952D01*
X158963809Y-85399571D01*
X159011428Y-85494809D01*
X159011428Y-85732904D01*
X158963809Y-85828142D01*
X158916190Y-85875761D01*
X158820952Y-85923380D01*
X158582857Y-85923380D01*
X158487619Y-85875761D01*
X158440000Y-85828142D01*
X159773333Y-85399571D02*
X159916190Y-85447190D01*
X159963809Y-85494809D01*
X160011428Y-85590047D01*
X160011428Y-85732904D01*
X159963809Y-85828142D01*
X159916190Y-85875761D01*
X159820952Y-85923380D01*
X159440000Y-85923380D01*
X159440000Y-84923380D01*
X159773333Y-84923380D01*
X159868571Y-84971000D01*
X159916190Y-85018619D01*
X159963809Y-85113857D01*
X159963809Y-85209095D01*
X159916190Y-85304333D01*
X159868571Y-85351952D01*
X159773333Y-85399571D01*
X159440000Y-85399571D01*
X160440000Y-85923380D02*
X160440000Y-84923380D01*
X160678095Y-84923380D01*
X160820952Y-84971000D01*
X160916190Y-85066238D01*
X160963809Y-85161476D01*
X161011428Y-85351952D01*
X161011428Y-85494809D01*
X160963809Y-85685285D01*
X160916190Y-85780523D01*
X160820952Y-85875761D01*
X160678095Y-85923380D01*
X160440000Y-85923380D01*
D11*
X142189142Y-93673571D02*
X142189142Y-93187857D01*
X142160571Y-93130714D01*
X142132000Y-93102142D01*
X142074857Y-93073571D01*
X141960571Y-93073571D01*
X141903428Y-93102142D01*
X141874857Y-93130714D01*
X141846285Y-93187857D01*
X141846285Y-93673571D01*
X141589142Y-93616428D02*
X141560571Y-93645000D01*
X141503428Y-93673571D01*
X141360571Y-93673571D01*
X141303428Y-93645000D01*
X141274857Y-93616428D01*
X141246285Y-93559285D01*
X141246285Y-93502142D01*
X141274857Y-93416428D01*
X141617714Y-93073571D01*
X141246285Y-93073571D01*
D12*
X140422380Y-92161904D02*
X140422380Y-91495238D01*
X141422380Y-91923809D01*
X140755714Y-90685714D02*
X141422380Y-90685714D01*
X140374761Y-90923809D02*
X141089047Y-91161904D01*
X141089047Y-90542857D01*
X141422380Y-90161904D02*
X140422380Y-90161904D01*
X140898571Y-90161904D02*
X140898571Y-89590476D01*
X141422380Y-89590476D02*
X140422380Y-89590476D01*
X141327142Y-88542857D02*
X141374761Y-88590476D01*
X141422380Y-88733333D01*
X141422380Y-88828571D01*
X141374761Y-88971428D01*
X141279523Y-89066666D01*
X141184285Y-89114285D01*
X140993809Y-89161904D01*
X140850952Y-89161904D01*
X140660476Y-89114285D01*
X140565238Y-89066666D01*
X140470000Y-88971428D01*
X140422380Y-88828571D01*
X140422380Y-88733333D01*
X140470000Y-88590476D01*
X140517619Y-88542857D01*
X140422380Y-87638095D02*
X140422380Y-88114285D01*
X140898571Y-88161904D01*
X140850952Y-88114285D01*
X140803333Y-88019047D01*
X140803333Y-87780952D01*
X140850952Y-87685714D01*
X140898571Y-87638095D01*
X140993809Y-87590476D01*
X141231904Y-87590476D01*
X141327142Y-87638095D01*
X141374761Y-87685714D01*
X141422380Y-87780952D01*
X141422380Y-88019047D01*
X141374761Y-88114285D01*
X141327142Y-88161904D01*
X141422380Y-87114285D02*
X141422380Y-86923809D01*
X141374761Y-86828571D01*
X141327142Y-86780952D01*
X141184285Y-86685714D01*
X140993809Y-86638095D01*
X140612857Y-86638095D01*
X140517619Y-86685714D01*
X140470000Y-86733333D01*
X140422380Y-86828571D01*
X140422380Y-87019047D01*
X140470000Y-87114285D01*
X140517619Y-87161904D01*
X140612857Y-87209523D01*
X140850952Y-87209523D01*
X140946190Y-87161904D01*
X140993809Y-87114285D01*
X141041428Y-87019047D01*
X141041428Y-86828571D01*
X140993809Y-86733333D01*
X140946190Y-86685714D01*
X140850952Y-86638095D01*
X140422380Y-85733333D02*
X140422380Y-86209523D01*
X140898571Y-86257142D01*
X140850952Y-86209523D01*
X140803333Y-86114285D01*
X140803333Y-85876190D01*
X140850952Y-85780952D01*
X140898571Y-85733333D01*
X140993809Y-85685714D01*
X141231904Y-85685714D01*
X141327142Y-85733333D01*
X141374761Y-85780952D01*
X141422380Y-85876190D01*
X141422380Y-86114285D01*
X141374761Y-86209523D01*
X141327142Y-86257142D01*
D11*
X151985714Y-91330428D02*
X151785714Y-91044714D01*
X151642857Y-91330428D02*
X151642857Y-90730428D01*
X151871428Y-90730428D01*
X151928571Y-90759000D01*
X151957142Y-90787571D01*
X151985714Y-90844714D01*
X151985714Y-90930428D01*
X151957142Y-90987571D01*
X151928571Y-91016142D01*
X151871428Y-91044714D01*
X151642857Y-91044714D01*
X152242857Y-91330428D02*
X152242857Y-90730428D01*
X152585714Y-91330428D01*
X152585714Y-90730428D01*
X153185714Y-91330428D02*
X152842857Y-91330428D01*
X153014285Y-91330428D02*
X153014285Y-90730428D01*
X152957142Y-90816142D01*
X152900000Y-90873285D01*
X152842857Y-90901857D01*
X155732214Y-91330428D02*
X155532214Y-91044714D01*
X155389357Y-91330428D02*
X155389357Y-90730428D01*
X155617928Y-90730428D01*
X155675071Y-90759000D01*
X155703642Y-90787571D01*
X155732214Y-90844714D01*
X155732214Y-90930428D01*
X155703642Y-90987571D01*
X155675071Y-91016142D01*
X155617928Y-91044714D01*
X155389357Y-91044714D01*
X155989357Y-91330428D02*
X155989357Y-90730428D01*
X156332214Y-91330428D01*
X156332214Y-90730428D01*
X156589357Y-90787571D02*
X156617928Y-90759000D01*
X156675071Y-90730428D01*
X156817928Y-90730428D01*
X156875071Y-90759000D01*
X156903642Y-90787571D01*
X156932214Y-90844714D01*
X156932214Y-90901857D01*
X156903642Y-90987571D01*
X156560785Y-91330428D01*
X156932214Y-91330428D01*
M02*
