G04 #@! TF.GenerationSoftware,KiCad,Pcbnew,(5.1.5)-3*
G04 #@! TF.CreationDate,2020-07-16T22:53:37-05:00*
G04 #@! TF.ProjectId,pcb,7063622e-6b69-4636-9164-5f7063625858,rev?*
G04 #@! TF.SameCoordinates,Original*
G04 #@! TF.FileFunction,Copper,L1,Top*
G04 #@! TF.FilePolarity,Positive*
%FSLAX46Y46*%
G04 Gerber Fmt 4.6, Leading zero omitted, Abs format (unit mm)*
G04 Created by KiCad (PCBNEW (5.1.5)-3) date 2020-07-16 22:53:37*
%MOMM*%
%LPD*%
G04 APERTURE LIST*
%ADD10C,1.000000*%
%ADD11C,1.600000*%
%ADD12C,1.524000*%
%ADD13C,0.100000*%
%ADD14R,0.500000X0.800000*%
%ADD15R,0.400000X0.800000*%
%ADD16C,0.800000*%
%ADD17C,0.250000*%
G04 APERTURE END LIST*
D10*
X140081000Y-94805500D03*
X141981000Y-94805500D03*
D11*
X162380000Y-91725000D03*
X162380000Y-86075000D03*
D12*
X148590000Y-94550000D03*
X151130000Y-94550000D03*
X153670000Y-94550000D03*
X156210000Y-94550000D03*
X158750000Y-94550000D03*
X161290000Y-94550000D03*
X161290000Y-83250000D03*
X158742000Y-83250000D03*
X156194000Y-83250000D03*
X153646000Y-83250000D03*
X151098000Y-83250000D03*
X148550000Y-83250000D03*
G04 #@! TA.AperFunction,SMDPad,CuDef*
D13*
G36*
X139334703Y-93045722D02*
G01*
X139349264Y-93047882D01*
X139363543Y-93051459D01*
X139377403Y-93056418D01*
X139390710Y-93062712D01*
X139403336Y-93070280D01*
X139415159Y-93079048D01*
X139426066Y-93088934D01*
X139435952Y-93099841D01*
X139444720Y-93111664D01*
X139452288Y-93124290D01*
X139458582Y-93137597D01*
X139463541Y-93151457D01*
X139467118Y-93165736D01*
X139469278Y-93180297D01*
X139470000Y-93195000D01*
X139470000Y-93495000D01*
X139469278Y-93509703D01*
X139467118Y-93524264D01*
X139463541Y-93538543D01*
X139458582Y-93552403D01*
X139452288Y-93565710D01*
X139444720Y-93578336D01*
X139435952Y-93590159D01*
X139426066Y-93601066D01*
X139415159Y-93610952D01*
X139403336Y-93619720D01*
X139390710Y-93627288D01*
X139377403Y-93633582D01*
X139363543Y-93638541D01*
X139349264Y-93642118D01*
X139334703Y-93644278D01*
X139320000Y-93645000D01*
X137670000Y-93645000D01*
X137655297Y-93644278D01*
X137640736Y-93642118D01*
X137626457Y-93638541D01*
X137612597Y-93633582D01*
X137599290Y-93627288D01*
X137586664Y-93619720D01*
X137574841Y-93610952D01*
X137563934Y-93601066D01*
X137554048Y-93590159D01*
X137545280Y-93578336D01*
X137537712Y-93565710D01*
X137531418Y-93552403D01*
X137526459Y-93538543D01*
X137522882Y-93524264D01*
X137520722Y-93509703D01*
X137520000Y-93495000D01*
X137520000Y-93195000D01*
X137520722Y-93180297D01*
X137522882Y-93165736D01*
X137526459Y-93151457D01*
X137531418Y-93137597D01*
X137537712Y-93124290D01*
X137545280Y-93111664D01*
X137554048Y-93099841D01*
X137563934Y-93088934D01*
X137574841Y-93079048D01*
X137586664Y-93070280D01*
X137599290Y-93062712D01*
X137612597Y-93056418D01*
X137626457Y-93051459D01*
X137640736Y-93047882D01*
X137655297Y-93045722D01*
X137670000Y-93045000D01*
X139320000Y-93045000D01*
X139334703Y-93045722D01*
G37*
G04 #@! TD.AperFunction*
G04 #@! TA.AperFunction,SMDPad,CuDef*
G36*
X139334703Y-91775722D02*
G01*
X139349264Y-91777882D01*
X139363543Y-91781459D01*
X139377403Y-91786418D01*
X139390710Y-91792712D01*
X139403336Y-91800280D01*
X139415159Y-91809048D01*
X139426066Y-91818934D01*
X139435952Y-91829841D01*
X139444720Y-91841664D01*
X139452288Y-91854290D01*
X139458582Y-91867597D01*
X139463541Y-91881457D01*
X139467118Y-91895736D01*
X139469278Y-91910297D01*
X139470000Y-91925000D01*
X139470000Y-92225000D01*
X139469278Y-92239703D01*
X139467118Y-92254264D01*
X139463541Y-92268543D01*
X139458582Y-92282403D01*
X139452288Y-92295710D01*
X139444720Y-92308336D01*
X139435952Y-92320159D01*
X139426066Y-92331066D01*
X139415159Y-92340952D01*
X139403336Y-92349720D01*
X139390710Y-92357288D01*
X139377403Y-92363582D01*
X139363543Y-92368541D01*
X139349264Y-92372118D01*
X139334703Y-92374278D01*
X139320000Y-92375000D01*
X137670000Y-92375000D01*
X137655297Y-92374278D01*
X137640736Y-92372118D01*
X137626457Y-92368541D01*
X137612597Y-92363582D01*
X137599290Y-92357288D01*
X137586664Y-92349720D01*
X137574841Y-92340952D01*
X137563934Y-92331066D01*
X137554048Y-92320159D01*
X137545280Y-92308336D01*
X137537712Y-92295710D01*
X137531418Y-92282403D01*
X137526459Y-92268543D01*
X137522882Y-92254264D01*
X137520722Y-92239703D01*
X137520000Y-92225000D01*
X137520000Y-91925000D01*
X137520722Y-91910297D01*
X137522882Y-91895736D01*
X137526459Y-91881457D01*
X137531418Y-91867597D01*
X137537712Y-91854290D01*
X137545280Y-91841664D01*
X137554048Y-91829841D01*
X137563934Y-91818934D01*
X137574841Y-91809048D01*
X137586664Y-91800280D01*
X137599290Y-91792712D01*
X137612597Y-91786418D01*
X137626457Y-91781459D01*
X137640736Y-91777882D01*
X137655297Y-91775722D01*
X137670000Y-91775000D01*
X139320000Y-91775000D01*
X139334703Y-91775722D01*
G37*
G04 #@! TD.AperFunction*
G04 #@! TA.AperFunction,SMDPad,CuDef*
G36*
X139334703Y-90505722D02*
G01*
X139349264Y-90507882D01*
X139363543Y-90511459D01*
X139377403Y-90516418D01*
X139390710Y-90522712D01*
X139403336Y-90530280D01*
X139415159Y-90539048D01*
X139426066Y-90548934D01*
X139435952Y-90559841D01*
X139444720Y-90571664D01*
X139452288Y-90584290D01*
X139458582Y-90597597D01*
X139463541Y-90611457D01*
X139467118Y-90625736D01*
X139469278Y-90640297D01*
X139470000Y-90655000D01*
X139470000Y-90955000D01*
X139469278Y-90969703D01*
X139467118Y-90984264D01*
X139463541Y-90998543D01*
X139458582Y-91012403D01*
X139452288Y-91025710D01*
X139444720Y-91038336D01*
X139435952Y-91050159D01*
X139426066Y-91061066D01*
X139415159Y-91070952D01*
X139403336Y-91079720D01*
X139390710Y-91087288D01*
X139377403Y-91093582D01*
X139363543Y-91098541D01*
X139349264Y-91102118D01*
X139334703Y-91104278D01*
X139320000Y-91105000D01*
X137670000Y-91105000D01*
X137655297Y-91104278D01*
X137640736Y-91102118D01*
X137626457Y-91098541D01*
X137612597Y-91093582D01*
X137599290Y-91087288D01*
X137586664Y-91079720D01*
X137574841Y-91070952D01*
X137563934Y-91061066D01*
X137554048Y-91050159D01*
X137545280Y-91038336D01*
X137537712Y-91025710D01*
X137531418Y-91012403D01*
X137526459Y-90998543D01*
X137522882Y-90984264D01*
X137520722Y-90969703D01*
X137520000Y-90955000D01*
X137520000Y-90655000D01*
X137520722Y-90640297D01*
X137522882Y-90625736D01*
X137526459Y-90611457D01*
X137531418Y-90597597D01*
X137537712Y-90584290D01*
X137545280Y-90571664D01*
X137554048Y-90559841D01*
X137563934Y-90548934D01*
X137574841Y-90539048D01*
X137586664Y-90530280D01*
X137599290Y-90522712D01*
X137612597Y-90516418D01*
X137626457Y-90511459D01*
X137640736Y-90507882D01*
X137655297Y-90505722D01*
X137670000Y-90505000D01*
X139320000Y-90505000D01*
X139334703Y-90505722D01*
G37*
G04 #@! TD.AperFunction*
G04 #@! TA.AperFunction,SMDPad,CuDef*
G36*
X139334703Y-89235722D02*
G01*
X139349264Y-89237882D01*
X139363543Y-89241459D01*
X139377403Y-89246418D01*
X139390710Y-89252712D01*
X139403336Y-89260280D01*
X139415159Y-89269048D01*
X139426066Y-89278934D01*
X139435952Y-89289841D01*
X139444720Y-89301664D01*
X139452288Y-89314290D01*
X139458582Y-89327597D01*
X139463541Y-89341457D01*
X139467118Y-89355736D01*
X139469278Y-89370297D01*
X139470000Y-89385000D01*
X139470000Y-89685000D01*
X139469278Y-89699703D01*
X139467118Y-89714264D01*
X139463541Y-89728543D01*
X139458582Y-89742403D01*
X139452288Y-89755710D01*
X139444720Y-89768336D01*
X139435952Y-89780159D01*
X139426066Y-89791066D01*
X139415159Y-89800952D01*
X139403336Y-89809720D01*
X139390710Y-89817288D01*
X139377403Y-89823582D01*
X139363543Y-89828541D01*
X139349264Y-89832118D01*
X139334703Y-89834278D01*
X139320000Y-89835000D01*
X137670000Y-89835000D01*
X137655297Y-89834278D01*
X137640736Y-89832118D01*
X137626457Y-89828541D01*
X137612597Y-89823582D01*
X137599290Y-89817288D01*
X137586664Y-89809720D01*
X137574841Y-89800952D01*
X137563934Y-89791066D01*
X137554048Y-89780159D01*
X137545280Y-89768336D01*
X137537712Y-89755710D01*
X137531418Y-89742403D01*
X137526459Y-89728543D01*
X137522882Y-89714264D01*
X137520722Y-89699703D01*
X137520000Y-89685000D01*
X137520000Y-89385000D01*
X137520722Y-89370297D01*
X137522882Y-89355736D01*
X137526459Y-89341457D01*
X137531418Y-89327597D01*
X137537712Y-89314290D01*
X137545280Y-89301664D01*
X137554048Y-89289841D01*
X137563934Y-89278934D01*
X137574841Y-89269048D01*
X137586664Y-89260280D01*
X137599290Y-89252712D01*
X137612597Y-89246418D01*
X137626457Y-89241459D01*
X137640736Y-89237882D01*
X137655297Y-89235722D01*
X137670000Y-89235000D01*
X139320000Y-89235000D01*
X139334703Y-89235722D01*
G37*
G04 #@! TD.AperFunction*
G04 #@! TA.AperFunction,SMDPad,CuDef*
G36*
X139334703Y-87965722D02*
G01*
X139349264Y-87967882D01*
X139363543Y-87971459D01*
X139377403Y-87976418D01*
X139390710Y-87982712D01*
X139403336Y-87990280D01*
X139415159Y-87999048D01*
X139426066Y-88008934D01*
X139435952Y-88019841D01*
X139444720Y-88031664D01*
X139452288Y-88044290D01*
X139458582Y-88057597D01*
X139463541Y-88071457D01*
X139467118Y-88085736D01*
X139469278Y-88100297D01*
X139470000Y-88115000D01*
X139470000Y-88415000D01*
X139469278Y-88429703D01*
X139467118Y-88444264D01*
X139463541Y-88458543D01*
X139458582Y-88472403D01*
X139452288Y-88485710D01*
X139444720Y-88498336D01*
X139435952Y-88510159D01*
X139426066Y-88521066D01*
X139415159Y-88530952D01*
X139403336Y-88539720D01*
X139390710Y-88547288D01*
X139377403Y-88553582D01*
X139363543Y-88558541D01*
X139349264Y-88562118D01*
X139334703Y-88564278D01*
X139320000Y-88565000D01*
X137670000Y-88565000D01*
X137655297Y-88564278D01*
X137640736Y-88562118D01*
X137626457Y-88558541D01*
X137612597Y-88553582D01*
X137599290Y-88547288D01*
X137586664Y-88539720D01*
X137574841Y-88530952D01*
X137563934Y-88521066D01*
X137554048Y-88510159D01*
X137545280Y-88498336D01*
X137537712Y-88485710D01*
X137531418Y-88472403D01*
X137526459Y-88458543D01*
X137522882Y-88444264D01*
X137520722Y-88429703D01*
X137520000Y-88415000D01*
X137520000Y-88115000D01*
X137520722Y-88100297D01*
X137522882Y-88085736D01*
X137526459Y-88071457D01*
X137531418Y-88057597D01*
X137537712Y-88044290D01*
X137545280Y-88031664D01*
X137554048Y-88019841D01*
X137563934Y-88008934D01*
X137574841Y-87999048D01*
X137586664Y-87990280D01*
X137599290Y-87982712D01*
X137612597Y-87976418D01*
X137626457Y-87971459D01*
X137640736Y-87967882D01*
X137655297Y-87965722D01*
X137670000Y-87965000D01*
X139320000Y-87965000D01*
X139334703Y-87965722D01*
G37*
G04 #@! TD.AperFunction*
G04 #@! TA.AperFunction,SMDPad,CuDef*
G36*
X139334703Y-86695722D02*
G01*
X139349264Y-86697882D01*
X139363543Y-86701459D01*
X139377403Y-86706418D01*
X139390710Y-86712712D01*
X139403336Y-86720280D01*
X139415159Y-86729048D01*
X139426066Y-86738934D01*
X139435952Y-86749841D01*
X139444720Y-86761664D01*
X139452288Y-86774290D01*
X139458582Y-86787597D01*
X139463541Y-86801457D01*
X139467118Y-86815736D01*
X139469278Y-86830297D01*
X139470000Y-86845000D01*
X139470000Y-87145000D01*
X139469278Y-87159703D01*
X139467118Y-87174264D01*
X139463541Y-87188543D01*
X139458582Y-87202403D01*
X139452288Y-87215710D01*
X139444720Y-87228336D01*
X139435952Y-87240159D01*
X139426066Y-87251066D01*
X139415159Y-87260952D01*
X139403336Y-87269720D01*
X139390710Y-87277288D01*
X139377403Y-87283582D01*
X139363543Y-87288541D01*
X139349264Y-87292118D01*
X139334703Y-87294278D01*
X139320000Y-87295000D01*
X137670000Y-87295000D01*
X137655297Y-87294278D01*
X137640736Y-87292118D01*
X137626457Y-87288541D01*
X137612597Y-87283582D01*
X137599290Y-87277288D01*
X137586664Y-87269720D01*
X137574841Y-87260952D01*
X137563934Y-87251066D01*
X137554048Y-87240159D01*
X137545280Y-87228336D01*
X137537712Y-87215710D01*
X137531418Y-87202403D01*
X137526459Y-87188543D01*
X137522882Y-87174264D01*
X137520722Y-87159703D01*
X137520000Y-87145000D01*
X137520000Y-86845000D01*
X137520722Y-86830297D01*
X137522882Y-86815736D01*
X137526459Y-86801457D01*
X137531418Y-86787597D01*
X137537712Y-86774290D01*
X137545280Y-86761664D01*
X137554048Y-86749841D01*
X137563934Y-86738934D01*
X137574841Y-86729048D01*
X137586664Y-86720280D01*
X137599290Y-86712712D01*
X137612597Y-86706418D01*
X137626457Y-86701459D01*
X137640736Y-86697882D01*
X137655297Y-86695722D01*
X137670000Y-86695000D01*
X139320000Y-86695000D01*
X139334703Y-86695722D01*
G37*
G04 #@! TD.AperFunction*
G04 #@! TA.AperFunction,SMDPad,CuDef*
G36*
X139334703Y-85425722D02*
G01*
X139349264Y-85427882D01*
X139363543Y-85431459D01*
X139377403Y-85436418D01*
X139390710Y-85442712D01*
X139403336Y-85450280D01*
X139415159Y-85459048D01*
X139426066Y-85468934D01*
X139435952Y-85479841D01*
X139444720Y-85491664D01*
X139452288Y-85504290D01*
X139458582Y-85517597D01*
X139463541Y-85531457D01*
X139467118Y-85545736D01*
X139469278Y-85560297D01*
X139470000Y-85575000D01*
X139470000Y-85875000D01*
X139469278Y-85889703D01*
X139467118Y-85904264D01*
X139463541Y-85918543D01*
X139458582Y-85932403D01*
X139452288Y-85945710D01*
X139444720Y-85958336D01*
X139435952Y-85970159D01*
X139426066Y-85981066D01*
X139415159Y-85990952D01*
X139403336Y-85999720D01*
X139390710Y-86007288D01*
X139377403Y-86013582D01*
X139363543Y-86018541D01*
X139349264Y-86022118D01*
X139334703Y-86024278D01*
X139320000Y-86025000D01*
X137670000Y-86025000D01*
X137655297Y-86024278D01*
X137640736Y-86022118D01*
X137626457Y-86018541D01*
X137612597Y-86013582D01*
X137599290Y-86007288D01*
X137586664Y-85999720D01*
X137574841Y-85990952D01*
X137563934Y-85981066D01*
X137554048Y-85970159D01*
X137545280Y-85958336D01*
X137537712Y-85945710D01*
X137531418Y-85932403D01*
X137526459Y-85918543D01*
X137522882Y-85904264D01*
X137520722Y-85889703D01*
X137520000Y-85875000D01*
X137520000Y-85575000D01*
X137520722Y-85560297D01*
X137522882Y-85545736D01*
X137526459Y-85531457D01*
X137531418Y-85517597D01*
X137537712Y-85504290D01*
X137545280Y-85491664D01*
X137554048Y-85479841D01*
X137563934Y-85468934D01*
X137574841Y-85459048D01*
X137586664Y-85450280D01*
X137599290Y-85442712D01*
X137612597Y-85436418D01*
X137626457Y-85431459D01*
X137640736Y-85427882D01*
X137655297Y-85425722D01*
X137670000Y-85425000D01*
X139320000Y-85425000D01*
X139334703Y-85425722D01*
G37*
G04 #@! TD.AperFunction*
G04 #@! TA.AperFunction,SMDPad,CuDef*
G36*
X139334703Y-84155722D02*
G01*
X139349264Y-84157882D01*
X139363543Y-84161459D01*
X139377403Y-84166418D01*
X139390710Y-84172712D01*
X139403336Y-84180280D01*
X139415159Y-84189048D01*
X139426066Y-84198934D01*
X139435952Y-84209841D01*
X139444720Y-84221664D01*
X139452288Y-84234290D01*
X139458582Y-84247597D01*
X139463541Y-84261457D01*
X139467118Y-84275736D01*
X139469278Y-84290297D01*
X139470000Y-84305000D01*
X139470000Y-84605000D01*
X139469278Y-84619703D01*
X139467118Y-84634264D01*
X139463541Y-84648543D01*
X139458582Y-84662403D01*
X139452288Y-84675710D01*
X139444720Y-84688336D01*
X139435952Y-84700159D01*
X139426066Y-84711066D01*
X139415159Y-84720952D01*
X139403336Y-84729720D01*
X139390710Y-84737288D01*
X139377403Y-84743582D01*
X139363543Y-84748541D01*
X139349264Y-84752118D01*
X139334703Y-84754278D01*
X139320000Y-84755000D01*
X137670000Y-84755000D01*
X137655297Y-84754278D01*
X137640736Y-84752118D01*
X137626457Y-84748541D01*
X137612597Y-84743582D01*
X137599290Y-84737288D01*
X137586664Y-84729720D01*
X137574841Y-84720952D01*
X137563934Y-84711066D01*
X137554048Y-84700159D01*
X137545280Y-84688336D01*
X137537712Y-84675710D01*
X137531418Y-84662403D01*
X137526459Y-84648543D01*
X137522882Y-84634264D01*
X137520722Y-84619703D01*
X137520000Y-84605000D01*
X137520000Y-84305000D01*
X137520722Y-84290297D01*
X137522882Y-84275736D01*
X137526459Y-84261457D01*
X137531418Y-84247597D01*
X137537712Y-84234290D01*
X137545280Y-84221664D01*
X137554048Y-84209841D01*
X137563934Y-84198934D01*
X137574841Y-84189048D01*
X137586664Y-84180280D01*
X137599290Y-84172712D01*
X137612597Y-84166418D01*
X137626457Y-84161459D01*
X137640736Y-84157882D01*
X137655297Y-84155722D01*
X137670000Y-84155000D01*
X139320000Y-84155000D01*
X139334703Y-84155722D01*
G37*
G04 #@! TD.AperFunction*
G04 #@! TA.AperFunction,SMDPad,CuDef*
G36*
X144284703Y-84155722D02*
G01*
X144299264Y-84157882D01*
X144313543Y-84161459D01*
X144327403Y-84166418D01*
X144340710Y-84172712D01*
X144353336Y-84180280D01*
X144365159Y-84189048D01*
X144376066Y-84198934D01*
X144385952Y-84209841D01*
X144394720Y-84221664D01*
X144402288Y-84234290D01*
X144408582Y-84247597D01*
X144413541Y-84261457D01*
X144417118Y-84275736D01*
X144419278Y-84290297D01*
X144420000Y-84305000D01*
X144420000Y-84605000D01*
X144419278Y-84619703D01*
X144417118Y-84634264D01*
X144413541Y-84648543D01*
X144408582Y-84662403D01*
X144402288Y-84675710D01*
X144394720Y-84688336D01*
X144385952Y-84700159D01*
X144376066Y-84711066D01*
X144365159Y-84720952D01*
X144353336Y-84729720D01*
X144340710Y-84737288D01*
X144327403Y-84743582D01*
X144313543Y-84748541D01*
X144299264Y-84752118D01*
X144284703Y-84754278D01*
X144270000Y-84755000D01*
X142620000Y-84755000D01*
X142605297Y-84754278D01*
X142590736Y-84752118D01*
X142576457Y-84748541D01*
X142562597Y-84743582D01*
X142549290Y-84737288D01*
X142536664Y-84729720D01*
X142524841Y-84720952D01*
X142513934Y-84711066D01*
X142504048Y-84700159D01*
X142495280Y-84688336D01*
X142487712Y-84675710D01*
X142481418Y-84662403D01*
X142476459Y-84648543D01*
X142472882Y-84634264D01*
X142470722Y-84619703D01*
X142470000Y-84605000D01*
X142470000Y-84305000D01*
X142470722Y-84290297D01*
X142472882Y-84275736D01*
X142476459Y-84261457D01*
X142481418Y-84247597D01*
X142487712Y-84234290D01*
X142495280Y-84221664D01*
X142504048Y-84209841D01*
X142513934Y-84198934D01*
X142524841Y-84189048D01*
X142536664Y-84180280D01*
X142549290Y-84172712D01*
X142562597Y-84166418D01*
X142576457Y-84161459D01*
X142590736Y-84157882D01*
X142605297Y-84155722D01*
X142620000Y-84155000D01*
X144270000Y-84155000D01*
X144284703Y-84155722D01*
G37*
G04 #@! TD.AperFunction*
G04 #@! TA.AperFunction,SMDPad,CuDef*
G36*
X144284703Y-85425722D02*
G01*
X144299264Y-85427882D01*
X144313543Y-85431459D01*
X144327403Y-85436418D01*
X144340710Y-85442712D01*
X144353336Y-85450280D01*
X144365159Y-85459048D01*
X144376066Y-85468934D01*
X144385952Y-85479841D01*
X144394720Y-85491664D01*
X144402288Y-85504290D01*
X144408582Y-85517597D01*
X144413541Y-85531457D01*
X144417118Y-85545736D01*
X144419278Y-85560297D01*
X144420000Y-85575000D01*
X144420000Y-85875000D01*
X144419278Y-85889703D01*
X144417118Y-85904264D01*
X144413541Y-85918543D01*
X144408582Y-85932403D01*
X144402288Y-85945710D01*
X144394720Y-85958336D01*
X144385952Y-85970159D01*
X144376066Y-85981066D01*
X144365159Y-85990952D01*
X144353336Y-85999720D01*
X144340710Y-86007288D01*
X144327403Y-86013582D01*
X144313543Y-86018541D01*
X144299264Y-86022118D01*
X144284703Y-86024278D01*
X144270000Y-86025000D01*
X142620000Y-86025000D01*
X142605297Y-86024278D01*
X142590736Y-86022118D01*
X142576457Y-86018541D01*
X142562597Y-86013582D01*
X142549290Y-86007288D01*
X142536664Y-85999720D01*
X142524841Y-85990952D01*
X142513934Y-85981066D01*
X142504048Y-85970159D01*
X142495280Y-85958336D01*
X142487712Y-85945710D01*
X142481418Y-85932403D01*
X142476459Y-85918543D01*
X142472882Y-85904264D01*
X142470722Y-85889703D01*
X142470000Y-85875000D01*
X142470000Y-85575000D01*
X142470722Y-85560297D01*
X142472882Y-85545736D01*
X142476459Y-85531457D01*
X142481418Y-85517597D01*
X142487712Y-85504290D01*
X142495280Y-85491664D01*
X142504048Y-85479841D01*
X142513934Y-85468934D01*
X142524841Y-85459048D01*
X142536664Y-85450280D01*
X142549290Y-85442712D01*
X142562597Y-85436418D01*
X142576457Y-85431459D01*
X142590736Y-85427882D01*
X142605297Y-85425722D01*
X142620000Y-85425000D01*
X144270000Y-85425000D01*
X144284703Y-85425722D01*
G37*
G04 #@! TD.AperFunction*
G04 #@! TA.AperFunction,SMDPad,CuDef*
G36*
X144284703Y-86695722D02*
G01*
X144299264Y-86697882D01*
X144313543Y-86701459D01*
X144327403Y-86706418D01*
X144340710Y-86712712D01*
X144353336Y-86720280D01*
X144365159Y-86729048D01*
X144376066Y-86738934D01*
X144385952Y-86749841D01*
X144394720Y-86761664D01*
X144402288Y-86774290D01*
X144408582Y-86787597D01*
X144413541Y-86801457D01*
X144417118Y-86815736D01*
X144419278Y-86830297D01*
X144420000Y-86845000D01*
X144420000Y-87145000D01*
X144419278Y-87159703D01*
X144417118Y-87174264D01*
X144413541Y-87188543D01*
X144408582Y-87202403D01*
X144402288Y-87215710D01*
X144394720Y-87228336D01*
X144385952Y-87240159D01*
X144376066Y-87251066D01*
X144365159Y-87260952D01*
X144353336Y-87269720D01*
X144340710Y-87277288D01*
X144327403Y-87283582D01*
X144313543Y-87288541D01*
X144299264Y-87292118D01*
X144284703Y-87294278D01*
X144270000Y-87295000D01*
X142620000Y-87295000D01*
X142605297Y-87294278D01*
X142590736Y-87292118D01*
X142576457Y-87288541D01*
X142562597Y-87283582D01*
X142549290Y-87277288D01*
X142536664Y-87269720D01*
X142524841Y-87260952D01*
X142513934Y-87251066D01*
X142504048Y-87240159D01*
X142495280Y-87228336D01*
X142487712Y-87215710D01*
X142481418Y-87202403D01*
X142476459Y-87188543D01*
X142472882Y-87174264D01*
X142470722Y-87159703D01*
X142470000Y-87145000D01*
X142470000Y-86845000D01*
X142470722Y-86830297D01*
X142472882Y-86815736D01*
X142476459Y-86801457D01*
X142481418Y-86787597D01*
X142487712Y-86774290D01*
X142495280Y-86761664D01*
X142504048Y-86749841D01*
X142513934Y-86738934D01*
X142524841Y-86729048D01*
X142536664Y-86720280D01*
X142549290Y-86712712D01*
X142562597Y-86706418D01*
X142576457Y-86701459D01*
X142590736Y-86697882D01*
X142605297Y-86695722D01*
X142620000Y-86695000D01*
X144270000Y-86695000D01*
X144284703Y-86695722D01*
G37*
G04 #@! TD.AperFunction*
G04 #@! TA.AperFunction,SMDPad,CuDef*
G36*
X144284703Y-87965722D02*
G01*
X144299264Y-87967882D01*
X144313543Y-87971459D01*
X144327403Y-87976418D01*
X144340710Y-87982712D01*
X144353336Y-87990280D01*
X144365159Y-87999048D01*
X144376066Y-88008934D01*
X144385952Y-88019841D01*
X144394720Y-88031664D01*
X144402288Y-88044290D01*
X144408582Y-88057597D01*
X144413541Y-88071457D01*
X144417118Y-88085736D01*
X144419278Y-88100297D01*
X144420000Y-88115000D01*
X144420000Y-88415000D01*
X144419278Y-88429703D01*
X144417118Y-88444264D01*
X144413541Y-88458543D01*
X144408582Y-88472403D01*
X144402288Y-88485710D01*
X144394720Y-88498336D01*
X144385952Y-88510159D01*
X144376066Y-88521066D01*
X144365159Y-88530952D01*
X144353336Y-88539720D01*
X144340710Y-88547288D01*
X144327403Y-88553582D01*
X144313543Y-88558541D01*
X144299264Y-88562118D01*
X144284703Y-88564278D01*
X144270000Y-88565000D01*
X142620000Y-88565000D01*
X142605297Y-88564278D01*
X142590736Y-88562118D01*
X142576457Y-88558541D01*
X142562597Y-88553582D01*
X142549290Y-88547288D01*
X142536664Y-88539720D01*
X142524841Y-88530952D01*
X142513934Y-88521066D01*
X142504048Y-88510159D01*
X142495280Y-88498336D01*
X142487712Y-88485710D01*
X142481418Y-88472403D01*
X142476459Y-88458543D01*
X142472882Y-88444264D01*
X142470722Y-88429703D01*
X142470000Y-88415000D01*
X142470000Y-88115000D01*
X142470722Y-88100297D01*
X142472882Y-88085736D01*
X142476459Y-88071457D01*
X142481418Y-88057597D01*
X142487712Y-88044290D01*
X142495280Y-88031664D01*
X142504048Y-88019841D01*
X142513934Y-88008934D01*
X142524841Y-87999048D01*
X142536664Y-87990280D01*
X142549290Y-87982712D01*
X142562597Y-87976418D01*
X142576457Y-87971459D01*
X142590736Y-87967882D01*
X142605297Y-87965722D01*
X142620000Y-87965000D01*
X144270000Y-87965000D01*
X144284703Y-87965722D01*
G37*
G04 #@! TD.AperFunction*
G04 #@! TA.AperFunction,SMDPad,CuDef*
G36*
X144284703Y-89235722D02*
G01*
X144299264Y-89237882D01*
X144313543Y-89241459D01*
X144327403Y-89246418D01*
X144340710Y-89252712D01*
X144353336Y-89260280D01*
X144365159Y-89269048D01*
X144376066Y-89278934D01*
X144385952Y-89289841D01*
X144394720Y-89301664D01*
X144402288Y-89314290D01*
X144408582Y-89327597D01*
X144413541Y-89341457D01*
X144417118Y-89355736D01*
X144419278Y-89370297D01*
X144420000Y-89385000D01*
X144420000Y-89685000D01*
X144419278Y-89699703D01*
X144417118Y-89714264D01*
X144413541Y-89728543D01*
X144408582Y-89742403D01*
X144402288Y-89755710D01*
X144394720Y-89768336D01*
X144385952Y-89780159D01*
X144376066Y-89791066D01*
X144365159Y-89800952D01*
X144353336Y-89809720D01*
X144340710Y-89817288D01*
X144327403Y-89823582D01*
X144313543Y-89828541D01*
X144299264Y-89832118D01*
X144284703Y-89834278D01*
X144270000Y-89835000D01*
X142620000Y-89835000D01*
X142605297Y-89834278D01*
X142590736Y-89832118D01*
X142576457Y-89828541D01*
X142562597Y-89823582D01*
X142549290Y-89817288D01*
X142536664Y-89809720D01*
X142524841Y-89800952D01*
X142513934Y-89791066D01*
X142504048Y-89780159D01*
X142495280Y-89768336D01*
X142487712Y-89755710D01*
X142481418Y-89742403D01*
X142476459Y-89728543D01*
X142472882Y-89714264D01*
X142470722Y-89699703D01*
X142470000Y-89685000D01*
X142470000Y-89385000D01*
X142470722Y-89370297D01*
X142472882Y-89355736D01*
X142476459Y-89341457D01*
X142481418Y-89327597D01*
X142487712Y-89314290D01*
X142495280Y-89301664D01*
X142504048Y-89289841D01*
X142513934Y-89278934D01*
X142524841Y-89269048D01*
X142536664Y-89260280D01*
X142549290Y-89252712D01*
X142562597Y-89246418D01*
X142576457Y-89241459D01*
X142590736Y-89237882D01*
X142605297Y-89235722D01*
X142620000Y-89235000D01*
X144270000Y-89235000D01*
X144284703Y-89235722D01*
G37*
G04 #@! TD.AperFunction*
G04 #@! TA.AperFunction,SMDPad,CuDef*
G36*
X144284703Y-90505722D02*
G01*
X144299264Y-90507882D01*
X144313543Y-90511459D01*
X144327403Y-90516418D01*
X144340710Y-90522712D01*
X144353336Y-90530280D01*
X144365159Y-90539048D01*
X144376066Y-90548934D01*
X144385952Y-90559841D01*
X144394720Y-90571664D01*
X144402288Y-90584290D01*
X144408582Y-90597597D01*
X144413541Y-90611457D01*
X144417118Y-90625736D01*
X144419278Y-90640297D01*
X144420000Y-90655000D01*
X144420000Y-90955000D01*
X144419278Y-90969703D01*
X144417118Y-90984264D01*
X144413541Y-90998543D01*
X144408582Y-91012403D01*
X144402288Y-91025710D01*
X144394720Y-91038336D01*
X144385952Y-91050159D01*
X144376066Y-91061066D01*
X144365159Y-91070952D01*
X144353336Y-91079720D01*
X144340710Y-91087288D01*
X144327403Y-91093582D01*
X144313543Y-91098541D01*
X144299264Y-91102118D01*
X144284703Y-91104278D01*
X144270000Y-91105000D01*
X142620000Y-91105000D01*
X142605297Y-91104278D01*
X142590736Y-91102118D01*
X142576457Y-91098541D01*
X142562597Y-91093582D01*
X142549290Y-91087288D01*
X142536664Y-91079720D01*
X142524841Y-91070952D01*
X142513934Y-91061066D01*
X142504048Y-91050159D01*
X142495280Y-91038336D01*
X142487712Y-91025710D01*
X142481418Y-91012403D01*
X142476459Y-90998543D01*
X142472882Y-90984264D01*
X142470722Y-90969703D01*
X142470000Y-90955000D01*
X142470000Y-90655000D01*
X142470722Y-90640297D01*
X142472882Y-90625736D01*
X142476459Y-90611457D01*
X142481418Y-90597597D01*
X142487712Y-90584290D01*
X142495280Y-90571664D01*
X142504048Y-90559841D01*
X142513934Y-90548934D01*
X142524841Y-90539048D01*
X142536664Y-90530280D01*
X142549290Y-90522712D01*
X142562597Y-90516418D01*
X142576457Y-90511459D01*
X142590736Y-90507882D01*
X142605297Y-90505722D01*
X142620000Y-90505000D01*
X144270000Y-90505000D01*
X144284703Y-90505722D01*
G37*
G04 #@! TD.AperFunction*
G04 #@! TA.AperFunction,SMDPad,CuDef*
G36*
X144284703Y-91775722D02*
G01*
X144299264Y-91777882D01*
X144313543Y-91781459D01*
X144327403Y-91786418D01*
X144340710Y-91792712D01*
X144353336Y-91800280D01*
X144365159Y-91809048D01*
X144376066Y-91818934D01*
X144385952Y-91829841D01*
X144394720Y-91841664D01*
X144402288Y-91854290D01*
X144408582Y-91867597D01*
X144413541Y-91881457D01*
X144417118Y-91895736D01*
X144419278Y-91910297D01*
X144420000Y-91925000D01*
X144420000Y-92225000D01*
X144419278Y-92239703D01*
X144417118Y-92254264D01*
X144413541Y-92268543D01*
X144408582Y-92282403D01*
X144402288Y-92295710D01*
X144394720Y-92308336D01*
X144385952Y-92320159D01*
X144376066Y-92331066D01*
X144365159Y-92340952D01*
X144353336Y-92349720D01*
X144340710Y-92357288D01*
X144327403Y-92363582D01*
X144313543Y-92368541D01*
X144299264Y-92372118D01*
X144284703Y-92374278D01*
X144270000Y-92375000D01*
X142620000Y-92375000D01*
X142605297Y-92374278D01*
X142590736Y-92372118D01*
X142576457Y-92368541D01*
X142562597Y-92363582D01*
X142549290Y-92357288D01*
X142536664Y-92349720D01*
X142524841Y-92340952D01*
X142513934Y-92331066D01*
X142504048Y-92320159D01*
X142495280Y-92308336D01*
X142487712Y-92295710D01*
X142481418Y-92282403D01*
X142476459Y-92268543D01*
X142472882Y-92254264D01*
X142470722Y-92239703D01*
X142470000Y-92225000D01*
X142470000Y-91925000D01*
X142470722Y-91910297D01*
X142472882Y-91895736D01*
X142476459Y-91881457D01*
X142481418Y-91867597D01*
X142487712Y-91854290D01*
X142495280Y-91841664D01*
X142504048Y-91829841D01*
X142513934Y-91818934D01*
X142524841Y-91809048D01*
X142536664Y-91800280D01*
X142549290Y-91792712D01*
X142562597Y-91786418D01*
X142576457Y-91781459D01*
X142590736Y-91777882D01*
X142605297Y-91775722D01*
X142620000Y-91775000D01*
X144270000Y-91775000D01*
X144284703Y-91775722D01*
G37*
G04 #@! TD.AperFunction*
G04 #@! TA.AperFunction,SMDPad,CuDef*
G36*
X144284703Y-93045722D02*
G01*
X144299264Y-93047882D01*
X144313543Y-93051459D01*
X144327403Y-93056418D01*
X144340710Y-93062712D01*
X144353336Y-93070280D01*
X144365159Y-93079048D01*
X144376066Y-93088934D01*
X144385952Y-93099841D01*
X144394720Y-93111664D01*
X144402288Y-93124290D01*
X144408582Y-93137597D01*
X144413541Y-93151457D01*
X144417118Y-93165736D01*
X144419278Y-93180297D01*
X144420000Y-93195000D01*
X144420000Y-93495000D01*
X144419278Y-93509703D01*
X144417118Y-93524264D01*
X144413541Y-93538543D01*
X144408582Y-93552403D01*
X144402288Y-93565710D01*
X144394720Y-93578336D01*
X144385952Y-93590159D01*
X144376066Y-93601066D01*
X144365159Y-93610952D01*
X144353336Y-93619720D01*
X144340710Y-93627288D01*
X144327403Y-93633582D01*
X144313543Y-93638541D01*
X144299264Y-93642118D01*
X144284703Y-93644278D01*
X144270000Y-93645000D01*
X142620000Y-93645000D01*
X142605297Y-93644278D01*
X142590736Y-93642118D01*
X142576457Y-93638541D01*
X142562597Y-93633582D01*
X142549290Y-93627288D01*
X142536664Y-93619720D01*
X142524841Y-93610952D01*
X142513934Y-93601066D01*
X142504048Y-93590159D01*
X142495280Y-93578336D01*
X142487712Y-93565710D01*
X142481418Y-93552403D01*
X142476459Y-93538543D01*
X142472882Y-93524264D01*
X142470722Y-93509703D01*
X142470000Y-93495000D01*
X142470000Y-93195000D01*
X142470722Y-93180297D01*
X142472882Y-93165736D01*
X142476459Y-93151457D01*
X142481418Y-93137597D01*
X142487712Y-93124290D01*
X142495280Y-93111664D01*
X142504048Y-93099841D01*
X142513934Y-93088934D01*
X142524841Y-93079048D01*
X142536664Y-93070280D01*
X142549290Y-93062712D01*
X142562597Y-93056418D01*
X142576457Y-93051459D01*
X142590736Y-93047882D01*
X142605297Y-93045722D01*
X142620000Y-93045000D01*
X144270000Y-93045000D01*
X144284703Y-93045722D01*
G37*
G04 #@! TD.AperFunction*
D14*
X151200000Y-91959000D03*
D15*
X152800000Y-91959000D03*
X152000000Y-91959000D03*
D14*
X153600000Y-91959000D03*
D15*
X152000000Y-90159000D03*
D14*
X151200000Y-90159000D03*
D15*
X152800000Y-90159000D03*
D14*
X153600000Y-90159000D03*
X157346500Y-90159000D03*
D15*
X156546500Y-90159000D03*
D14*
X154946500Y-90159000D03*
D15*
X155746500Y-90159000D03*
D14*
X157346500Y-91959000D03*
D15*
X155746500Y-91959000D03*
X156546500Y-91959000D03*
D14*
X154946500Y-91959000D03*
D16*
X139636500Y-85725000D03*
X140398500Y-92392500D03*
X151765000Y-87630000D03*
X154305000Y-87630000D03*
X153035000Y-87630000D03*
X155575000Y-87630000D03*
X139636500Y-90805000D03*
X139636500Y-88265000D03*
X139636500Y-86995000D03*
X135890000Y-93345000D03*
X135890000Y-84455000D03*
X146050000Y-83185000D03*
X146939000Y-94805500D03*
X150495000Y-88519000D03*
X158750000Y-92075000D03*
X154334256Y-89262460D03*
X157607000Y-90932000D03*
X155257500Y-93154500D03*
X156591000Y-90932000D03*
X141187000Y-90360500D03*
X142240000Y-85962021D03*
X141097000Y-91503500D03*
X142240000Y-87249000D03*
X146939000Y-89598500D03*
X145542000Y-91630500D03*
D17*
X139636500Y-85725000D02*
X138495000Y-85725000D01*
X139065000Y-93345000D02*
X138495000Y-93345000D01*
X139255500Y-93345000D02*
X139319000Y-93281500D01*
X138495000Y-93345000D02*
X139255500Y-93345000D01*
X139319000Y-93281500D02*
X139325400Y-93345000D01*
X139470000Y-93345000D02*
X138495000Y-93345000D01*
X140011685Y-93345000D02*
X139470000Y-93345000D01*
X140398500Y-92958185D02*
X140011685Y-93345000D01*
X140398500Y-92392500D02*
X140398500Y-92958185D01*
X138495000Y-90805000D02*
X139636500Y-90805000D01*
X139636500Y-88265000D02*
X138495000Y-88265000D01*
X138495000Y-86995000D02*
X139636500Y-86995000D01*
X151365001Y-88029999D02*
X151765000Y-87630000D01*
X151365001Y-89103001D02*
X151365001Y-88029999D01*
X151200000Y-89268002D02*
X151365001Y-89103001D01*
X151200000Y-90159000D02*
X151200000Y-89268002D01*
X152800000Y-89135000D02*
X154305000Y-87630000D01*
X152800000Y-90159000D02*
X152800000Y-89135000D01*
X152000000Y-88665000D02*
X153035000Y-87630000D01*
X152000000Y-90159000D02*
X152000000Y-88665000D01*
X155575000Y-87630000D02*
X154849999Y-88355001D01*
X154849999Y-88355001D02*
X154216409Y-88355001D01*
X153600000Y-89147500D02*
X153600000Y-90159000D01*
X153600000Y-88971410D02*
X154210455Y-88360955D01*
X153600000Y-90159000D02*
X153600000Y-88971410D01*
X154334256Y-91846756D02*
X154334256Y-89262460D01*
X154946500Y-91959000D02*
X154446500Y-91959000D01*
X154446500Y-91959000D02*
X154334256Y-91846756D01*
X157346500Y-90159000D02*
X157346500Y-90481000D01*
X157346500Y-90671500D02*
X157607000Y-90932000D01*
X157346500Y-90159000D02*
X157346500Y-90671500D01*
X155746500Y-92792500D02*
X155384500Y-93154500D01*
X155746500Y-91959000D02*
X155746500Y-92792500D01*
X156527500Y-90521000D02*
X156546500Y-90540000D01*
X156546500Y-90887500D02*
X156591000Y-90932000D01*
X156546500Y-90159000D02*
X156546500Y-90887500D01*
X138495000Y-92075000D02*
X139065000Y-92075000D01*
X156194000Y-83250000D02*
X153084000Y-86360000D01*
X153084000Y-86360000D02*
X151320500Y-86360000D01*
X143445000Y-89535000D02*
X140939498Y-89535000D01*
X139503002Y-92075000D02*
X139470000Y-92075000D01*
X140939498Y-89535000D02*
X140461999Y-90012499D01*
X139470000Y-92075000D02*
X138495000Y-92075000D01*
X140461999Y-91059001D02*
X139573000Y-91948000D01*
X140461999Y-90012499D02*
X140461999Y-91059001D01*
X139573000Y-91948000D02*
X139503002Y-92075000D01*
X147356999Y-90323501D02*
X151320500Y-86360000D01*
X146273499Y-90323501D02*
X147356999Y-90323501D01*
X145484998Y-89535000D02*
X143445000Y-89535000D01*
X146273499Y-90323501D02*
X145484998Y-89535000D01*
X144612630Y-85725000D02*
X144420000Y-85725000D01*
X143445000Y-90805000D02*
X143068232Y-90805000D01*
X143445000Y-85725000D02*
X142875000Y-85725000D01*
X142875000Y-85725000D02*
X142875000Y-85918232D01*
X143445000Y-90805000D02*
X142102425Y-90805000D01*
X143445000Y-85725000D02*
X142477021Y-85725000D01*
X142477021Y-85725000D02*
X142240000Y-85962021D01*
X143445000Y-90805000D02*
X141822000Y-90805000D01*
X144420000Y-85725000D02*
X143445000Y-85725000D01*
X146075000Y-85725000D02*
X148550000Y-83250000D01*
X143445000Y-85725000D02*
X146075000Y-85725000D01*
X141631500Y-90805000D02*
X141187000Y-90360500D01*
X143445000Y-90805000D02*
X141631500Y-90805000D01*
X144813000Y-86995000D02*
X143445000Y-86995000D01*
X143445000Y-92075000D02*
X142748000Y-92075000D01*
X142748000Y-92075000D02*
X142113000Y-92075000D01*
X142494000Y-86995000D02*
X142240000Y-87249000D01*
X143445000Y-86995000D02*
X142494000Y-86995000D01*
X142113000Y-92075000D02*
X141859000Y-92075000D01*
X147353000Y-86995000D02*
X151098000Y-83250000D01*
X143445000Y-86995000D02*
X147353000Y-86995000D01*
X141668500Y-92075000D02*
X141097000Y-91503500D01*
X143445000Y-92075000D02*
X141668500Y-92075000D01*
X146091000Y-88265000D02*
X144653000Y-88265000D01*
X144653000Y-88265000D02*
X143445000Y-88265000D01*
X145218685Y-88265000D02*
X144653000Y-88265000D01*
X144081500Y-93345000D02*
X143445000Y-93345000D01*
X153646000Y-83250000D02*
X151679000Y-85217000D01*
X150812500Y-85217000D02*
X147764500Y-88265000D01*
X151679000Y-85217000D02*
X150812500Y-85217000D01*
X147764500Y-88265000D02*
X144653000Y-88265000D01*
X143445000Y-88265000D02*
X144462500Y-88265000D01*
X145542000Y-92223000D02*
X145542000Y-92196185D01*
X144420000Y-93345000D02*
X145542000Y-92223000D01*
X145542000Y-92196185D02*
X145542000Y-91630500D01*
X143445000Y-93345000D02*
X144420000Y-93345000D01*
X147148499Y-88881001D02*
X147764500Y-88265000D01*
X147148499Y-89198501D02*
X147148499Y-88881001D01*
X146748500Y-89598500D02*
X147148499Y-89198501D01*
X153120000Y-94550000D02*
X153670000Y-94550000D01*
X149140000Y-94550000D02*
X148590000Y-94550000D01*
X149259000Y-94550000D02*
X148590000Y-94550000D01*
X151200000Y-92609000D02*
X149259000Y-94550000D01*
X151200000Y-91959000D02*
X151200000Y-92609000D01*
X152800000Y-93680000D02*
X153670000Y-94550000D01*
X152800000Y-91959000D02*
X152800000Y-93680000D01*
X152000000Y-93680000D02*
X151130000Y-94550000D01*
X152000000Y-91959000D02*
X152000000Y-93680000D01*
X155541000Y-94550000D02*
X156210000Y-94550000D01*
X153600000Y-92609000D02*
X155541000Y-94550000D01*
X153600000Y-91959000D02*
X153600000Y-92609000D01*
X158242000Y-93281500D02*
X160021500Y-93281500D01*
X160021500Y-93281500D02*
X161290000Y-94550000D01*
X157346500Y-91959000D02*
X157346500Y-92386000D01*
X157346500Y-92386000D02*
X158242000Y-93281500D01*
X158487500Y-94550000D02*
X158750000Y-94550000D01*
X156546500Y-92609000D02*
X158487500Y-94550000D01*
X156546500Y-91959000D02*
X156546500Y-92609000D01*
X158742000Y-83250000D02*
X158742000Y-85547588D01*
X154946500Y-90159000D02*
X154946500Y-89773998D01*
X155312498Y-89408000D02*
X155476088Y-89408000D01*
X154946500Y-89773998D02*
X155312498Y-89408000D01*
X158742000Y-86142088D02*
X158742000Y-83250000D01*
X155476088Y-89408000D02*
X158742000Y-86142088D01*
X155746500Y-89890000D02*
X155702000Y-89845500D01*
X155746500Y-89773998D02*
X158652498Y-86868000D01*
X161290000Y-84230498D02*
X155746500Y-89773998D01*
X155746500Y-89773998D02*
X155746500Y-90159000D01*
X161290000Y-83250000D02*
X161290000Y-84230498D01*
D13*
G36*
X163655001Y-95710000D02*
G01*
X135176000Y-95710000D01*
X135176000Y-94731631D01*
X139331000Y-94731631D01*
X139331000Y-94879369D01*
X139359822Y-95024267D01*
X139416359Y-95160758D01*
X139498437Y-95283597D01*
X139602903Y-95388063D01*
X139725742Y-95470141D01*
X139862233Y-95526678D01*
X140007131Y-95555500D01*
X140154869Y-95555500D01*
X140299767Y-95526678D01*
X140436258Y-95470141D01*
X140559097Y-95388063D01*
X140663563Y-95283597D01*
X140745641Y-95160758D01*
X140802178Y-95024267D01*
X140831000Y-94879369D01*
X140831000Y-94731631D01*
X141231000Y-94731631D01*
X141231000Y-94879369D01*
X141259822Y-95024267D01*
X141316359Y-95160758D01*
X141398437Y-95283597D01*
X141502903Y-95388063D01*
X141625742Y-95470141D01*
X141762233Y-95526678D01*
X141907131Y-95555500D01*
X142054869Y-95555500D01*
X142199767Y-95526678D01*
X142336258Y-95470141D01*
X142459097Y-95388063D01*
X142563563Y-95283597D01*
X142645641Y-95160758D01*
X142702178Y-95024267D01*
X142731000Y-94879369D01*
X142731000Y-94731631D01*
X142702178Y-94586733D01*
X142645677Y-94450327D01*
X147578000Y-94450327D01*
X147578000Y-94649673D01*
X147616890Y-94845190D01*
X147693177Y-95029362D01*
X147803928Y-95195113D01*
X147944887Y-95336072D01*
X148110638Y-95446823D01*
X148294810Y-95523110D01*
X148490327Y-95562000D01*
X148689673Y-95562000D01*
X148885190Y-95523110D01*
X149069362Y-95446823D01*
X149235113Y-95336072D01*
X149376072Y-95195113D01*
X149486823Y-95029362D01*
X149563110Y-94845190D01*
X149580235Y-94759094D01*
X150208064Y-94131265D01*
X150156890Y-94254810D01*
X150118000Y-94450327D01*
X150118000Y-94649673D01*
X150156890Y-94845190D01*
X150233177Y-95029362D01*
X150343928Y-95195113D01*
X150484887Y-95336072D01*
X150650638Y-95446823D01*
X150834810Y-95523110D01*
X151030327Y-95562000D01*
X151229673Y-95562000D01*
X151425190Y-95523110D01*
X151609362Y-95446823D01*
X151775113Y-95336072D01*
X151916072Y-95195113D01*
X152026823Y-95029362D01*
X152103110Y-94845190D01*
X152142000Y-94649673D01*
X152142000Y-94450327D01*
X152103110Y-94254810D01*
X152059882Y-94150448D01*
X152252139Y-93958191D01*
X152266448Y-93946448D01*
X152313309Y-93889347D01*
X152348131Y-93824200D01*
X152369574Y-93753513D01*
X152375000Y-93698419D01*
X152375000Y-93698416D01*
X152376814Y-93680000D01*
X152375000Y-93661584D01*
X152375000Y-92538792D01*
X152377632Y-92536632D01*
X152400000Y-92509376D01*
X152422368Y-92536632D01*
X152425000Y-92538792D01*
X152425001Y-93661574D01*
X152423186Y-93680000D01*
X152429767Y-93746813D01*
X152430427Y-93753513D01*
X152438067Y-93778698D01*
X152451870Y-93824200D01*
X152474036Y-93865669D01*
X152486692Y-93889347D01*
X152533553Y-93946448D01*
X152547862Y-93958191D01*
X152740119Y-94150448D01*
X152696890Y-94254810D01*
X152658000Y-94450327D01*
X152658000Y-94649673D01*
X152696890Y-94845190D01*
X152773177Y-95029362D01*
X152883928Y-95195113D01*
X153024887Y-95336072D01*
X153190638Y-95446823D01*
X153374810Y-95523110D01*
X153570327Y-95562000D01*
X153769673Y-95562000D01*
X153965190Y-95523110D01*
X154149362Y-95446823D01*
X154315113Y-95336072D01*
X154456072Y-95195113D01*
X154566823Y-95029362D01*
X154643110Y-94845190D01*
X154682000Y-94649673D01*
X154682000Y-94450327D01*
X154643110Y-94254810D01*
X154591936Y-94131266D01*
X155219765Y-94759095D01*
X155236890Y-94845190D01*
X155313177Y-95029362D01*
X155423928Y-95195113D01*
X155564887Y-95336072D01*
X155730638Y-95446823D01*
X155914810Y-95523110D01*
X156110327Y-95562000D01*
X156309673Y-95562000D01*
X156505190Y-95523110D01*
X156689362Y-95446823D01*
X156855113Y-95336072D01*
X156996072Y-95195113D01*
X157106823Y-95029362D01*
X157183110Y-94845190D01*
X157222000Y-94649673D01*
X157222000Y-94450327D01*
X157183110Y-94254810D01*
X157106823Y-94070638D01*
X156996072Y-93904887D01*
X156855113Y-93763928D01*
X156689362Y-93653177D01*
X156505190Y-93576890D01*
X156309673Y-93538000D01*
X156110327Y-93538000D01*
X155914810Y-93576890D01*
X155730638Y-93653177D01*
X155564887Y-93763928D01*
X155425072Y-93903743D01*
X155325115Y-93803785D01*
X155447098Y-93779521D01*
X155565390Y-93730522D01*
X155671851Y-93659388D01*
X155762388Y-93568851D01*
X155833522Y-93462390D01*
X155882521Y-93344098D01*
X155907500Y-93218519D01*
X155907500Y-93161830D01*
X155998644Y-93070687D01*
X156012948Y-93058948D01*
X156024686Y-93044645D01*
X156024689Y-93044642D01*
X156059809Y-93001847D01*
X156094630Y-92936702D01*
X156095641Y-92933369D01*
X156116074Y-92866013D01*
X156121500Y-92810919D01*
X156121500Y-92810917D01*
X156123314Y-92792501D01*
X156121500Y-92774085D01*
X156121500Y-92538792D01*
X156124132Y-92536632D01*
X156146500Y-92509376D01*
X156168868Y-92536632D01*
X156171501Y-92538793D01*
X156171501Y-92590574D01*
X156169686Y-92609000D01*
X156173966Y-92652448D01*
X156176927Y-92682513D01*
X156182022Y-92699309D01*
X156198370Y-92753200D01*
X156229222Y-92810919D01*
X156233192Y-92818347D01*
X156280053Y-92875448D01*
X156294362Y-92887191D01*
X157757826Y-94350655D01*
X157738000Y-94450327D01*
X157738000Y-94649673D01*
X157776890Y-94845190D01*
X157853177Y-95029362D01*
X157963928Y-95195113D01*
X158104887Y-95336072D01*
X158270638Y-95446823D01*
X158454810Y-95523110D01*
X158650327Y-95562000D01*
X158849673Y-95562000D01*
X159045190Y-95523110D01*
X159229362Y-95446823D01*
X159395113Y-95336072D01*
X159536072Y-95195113D01*
X159646823Y-95029362D01*
X159723110Y-94845190D01*
X159762000Y-94649673D01*
X159762000Y-94450327D01*
X159723110Y-94254810D01*
X159646823Y-94070638D01*
X159536072Y-93904887D01*
X159395113Y-93763928D01*
X159234335Y-93656500D01*
X159866171Y-93656500D01*
X160360118Y-94150448D01*
X160316890Y-94254810D01*
X160278000Y-94450327D01*
X160278000Y-94649673D01*
X160316890Y-94845190D01*
X160393177Y-95029362D01*
X160503928Y-95195113D01*
X160644887Y-95336072D01*
X160810638Y-95446823D01*
X160994810Y-95523110D01*
X161190327Y-95562000D01*
X161389673Y-95562000D01*
X161585190Y-95523110D01*
X161769362Y-95446823D01*
X161935113Y-95336072D01*
X162076072Y-95195113D01*
X162186823Y-95029362D01*
X162263110Y-94845190D01*
X162302000Y-94649673D01*
X162302000Y-94450327D01*
X162263110Y-94254810D01*
X162186823Y-94070638D01*
X162076072Y-93904887D01*
X161935113Y-93763928D01*
X161769362Y-93653177D01*
X161585190Y-93576890D01*
X161389673Y-93538000D01*
X161190327Y-93538000D01*
X160994810Y-93576890D01*
X160890448Y-93620118D01*
X160299695Y-93029366D01*
X160287948Y-93015052D01*
X160230847Y-92968191D01*
X160165700Y-92933369D01*
X160095013Y-92911926D01*
X160039919Y-92906500D01*
X160039916Y-92906500D01*
X160021500Y-92904686D01*
X160003084Y-92906500D01*
X158397331Y-92906500D01*
X157984832Y-92494001D01*
X161752421Y-92494001D01*
X161843533Y-92633514D01*
X162031084Y-92720717D01*
X162232043Y-92769655D01*
X162438688Y-92778447D01*
X162643077Y-92746756D01*
X162837357Y-92675800D01*
X162916467Y-92633514D01*
X163007579Y-92494001D01*
X162380000Y-91866421D01*
X161752421Y-92494001D01*
X157984832Y-92494001D01*
X157847709Y-92356879D01*
X157847709Y-91783688D01*
X161326553Y-91783688D01*
X161358244Y-91988077D01*
X161429200Y-92182357D01*
X161471486Y-92261467D01*
X161610999Y-92352579D01*
X162238579Y-91725000D01*
X162521421Y-91725000D01*
X163149001Y-92352579D01*
X163288514Y-92261467D01*
X163375717Y-92073916D01*
X163424655Y-91872957D01*
X163433447Y-91666312D01*
X163401756Y-91461923D01*
X163330800Y-91267643D01*
X163288514Y-91188533D01*
X163149001Y-91097421D01*
X162521421Y-91725000D01*
X162238579Y-91725000D01*
X161610999Y-91097421D01*
X161471486Y-91188533D01*
X161384283Y-91376084D01*
X161335345Y-91577043D01*
X161326553Y-91783688D01*
X157847709Y-91783688D01*
X157847709Y-91559000D01*
X157845518Y-91536757D01*
X157914890Y-91508022D01*
X158021351Y-91436888D01*
X158111888Y-91346351D01*
X158183022Y-91239890D01*
X158232021Y-91121598D01*
X158257000Y-90996019D01*
X158257000Y-90867981D01*
X158252594Y-90845830D01*
X159680000Y-90845830D01*
X159680000Y-90954170D01*
X159701136Y-91060429D01*
X159742597Y-91160523D01*
X159802787Y-91250604D01*
X159879396Y-91327213D01*
X159969477Y-91387403D01*
X160069571Y-91428864D01*
X160175830Y-91450000D01*
X160284170Y-91450000D01*
X160390429Y-91428864D01*
X160490523Y-91387403D01*
X160580604Y-91327213D01*
X160657213Y-91250604D01*
X160717403Y-91160523D01*
X160758864Y-91060429D01*
X160779636Y-90955999D01*
X161752421Y-90955999D01*
X162380000Y-91583579D01*
X163007579Y-90955999D01*
X162916467Y-90816486D01*
X162728916Y-90729283D01*
X162527957Y-90680345D01*
X162321312Y-90671553D01*
X162116923Y-90703244D01*
X161922643Y-90774200D01*
X161843533Y-90816486D01*
X161752421Y-90955999D01*
X160779636Y-90955999D01*
X160780000Y-90954170D01*
X160780000Y-90845830D01*
X160758864Y-90739571D01*
X160717403Y-90639477D01*
X160657213Y-90549396D01*
X160580604Y-90472787D01*
X160490523Y-90412597D01*
X160390429Y-90371136D01*
X160284170Y-90350000D01*
X160175830Y-90350000D01*
X160069571Y-90371136D01*
X159969477Y-90412597D01*
X159879396Y-90472787D01*
X159802787Y-90549396D01*
X159742597Y-90639477D01*
X159701136Y-90739571D01*
X159680000Y-90845830D01*
X158252594Y-90845830D01*
X158232021Y-90742402D01*
X158183022Y-90624110D01*
X158111888Y-90517649D01*
X158021351Y-90427112D01*
X157914890Y-90355978D01*
X157847709Y-90328150D01*
X157847709Y-89759000D01*
X157842882Y-89709992D01*
X157828587Y-89662866D01*
X157805373Y-89619436D01*
X157774132Y-89581368D01*
X157736064Y-89550127D01*
X157692634Y-89526913D01*
X157645508Y-89512618D01*
X157596500Y-89507791D01*
X157096500Y-89507791D01*
X157047492Y-89512618D01*
X157000366Y-89526913D01*
X156956936Y-89550127D01*
X156921500Y-89579208D01*
X156886064Y-89550127D01*
X156842634Y-89526913D01*
X156795508Y-89512618D01*
X156746500Y-89507791D01*
X156543036Y-89507791D01*
X158930687Y-87120141D01*
X158930689Y-87120138D01*
X159204997Y-86845830D01*
X159680000Y-86845830D01*
X159680000Y-86954170D01*
X159701136Y-87060429D01*
X159742597Y-87160523D01*
X159802787Y-87250604D01*
X159879396Y-87327213D01*
X159969477Y-87387403D01*
X160069571Y-87428864D01*
X160175830Y-87450000D01*
X160284170Y-87450000D01*
X160390429Y-87428864D01*
X160490523Y-87387403D01*
X160580604Y-87327213D01*
X160657213Y-87250604D01*
X160717403Y-87160523D01*
X160758864Y-87060429D01*
X160780000Y-86954170D01*
X160780000Y-86845830D01*
X160779637Y-86844001D01*
X161752421Y-86844001D01*
X161843533Y-86983514D01*
X162031084Y-87070717D01*
X162232043Y-87119655D01*
X162438688Y-87128447D01*
X162643077Y-87096756D01*
X162837357Y-87025800D01*
X162916467Y-86983514D01*
X163007579Y-86844001D01*
X162380000Y-86216421D01*
X161752421Y-86844001D01*
X160779637Y-86844001D01*
X160758864Y-86739571D01*
X160717403Y-86639477D01*
X160657213Y-86549396D01*
X160580604Y-86472787D01*
X160490523Y-86412597D01*
X160390429Y-86371136D01*
X160284170Y-86350000D01*
X160175830Y-86350000D01*
X160069571Y-86371136D01*
X159969477Y-86412597D01*
X159879396Y-86472787D01*
X159802787Y-86549396D01*
X159742597Y-86639477D01*
X159701136Y-86739571D01*
X159680000Y-86845830D01*
X159204997Y-86845830D01*
X159917139Y-86133688D01*
X161326553Y-86133688D01*
X161358244Y-86338077D01*
X161429200Y-86532357D01*
X161471486Y-86611467D01*
X161610999Y-86702579D01*
X162238579Y-86075000D01*
X162521421Y-86075000D01*
X163149001Y-86702579D01*
X163288514Y-86611467D01*
X163375717Y-86423916D01*
X163424655Y-86222957D01*
X163433447Y-86016312D01*
X163401756Y-85811923D01*
X163330800Y-85617643D01*
X163288514Y-85538533D01*
X163149001Y-85447421D01*
X162521421Y-86075000D01*
X162238579Y-86075000D01*
X161610999Y-85447421D01*
X161471486Y-85538533D01*
X161384283Y-85726084D01*
X161335345Y-85927043D01*
X161326553Y-86133688D01*
X159917139Y-86133688D01*
X160744828Y-85305999D01*
X161752421Y-85305999D01*
X162380000Y-85933579D01*
X163007579Y-85305999D01*
X162916467Y-85166486D01*
X162728916Y-85079283D01*
X162527957Y-85030345D01*
X162321312Y-85021553D01*
X162116923Y-85053244D01*
X161922643Y-85124200D01*
X161843533Y-85166486D01*
X161752421Y-85305999D01*
X160744828Y-85305999D01*
X161542139Y-84508689D01*
X161556448Y-84496946D01*
X161603309Y-84439845D01*
X161638131Y-84374698D01*
X161659574Y-84304011D01*
X161665000Y-84248917D01*
X161665000Y-84248914D01*
X161666814Y-84230498D01*
X161665000Y-84212082D01*
X161665000Y-84190051D01*
X161769362Y-84146823D01*
X161935113Y-84036072D01*
X162076072Y-83895113D01*
X162186823Y-83729362D01*
X162263110Y-83545190D01*
X162302000Y-83349673D01*
X162302000Y-83150327D01*
X162263110Y-82954810D01*
X162186823Y-82770638D01*
X162076072Y-82604887D01*
X161935113Y-82463928D01*
X161769362Y-82353177D01*
X161585190Y-82276890D01*
X161389673Y-82238000D01*
X161190327Y-82238000D01*
X160994810Y-82276890D01*
X160810638Y-82353177D01*
X160644887Y-82463928D01*
X160503928Y-82604887D01*
X160393177Y-82770638D01*
X160316890Y-82954810D01*
X160278000Y-83150327D01*
X160278000Y-83349673D01*
X160316890Y-83545190D01*
X160393177Y-83729362D01*
X160503928Y-83895113D01*
X160644887Y-84036072D01*
X160810638Y-84146823D01*
X160833765Y-84156403D01*
X159117000Y-85873168D01*
X159117000Y-84190051D01*
X159221362Y-84146823D01*
X159387113Y-84036072D01*
X159528072Y-83895113D01*
X159638823Y-83729362D01*
X159715110Y-83545190D01*
X159754000Y-83349673D01*
X159754000Y-83150327D01*
X159715110Y-82954810D01*
X159638823Y-82770638D01*
X159528072Y-82604887D01*
X159387113Y-82463928D01*
X159221362Y-82353177D01*
X159037190Y-82276890D01*
X158841673Y-82238000D01*
X158642327Y-82238000D01*
X158446810Y-82276890D01*
X158262638Y-82353177D01*
X158096887Y-82463928D01*
X157955928Y-82604887D01*
X157845177Y-82770638D01*
X157768890Y-82954810D01*
X157730000Y-83150327D01*
X157730000Y-83349673D01*
X157768890Y-83545190D01*
X157845177Y-83729362D01*
X157955928Y-83895113D01*
X158096887Y-84036072D01*
X158262638Y-84146823D01*
X158367000Y-84190052D01*
X158367001Y-84439845D01*
X158367000Y-85986758D01*
X155321669Y-89032089D01*
X155312497Y-89031186D01*
X155294081Y-89033000D01*
X155294079Y-89033000D01*
X155238985Y-89038426D01*
X155168298Y-89059869D01*
X155168296Y-89059870D01*
X155103151Y-89094691D01*
X155060356Y-89129811D01*
X155060353Y-89129814D01*
X155046050Y-89141552D01*
X155034311Y-89155856D01*
X154984256Y-89205911D01*
X154984256Y-89198441D01*
X154959277Y-89072862D01*
X154910278Y-88954570D01*
X154839144Y-88848109D01*
X154748607Y-88757572D01*
X154707344Y-88730001D01*
X154831583Y-88730001D01*
X154849999Y-88731815D01*
X154868415Y-88730001D01*
X154868418Y-88730001D01*
X154923512Y-88724575D01*
X154994199Y-88703132D01*
X155059346Y-88668310D01*
X155116447Y-88621449D01*
X155128194Y-88607135D01*
X155464563Y-88270767D01*
X155510981Y-88280000D01*
X155639019Y-88280000D01*
X155764598Y-88255021D01*
X155882890Y-88206022D01*
X155989351Y-88134888D01*
X156079888Y-88044351D01*
X156151022Y-87937890D01*
X156200021Y-87819598D01*
X156225000Y-87694019D01*
X156225000Y-87565981D01*
X156200021Y-87440402D01*
X156151022Y-87322110D01*
X156079888Y-87215649D01*
X155989351Y-87125112D01*
X155882890Y-87053978D01*
X155764598Y-87004979D01*
X155639019Y-86980000D01*
X155510981Y-86980000D01*
X155385402Y-87004979D01*
X155267110Y-87053978D01*
X155160649Y-87125112D01*
X155070112Y-87215649D01*
X154998978Y-87322110D01*
X154949979Y-87440402D01*
X154940000Y-87490570D01*
X154930021Y-87440402D01*
X154881022Y-87322110D01*
X154809888Y-87215649D01*
X154719351Y-87125112D01*
X154612890Y-87053978D01*
X154494598Y-87004979D01*
X154369019Y-86980000D01*
X154240981Y-86980000D01*
X154115402Y-87004979D01*
X153997110Y-87053978D01*
X153890649Y-87125112D01*
X153800112Y-87215649D01*
X153728978Y-87322110D01*
X153679979Y-87440402D01*
X153670000Y-87490570D01*
X153660021Y-87440402D01*
X153611022Y-87322110D01*
X153539888Y-87215649D01*
X153449351Y-87125112D01*
X153342890Y-87053978D01*
X153224598Y-87004979D01*
X153099019Y-86980000D01*
X152970981Y-86980000D01*
X152845402Y-87004979D01*
X152727110Y-87053978D01*
X152620649Y-87125112D01*
X152530112Y-87215649D01*
X152458978Y-87322110D01*
X152409979Y-87440402D01*
X152400000Y-87490570D01*
X152390021Y-87440402D01*
X152341022Y-87322110D01*
X152269888Y-87215649D01*
X152179351Y-87125112D01*
X152072890Y-87053978D01*
X151954598Y-87004979D01*
X151829019Y-86980000D01*
X151700981Y-86980000D01*
X151575402Y-87004979D01*
X151457110Y-87053978D01*
X151350649Y-87125112D01*
X151260112Y-87215649D01*
X151188978Y-87322110D01*
X151139979Y-87440402D01*
X151115000Y-87565981D01*
X151115000Y-87694019D01*
X151124233Y-87740438D01*
X151112862Y-87751809D01*
X151098554Y-87763551D01*
X151086812Y-87777859D01*
X151051692Y-87820653D01*
X151018826Y-87882141D01*
X151016871Y-87885799D01*
X151012867Y-87899000D01*
X150995428Y-87956487D01*
X150988187Y-88029999D01*
X150990002Y-88048425D01*
X150990001Y-88947672D01*
X150947862Y-88989811D01*
X150933553Y-89001554D01*
X150921811Y-89015862D01*
X150886691Y-89058656D01*
X150862988Y-89103001D01*
X150851870Y-89123802D01*
X150830482Y-89194310D01*
X150830427Y-89194490D01*
X150823186Y-89268002D01*
X150825001Y-89286428D01*
X150825001Y-89542342D01*
X150810436Y-89550127D01*
X150772368Y-89581368D01*
X150741127Y-89619436D01*
X150717913Y-89662866D01*
X150703618Y-89709992D01*
X150698791Y-89759000D01*
X150698791Y-90559000D01*
X150703618Y-90608008D01*
X150717913Y-90655134D01*
X150741127Y-90698564D01*
X150772368Y-90736632D01*
X150810436Y-90767873D01*
X150853866Y-90791087D01*
X150900992Y-90805382D01*
X150950000Y-90810209D01*
X151450000Y-90810209D01*
X151499008Y-90805382D01*
X151546134Y-90791087D01*
X151589564Y-90767873D01*
X151625000Y-90738792D01*
X151660436Y-90767873D01*
X151703866Y-90791087D01*
X151750992Y-90805382D01*
X151800000Y-90810209D01*
X152200000Y-90810209D01*
X152249008Y-90805382D01*
X152296134Y-90791087D01*
X152339564Y-90767873D01*
X152377632Y-90736632D01*
X152400000Y-90709376D01*
X152422368Y-90736632D01*
X152460436Y-90767873D01*
X152503866Y-90791087D01*
X152550992Y-90805382D01*
X152600000Y-90810209D01*
X153000000Y-90810209D01*
X153049008Y-90805382D01*
X153096134Y-90791087D01*
X153139564Y-90767873D01*
X153175000Y-90738792D01*
X153210436Y-90767873D01*
X153253866Y-90791087D01*
X153300992Y-90805382D01*
X153350000Y-90810209D01*
X153850000Y-90810209D01*
X153899008Y-90805382D01*
X153946134Y-90791087D01*
X153959256Y-90784073D01*
X153959256Y-91333927D01*
X153946134Y-91326913D01*
X153899008Y-91312618D01*
X153850000Y-91307791D01*
X153350000Y-91307791D01*
X153300992Y-91312618D01*
X153253866Y-91326913D01*
X153210436Y-91350127D01*
X153175000Y-91379208D01*
X153139564Y-91350127D01*
X153096134Y-91326913D01*
X153049008Y-91312618D01*
X153000000Y-91307791D01*
X152600000Y-91307791D01*
X152550992Y-91312618D01*
X152503866Y-91326913D01*
X152460436Y-91350127D01*
X152422368Y-91381368D01*
X152400000Y-91408624D01*
X152377632Y-91381368D01*
X152339564Y-91350127D01*
X152296134Y-91326913D01*
X152249008Y-91312618D01*
X152200000Y-91307791D01*
X151800000Y-91307791D01*
X151750992Y-91312618D01*
X151703866Y-91326913D01*
X151660436Y-91350127D01*
X151625000Y-91379208D01*
X151589564Y-91350127D01*
X151546134Y-91326913D01*
X151499008Y-91312618D01*
X151450000Y-91307791D01*
X150950000Y-91307791D01*
X150900992Y-91312618D01*
X150853866Y-91326913D01*
X150810436Y-91350127D01*
X150772368Y-91381368D01*
X150741127Y-91419436D01*
X150717913Y-91462866D01*
X150703618Y-91509992D01*
X150698791Y-91559000D01*
X150698791Y-92359000D01*
X150703618Y-92408008D01*
X150717913Y-92455134D01*
X150741127Y-92498564D01*
X150758697Y-92519973D01*
X149374928Y-93903743D01*
X149235113Y-93763928D01*
X149069362Y-93653177D01*
X148885190Y-93576890D01*
X148689673Y-93538000D01*
X148490327Y-93538000D01*
X148294810Y-93576890D01*
X148110638Y-93653177D01*
X147944887Y-93763928D01*
X147803928Y-93904887D01*
X147693177Y-94070638D01*
X147616890Y-94254810D01*
X147578000Y-94450327D01*
X142645677Y-94450327D01*
X142645641Y-94450242D01*
X142563563Y-94327403D01*
X142459097Y-94222937D01*
X142336258Y-94140859D01*
X142199767Y-94084322D01*
X142054869Y-94055500D01*
X141907131Y-94055500D01*
X141762233Y-94084322D01*
X141625742Y-94140859D01*
X141502903Y-94222937D01*
X141398437Y-94327403D01*
X141316359Y-94450242D01*
X141259822Y-94586733D01*
X141231000Y-94731631D01*
X140831000Y-94731631D01*
X140802178Y-94586733D01*
X140745641Y-94450242D01*
X140663563Y-94327403D01*
X140559097Y-94222937D01*
X140436258Y-94140859D01*
X140299767Y-94084322D01*
X140154869Y-94055500D01*
X140007131Y-94055500D01*
X139862233Y-94084322D01*
X139725742Y-94140859D01*
X139602903Y-94222937D01*
X139498437Y-94327403D01*
X139416359Y-94450242D01*
X139359822Y-94586733D01*
X139331000Y-94731631D01*
X135176000Y-94731631D01*
X135176000Y-90655000D01*
X137268791Y-90655000D01*
X137268791Y-90955000D01*
X137276500Y-91033272D01*
X137299331Y-91108536D01*
X137336407Y-91177900D01*
X137386302Y-91238698D01*
X137447100Y-91288593D01*
X137516464Y-91325669D01*
X137591728Y-91348500D01*
X137670000Y-91356209D01*
X139291474Y-91356209D01*
X139328610Y-91381022D01*
X139446902Y-91430021D01*
X139541778Y-91448893D01*
X139444997Y-91545674D01*
X139398272Y-91531500D01*
X139320000Y-91523791D01*
X137670000Y-91523791D01*
X137591728Y-91531500D01*
X137516464Y-91554331D01*
X137447100Y-91591407D01*
X137386302Y-91641302D01*
X137336407Y-91702100D01*
X137299331Y-91771464D01*
X137276500Y-91846728D01*
X137268791Y-91925000D01*
X137268791Y-92225000D01*
X137276500Y-92303272D01*
X137299331Y-92378536D01*
X137336407Y-92447900D01*
X137386302Y-92508698D01*
X137447100Y-92558593D01*
X137516464Y-92595669D01*
X137591728Y-92618500D01*
X137670000Y-92626209D01*
X139320000Y-92626209D01*
X139398272Y-92618500D01*
X139473536Y-92595669D01*
X139542900Y-92558593D01*
X139603698Y-92508698D01*
X139653593Y-92447900D01*
X139673463Y-92410726D01*
X139676340Y-92409577D01*
X139693880Y-92398181D01*
X139712349Y-92388309D01*
X139724795Y-92378095D01*
X139738284Y-92369331D01*
X139748500Y-92359375D01*
X139748500Y-92456519D01*
X139773479Y-92582098D01*
X139822478Y-92700390D01*
X139893612Y-92806851D01*
X139956558Y-92869797D01*
X139856356Y-92970000D01*
X139651870Y-92970000D01*
X139603698Y-92911302D01*
X139542900Y-92861407D01*
X139473536Y-92824331D01*
X139398272Y-92801500D01*
X139320000Y-92793791D01*
X137670000Y-92793791D01*
X137591728Y-92801500D01*
X137516464Y-92824331D01*
X137447100Y-92861407D01*
X137386302Y-92911302D01*
X137336407Y-92972100D01*
X137299331Y-93041464D01*
X137276500Y-93116728D01*
X137268791Y-93195000D01*
X137268791Y-93495000D01*
X137276500Y-93573272D01*
X137299331Y-93648536D01*
X137336407Y-93717900D01*
X137386302Y-93778698D01*
X137447100Y-93828593D01*
X137516464Y-93865669D01*
X137591728Y-93888500D01*
X137670000Y-93896209D01*
X139320000Y-93896209D01*
X139398272Y-93888500D01*
X139473536Y-93865669D01*
X139542900Y-93828593D01*
X139603698Y-93778698D01*
X139651870Y-93720000D01*
X139993269Y-93720000D01*
X140011685Y-93721814D01*
X140030101Y-93720000D01*
X140030104Y-93720000D01*
X140085198Y-93714574D01*
X140155885Y-93693131D01*
X140221032Y-93658309D01*
X140278133Y-93611448D01*
X140289880Y-93597134D01*
X140650639Y-93236376D01*
X140664948Y-93224633D01*
X140689266Y-93195000D01*
X142218791Y-93195000D01*
X142218791Y-93495000D01*
X142226500Y-93573272D01*
X142249331Y-93648536D01*
X142286407Y-93717900D01*
X142336302Y-93778698D01*
X142397100Y-93828593D01*
X142466464Y-93865669D01*
X142541728Y-93888500D01*
X142620000Y-93896209D01*
X144270000Y-93896209D01*
X144348272Y-93888500D01*
X144423536Y-93865669D01*
X144492900Y-93828593D01*
X144553698Y-93778698D01*
X144603593Y-93717900D01*
X144640211Y-93649394D01*
X144686448Y-93611448D01*
X144698195Y-93597134D01*
X145794140Y-92501190D01*
X145808448Y-92489448D01*
X145835472Y-92456519D01*
X145855310Y-92432347D01*
X145890130Y-92367201D01*
X145890131Y-92367200D01*
X145911574Y-92296513D01*
X145917000Y-92241419D01*
X145917000Y-92241416D01*
X145918814Y-92223000D01*
X145917000Y-92204584D01*
X145917000Y-92161681D01*
X145956351Y-92135388D01*
X146046888Y-92044851D01*
X146118022Y-91938390D01*
X146167021Y-91820098D01*
X146192000Y-91694519D01*
X146192000Y-91566481D01*
X146167021Y-91440902D01*
X146118022Y-91322610D01*
X146046888Y-91216149D01*
X145956351Y-91125612D01*
X145849890Y-91054478D01*
X145731598Y-91005479D01*
X145606019Y-90980500D01*
X145477981Y-90980500D01*
X145352402Y-91005479D01*
X145234110Y-91054478D01*
X145127649Y-91125612D01*
X145037112Y-91216149D01*
X144965978Y-91322610D01*
X144916979Y-91440902D01*
X144892000Y-91566481D01*
X144892000Y-91694519D01*
X144916979Y-91820098D01*
X144965978Y-91938390D01*
X145037112Y-92044851D01*
X145113466Y-92121205D01*
X144413411Y-92821260D01*
X144348272Y-92801500D01*
X144270000Y-92793791D01*
X142620000Y-92793791D01*
X142541728Y-92801500D01*
X142466464Y-92824331D01*
X142397100Y-92861407D01*
X142336302Y-92911302D01*
X142286407Y-92972100D01*
X142249331Y-93041464D01*
X142226500Y-93116728D01*
X142218791Y-93195000D01*
X140689266Y-93195000D01*
X140711809Y-93167532D01*
X140728849Y-93135653D01*
X140746630Y-93102387D01*
X140750242Y-93090481D01*
X140768074Y-93031698D01*
X140773500Y-92976604D01*
X140773500Y-92976602D01*
X140775314Y-92958186D01*
X140773500Y-92939770D01*
X140773500Y-92923681D01*
X140812851Y-92897388D01*
X140903388Y-92806851D01*
X140974522Y-92700390D01*
X141023521Y-92582098D01*
X141048500Y-92456519D01*
X141048500Y-92328481D01*
X141023521Y-92202902D01*
X141000371Y-92147013D01*
X141032981Y-92153500D01*
X141161019Y-92153500D01*
X141207437Y-92144267D01*
X141390309Y-92327139D01*
X141402052Y-92341448D01*
X141456339Y-92386000D01*
X141459153Y-92388309D01*
X141489293Y-92404419D01*
X141524300Y-92423131D01*
X141594987Y-92444574D01*
X141650081Y-92450000D01*
X141650083Y-92450000D01*
X141668499Y-92451814D01*
X141686915Y-92450000D01*
X142288130Y-92450000D01*
X142336302Y-92508698D01*
X142397100Y-92558593D01*
X142466464Y-92595669D01*
X142541728Y-92618500D01*
X142620000Y-92626209D01*
X144270000Y-92626209D01*
X144348272Y-92618500D01*
X144423536Y-92595669D01*
X144492900Y-92558593D01*
X144553698Y-92508698D01*
X144603593Y-92447900D01*
X144640669Y-92378536D01*
X144663500Y-92303272D01*
X144671209Y-92225000D01*
X144671209Y-91925000D01*
X144663500Y-91846728D01*
X144640669Y-91771464D01*
X144603593Y-91702100D01*
X144553698Y-91641302D01*
X144492900Y-91591407D01*
X144423536Y-91554331D01*
X144348272Y-91531500D01*
X144270000Y-91523791D01*
X142620000Y-91523791D01*
X142541728Y-91531500D01*
X142466464Y-91554331D01*
X142397100Y-91591407D01*
X142336302Y-91641302D01*
X142288130Y-91700000D01*
X141823830Y-91700000D01*
X141737767Y-91613937D01*
X141747000Y-91567519D01*
X141747000Y-91439481D01*
X141722021Y-91313902D01*
X141673022Y-91195610D01*
X141662592Y-91180000D01*
X142288130Y-91180000D01*
X142336302Y-91238698D01*
X142397100Y-91288593D01*
X142466464Y-91325669D01*
X142541728Y-91348500D01*
X142620000Y-91356209D01*
X144270000Y-91356209D01*
X144348272Y-91348500D01*
X144423536Y-91325669D01*
X144492900Y-91288593D01*
X144553698Y-91238698D01*
X144603593Y-91177900D01*
X144640669Y-91108536D01*
X144663500Y-91033272D01*
X144671209Y-90955000D01*
X144671209Y-90655000D01*
X144663500Y-90576728D01*
X144640669Y-90501464D01*
X144603593Y-90432100D01*
X144553698Y-90371302D01*
X144492900Y-90321407D01*
X144423536Y-90284331D01*
X144348272Y-90261500D01*
X144270000Y-90253791D01*
X142620000Y-90253791D01*
X142541728Y-90261500D01*
X142466464Y-90284331D01*
X142397100Y-90321407D01*
X142336302Y-90371302D01*
X142288130Y-90430000D01*
X141835910Y-90430000D01*
X141837000Y-90424519D01*
X141837000Y-90296481D01*
X141812021Y-90170902D01*
X141763022Y-90052610D01*
X141691888Y-89946149D01*
X141655739Y-89910000D01*
X142288130Y-89910000D01*
X142336302Y-89968698D01*
X142397100Y-90018593D01*
X142466464Y-90055669D01*
X142541728Y-90078500D01*
X142620000Y-90086209D01*
X144270000Y-90086209D01*
X144348272Y-90078500D01*
X144423536Y-90055669D01*
X144492900Y-90018593D01*
X144553698Y-89968698D01*
X144601870Y-89910000D01*
X145329669Y-89910000D01*
X145995308Y-90575640D01*
X146007051Y-90589949D01*
X146064152Y-90636810D01*
X146129299Y-90671632D01*
X146199986Y-90693075D01*
X146255080Y-90698501D01*
X146255083Y-90698501D01*
X146273499Y-90700315D01*
X146291915Y-90698501D01*
X147338583Y-90698501D01*
X147356999Y-90700315D01*
X147375415Y-90698501D01*
X147375418Y-90698501D01*
X147430512Y-90693075D01*
X147501199Y-90671632D01*
X147566346Y-90636810D01*
X147623447Y-90589949D01*
X147635194Y-90575635D01*
X151475830Y-86735000D01*
X153065584Y-86735000D01*
X153084000Y-86736814D01*
X153102416Y-86735000D01*
X153102419Y-86735000D01*
X153157513Y-86729574D01*
X153228200Y-86708131D01*
X153293347Y-86673309D01*
X153350448Y-86626448D01*
X153362195Y-86612134D01*
X155794448Y-84179882D01*
X155898810Y-84223110D01*
X156094327Y-84262000D01*
X156293673Y-84262000D01*
X156489190Y-84223110D01*
X156673362Y-84146823D01*
X156839113Y-84036072D01*
X156980072Y-83895113D01*
X157090823Y-83729362D01*
X157167110Y-83545190D01*
X157206000Y-83349673D01*
X157206000Y-83150327D01*
X157167110Y-82954810D01*
X157090823Y-82770638D01*
X156980072Y-82604887D01*
X156839113Y-82463928D01*
X156673362Y-82353177D01*
X156489190Y-82276890D01*
X156293673Y-82238000D01*
X156094327Y-82238000D01*
X155898810Y-82276890D01*
X155714638Y-82353177D01*
X155548887Y-82463928D01*
X155407928Y-82604887D01*
X155297177Y-82770638D01*
X155220890Y-82954810D01*
X155182000Y-83150327D01*
X155182000Y-83349673D01*
X155220890Y-83545190D01*
X155264118Y-83649552D01*
X152928671Y-85985000D01*
X151338916Y-85985000D01*
X151320500Y-85983186D01*
X151302084Y-85985000D01*
X151302081Y-85985000D01*
X151246987Y-85990426D01*
X151176300Y-86011869D01*
X151111153Y-86046691D01*
X151054052Y-86093552D01*
X151042310Y-86107860D01*
X147589000Y-89561171D01*
X147589000Y-89534481D01*
X147564021Y-89408902D01*
X147515022Y-89290610D01*
X147513241Y-89287944D01*
X147518073Y-89272014D01*
X147523499Y-89216920D01*
X147523499Y-89216918D01*
X147525313Y-89198502D01*
X147523499Y-89180086D01*
X147523499Y-89036330D01*
X148016641Y-88543189D01*
X148030948Y-88531448D01*
X148042695Y-88517134D01*
X150967830Y-85592000D01*
X151660584Y-85592000D01*
X151679000Y-85593814D01*
X151697416Y-85592000D01*
X151697419Y-85592000D01*
X151752513Y-85586574D01*
X151823200Y-85565131D01*
X151888347Y-85530309D01*
X151945448Y-85483448D01*
X151957195Y-85469134D01*
X153246448Y-84179882D01*
X153350810Y-84223110D01*
X153546327Y-84262000D01*
X153745673Y-84262000D01*
X153941190Y-84223110D01*
X154125362Y-84146823D01*
X154291113Y-84036072D01*
X154432072Y-83895113D01*
X154542823Y-83729362D01*
X154619110Y-83545190D01*
X154658000Y-83349673D01*
X154658000Y-83150327D01*
X154619110Y-82954810D01*
X154542823Y-82770638D01*
X154432072Y-82604887D01*
X154291113Y-82463928D01*
X154125362Y-82353177D01*
X153941190Y-82276890D01*
X153745673Y-82238000D01*
X153546327Y-82238000D01*
X153350810Y-82276890D01*
X153166638Y-82353177D01*
X153000887Y-82463928D01*
X152859928Y-82604887D01*
X152749177Y-82770638D01*
X152672890Y-82954810D01*
X152634000Y-83150327D01*
X152634000Y-83349673D01*
X152672890Y-83545190D01*
X152716118Y-83649552D01*
X151523671Y-84842000D01*
X150830916Y-84842000D01*
X150812500Y-84840186D01*
X150794084Y-84842000D01*
X150794081Y-84842000D01*
X150738987Y-84847426D01*
X150668300Y-84868869D01*
X150603153Y-84903691D01*
X150546052Y-84950552D01*
X150534310Y-84964860D01*
X147609171Y-87890000D01*
X144601870Y-87890000D01*
X144553698Y-87831302D01*
X144492900Y-87781407D01*
X144423536Y-87744331D01*
X144348272Y-87721500D01*
X144270000Y-87713791D01*
X142694448Y-87713791D01*
X142744888Y-87663351D01*
X142816022Y-87556890D01*
X142820446Y-87546209D01*
X144270000Y-87546209D01*
X144348272Y-87538500D01*
X144423536Y-87515669D01*
X144492900Y-87478593D01*
X144553698Y-87428698D01*
X144601870Y-87370000D01*
X147334584Y-87370000D01*
X147353000Y-87371814D01*
X147371416Y-87370000D01*
X147371419Y-87370000D01*
X147426513Y-87364574D01*
X147497200Y-87343131D01*
X147562347Y-87308309D01*
X147619448Y-87261448D01*
X147631195Y-87247134D01*
X150698448Y-84179882D01*
X150802810Y-84223110D01*
X150998327Y-84262000D01*
X151197673Y-84262000D01*
X151393190Y-84223110D01*
X151577362Y-84146823D01*
X151743113Y-84036072D01*
X151884072Y-83895113D01*
X151994823Y-83729362D01*
X152071110Y-83545190D01*
X152110000Y-83349673D01*
X152110000Y-83150327D01*
X152071110Y-82954810D01*
X151994823Y-82770638D01*
X151884072Y-82604887D01*
X151743113Y-82463928D01*
X151577362Y-82353177D01*
X151393190Y-82276890D01*
X151197673Y-82238000D01*
X150998327Y-82238000D01*
X150802810Y-82276890D01*
X150618638Y-82353177D01*
X150452887Y-82463928D01*
X150311928Y-82604887D01*
X150201177Y-82770638D01*
X150124890Y-82954810D01*
X150086000Y-83150327D01*
X150086000Y-83349673D01*
X150124890Y-83545190D01*
X150168118Y-83649552D01*
X147197671Y-86620000D01*
X144601870Y-86620000D01*
X144553698Y-86561302D01*
X144492900Y-86511407D01*
X144423536Y-86474331D01*
X144348272Y-86451500D01*
X144270000Y-86443791D01*
X142677469Y-86443791D01*
X142744888Y-86376372D01*
X142803906Y-86288044D01*
X142875000Y-86295046D01*
X142948513Y-86287806D01*
X142986743Y-86276209D01*
X144270000Y-86276209D01*
X144348272Y-86268500D01*
X144423536Y-86245669D01*
X144492900Y-86208593D01*
X144553698Y-86158698D01*
X144601870Y-86100000D01*
X146056584Y-86100000D01*
X146075000Y-86101814D01*
X146093416Y-86100000D01*
X146093419Y-86100000D01*
X146148513Y-86094574D01*
X146219200Y-86073131D01*
X146284347Y-86038309D01*
X146341448Y-85991448D01*
X146353195Y-85977134D01*
X148150448Y-84179882D01*
X148254810Y-84223110D01*
X148450327Y-84262000D01*
X148649673Y-84262000D01*
X148845190Y-84223110D01*
X149029362Y-84146823D01*
X149195113Y-84036072D01*
X149336072Y-83895113D01*
X149446823Y-83729362D01*
X149523110Y-83545190D01*
X149562000Y-83349673D01*
X149562000Y-83150327D01*
X149523110Y-82954810D01*
X149446823Y-82770638D01*
X149336072Y-82604887D01*
X149195113Y-82463928D01*
X149029362Y-82353177D01*
X148845190Y-82276890D01*
X148649673Y-82238000D01*
X148450327Y-82238000D01*
X148254810Y-82276890D01*
X148070638Y-82353177D01*
X147904887Y-82463928D01*
X147763928Y-82604887D01*
X147653177Y-82770638D01*
X147576890Y-82954810D01*
X147538000Y-83150327D01*
X147538000Y-83349673D01*
X147576890Y-83545190D01*
X147620118Y-83649552D01*
X145919671Y-85350000D01*
X144601870Y-85350000D01*
X144553698Y-85291302D01*
X144492900Y-85241407D01*
X144423536Y-85204331D01*
X144348272Y-85181500D01*
X144270000Y-85173791D01*
X142620000Y-85173791D01*
X142541728Y-85181500D01*
X142466464Y-85204331D01*
X142397100Y-85241407D01*
X142336302Y-85291302D01*
X142317154Y-85314634D01*
X142304019Y-85312021D01*
X142175981Y-85312021D01*
X142050402Y-85337000D01*
X141932110Y-85385999D01*
X141825649Y-85457133D01*
X141735112Y-85547670D01*
X141663978Y-85654131D01*
X141614979Y-85772423D01*
X141590000Y-85898002D01*
X141590000Y-86026040D01*
X141614979Y-86151619D01*
X141663978Y-86269911D01*
X141735112Y-86376372D01*
X141825649Y-86466909D01*
X141932110Y-86538043D01*
X142050402Y-86587042D01*
X142143250Y-86605511D01*
X142050402Y-86623979D01*
X141932110Y-86672978D01*
X141825649Y-86744112D01*
X141735112Y-86834649D01*
X141663978Y-86941110D01*
X141614979Y-87059402D01*
X141590000Y-87184981D01*
X141590000Y-87313019D01*
X141614979Y-87438598D01*
X141663978Y-87556890D01*
X141735112Y-87663351D01*
X141825649Y-87753888D01*
X141932110Y-87825022D01*
X142050402Y-87874021D01*
X142175981Y-87899000D01*
X142282719Y-87899000D01*
X142249331Y-87961464D01*
X142226500Y-88036728D01*
X142218791Y-88115000D01*
X142218791Y-88415000D01*
X142226500Y-88493272D01*
X142249331Y-88568536D01*
X142286407Y-88637900D01*
X142336302Y-88698698D01*
X142397100Y-88748593D01*
X142466464Y-88785669D01*
X142541728Y-88808500D01*
X142620000Y-88816209D01*
X144270000Y-88816209D01*
X144348272Y-88808500D01*
X144423536Y-88785669D01*
X144492900Y-88748593D01*
X144553698Y-88698698D01*
X144601870Y-88640000D01*
X146861168Y-88640000D01*
X146835190Y-88671655D01*
X146824130Y-88692347D01*
X146800368Y-88736801D01*
X146778925Y-88807488D01*
X146774702Y-88850371D01*
X146771685Y-88881001D01*
X146773499Y-88899417D01*
X146773499Y-88968686D01*
X146749402Y-88973479D01*
X146631110Y-89022478D01*
X146524649Y-89093612D01*
X146434112Y-89184149D01*
X146362978Y-89290610D01*
X146313979Y-89408902D01*
X146289000Y-89534481D01*
X146289000Y-89662519D01*
X146313979Y-89788098D01*
X146346191Y-89865863D01*
X145763193Y-89282866D01*
X145751446Y-89268552D01*
X145694345Y-89221691D01*
X145629198Y-89186869D01*
X145558511Y-89165426D01*
X145503417Y-89160000D01*
X145503414Y-89160000D01*
X145484998Y-89158186D01*
X145466582Y-89160000D01*
X144601870Y-89160000D01*
X144553698Y-89101302D01*
X144492900Y-89051407D01*
X144423536Y-89014331D01*
X144348272Y-88991500D01*
X144270000Y-88983791D01*
X142620000Y-88983791D01*
X142541728Y-88991500D01*
X142466464Y-89014331D01*
X142397100Y-89051407D01*
X142336302Y-89101302D01*
X142288130Y-89160000D01*
X140957914Y-89160000D01*
X140939498Y-89158186D01*
X140921082Y-89160000D01*
X140921079Y-89160000D01*
X140865985Y-89165426D01*
X140795298Y-89186869D01*
X140781377Y-89194310D01*
X140730151Y-89221690D01*
X140710452Y-89237857D01*
X140673050Y-89268552D01*
X140661307Y-89282861D01*
X140209865Y-89734304D01*
X140195551Y-89746051D01*
X140148690Y-89803153D01*
X140113868Y-89868300D01*
X140092425Y-89938987D01*
X140087310Y-89990927D01*
X140085185Y-90012499D01*
X140086999Y-90030915D01*
X140086999Y-90336260D01*
X140050851Y-90300112D01*
X139944390Y-90228978D01*
X139826098Y-90179979D01*
X139700519Y-90155000D01*
X139572481Y-90155000D01*
X139446902Y-90179979D01*
X139328610Y-90228978D01*
X139291474Y-90253791D01*
X137670000Y-90253791D01*
X137591728Y-90261500D01*
X137516464Y-90284331D01*
X137447100Y-90321407D01*
X137386302Y-90371302D01*
X137336407Y-90432100D01*
X137299331Y-90501464D01*
X137276500Y-90576728D01*
X137268791Y-90655000D01*
X135176000Y-90655000D01*
X135176000Y-89695830D01*
X135340000Y-89695830D01*
X135340000Y-89804170D01*
X135361136Y-89910429D01*
X135402597Y-90010523D01*
X135462787Y-90100604D01*
X135539396Y-90177213D01*
X135629477Y-90237403D01*
X135729571Y-90278864D01*
X135835830Y-90300000D01*
X135944170Y-90300000D01*
X136050429Y-90278864D01*
X136150523Y-90237403D01*
X136240604Y-90177213D01*
X136317213Y-90100604D01*
X136377403Y-90010523D01*
X136418864Y-89910429D01*
X136433867Y-89835000D01*
X137268790Y-89835000D01*
X137273617Y-89884009D01*
X137287912Y-89931134D01*
X137311127Y-89974565D01*
X137342368Y-90012632D01*
X137380435Y-90043873D01*
X137423866Y-90067088D01*
X137470991Y-90081383D01*
X137520000Y-90086210D01*
X138332500Y-90085000D01*
X138395000Y-90022500D01*
X138395000Y-89635000D01*
X138595000Y-89635000D01*
X138595000Y-90022500D01*
X138657500Y-90085000D01*
X139470000Y-90086210D01*
X139519009Y-90081383D01*
X139566134Y-90067088D01*
X139609565Y-90043873D01*
X139647632Y-90012632D01*
X139678873Y-89974565D01*
X139702088Y-89931134D01*
X139716383Y-89884009D01*
X139721210Y-89835000D01*
X139720000Y-89697500D01*
X139657500Y-89635000D01*
X138595000Y-89635000D01*
X138395000Y-89635000D01*
X137332500Y-89635000D01*
X137270000Y-89697500D01*
X137268790Y-89835000D01*
X136433867Y-89835000D01*
X136440000Y-89804170D01*
X136440000Y-89695830D01*
X136418864Y-89589571D01*
X136377403Y-89489477D01*
X136317213Y-89399396D01*
X136240604Y-89322787D01*
X136150523Y-89262597D01*
X136083900Y-89235000D01*
X137268790Y-89235000D01*
X137270000Y-89372500D01*
X137332500Y-89435000D01*
X138395000Y-89435000D01*
X138395000Y-89047500D01*
X138595000Y-89047500D01*
X138595000Y-89435000D01*
X139657500Y-89435000D01*
X139720000Y-89372500D01*
X139721210Y-89235000D01*
X139716383Y-89185991D01*
X139702088Y-89138866D01*
X139678873Y-89095435D01*
X139647632Y-89057368D01*
X139609565Y-89026127D01*
X139566134Y-89002912D01*
X139519009Y-88988617D01*
X139470000Y-88983790D01*
X138657500Y-88985000D01*
X138595000Y-89047500D01*
X138395000Y-89047500D01*
X138332500Y-88985000D01*
X137520000Y-88983790D01*
X137470991Y-88988617D01*
X137423866Y-89002912D01*
X137380435Y-89026127D01*
X137342368Y-89057368D01*
X137311127Y-89095435D01*
X137287912Y-89138866D01*
X137273617Y-89185991D01*
X137268790Y-89235000D01*
X136083900Y-89235000D01*
X136050429Y-89221136D01*
X135944170Y-89200000D01*
X135835830Y-89200000D01*
X135729571Y-89221136D01*
X135629477Y-89262597D01*
X135539396Y-89322787D01*
X135462787Y-89399396D01*
X135402597Y-89489477D01*
X135361136Y-89589571D01*
X135340000Y-89695830D01*
X135176000Y-89695830D01*
X135176000Y-87995830D01*
X135340000Y-87995830D01*
X135340000Y-88104170D01*
X135361136Y-88210429D01*
X135402597Y-88310523D01*
X135462787Y-88400604D01*
X135539396Y-88477213D01*
X135629477Y-88537403D01*
X135729571Y-88578864D01*
X135835830Y-88600000D01*
X135944170Y-88600000D01*
X136050429Y-88578864D01*
X136150523Y-88537403D01*
X136240604Y-88477213D01*
X136317213Y-88400604D01*
X136377403Y-88310523D01*
X136418864Y-88210429D01*
X136440000Y-88104170D01*
X136440000Y-87995830D01*
X136418864Y-87889571D01*
X136377403Y-87789477D01*
X136317213Y-87699396D01*
X136240604Y-87622787D01*
X136150523Y-87562597D01*
X136050429Y-87521136D01*
X135944170Y-87500000D01*
X135835830Y-87500000D01*
X135729571Y-87521136D01*
X135629477Y-87562597D01*
X135539396Y-87622787D01*
X135462787Y-87699396D01*
X135402597Y-87789477D01*
X135361136Y-87889571D01*
X135340000Y-87995830D01*
X135176000Y-87995830D01*
X135176000Y-85575000D01*
X137268791Y-85575000D01*
X137268791Y-85875000D01*
X137276500Y-85953272D01*
X137299331Y-86028536D01*
X137336407Y-86097900D01*
X137386302Y-86158698D01*
X137447100Y-86208593D01*
X137516464Y-86245669D01*
X137591728Y-86268500D01*
X137670000Y-86276209D01*
X139291474Y-86276209D01*
X139328610Y-86301022D01*
X139446902Y-86350021D01*
X139497070Y-86360000D01*
X139446902Y-86369979D01*
X139328610Y-86418978D01*
X139291474Y-86443791D01*
X137670000Y-86443791D01*
X137591728Y-86451500D01*
X137516464Y-86474331D01*
X137447100Y-86511407D01*
X137386302Y-86561302D01*
X137336407Y-86622100D01*
X137299331Y-86691464D01*
X137276500Y-86766728D01*
X137268791Y-86845000D01*
X137268791Y-87145000D01*
X137276500Y-87223272D01*
X137299331Y-87298536D01*
X137336407Y-87367900D01*
X137386302Y-87428698D01*
X137447100Y-87478593D01*
X137516464Y-87515669D01*
X137591728Y-87538500D01*
X137670000Y-87546209D01*
X139291474Y-87546209D01*
X139328610Y-87571022D01*
X139446902Y-87620021D01*
X139497070Y-87630000D01*
X139446902Y-87639979D01*
X139328610Y-87688978D01*
X139291474Y-87713791D01*
X137670000Y-87713791D01*
X137591728Y-87721500D01*
X137516464Y-87744331D01*
X137447100Y-87781407D01*
X137386302Y-87831302D01*
X137336407Y-87892100D01*
X137299331Y-87961464D01*
X137276500Y-88036728D01*
X137268791Y-88115000D01*
X137268791Y-88415000D01*
X137276500Y-88493272D01*
X137299331Y-88568536D01*
X137336407Y-88637900D01*
X137386302Y-88698698D01*
X137447100Y-88748593D01*
X137516464Y-88785669D01*
X137591728Y-88808500D01*
X137670000Y-88816209D01*
X139291474Y-88816209D01*
X139328610Y-88841022D01*
X139446902Y-88890021D01*
X139572481Y-88915000D01*
X139700519Y-88915000D01*
X139826098Y-88890021D01*
X139944390Y-88841022D01*
X140050851Y-88769888D01*
X140141388Y-88679351D01*
X140212522Y-88572890D01*
X140261521Y-88454598D01*
X140286500Y-88329019D01*
X140286500Y-88200981D01*
X140261521Y-88075402D01*
X140212522Y-87957110D01*
X140141388Y-87850649D01*
X140050851Y-87760112D01*
X139944390Y-87688978D01*
X139826098Y-87639979D01*
X139775930Y-87630000D01*
X139826098Y-87620021D01*
X139944390Y-87571022D01*
X140050851Y-87499888D01*
X140141388Y-87409351D01*
X140212522Y-87302890D01*
X140261521Y-87184598D01*
X140286500Y-87059019D01*
X140286500Y-86930981D01*
X140261521Y-86805402D01*
X140212522Y-86687110D01*
X140141388Y-86580649D01*
X140050851Y-86490112D01*
X139944390Y-86418978D01*
X139826098Y-86369979D01*
X139775930Y-86360000D01*
X139826098Y-86350021D01*
X139944390Y-86301022D01*
X140050851Y-86229888D01*
X140141388Y-86139351D01*
X140212522Y-86032890D01*
X140261521Y-85914598D01*
X140286500Y-85789019D01*
X140286500Y-85660981D01*
X140261521Y-85535402D01*
X140212522Y-85417110D01*
X140141388Y-85310649D01*
X140050851Y-85220112D01*
X139944390Y-85148978D01*
X139826098Y-85099979D01*
X139700519Y-85075000D01*
X139572481Y-85075000D01*
X139446902Y-85099979D01*
X139328610Y-85148978D01*
X139291474Y-85173791D01*
X137670000Y-85173791D01*
X137591728Y-85181500D01*
X137516464Y-85204331D01*
X137447100Y-85241407D01*
X137386302Y-85291302D01*
X137336407Y-85352100D01*
X137299331Y-85421464D01*
X137276500Y-85496728D01*
X137268791Y-85575000D01*
X135176000Y-85575000D01*
X135176000Y-84305000D01*
X137268791Y-84305000D01*
X137268791Y-84605000D01*
X137276500Y-84683272D01*
X137299331Y-84758536D01*
X137336407Y-84827900D01*
X137386302Y-84888698D01*
X137447100Y-84938593D01*
X137516464Y-84975669D01*
X137591728Y-84998500D01*
X137670000Y-85006209D01*
X139320000Y-85006209D01*
X139398272Y-84998500D01*
X139473536Y-84975669D01*
X139542900Y-84938593D01*
X139603698Y-84888698D01*
X139653593Y-84827900D01*
X139690669Y-84758536D01*
X139691741Y-84755000D01*
X142218790Y-84755000D01*
X142223617Y-84804009D01*
X142237912Y-84851134D01*
X142261127Y-84894565D01*
X142292368Y-84932632D01*
X142330435Y-84963873D01*
X142373866Y-84987088D01*
X142420991Y-85001383D01*
X142470000Y-85006210D01*
X143282500Y-85005000D01*
X143345000Y-84942500D01*
X143345000Y-84555000D01*
X143545000Y-84555000D01*
X143545000Y-84942500D01*
X143607500Y-85005000D01*
X144420000Y-85006210D01*
X144469009Y-85001383D01*
X144516134Y-84987088D01*
X144559565Y-84963873D01*
X144597632Y-84932632D01*
X144628873Y-84894565D01*
X144652088Y-84851134D01*
X144666383Y-84804009D01*
X144671210Y-84755000D01*
X144670000Y-84617500D01*
X144607500Y-84555000D01*
X143545000Y-84555000D01*
X143345000Y-84555000D01*
X142282500Y-84555000D01*
X142220000Y-84617500D01*
X142218790Y-84755000D01*
X139691741Y-84755000D01*
X139713500Y-84683272D01*
X139721209Y-84605000D01*
X139721209Y-84305000D01*
X139713500Y-84226728D01*
X139691742Y-84155000D01*
X142218790Y-84155000D01*
X142220000Y-84292500D01*
X142282500Y-84355000D01*
X143345000Y-84355000D01*
X143345000Y-83967500D01*
X143545000Y-83967500D01*
X143545000Y-84355000D01*
X144607500Y-84355000D01*
X144670000Y-84292500D01*
X144671210Y-84155000D01*
X144666383Y-84105991D01*
X144652088Y-84058866D01*
X144628873Y-84015435D01*
X144597632Y-83977368D01*
X144559565Y-83946127D01*
X144516134Y-83922912D01*
X144469009Y-83908617D01*
X144420000Y-83903790D01*
X143607500Y-83905000D01*
X143545000Y-83967500D01*
X143345000Y-83967500D01*
X143282500Y-83905000D01*
X142470000Y-83903790D01*
X142420991Y-83908617D01*
X142373866Y-83922912D01*
X142330435Y-83946127D01*
X142292368Y-83977368D01*
X142261127Y-84015435D01*
X142237912Y-84058866D01*
X142223617Y-84105991D01*
X142218790Y-84155000D01*
X139691742Y-84155000D01*
X139690669Y-84151464D01*
X139653593Y-84082100D01*
X139603698Y-84021302D01*
X139542900Y-83971407D01*
X139473536Y-83934331D01*
X139398272Y-83911500D01*
X139320000Y-83903791D01*
X137670000Y-83903791D01*
X137591728Y-83911500D01*
X137516464Y-83934331D01*
X137447100Y-83971407D01*
X137386302Y-84021302D01*
X137336407Y-84082100D01*
X137299331Y-84151464D01*
X137276500Y-84226728D01*
X137268791Y-84305000D01*
X135176000Y-84305000D01*
X135176000Y-82090000D01*
X163655000Y-82090000D01*
X163655001Y-95710000D01*
G37*
X163655001Y-95710000D02*
X135176000Y-95710000D01*
X135176000Y-94731631D01*
X139331000Y-94731631D01*
X139331000Y-94879369D01*
X139359822Y-95024267D01*
X139416359Y-95160758D01*
X139498437Y-95283597D01*
X139602903Y-95388063D01*
X139725742Y-95470141D01*
X139862233Y-95526678D01*
X140007131Y-95555500D01*
X140154869Y-95555500D01*
X140299767Y-95526678D01*
X140436258Y-95470141D01*
X140559097Y-95388063D01*
X140663563Y-95283597D01*
X140745641Y-95160758D01*
X140802178Y-95024267D01*
X140831000Y-94879369D01*
X140831000Y-94731631D01*
X141231000Y-94731631D01*
X141231000Y-94879369D01*
X141259822Y-95024267D01*
X141316359Y-95160758D01*
X141398437Y-95283597D01*
X141502903Y-95388063D01*
X141625742Y-95470141D01*
X141762233Y-95526678D01*
X141907131Y-95555500D01*
X142054869Y-95555500D01*
X142199767Y-95526678D01*
X142336258Y-95470141D01*
X142459097Y-95388063D01*
X142563563Y-95283597D01*
X142645641Y-95160758D01*
X142702178Y-95024267D01*
X142731000Y-94879369D01*
X142731000Y-94731631D01*
X142702178Y-94586733D01*
X142645677Y-94450327D01*
X147578000Y-94450327D01*
X147578000Y-94649673D01*
X147616890Y-94845190D01*
X147693177Y-95029362D01*
X147803928Y-95195113D01*
X147944887Y-95336072D01*
X148110638Y-95446823D01*
X148294810Y-95523110D01*
X148490327Y-95562000D01*
X148689673Y-95562000D01*
X148885190Y-95523110D01*
X149069362Y-95446823D01*
X149235113Y-95336072D01*
X149376072Y-95195113D01*
X149486823Y-95029362D01*
X149563110Y-94845190D01*
X149580235Y-94759094D01*
X150208064Y-94131265D01*
X150156890Y-94254810D01*
X150118000Y-94450327D01*
X150118000Y-94649673D01*
X150156890Y-94845190D01*
X150233177Y-95029362D01*
X150343928Y-95195113D01*
X150484887Y-95336072D01*
X150650638Y-95446823D01*
X150834810Y-95523110D01*
X151030327Y-95562000D01*
X151229673Y-95562000D01*
X151425190Y-95523110D01*
X151609362Y-95446823D01*
X151775113Y-95336072D01*
X151916072Y-95195113D01*
X152026823Y-95029362D01*
X152103110Y-94845190D01*
X152142000Y-94649673D01*
X152142000Y-94450327D01*
X152103110Y-94254810D01*
X152059882Y-94150448D01*
X152252139Y-93958191D01*
X152266448Y-93946448D01*
X152313309Y-93889347D01*
X152348131Y-93824200D01*
X152369574Y-93753513D01*
X152375000Y-93698419D01*
X152375000Y-93698416D01*
X152376814Y-93680000D01*
X152375000Y-93661584D01*
X152375000Y-92538792D01*
X152377632Y-92536632D01*
X152400000Y-92509376D01*
X152422368Y-92536632D01*
X152425000Y-92538792D01*
X152425001Y-93661574D01*
X152423186Y-93680000D01*
X152429767Y-93746813D01*
X152430427Y-93753513D01*
X152438067Y-93778698D01*
X152451870Y-93824200D01*
X152474036Y-93865669D01*
X152486692Y-93889347D01*
X152533553Y-93946448D01*
X152547862Y-93958191D01*
X152740119Y-94150448D01*
X152696890Y-94254810D01*
X152658000Y-94450327D01*
X152658000Y-94649673D01*
X152696890Y-94845190D01*
X152773177Y-95029362D01*
X152883928Y-95195113D01*
X153024887Y-95336072D01*
X153190638Y-95446823D01*
X153374810Y-95523110D01*
X153570327Y-95562000D01*
X153769673Y-95562000D01*
X153965190Y-95523110D01*
X154149362Y-95446823D01*
X154315113Y-95336072D01*
X154456072Y-95195113D01*
X154566823Y-95029362D01*
X154643110Y-94845190D01*
X154682000Y-94649673D01*
X154682000Y-94450327D01*
X154643110Y-94254810D01*
X154591936Y-94131266D01*
X155219765Y-94759095D01*
X155236890Y-94845190D01*
X155313177Y-95029362D01*
X155423928Y-95195113D01*
X155564887Y-95336072D01*
X155730638Y-95446823D01*
X155914810Y-95523110D01*
X156110327Y-95562000D01*
X156309673Y-95562000D01*
X156505190Y-95523110D01*
X156689362Y-95446823D01*
X156855113Y-95336072D01*
X156996072Y-95195113D01*
X157106823Y-95029362D01*
X157183110Y-94845190D01*
X157222000Y-94649673D01*
X157222000Y-94450327D01*
X157183110Y-94254810D01*
X157106823Y-94070638D01*
X156996072Y-93904887D01*
X156855113Y-93763928D01*
X156689362Y-93653177D01*
X156505190Y-93576890D01*
X156309673Y-93538000D01*
X156110327Y-93538000D01*
X155914810Y-93576890D01*
X155730638Y-93653177D01*
X155564887Y-93763928D01*
X155425072Y-93903743D01*
X155325115Y-93803785D01*
X155447098Y-93779521D01*
X155565390Y-93730522D01*
X155671851Y-93659388D01*
X155762388Y-93568851D01*
X155833522Y-93462390D01*
X155882521Y-93344098D01*
X155907500Y-93218519D01*
X155907500Y-93161830D01*
X155998644Y-93070687D01*
X156012948Y-93058948D01*
X156024686Y-93044645D01*
X156024689Y-93044642D01*
X156059809Y-93001847D01*
X156094630Y-92936702D01*
X156095641Y-92933369D01*
X156116074Y-92866013D01*
X156121500Y-92810919D01*
X156121500Y-92810917D01*
X156123314Y-92792501D01*
X156121500Y-92774085D01*
X156121500Y-92538792D01*
X156124132Y-92536632D01*
X156146500Y-92509376D01*
X156168868Y-92536632D01*
X156171501Y-92538793D01*
X156171501Y-92590574D01*
X156169686Y-92609000D01*
X156173966Y-92652448D01*
X156176927Y-92682513D01*
X156182022Y-92699309D01*
X156198370Y-92753200D01*
X156229222Y-92810919D01*
X156233192Y-92818347D01*
X156280053Y-92875448D01*
X156294362Y-92887191D01*
X157757826Y-94350655D01*
X157738000Y-94450327D01*
X157738000Y-94649673D01*
X157776890Y-94845190D01*
X157853177Y-95029362D01*
X157963928Y-95195113D01*
X158104887Y-95336072D01*
X158270638Y-95446823D01*
X158454810Y-95523110D01*
X158650327Y-95562000D01*
X158849673Y-95562000D01*
X159045190Y-95523110D01*
X159229362Y-95446823D01*
X159395113Y-95336072D01*
X159536072Y-95195113D01*
X159646823Y-95029362D01*
X159723110Y-94845190D01*
X159762000Y-94649673D01*
X159762000Y-94450327D01*
X159723110Y-94254810D01*
X159646823Y-94070638D01*
X159536072Y-93904887D01*
X159395113Y-93763928D01*
X159234335Y-93656500D01*
X159866171Y-93656500D01*
X160360118Y-94150448D01*
X160316890Y-94254810D01*
X160278000Y-94450327D01*
X160278000Y-94649673D01*
X160316890Y-94845190D01*
X160393177Y-95029362D01*
X160503928Y-95195113D01*
X160644887Y-95336072D01*
X160810638Y-95446823D01*
X160994810Y-95523110D01*
X161190327Y-95562000D01*
X161389673Y-95562000D01*
X161585190Y-95523110D01*
X161769362Y-95446823D01*
X161935113Y-95336072D01*
X162076072Y-95195113D01*
X162186823Y-95029362D01*
X162263110Y-94845190D01*
X162302000Y-94649673D01*
X162302000Y-94450327D01*
X162263110Y-94254810D01*
X162186823Y-94070638D01*
X162076072Y-93904887D01*
X161935113Y-93763928D01*
X161769362Y-93653177D01*
X161585190Y-93576890D01*
X161389673Y-93538000D01*
X161190327Y-93538000D01*
X160994810Y-93576890D01*
X160890448Y-93620118D01*
X160299695Y-93029366D01*
X160287948Y-93015052D01*
X160230847Y-92968191D01*
X160165700Y-92933369D01*
X160095013Y-92911926D01*
X160039919Y-92906500D01*
X160039916Y-92906500D01*
X160021500Y-92904686D01*
X160003084Y-92906500D01*
X158397331Y-92906500D01*
X157984832Y-92494001D01*
X161752421Y-92494001D01*
X161843533Y-92633514D01*
X162031084Y-92720717D01*
X162232043Y-92769655D01*
X162438688Y-92778447D01*
X162643077Y-92746756D01*
X162837357Y-92675800D01*
X162916467Y-92633514D01*
X163007579Y-92494001D01*
X162380000Y-91866421D01*
X161752421Y-92494001D01*
X157984832Y-92494001D01*
X157847709Y-92356879D01*
X157847709Y-91783688D01*
X161326553Y-91783688D01*
X161358244Y-91988077D01*
X161429200Y-92182357D01*
X161471486Y-92261467D01*
X161610999Y-92352579D01*
X162238579Y-91725000D01*
X162521421Y-91725000D01*
X163149001Y-92352579D01*
X163288514Y-92261467D01*
X163375717Y-92073916D01*
X163424655Y-91872957D01*
X163433447Y-91666312D01*
X163401756Y-91461923D01*
X163330800Y-91267643D01*
X163288514Y-91188533D01*
X163149001Y-91097421D01*
X162521421Y-91725000D01*
X162238579Y-91725000D01*
X161610999Y-91097421D01*
X161471486Y-91188533D01*
X161384283Y-91376084D01*
X161335345Y-91577043D01*
X161326553Y-91783688D01*
X157847709Y-91783688D01*
X157847709Y-91559000D01*
X157845518Y-91536757D01*
X157914890Y-91508022D01*
X158021351Y-91436888D01*
X158111888Y-91346351D01*
X158183022Y-91239890D01*
X158232021Y-91121598D01*
X158257000Y-90996019D01*
X158257000Y-90867981D01*
X158252594Y-90845830D01*
X159680000Y-90845830D01*
X159680000Y-90954170D01*
X159701136Y-91060429D01*
X159742597Y-91160523D01*
X159802787Y-91250604D01*
X159879396Y-91327213D01*
X159969477Y-91387403D01*
X160069571Y-91428864D01*
X160175830Y-91450000D01*
X160284170Y-91450000D01*
X160390429Y-91428864D01*
X160490523Y-91387403D01*
X160580604Y-91327213D01*
X160657213Y-91250604D01*
X160717403Y-91160523D01*
X160758864Y-91060429D01*
X160779636Y-90955999D01*
X161752421Y-90955999D01*
X162380000Y-91583579D01*
X163007579Y-90955999D01*
X162916467Y-90816486D01*
X162728916Y-90729283D01*
X162527957Y-90680345D01*
X162321312Y-90671553D01*
X162116923Y-90703244D01*
X161922643Y-90774200D01*
X161843533Y-90816486D01*
X161752421Y-90955999D01*
X160779636Y-90955999D01*
X160780000Y-90954170D01*
X160780000Y-90845830D01*
X160758864Y-90739571D01*
X160717403Y-90639477D01*
X160657213Y-90549396D01*
X160580604Y-90472787D01*
X160490523Y-90412597D01*
X160390429Y-90371136D01*
X160284170Y-90350000D01*
X160175830Y-90350000D01*
X160069571Y-90371136D01*
X159969477Y-90412597D01*
X159879396Y-90472787D01*
X159802787Y-90549396D01*
X159742597Y-90639477D01*
X159701136Y-90739571D01*
X159680000Y-90845830D01*
X158252594Y-90845830D01*
X158232021Y-90742402D01*
X158183022Y-90624110D01*
X158111888Y-90517649D01*
X158021351Y-90427112D01*
X157914890Y-90355978D01*
X157847709Y-90328150D01*
X157847709Y-89759000D01*
X157842882Y-89709992D01*
X157828587Y-89662866D01*
X157805373Y-89619436D01*
X157774132Y-89581368D01*
X157736064Y-89550127D01*
X157692634Y-89526913D01*
X157645508Y-89512618D01*
X157596500Y-89507791D01*
X157096500Y-89507791D01*
X157047492Y-89512618D01*
X157000366Y-89526913D01*
X156956936Y-89550127D01*
X156921500Y-89579208D01*
X156886064Y-89550127D01*
X156842634Y-89526913D01*
X156795508Y-89512618D01*
X156746500Y-89507791D01*
X156543036Y-89507791D01*
X158930687Y-87120141D01*
X158930689Y-87120138D01*
X159204997Y-86845830D01*
X159680000Y-86845830D01*
X159680000Y-86954170D01*
X159701136Y-87060429D01*
X159742597Y-87160523D01*
X159802787Y-87250604D01*
X159879396Y-87327213D01*
X159969477Y-87387403D01*
X160069571Y-87428864D01*
X160175830Y-87450000D01*
X160284170Y-87450000D01*
X160390429Y-87428864D01*
X160490523Y-87387403D01*
X160580604Y-87327213D01*
X160657213Y-87250604D01*
X160717403Y-87160523D01*
X160758864Y-87060429D01*
X160780000Y-86954170D01*
X160780000Y-86845830D01*
X160779637Y-86844001D01*
X161752421Y-86844001D01*
X161843533Y-86983514D01*
X162031084Y-87070717D01*
X162232043Y-87119655D01*
X162438688Y-87128447D01*
X162643077Y-87096756D01*
X162837357Y-87025800D01*
X162916467Y-86983514D01*
X163007579Y-86844001D01*
X162380000Y-86216421D01*
X161752421Y-86844001D01*
X160779637Y-86844001D01*
X160758864Y-86739571D01*
X160717403Y-86639477D01*
X160657213Y-86549396D01*
X160580604Y-86472787D01*
X160490523Y-86412597D01*
X160390429Y-86371136D01*
X160284170Y-86350000D01*
X160175830Y-86350000D01*
X160069571Y-86371136D01*
X159969477Y-86412597D01*
X159879396Y-86472787D01*
X159802787Y-86549396D01*
X159742597Y-86639477D01*
X159701136Y-86739571D01*
X159680000Y-86845830D01*
X159204997Y-86845830D01*
X159917139Y-86133688D01*
X161326553Y-86133688D01*
X161358244Y-86338077D01*
X161429200Y-86532357D01*
X161471486Y-86611467D01*
X161610999Y-86702579D01*
X162238579Y-86075000D01*
X162521421Y-86075000D01*
X163149001Y-86702579D01*
X163288514Y-86611467D01*
X163375717Y-86423916D01*
X163424655Y-86222957D01*
X163433447Y-86016312D01*
X163401756Y-85811923D01*
X163330800Y-85617643D01*
X163288514Y-85538533D01*
X163149001Y-85447421D01*
X162521421Y-86075000D01*
X162238579Y-86075000D01*
X161610999Y-85447421D01*
X161471486Y-85538533D01*
X161384283Y-85726084D01*
X161335345Y-85927043D01*
X161326553Y-86133688D01*
X159917139Y-86133688D01*
X160744828Y-85305999D01*
X161752421Y-85305999D01*
X162380000Y-85933579D01*
X163007579Y-85305999D01*
X162916467Y-85166486D01*
X162728916Y-85079283D01*
X162527957Y-85030345D01*
X162321312Y-85021553D01*
X162116923Y-85053244D01*
X161922643Y-85124200D01*
X161843533Y-85166486D01*
X161752421Y-85305999D01*
X160744828Y-85305999D01*
X161542139Y-84508689D01*
X161556448Y-84496946D01*
X161603309Y-84439845D01*
X161638131Y-84374698D01*
X161659574Y-84304011D01*
X161665000Y-84248917D01*
X161665000Y-84248914D01*
X161666814Y-84230498D01*
X161665000Y-84212082D01*
X161665000Y-84190051D01*
X161769362Y-84146823D01*
X161935113Y-84036072D01*
X162076072Y-83895113D01*
X162186823Y-83729362D01*
X162263110Y-83545190D01*
X162302000Y-83349673D01*
X162302000Y-83150327D01*
X162263110Y-82954810D01*
X162186823Y-82770638D01*
X162076072Y-82604887D01*
X161935113Y-82463928D01*
X161769362Y-82353177D01*
X161585190Y-82276890D01*
X161389673Y-82238000D01*
X161190327Y-82238000D01*
X160994810Y-82276890D01*
X160810638Y-82353177D01*
X160644887Y-82463928D01*
X160503928Y-82604887D01*
X160393177Y-82770638D01*
X160316890Y-82954810D01*
X160278000Y-83150327D01*
X160278000Y-83349673D01*
X160316890Y-83545190D01*
X160393177Y-83729362D01*
X160503928Y-83895113D01*
X160644887Y-84036072D01*
X160810638Y-84146823D01*
X160833765Y-84156403D01*
X159117000Y-85873168D01*
X159117000Y-84190051D01*
X159221362Y-84146823D01*
X159387113Y-84036072D01*
X159528072Y-83895113D01*
X159638823Y-83729362D01*
X159715110Y-83545190D01*
X159754000Y-83349673D01*
X159754000Y-83150327D01*
X159715110Y-82954810D01*
X159638823Y-82770638D01*
X159528072Y-82604887D01*
X159387113Y-82463928D01*
X159221362Y-82353177D01*
X159037190Y-82276890D01*
X158841673Y-82238000D01*
X158642327Y-82238000D01*
X158446810Y-82276890D01*
X158262638Y-82353177D01*
X158096887Y-82463928D01*
X157955928Y-82604887D01*
X157845177Y-82770638D01*
X157768890Y-82954810D01*
X157730000Y-83150327D01*
X157730000Y-83349673D01*
X157768890Y-83545190D01*
X157845177Y-83729362D01*
X157955928Y-83895113D01*
X158096887Y-84036072D01*
X158262638Y-84146823D01*
X158367000Y-84190052D01*
X158367001Y-84439845D01*
X158367000Y-85986758D01*
X155321669Y-89032089D01*
X155312497Y-89031186D01*
X155294081Y-89033000D01*
X155294079Y-89033000D01*
X155238985Y-89038426D01*
X155168298Y-89059869D01*
X155168296Y-89059870D01*
X155103151Y-89094691D01*
X155060356Y-89129811D01*
X155060353Y-89129814D01*
X155046050Y-89141552D01*
X155034311Y-89155856D01*
X154984256Y-89205911D01*
X154984256Y-89198441D01*
X154959277Y-89072862D01*
X154910278Y-88954570D01*
X154839144Y-88848109D01*
X154748607Y-88757572D01*
X154707344Y-88730001D01*
X154831583Y-88730001D01*
X154849999Y-88731815D01*
X154868415Y-88730001D01*
X154868418Y-88730001D01*
X154923512Y-88724575D01*
X154994199Y-88703132D01*
X155059346Y-88668310D01*
X155116447Y-88621449D01*
X155128194Y-88607135D01*
X155464563Y-88270767D01*
X155510981Y-88280000D01*
X155639019Y-88280000D01*
X155764598Y-88255021D01*
X155882890Y-88206022D01*
X155989351Y-88134888D01*
X156079888Y-88044351D01*
X156151022Y-87937890D01*
X156200021Y-87819598D01*
X156225000Y-87694019D01*
X156225000Y-87565981D01*
X156200021Y-87440402D01*
X156151022Y-87322110D01*
X156079888Y-87215649D01*
X155989351Y-87125112D01*
X155882890Y-87053978D01*
X155764598Y-87004979D01*
X155639019Y-86980000D01*
X155510981Y-86980000D01*
X155385402Y-87004979D01*
X155267110Y-87053978D01*
X155160649Y-87125112D01*
X155070112Y-87215649D01*
X154998978Y-87322110D01*
X154949979Y-87440402D01*
X154940000Y-87490570D01*
X154930021Y-87440402D01*
X154881022Y-87322110D01*
X154809888Y-87215649D01*
X154719351Y-87125112D01*
X154612890Y-87053978D01*
X154494598Y-87004979D01*
X154369019Y-86980000D01*
X154240981Y-86980000D01*
X154115402Y-87004979D01*
X153997110Y-87053978D01*
X153890649Y-87125112D01*
X153800112Y-87215649D01*
X153728978Y-87322110D01*
X153679979Y-87440402D01*
X153670000Y-87490570D01*
X153660021Y-87440402D01*
X153611022Y-87322110D01*
X153539888Y-87215649D01*
X153449351Y-87125112D01*
X153342890Y-87053978D01*
X153224598Y-87004979D01*
X153099019Y-86980000D01*
X152970981Y-86980000D01*
X152845402Y-87004979D01*
X152727110Y-87053978D01*
X152620649Y-87125112D01*
X152530112Y-87215649D01*
X152458978Y-87322110D01*
X152409979Y-87440402D01*
X152400000Y-87490570D01*
X152390021Y-87440402D01*
X152341022Y-87322110D01*
X152269888Y-87215649D01*
X152179351Y-87125112D01*
X152072890Y-87053978D01*
X151954598Y-87004979D01*
X151829019Y-86980000D01*
X151700981Y-86980000D01*
X151575402Y-87004979D01*
X151457110Y-87053978D01*
X151350649Y-87125112D01*
X151260112Y-87215649D01*
X151188978Y-87322110D01*
X151139979Y-87440402D01*
X151115000Y-87565981D01*
X151115000Y-87694019D01*
X151124233Y-87740438D01*
X151112862Y-87751809D01*
X151098554Y-87763551D01*
X151086812Y-87777859D01*
X151051692Y-87820653D01*
X151018826Y-87882141D01*
X151016871Y-87885799D01*
X151012867Y-87899000D01*
X150995428Y-87956487D01*
X150988187Y-88029999D01*
X150990002Y-88048425D01*
X150990001Y-88947672D01*
X150947862Y-88989811D01*
X150933553Y-89001554D01*
X150921811Y-89015862D01*
X150886691Y-89058656D01*
X150862988Y-89103001D01*
X150851870Y-89123802D01*
X150830482Y-89194310D01*
X150830427Y-89194490D01*
X150823186Y-89268002D01*
X150825001Y-89286428D01*
X150825001Y-89542342D01*
X150810436Y-89550127D01*
X150772368Y-89581368D01*
X150741127Y-89619436D01*
X150717913Y-89662866D01*
X150703618Y-89709992D01*
X150698791Y-89759000D01*
X150698791Y-90559000D01*
X150703618Y-90608008D01*
X150717913Y-90655134D01*
X150741127Y-90698564D01*
X150772368Y-90736632D01*
X150810436Y-90767873D01*
X150853866Y-90791087D01*
X150900992Y-90805382D01*
X150950000Y-90810209D01*
X151450000Y-90810209D01*
X151499008Y-90805382D01*
X151546134Y-90791087D01*
X151589564Y-90767873D01*
X151625000Y-90738792D01*
X151660436Y-90767873D01*
X151703866Y-90791087D01*
X151750992Y-90805382D01*
X151800000Y-90810209D01*
X152200000Y-90810209D01*
X152249008Y-90805382D01*
X152296134Y-90791087D01*
X152339564Y-90767873D01*
X152377632Y-90736632D01*
X152400000Y-90709376D01*
X152422368Y-90736632D01*
X152460436Y-90767873D01*
X152503866Y-90791087D01*
X152550992Y-90805382D01*
X152600000Y-90810209D01*
X153000000Y-90810209D01*
X153049008Y-90805382D01*
X153096134Y-90791087D01*
X153139564Y-90767873D01*
X153175000Y-90738792D01*
X153210436Y-90767873D01*
X153253866Y-90791087D01*
X153300992Y-90805382D01*
X153350000Y-90810209D01*
X153850000Y-90810209D01*
X153899008Y-90805382D01*
X153946134Y-90791087D01*
X153959256Y-90784073D01*
X153959256Y-91333927D01*
X153946134Y-91326913D01*
X153899008Y-91312618D01*
X153850000Y-91307791D01*
X153350000Y-91307791D01*
X153300992Y-91312618D01*
X153253866Y-91326913D01*
X153210436Y-91350127D01*
X153175000Y-91379208D01*
X153139564Y-91350127D01*
X153096134Y-91326913D01*
X153049008Y-91312618D01*
X153000000Y-91307791D01*
X152600000Y-91307791D01*
X152550992Y-91312618D01*
X152503866Y-91326913D01*
X152460436Y-91350127D01*
X152422368Y-91381368D01*
X152400000Y-91408624D01*
X152377632Y-91381368D01*
X152339564Y-91350127D01*
X152296134Y-91326913D01*
X152249008Y-91312618D01*
X152200000Y-91307791D01*
X151800000Y-91307791D01*
X151750992Y-91312618D01*
X151703866Y-91326913D01*
X151660436Y-91350127D01*
X151625000Y-91379208D01*
X151589564Y-91350127D01*
X151546134Y-91326913D01*
X151499008Y-91312618D01*
X151450000Y-91307791D01*
X150950000Y-91307791D01*
X150900992Y-91312618D01*
X150853866Y-91326913D01*
X150810436Y-91350127D01*
X150772368Y-91381368D01*
X150741127Y-91419436D01*
X150717913Y-91462866D01*
X150703618Y-91509992D01*
X150698791Y-91559000D01*
X150698791Y-92359000D01*
X150703618Y-92408008D01*
X150717913Y-92455134D01*
X150741127Y-92498564D01*
X150758697Y-92519973D01*
X149374928Y-93903743D01*
X149235113Y-93763928D01*
X149069362Y-93653177D01*
X148885190Y-93576890D01*
X148689673Y-93538000D01*
X148490327Y-93538000D01*
X148294810Y-93576890D01*
X148110638Y-93653177D01*
X147944887Y-93763928D01*
X147803928Y-93904887D01*
X147693177Y-94070638D01*
X147616890Y-94254810D01*
X147578000Y-94450327D01*
X142645677Y-94450327D01*
X142645641Y-94450242D01*
X142563563Y-94327403D01*
X142459097Y-94222937D01*
X142336258Y-94140859D01*
X142199767Y-94084322D01*
X142054869Y-94055500D01*
X141907131Y-94055500D01*
X141762233Y-94084322D01*
X141625742Y-94140859D01*
X141502903Y-94222937D01*
X141398437Y-94327403D01*
X141316359Y-94450242D01*
X141259822Y-94586733D01*
X141231000Y-94731631D01*
X140831000Y-94731631D01*
X140802178Y-94586733D01*
X140745641Y-94450242D01*
X140663563Y-94327403D01*
X140559097Y-94222937D01*
X140436258Y-94140859D01*
X140299767Y-94084322D01*
X140154869Y-94055500D01*
X140007131Y-94055500D01*
X139862233Y-94084322D01*
X139725742Y-94140859D01*
X139602903Y-94222937D01*
X139498437Y-94327403D01*
X139416359Y-94450242D01*
X139359822Y-94586733D01*
X139331000Y-94731631D01*
X135176000Y-94731631D01*
X135176000Y-90655000D01*
X137268791Y-90655000D01*
X137268791Y-90955000D01*
X137276500Y-91033272D01*
X137299331Y-91108536D01*
X137336407Y-91177900D01*
X137386302Y-91238698D01*
X137447100Y-91288593D01*
X137516464Y-91325669D01*
X137591728Y-91348500D01*
X137670000Y-91356209D01*
X139291474Y-91356209D01*
X139328610Y-91381022D01*
X139446902Y-91430021D01*
X139541778Y-91448893D01*
X139444997Y-91545674D01*
X139398272Y-91531500D01*
X139320000Y-91523791D01*
X137670000Y-91523791D01*
X137591728Y-91531500D01*
X137516464Y-91554331D01*
X137447100Y-91591407D01*
X137386302Y-91641302D01*
X137336407Y-91702100D01*
X137299331Y-91771464D01*
X137276500Y-91846728D01*
X137268791Y-91925000D01*
X137268791Y-92225000D01*
X137276500Y-92303272D01*
X137299331Y-92378536D01*
X137336407Y-92447900D01*
X137386302Y-92508698D01*
X137447100Y-92558593D01*
X137516464Y-92595669D01*
X137591728Y-92618500D01*
X137670000Y-92626209D01*
X139320000Y-92626209D01*
X139398272Y-92618500D01*
X139473536Y-92595669D01*
X139542900Y-92558593D01*
X139603698Y-92508698D01*
X139653593Y-92447900D01*
X139673463Y-92410726D01*
X139676340Y-92409577D01*
X139693880Y-92398181D01*
X139712349Y-92388309D01*
X139724795Y-92378095D01*
X139738284Y-92369331D01*
X139748500Y-92359375D01*
X139748500Y-92456519D01*
X139773479Y-92582098D01*
X139822478Y-92700390D01*
X139893612Y-92806851D01*
X139956558Y-92869797D01*
X139856356Y-92970000D01*
X139651870Y-92970000D01*
X139603698Y-92911302D01*
X139542900Y-92861407D01*
X139473536Y-92824331D01*
X139398272Y-92801500D01*
X139320000Y-92793791D01*
X137670000Y-92793791D01*
X137591728Y-92801500D01*
X137516464Y-92824331D01*
X137447100Y-92861407D01*
X137386302Y-92911302D01*
X137336407Y-92972100D01*
X137299331Y-93041464D01*
X137276500Y-93116728D01*
X137268791Y-93195000D01*
X137268791Y-93495000D01*
X137276500Y-93573272D01*
X137299331Y-93648536D01*
X137336407Y-93717900D01*
X137386302Y-93778698D01*
X137447100Y-93828593D01*
X137516464Y-93865669D01*
X137591728Y-93888500D01*
X137670000Y-93896209D01*
X139320000Y-93896209D01*
X139398272Y-93888500D01*
X139473536Y-93865669D01*
X139542900Y-93828593D01*
X139603698Y-93778698D01*
X139651870Y-93720000D01*
X139993269Y-93720000D01*
X140011685Y-93721814D01*
X140030101Y-93720000D01*
X140030104Y-93720000D01*
X140085198Y-93714574D01*
X140155885Y-93693131D01*
X140221032Y-93658309D01*
X140278133Y-93611448D01*
X140289880Y-93597134D01*
X140650639Y-93236376D01*
X140664948Y-93224633D01*
X140689266Y-93195000D01*
X142218791Y-93195000D01*
X142218791Y-93495000D01*
X142226500Y-93573272D01*
X142249331Y-93648536D01*
X142286407Y-93717900D01*
X142336302Y-93778698D01*
X142397100Y-93828593D01*
X142466464Y-93865669D01*
X142541728Y-93888500D01*
X142620000Y-93896209D01*
X144270000Y-93896209D01*
X144348272Y-93888500D01*
X144423536Y-93865669D01*
X144492900Y-93828593D01*
X144553698Y-93778698D01*
X144603593Y-93717900D01*
X144640211Y-93649394D01*
X144686448Y-93611448D01*
X144698195Y-93597134D01*
X145794140Y-92501190D01*
X145808448Y-92489448D01*
X145835472Y-92456519D01*
X145855310Y-92432347D01*
X145890130Y-92367201D01*
X145890131Y-92367200D01*
X145911574Y-92296513D01*
X145917000Y-92241419D01*
X145917000Y-92241416D01*
X145918814Y-92223000D01*
X145917000Y-92204584D01*
X145917000Y-92161681D01*
X145956351Y-92135388D01*
X146046888Y-92044851D01*
X146118022Y-91938390D01*
X146167021Y-91820098D01*
X146192000Y-91694519D01*
X146192000Y-91566481D01*
X146167021Y-91440902D01*
X146118022Y-91322610D01*
X146046888Y-91216149D01*
X145956351Y-91125612D01*
X145849890Y-91054478D01*
X145731598Y-91005479D01*
X145606019Y-90980500D01*
X145477981Y-90980500D01*
X145352402Y-91005479D01*
X145234110Y-91054478D01*
X145127649Y-91125612D01*
X145037112Y-91216149D01*
X144965978Y-91322610D01*
X144916979Y-91440902D01*
X144892000Y-91566481D01*
X144892000Y-91694519D01*
X144916979Y-91820098D01*
X144965978Y-91938390D01*
X145037112Y-92044851D01*
X145113466Y-92121205D01*
X144413411Y-92821260D01*
X144348272Y-92801500D01*
X144270000Y-92793791D01*
X142620000Y-92793791D01*
X142541728Y-92801500D01*
X142466464Y-92824331D01*
X142397100Y-92861407D01*
X142336302Y-92911302D01*
X142286407Y-92972100D01*
X142249331Y-93041464D01*
X142226500Y-93116728D01*
X142218791Y-93195000D01*
X140689266Y-93195000D01*
X140711809Y-93167532D01*
X140728849Y-93135653D01*
X140746630Y-93102387D01*
X140750242Y-93090481D01*
X140768074Y-93031698D01*
X140773500Y-92976604D01*
X140773500Y-92976602D01*
X140775314Y-92958186D01*
X140773500Y-92939770D01*
X140773500Y-92923681D01*
X140812851Y-92897388D01*
X140903388Y-92806851D01*
X140974522Y-92700390D01*
X141023521Y-92582098D01*
X141048500Y-92456519D01*
X141048500Y-92328481D01*
X141023521Y-92202902D01*
X141000371Y-92147013D01*
X141032981Y-92153500D01*
X141161019Y-92153500D01*
X141207437Y-92144267D01*
X141390309Y-92327139D01*
X141402052Y-92341448D01*
X141456339Y-92386000D01*
X141459153Y-92388309D01*
X141489293Y-92404419D01*
X141524300Y-92423131D01*
X141594987Y-92444574D01*
X141650081Y-92450000D01*
X141650083Y-92450000D01*
X141668499Y-92451814D01*
X141686915Y-92450000D01*
X142288130Y-92450000D01*
X142336302Y-92508698D01*
X142397100Y-92558593D01*
X142466464Y-92595669D01*
X142541728Y-92618500D01*
X142620000Y-92626209D01*
X144270000Y-92626209D01*
X144348272Y-92618500D01*
X144423536Y-92595669D01*
X144492900Y-92558593D01*
X144553698Y-92508698D01*
X144603593Y-92447900D01*
X144640669Y-92378536D01*
X144663500Y-92303272D01*
X144671209Y-92225000D01*
X144671209Y-91925000D01*
X144663500Y-91846728D01*
X144640669Y-91771464D01*
X144603593Y-91702100D01*
X144553698Y-91641302D01*
X144492900Y-91591407D01*
X144423536Y-91554331D01*
X144348272Y-91531500D01*
X144270000Y-91523791D01*
X142620000Y-91523791D01*
X142541728Y-91531500D01*
X142466464Y-91554331D01*
X142397100Y-91591407D01*
X142336302Y-91641302D01*
X142288130Y-91700000D01*
X141823830Y-91700000D01*
X141737767Y-91613937D01*
X141747000Y-91567519D01*
X141747000Y-91439481D01*
X141722021Y-91313902D01*
X141673022Y-91195610D01*
X141662592Y-91180000D01*
X142288130Y-91180000D01*
X142336302Y-91238698D01*
X142397100Y-91288593D01*
X142466464Y-91325669D01*
X142541728Y-91348500D01*
X142620000Y-91356209D01*
X144270000Y-91356209D01*
X144348272Y-91348500D01*
X144423536Y-91325669D01*
X144492900Y-91288593D01*
X144553698Y-91238698D01*
X144603593Y-91177900D01*
X144640669Y-91108536D01*
X144663500Y-91033272D01*
X144671209Y-90955000D01*
X144671209Y-90655000D01*
X144663500Y-90576728D01*
X144640669Y-90501464D01*
X144603593Y-90432100D01*
X144553698Y-90371302D01*
X144492900Y-90321407D01*
X144423536Y-90284331D01*
X144348272Y-90261500D01*
X144270000Y-90253791D01*
X142620000Y-90253791D01*
X142541728Y-90261500D01*
X142466464Y-90284331D01*
X142397100Y-90321407D01*
X142336302Y-90371302D01*
X142288130Y-90430000D01*
X141835910Y-90430000D01*
X141837000Y-90424519D01*
X141837000Y-90296481D01*
X141812021Y-90170902D01*
X141763022Y-90052610D01*
X141691888Y-89946149D01*
X141655739Y-89910000D01*
X142288130Y-89910000D01*
X142336302Y-89968698D01*
X142397100Y-90018593D01*
X142466464Y-90055669D01*
X142541728Y-90078500D01*
X142620000Y-90086209D01*
X144270000Y-90086209D01*
X144348272Y-90078500D01*
X144423536Y-90055669D01*
X144492900Y-90018593D01*
X144553698Y-89968698D01*
X144601870Y-89910000D01*
X145329669Y-89910000D01*
X145995308Y-90575640D01*
X146007051Y-90589949D01*
X146064152Y-90636810D01*
X146129299Y-90671632D01*
X146199986Y-90693075D01*
X146255080Y-90698501D01*
X146255083Y-90698501D01*
X146273499Y-90700315D01*
X146291915Y-90698501D01*
X147338583Y-90698501D01*
X147356999Y-90700315D01*
X147375415Y-90698501D01*
X147375418Y-90698501D01*
X147430512Y-90693075D01*
X147501199Y-90671632D01*
X147566346Y-90636810D01*
X147623447Y-90589949D01*
X147635194Y-90575635D01*
X151475830Y-86735000D01*
X153065584Y-86735000D01*
X153084000Y-86736814D01*
X153102416Y-86735000D01*
X153102419Y-86735000D01*
X153157513Y-86729574D01*
X153228200Y-86708131D01*
X153293347Y-86673309D01*
X153350448Y-86626448D01*
X153362195Y-86612134D01*
X155794448Y-84179882D01*
X155898810Y-84223110D01*
X156094327Y-84262000D01*
X156293673Y-84262000D01*
X156489190Y-84223110D01*
X156673362Y-84146823D01*
X156839113Y-84036072D01*
X156980072Y-83895113D01*
X157090823Y-83729362D01*
X157167110Y-83545190D01*
X157206000Y-83349673D01*
X157206000Y-83150327D01*
X157167110Y-82954810D01*
X157090823Y-82770638D01*
X156980072Y-82604887D01*
X156839113Y-82463928D01*
X156673362Y-82353177D01*
X156489190Y-82276890D01*
X156293673Y-82238000D01*
X156094327Y-82238000D01*
X155898810Y-82276890D01*
X155714638Y-82353177D01*
X155548887Y-82463928D01*
X155407928Y-82604887D01*
X155297177Y-82770638D01*
X155220890Y-82954810D01*
X155182000Y-83150327D01*
X155182000Y-83349673D01*
X155220890Y-83545190D01*
X155264118Y-83649552D01*
X152928671Y-85985000D01*
X151338916Y-85985000D01*
X151320500Y-85983186D01*
X151302084Y-85985000D01*
X151302081Y-85985000D01*
X151246987Y-85990426D01*
X151176300Y-86011869D01*
X151111153Y-86046691D01*
X151054052Y-86093552D01*
X151042310Y-86107860D01*
X147589000Y-89561171D01*
X147589000Y-89534481D01*
X147564021Y-89408902D01*
X147515022Y-89290610D01*
X147513241Y-89287944D01*
X147518073Y-89272014D01*
X147523499Y-89216920D01*
X147523499Y-89216918D01*
X147525313Y-89198502D01*
X147523499Y-89180086D01*
X147523499Y-89036330D01*
X148016641Y-88543189D01*
X148030948Y-88531448D01*
X148042695Y-88517134D01*
X150967830Y-85592000D01*
X151660584Y-85592000D01*
X151679000Y-85593814D01*
X151697416Y-85592000D01*
X151697419Y-85592000D01*
X151752513Y-85586574D01*
X151823200Y-85565131D01*
X151888347Y-85530309D01*
X151945448Y-85483448D01*
X151957195Y-85469134D01*
X153246448Y-84179882D01*
X153350810Y-84223110D01*
X153546327Y-84262000D01*
X153745673Y-84262000D01*
X153941190Y-84223110D01*
X154125362Y-84146823D01*
X154291113Y-84036072D01*
X154432072Y-83895113D01*
X154542823Y-83729362D01*
X154619110Y-83545190D01*
X154658000Y-83349673D01*
X154658000Y-83150327D01*
X154619110Y-82954810D01*
X154542823Y-82770638D01*
X154432072Y-82604887D01*
X154291113Y-82463928D01*
X154125362Y-82353177D01*
X153941190Y-82276890D01*
X153745673Y-82238000D01*
X153546327Y-82238000D01*
X153350810Y-82276890D01*
X153166638Y-82353177D01*
X153000887Y-82463928D01*
X152859928Y-82604887D01*
X152749177Y-82770638D01*
X152672890Y-82954810D01*
X152634000Y-83150327D01*
X152634000Y-83349673D01*
X152672890Y-83545190D01*
X152716118Y-83649552D01*
X151523671Y-84842000D01*
X150830916Y-84842000D01*
X150812500Y-84840186D01*
X150794084Y-84842000D01*
X150794081Y-84842000D01*
X150738987Y-84847426D01*
X150668300Y-84868869D01*
X150603153Y-84903691D01*
X150546052Y-84950552D01*
X150534310Y-84964860D01*
X147609171Y-87890000D01*
X144601870Y-87890000D01*
X144553698Y-87831302D01*
X144492900Y-87781407D01*
X144423536Y-87744331D01*
X144348272Y-87721500D01*
X144270000Y-87713791D01*
X142694448Y-87713791D01*
X142744888Y-87663351D01*
X142816022Y-87556890D01*
X142820446Y-87546209D01*
X144270000Y-87546209D01*
X144348272Y-87538500D01*
X144423536Y-87515669D01*
X144492900Y-87478593D01*
X144553698Y-87428698D01*
X144601870Y-87370000D01*
X147334584Y-87370000D01*
X147353000Y-87371814D01*
X147371416Y-87370000D01*
X147371419Y-87370000D01*
X147426513Y-87364574D01*
X147497200Y-87343131D01*
X147562347Y-87308309D01*
X147619448Y-87261448D01*
X147631195Y-87247134D01*
X150698448Y-84179882D01*
X150802810Y-84223110D01*
X150998327Y-84262000D01*
X151197673Y-84262000D01*
X151393190Y-84223110D01*
X151577362Y-84146823D01*
X151743113Y-84036072D01*
X151884072Y-83895113D01*
X151994823Y-83729362D01*
X152071110Y-83545190D01*
X152110000Y-83349673D01*
X152110000Y-83150327D01*
X152071110Y-82954810D01*
X151994823Y-82770638D01*
X151884072Y-82604887D01*
X151743113Y-82463928D01*
X151577362Y-82353177D01*
X151393190Y-82276890D01*
X151197673Y-82238000D01*
X150998327Y-82238000D01*
X150802810Y-82276890D01*
X150618638Y-82353177D01*
X150452887Y-82463928D01*
X150311928Y-82604887D01*
X150201177Y-82770638D01*
X150124890Y-82954810D01*
X150086000Y-83150327D01*
X150086000Y-83349673D01*
X150124890Y-83545190D01*
X150168118Y-83649552D01*
X147197671Y-86620000D01*
X144601870Y-86620000D01*
X144553698Y-86561302D01*
X144492900Y-86511407D01*
X144423536Y-86474331D01*
X144348272Y-86451500D01*
X144270000Y-86443791D01*
X142677469Y-86443791D01*
X142744888Y-86376372D01*
X142803906Y-86288044D01*
X142875000Y-86295046D01*
X142948513Y-86287806D01*
X142986743Y-86276209D01*
X144270000Y-86276209D01*
X144348272Y-86268500D01*
X144423536Y-86245669D01*
X144492900Y-86208593D01*
X144553698Y-86158698D01*
X144601870Y-86100000D01*
X146056584Y-86100000D01*
X146075000Y-86101814D01*
X146093416Y-86100000D01*
X146093419Y-86100000D01*
X146148513Y-86094574D01*
X146219200Y-86073131D01*
X146284347Y-86038309D01*
X146341448Y-85991448D01*
X146353195Y-85977134D01*
X148150448Y-84179882D01*
X148254810Y-84223110D01*
X148450327Y-84262000D01*
X148649673Y-84262000D01*
X148845190Y-84223110D01*
X149029362Y-84146823D01*
X149195113Y-84036072D01*
X149336072Y-83895113D01*
X149446823Y-83729362D01*
X149523110Y-83545190D01*
X149562000Y-83349673D01*
X149562000Y-83150327D01*
X149523110Y-82954810D01*
X149446823Y-82770638D01*
X149336072Y-82604887D01*
X149195113Y-82463928D01*
X149029362Y-82353177D01*
X148845190Y-82276890D01*
X148649673Y-82238000D01*
X148450327Y-82238000D01*
X148254810Y-82276890D01*
X148070638Y-82353177D01*
X147904887Y-82463928D01*
X147763928Y-82604887D01*
X147653177Y-82770638D01*
X147576890Y-82954810D01*
X147538000Y-83150327D01*
X147538000Y-83349673D01*
X147576890Y-83545190D01*
X147620118Y-83649552D01*
X145919671Y-85350000D01*
X144601870Y-85350000D01*
X144553698Y-85291302D01*
X144492900Y-85241407D01*
X144423536Y-85204331D01*
X144348272Y-85181500D01*
X144270000Y-85173791D01*
X142620000Y-85173791D01*
X142541728Y-85181500D01*
X142466464Y-85204331D01*
X142397100Y-85241407D01*
X142336302Y-85291302D01*
X142317154Y-85314634D01*
X142304019Y-85312021D01*
X142175981Y-85312021D01*
X142050402Y-85337000D01*
X141932110Y-85385999D01*
X141825649Y-85457133D01*
X141735112Y-85547670D01*
X141663978Y-85654131D01*
X141614979Y-85772423D01*
X141590000Y-85898002D01*
X141590000Y-86026040D01*
X141614979Y-86151619D01*
X141663978Y-86269911D01*
X141735112Y-86376372D01*
X141825649Y-86466909D01*
X141932110Y-86538043D01*
X142050402Y-86587042D01*
X142143250Y-86605511D01*
X142050402Y-86623979D01*
X141932110Y-86672978D01*
X141825649Y-86744112D01*
X141735112Y-86834649D01*
X141663978Y-86941110D01*
X141614979Y-87059402D01*
X141590000Y-87184981D01*
X141590000Y-87313019D01*
X141614979Y-87438598D01*
X141663978Y-87556890D01*
X141735112Y-87663351D01*
X141825649Y-87753888D01*
X141932110Y-87825022D01*
X142050402Y-87874021D01*
X142175981Y-87899000D01*
X142282719Y-87899000D01*
X142249331Y-87961464D01*
X142226500Y-88036728D01*
X142218791Y-88115000D01*
X142218791Y-88415000D01*
X142226500Y-88493272D01*
X142249331Y-88568536D01*
X142286407Y-88637900D01*
X142336302Y-88698698D01*
X142397100Y-88748593D01*
X142466464Y-88785669D01*
X142541728Y-88808500D01*
X142620000Y-88816209D01*
X144270000Y-88816209D01*
X144348272Y-88808500D01*
X144423536Y-88785669D01*
X144492900Y-88748593D01*
X144553698Y-88698698D01*
X144601870Y-88640000D01*
X146861168Y-88640000D01*
X146835190Y-88671655D01*
X146824130Y-88692347D01*
X146800368Y-88736801D01*
X146778925Y-88807488D01*
X146774702Y-88850371D01*
X146771685Y-88881001D01*
X146773499Y-88899417D01*
X146773499Y-88968686D01*
X146749402Y-88973479D01*
X146631110Y-89022478D01*
X146524649Y-89093612D01*
X146434112Y-89184149D01*
X146362978Y-89290610D01*
X146313979Y-89408902D01*
X146289000Y-89534481D01*
X146289000Y-89662519D01*
X146313979Y-89788098D01*
X146346191Y-89865863D01*
X145763193Y-89282866D01*
X145751446Y-89268552D01*
X145694345Y-89221691D01*
X145629198Y-89186869D01*
X145558511Y-89165426D01*
X145503417Y-89160000D01*
X145503414Y-89160000D01*
X145484998Y-89158186D01*
X145466582Y-89160000D01*
X144601870Y-89160000D01*
X144553698Y-89101302D01*
X144492900Y-89051407D01*
X144423536Y-89014331D01*
X144348272Y-88991500D01*
X144270000Y-88983791D01*
X142620000Y-88983791D01*
X142541728Y-88991500D01*
X142466464Y-89014331D01*
X142397100Y-89051407D01*
X142336302Y-89101302D01*
X142288130Y-89160000D01*
X140957914Y-89160000D01*
X140939498Y-89158186D01*
X140921082Y-89160000D01*
X140921079Y-89160000D01*
X140865985Y-89165426D01*
X140795298Y-89186869D01*
X140781377Y-89194310D01*
X140730151Y-89221690D01*
X140710452Y-89237857D01*
X140673050Y-89268552D01*
X140661307Y-89282861D01*
X140209865Y-89734304D01*
X140195551Y-89746051D01*
X140148690Y-89803153D01*
X140113868Y-89868300D01*
X140092425Y-89938987D01*
X140087310Y-89990927D01*
X140085185Y-90012499D01*
X140086999Y-90030915D01*
X140086999Y-90336260D01*
X140050851Y-90300112D01*
X139944390Y-90228978D01*
X139826098Y-90179979D01*
X139700519Y-90155000D01*
X139572481Y-90155000D01*
X139446902Y-90179979D01*
X139328610Y-90228978D01*
X139291474Y-90253791D01*
X137670000Y-90253791D01*
X137591728Y-90261500D01*
X137516464Y-90284331D01*
X137447100Y-90321407D01*
X137386302Y-90371302D01*
X137336407Y-90432100D01*
X137299331Y-90501464D01*
X137276500Y-90576728D01*
X137268791Y-90655000D01*
X135176000Y-90655000D01*
X135176000Y-89695830D01*
X135340000Y-89695830D01*
X135340000Y-89804170D01*
X135361136Y-89910429D01*
X135402597Y-90010523D01*
X135462787Y-90100604D01*
X135539396Y-90177213D01*
X135629477Y-90237403D01*
X135729571Y-90278864D01*
X135835830Y-90300000D01*
X135944170Y-90300000D01*
X136050429Y-90278864D01*
X136150523Y-90237403D01*
X136240604Y-90177213D01*
X136317213Y-90100604D01*
X136377403Y-90010523D01*
X136418864Y-89910429D01*
X136433867Y-89835000D01*
X137268790Y-89835000D01*
X137273617Y-89884009D01*
X137287912Y-89931134D01*
X137311127Y-89974565D01*
X137342368Y-90012632D01*
X137380435Y-90043873D01*
X137423866Y-90067088D01*
X137470991Y-90081383D01*
X137520000Y-90086210D01*
X138332500Y-90085000D01*
X138395000Y-90022500D01*
X138395000Y-89635000D01*
X138595000Y-89635000D01*
X138595000Y-90022500D01*
X138657500Y-90085000D01*
X139470000Y-90086210D01*
X139519009Y-90081383D01*
X139566134Y-90067088D01*
X139609565Y-90043873D01*
X139647632Y-90012632D01*
X139678873Y-89974565D01*
X139702088Y-89931134D01*
X139716383Y-89884009D01*
X139721210Y-89835000D01*
X139720000Y-89697500D01*
X139657500Y-89635000D01*
X138595000Y-89635000D01*
X138395000Y-89635000D01*
X137332500Y-89635000D01*
X137270000Y-89697500D01*
X137268790Y-89835000D01*
X136433867Y-89835000D01*
X136440000Y-89804170D01*
X136440000Y-89695830D01*
X136418864Y-89589571D01*
X136377403Y-89489477D01*
X136317213Y-89399396D01*
X136240604Y-89322787D01*
X136150523Y-89262597D01*
X136083900Y-89235000D01*
X137268790Y-89235000D01*
X137270000Y-89372500D01*
X137332500Y-89435000D01*
X138395000Y-89435000D01*
X138395000Y-89047500D01*
X138595000Y-89047500D01*
X138595000Y-89435000D01*
X139657500Y-89435000D01*
X139720000Y-89372500D01*
X139721210Y-89235000D01*
X139716383Y-89185991D01*
X139702088Y-89138866D01*
X139678873Y-89095435D01*
X139647632Y-89057368D01*
X139609565Y-89026127D01*
X139566134Y-89002912D01*
X139519009Y-88988617D01*
X139470000Y-88983790D01*
X138657500Y-88985000D01*
X138595000Y-89047500D01*
X138395000Y-89047500D01*
X138332500Y-88985000D01*
X137520000Y-88983790D01*
X137470991Y-88988617D01*
X137423866Y-89002912D01*
X137380435Y-89026127D01*
X137342368Y-89057368D01*
X137311127Y-89095435D01*
X137287912Y-89138866D01*
X137273617Y-89185991D01*
X137268790Y-89235000D01*
X136083900Y-89235000D01*
X136050429Y-89221136D01*
X135944170Y-89200000D01*
X135835830Y-89200000D01*
X135729571Y-89221136D01*
X135629477Y-89262597D01*
X135539396Y-89322787D01*
X135462787Y-89399396D01*
X135402597Y-89489477D01*
X135361136Y-89589571D01*
X135340000Y-89695830D01*
X135176000Y-89695830D01*
X135176000Y-87995830D01*
X135340000Y-87995830D01*
X135340000Y-88104170D01*
X135361136Y-88210429D01*
X135402597Y-88310523D01*
X135462787Y-88400604D01*
X135539396Y-88477213D01*
X135629477Y-88537403D01*
X135729571Y-88578864D01*
X135835830Y-88600000D01*
X135944170Y-88600000D01*
X136050429Y-88578864D01*
X136150523Y-88537403D01*
X136240604Y-88477213D01*
X136317213Y-88400604D01*
X136377403Y-88310523D01*
X136418864Y-88210429D01*
X136440000Y-88104170D01*
X136440000Y-87995830D01*
X136418864Y-87889571D01*
X136377403Y-87789477D01*
X136317213Y-87699396D01*
X136240604Y-87622787D01*
X136150523Y-87562597D01*
X136050429Y-87521136D01*
X135944170Y-87500000D01*
X135835830Y-87500000D01*
X135729571Y-87521136D01*
X135629477Y-87562597D01*
X135539396Y-87622787D01*
X135462787Y-87699396D01*
X135402597Y-87789477D01*
X135361136Y-87889571D01*
X135340000Y-87995830D01*
X135176000Y-87995830D01*
X135176000Y-85575000D01*
X137268791Y-85575000D01*
X137268791Y-85875000D01*
X137276500Y-85953272D01*
X137299331Y-86028536D01*
X137336407Y-86097900D01*
X137386302Y-86158698D01*
X137447100Y-86208593D01*
X137516464Y-86245669D01*
X137591728Y-86268500D01*
X137670000Y-86276209D01*
X139291474Y-86276209D01*
X139328610Y-86301022D01*
X139446902Y-86350021D01*
X139497070Y-86360000D01*
X139446902Y-86369979D01*
X139328610Y-86418978D01*
X139291474Y-86443791D01*
X137670000Y-86443791D01*
X137591728Y-86451500D01*
X137516464Y-86474331D01*
X137447100Y-86511407D01*
X137386302Y-86561302D01*
X137336407Y-86622100D01*
X137299331Y-86691464D01*
X137276500Y-86766728D01*
X137268791Y-86845000D01*
X137268791Y-87145000D01*
X137276500Y-87223272D01*
X137299331Y-87298536D01*
X137336407Y-87367900D01*
X137386302Y-87428698D01*
X137447100Y-87478593D01*
X137516464Y-87515669D01*
X137591728Y-87538500D01*
X137670000Y-87546209D01*
X139291474Y-87546209D01*
X139328610Y-87571022D01*
X139446902Y-87620021D01*
X139497070Y-87630000D01*
X139446902Y-87639979D01*
X139328610Y-87688978D01*
X139291474Y-87713791D01*
X137670000Y-87713791D01*
X137591728Y-87721500D01*
X137516464Y-87744331D01*
X137447100Y-87781407D01*
X137386302Y-87831302D01*
X137336407Y-87892100D01*
X137299331Y-87961464D01*
X137276500Y-88036728D01*
X137268791Y-88115000D01*
X137268791Y-88415000D01*
X137276500Y-88493272D01*
X137299331Y-88568536D01*
X137336407Y-88637900D01*
X137386302Y-88698698D01*
X137447100Y-88748593D01*
X137516464Y-88785669D01*
X137591728Y-88808500D01*
X137670000Y-88816209D01*
X139291474Y-88816209D01*
X139328610Y-88841022D01*
X139446902Y-88890021D01*
X139572481Y-88915000D01*
X139700519Y-88915000D01*
X139826098Y-88890021D01*
X139944390Y-88841022D01*
X140050851Y-88769888D01*
X140141388Y-88679351D01*
X140212522Y-88572890D01*
X140261521Y-88454598D01*
X140286500Y-88329019D01*
X140286500Y-88200981D01*
X140261521Y-88075402D01*
X140212522Y-87957110D01*
X140141388Y-87850649D01*
X140050851Y-87760112D01*
X139944390Y-87688978D01*
X139826098Y-87639979D01*
X139775930Y-87630000D01*
X139826098Y-87620021D01*
X139944390Y-87571022D01*
X140050851Y-87499888D01*
X140141388Y-87409351D01*
X140212522Y-87302890D01*
X140261521Y-87184598D01*
X140286500Y-87059019D01*
X140286500Y-86930981D01*
X140261521Y-86805402D01*
X140212522Y-86687110D01*
X140141388Y-86580649D01*
X140050851Y-86490112D01*
X139944390Y-86418978D01*
X139826098Y-86369979D01*
X139775930Y-86360000D01*
X139826098Y-86350021D01*
X139944390Y-86301022D01*
X140050851Y-86229888D01*
X140141388Y-86139351D01*
X140212522Y-86032890D01*
X140261521Y-85914598D01*
X140286500Y-85789019D01*
X140286500Y-85660981D01*
X140261521Y-85535402D01*
X140212522Y-85417110D01*
X140141388Y-85310649D01*
X140050851Y-85220112D01*
X139944390Y-85148978D01*
X139826098Y-85099979D01*
X139700519Y-85075000D01*
X139572481Y-85075000D01*
X139446902Y-85099979D01*
X139328610Y-85148978D01*
X139291474Y-85173791D01*
X137670000Y-85173791D01*
X137591728Y-85181500D01*
X137516464Y-85204331D01*
X137447100Y-85241407D01*
X137386302Y-85291302D01*
X137336407Y-85352100D01*
X137299331Y-85421464D01*
X137276500Y-85496728D01*
X137268791Y-85575000D01*
X135176000Y-85575000D01*
X135176000Y-84305000D01*
X137268791Y-84305000D01*
X137268791Y-84605000D01*
X137276500Y-84683272D01*
X137299331Y-84758536D01*
X137336407Y-84827900D01*
X137386302Y-84888698D01*
X137447100Y-84938593D01*
X137516464Y-84975669D01*
X137591728Y-84998500D01*
X137670000Y-85006209D01*
X139320000Y-85006209D01*
X139398272Y-84998500D01*
X139473536Y-84975669D01*
X139542900Y-84938593D01*
X139603698Y-84888698D01*
X139653593Y-84827900D01*
X139690669Y-84758536D01*
X139691741Y-84755000D01*
X142218790Y-84755000D01*
X142223617Y-84804009D01*
X142237912Y-84851134D01*
X142261127Y-84894565D01*
X142292368Y-84932632D01*
X142330435Y-84963873D01*
X142373866Y-84987088D01*
X142420991Y-85001383D01*
X142470000Y-85006210D01*
X143282500Y-85005000D01*
X143345000Y-84942500D01*
X143345000Y-84555000D01*
X143545000Y-84555000D01*
X143545000Y-84942500D01*
X143607500Y-85005000D01*
X144420000Y-85006210D01*
X144469009Y-85001383D01*
X144516134Y-84987088D01*
X144559565Y-84963873D01*
X144597632Y-84932632D01*
X144628873Y-84894565D01*
X144652088Y-84851134D01*
X144666383Y-84804009D01*
X144671210Y-84755000D01*
X144670000Y-84617500D01*
X144607500Y-84555000D01*
X143545000Y-84555000D01*
X143345000Y-84555000D01*
X142282500Y-84555000D01*
X142220000Y-84617500D01*
X142218790Y-84755000D01*
X139691741Y-84755000D01*
X139713500Y-84683272D01*
X139721209Y-84605000D01*
X139721209Y-84305000D01*
X139713500Y-84226728D01*
X139691742Y-84155000D01*
X142218790Y-84155000D01*
X142220000Y-84292500D01*
X142282500Y-84355000D01*
X143345000Y-84355000D01*
X143345000Y-83967500D01*
X143545000Y-83967500D01*
X143545000Y-84355000D01*
X144607500Y-84355000D01*
X144670000Y-84292500D01*
X144671210Y-84155000D01*
X144666383Y-84105991D01*
X144652088Y-84058866D01*
X144628873Y-84015435D01*
X144597632Y-83977368D01*
X144559565Y-83946127D01*
X144516134Y-83922912D01*
X144469009Y-83908617D01*
X144420000Y-83903790D01*
X143607500Y-83905000D01*
X143545000Y-83967500D01*
X143345000Y-83967500D01*
X143282500Y-83905000D01*
X142470000Y-83903790D01*
X142420991Y-83908617D01*
X142373866Y-83922912D01*
X142330435Y-83946127D01*
X142292368Y-83977368D01*
X142261127Y-84015435D01*
X142237912Y-84058866D01*
X142223617Y-84105991D01*
X142218790Y-84155000D01*
X139691742Y-84155000D01*
X139690669Y-84151464D01*
X139653593Y-84082100D01*
X139603698Y-84021302D01*
X139542900Y-83971407D01*
X139473536Y-83934331D01*
X139398272Y-83911500D01*
X139320000Y-83903791D01*
X137670000Y-83903791D01*
X137591728Y-83911500D01*
X137516464Y-83934331D01*
X137447100Y-83971407D01*
X137386302Y-84021302D01*
X137336407Y-84082100D01*
X137299331Y-84151464D01*
X137276500Y-84226728D01*
X137268791Y-84305000D01*
X135176000Y-84305000D01*
X135176000Y-82090000D01*
X163655000Y-82090000D01*
X163655001Y-95710000D01*
M02*
